<svg width="575" height="49" viewBox="0 0 575 49" fill="none" xmlns="http://www.w3.org/2000/svg">
<path d="M6.43998 8.96005V9.12005C6.59998 16.48 22.6399 16.8 22.9199 27.56V27.8C22.9199 34.68 16.44 36.96 11.68 37.04H11.2C3.71999 37.04 0.16 32.6 0.0799998 28.92V28.72C0.0799998 25.88 1.6 24.36 3.75999 24.32H3.87999C5.71999 24.32 7.39998 25.28 7.43998 27.8V28C7.43998 30.12 6.19998 31.24 4.19999 31.32C5.07999 33.48 7.27998 35.2 10.2 35.2H10.4C12.72 35.12 16 33.88 16 29.76V29.52C15.8 20.52 0.519999 22.24 0.239999 11.08V10.88C0.239999 5.12006 5.31999 2.24007 10.48 2.12007H10.92C18.68 2.12007 22.1599 7.44005 22.2399 10.52V10.72C22.2399 13.6 20.5999 14.76 18.48 14.8H18.36C16.48 14.8 14.92 13.84 14.84 11.32V11.2C14.84 9.12005 15.92 7.92005 18.04 7.92005H18.36C17.08 5.12006 14.24 4.00006 11.76 4.00006H11.64C8.47998 4.08006 6.43998 6.04006 6.43998 8.96005ZM39.4527 33.32C43.0127 33.32 44.9327 30.92 45.6527 29.68C45.9727 30 46.1327 30.44 46.1327 30.92C46.1327 31.4 45.9727 31.96 45.6127 32.48C43.3727 35.92 39.8927 37.08 37.2127 37.08C30.2127 37.08 26.1327 31.64 26.1327 24.96C26.1327 18.36 29.9327 12.88 36.8927 12.8C40.4127 12.8 46.9727 14.68 46.9727 24.92H33.0527C33.1727 31.64 36.4127 33.32 39.4527 33.32ZM37.0127 14.88C34.5727 14.88 33.2927 18.44 33.0927 22.88H40.4127C40.1727 17.88 39.0927 14.88 37.0127 14.88ZM63.413 20.76L70.4129 33.68C70.8529 34.44 71.6129 34.92 72.4929 34.92C72.4929 36.08 71.5729 37 70.4129 37H63.933C62.773 37 61.853 36.08 61.853 34.92C62.413 34.92 62.813 34.48 62.813 34C62.813 33.84 62.773 33.68 62.693 33.56L58.733 26.04L58.013 26.92V33.28C58.013 33.72 58.173 34.16 58.493 34.44C58.773 34.76 59.173 34.92 59.653 34.92C59.653 36.08 58.733 37 57.573 37H51.533C50.933 37 50.413 36.76 50.053 36.4C49.693 36 49.453 35.52 49.453 34.92C50.373 34.92 51.093 34.2 51.093 33.28V4.52006C51.093 4.08006 50.933 3.68006 50.613 3.36006C50.333 3.08007 49.893 2.88006 49.453 2.88006C49.453 1.72007 50.373 0.800071 51.533 0.800071H56.613C57.373 0.800071 58.013 1.44007 58.013 2.20007V23.76L64.573 16.32C64.733 16.16 64.773 15.96 64.773 15.76C64.773 15.32 64.453 14.92 63.973 14.92C63.973 13.8 64.893 12.88 66.053 12.88H68.333C69.4929 12.88 70.4129 13.8 70.4129 14.92C69.2529 14.92 68.173 15.44 67.373 16.28L63.413 20.76ZM93.6538 17.8C93.6538 21.04 91.9738 21.96 90.2138 21.96C88.7738 21.96 86.8938 21.24 86.8938 18.68C86.8938 17.04 87.7338 16.12 88.7338 15.84C88.3338 15.4 87.7738 15.28 87.3338 15.28C84.1738 15.28 82.9339 20.48 82.9339 23.44V33.28C82.9339 33.72 83.1338 34.16 83.4538 34.44C83.7338 34.76 84.1338 34.92 84.6138 34.92C84.6138 36.08 83.6938 37 82.5339 37H76.4539C75.8939 37 75.3739 36.76 75.0139 36.4C74.6139 36 74.4139 35.52 74.4139 34.92C75.3339 34.92 76.0539 34.2 76.0539 33.28V16.6C76.0539 16.12 75.8539 15.72 75.5739 15.44C75.2539 15.12 74.8539 14.92 74.4139 14.92C74.4139 13.8 75.3339 12.88 76.4539 12.88H81.5739C82.3339 12.88 82.9339 13.48 82.9339 14.24V17.2C84.1738 14.12 86.4938 12.64 88.7738 12.64C92.0938 12.64 93.6538 15.44 93.6538 17.8ZM108.867 33.32C112.427 33.32 114.347 30.92 115.067 29.68C115.387 30 115.547 30.44 115.547 30.92C115.547 31.4 115.387 31.96 115.027 32.48C112.787 35.92 109.307 37.08 106.627 37.08C99.6266 37.08 95.5466 31.64 95.5466 24.96C95.5466 18.36 99.3466 12.88 106.307 12.8C109.827 12.8 116.387 14.68 116.387 24.92H102.467C102.587 31.64 105.827 33.32 108.867 33.32ZM106.427 14.88C103.987 14.88 102.707 18.44 102.507 22.88H109.827C109.587 17.88 108.507 14.88 106.427 14.88ZM128.514 14.96V30.6C128.514 31.8 128.954 33.16 130.354 33.16C131.474 33.16 132.514 32.2 132.914 30.76C132.914 30.76 132.914 30.8 132.954 30.84C133.354 31.2 133.554 31.76 133.554 32.32C133.554 32.68 133.474 33.04 133.314 33.36C131.914 36.16 129.194 37.04 127.474 37.04C121.714 37.04 121.634 32 121.634 30.44V14.96H116.914V12.88C125.114 12.52 126.274 3.92006 126.274 3.92006H128.514V12.88H133.954V14.96H128.514ZM157.071 34.44C157.391 34.76 157.791 34.92 158.231 34.92C158.231 36.08 157.311 37 156.191 37H151.071C150.311 37 149.711 36.36 149.711 35.6V34.88C148.391 36.2 146.391 37.04 143.791 37.04C138.391 37.04 135.351 32.56 135.351 26.24C135.351 18.44 139.991 12.84 146.791 12.84C150.511 12.84 153.591 14.64 153.591 14.64L154.031 14.08C154.631 13.32 155.511 12.88 156.471 12.88H156.591V33.28C156.591 33.72 156.791 34.16 157.071 34.44ZM149.711 31.32V17.96C149.071 16.04 147.991 14.84 146.351 14.84C143.151 14.84 142.231 19.36 142.231 24.88C142.231 30.4 143.031 34.96 146.231 34.96C147.711 34.96 149.151 33.88 149.711 31.32ZM181.349 17.8C181.349 21.04 179.669 21.96 177.909 21.96C176.469 21.96 174.589 21.24 174.589 18.68C174.589 17.04 175.429 16.12 176.429 15.84C176.029 15.4 175.469 15.28 175.029 15.28C171.869 15.28 170.629 20.48 170.629 23.44V33.28C170.629 33.72 170.829 34.16 171.149 34.44C171.429 34.76 171.829 34.92 172.309 34.92C172.309 36.08 171.389 37 170.229 37H164.149C163.589 37 163.069 36.76 162.709 36.4C162.309 36 162.109 35.52 162.109 34.92C163.029 34.92 163.749 34.2 163.749 33.28V16.6C163.749 16.12 163.549 15.72 163.269 15.44C162.949 15.12 162.549 14.92 162.109 14.92C162.109 13.8 163.029 12.88 164.149 12.88H169.269C170.029 12.88 170.629 13.48 170.629 14.24V17.2C171.869 14.12 174.189 12.64 176.469 12.64C179.789 12.64 181.349 15.44 181.349 17.8ZM192.946 34.44C193.226 34.76 193.666 34.92 194.106 34.92C194.106 36.08 193.186 37 192.026 37H185.986C185.386 37 184.906 36.76 184.506 36.4C184.146 36 183.906 35.52 183.906 34.92C184.826 34.92 185.546 34.2 185.546 33.28V16.6C185.546 16.12 185.386 15.72 185.066 15.44C184.786 15.12 184.346 14.92 183.906 14.92C183.906 13.8 184.826 12.88 185.986 12.88H191.066C191.826 12.88 192.466 13.48 192.466 14.24V33.28C192.466 33.72 192.626 34.16 192.946 34.44ZM189.026 10.4C186.826 10.4 185.026 8.64005 185.026 6.44006C185.026 4.28006 186.826 2.48007 189.026 2.48007C191.186 2.48007 192.986 4.28006 192.986 6.44006C192.986 8.64005 191.186 10.4 189.026 10.4ZM218.868 34.44C219.188 34.76 219.588 34.92 220.028 34.92C220.028 36.08 219.108 37 217.988 37H212.868C212.108 37 211.508 36.36 211.508 35.6V34.88C210.188 36.2 208.188 37.04 205.588 37.04C200.188 37.04 197.148 32.56 197.148 26.24C197.148 18.44 201.788 12.84 208.588 12.84C212.308 12.84 215.388 14.64 215.388 14.64L215.828 14.08C216.428 13.32 217.308 12.88 218.268 12.88H218.388V33.28C218.388 33.72 218.588 34.16 218.868 34.44ZM211.508 31.32V17.96C210.868 16.04 209.788 14.84 208.148 14.84C204.948 14.84 204.028 19.36 204.028 24.88C204.028 30.4 204.828 34.96 208.028 34.96C209.508 34.96 210.948 33.88 211.508 31.32ZM232.928 14.96V30.6C232.928 31.8 233.368 33.16 234.768 33.16C235.888 33.16 236.928 32.2 237.328 30.76C237.328 30.76 237.328 30.8 237.368 30.84C237.768 31.2 237.968 31.76 237.968 32.32C237.968 32.68 237.888 33.04 237.728 33.36C236.328 36.16 233.608 37.04 231.888 37.04C226.128 37.04 226.048 32 226.048 30.44V14.96H221.328V12.88C229.528 12.52 230.688 3.92006 230.688 3.92006H232.928V12.88H238.368V14.96H232.928ZM278.714 30.12C279.194 30.44 279.474 30.96 279.474 31.52C279.474 31.68 279.434 31.8 279.394 31.96C278.474 35.6 276.154 37 273.714 37C264.914 37 267.194 22 262.114 22V33.28C262.114 34.2 262.834 34.92 263.754 34.92C263.754 36.08 262.834 37 261.674 37H255.634C254.474 37 253.554 36.08 253.554 34.92C254.474 34.92 255.194 34.2 255.194 33.28V5.92006C255.194 5.00006 254.474 4.28006 253.554 4.28006C253.554 3.12007 254.474 2.20007 255.634 2.20007H267.994C275.314 2.20007 278.594 6.64006 278.594 12.12C278.594 17.48 274.514 21.84 268.314 22C272.234 25.28 272.554 31.32 276.434 31.32C277.634 31.32 278.474 30.52 278.714 30.12ZM262.114 5.92006V19.96H263.874C269.114 19.96 271.714 16.44 271.714 12.12C271.714 7.76005 269.114 4.28006 263.874 4.28006H263.754C262.834 4.28006 262.114 5.00006 262.114 5.92006ZM298.866 5.64006L305.906 33.36C306.186 34.28 307.026 34.92 307.986 34.92C307.986 36.08 307.066 37 305.906 37H299.426C298.266 37 297.346 36.08 297.346 34.92C298.186 34.92 298.786 34.28 298.786 33.48C298.786 33.36 298.786 33.2 298.746 33.08L296.946 26.12H286.866L284.826 33.36C284.786 33.48 284.786 33.6 284.786 33.72C284.786 34.36 285.306 34.92 285.986 34.92C285.986 36.08 285.066 37 283.946 37H282.626C281.506 37 280.546 36.08 280.546 34.92C281.546 34.92 282.386 34.28 282.666 33.36L290.386 5.88006C290.426 5.76006 290.426 5.68006 290.426 5.56006C290.426 4.88006 289.866 4.28006 289.146 4.28006C289.146 3.12007 290.066 2.20007 291.226 2.20007H297.866C299.026 2.20007 299.946 3.12007 299.946 4.28006C299.346 4.28006 298.826 4.80006 298.826 5.36006C298.826 5.44006 298.826 5.56006 298.866 5.64006ZM287.426 24.04H296.426L292.106 7.48005L287.426 24.04ZM323.236 2.20007H329.316C330.436 2.20007 331.396 3.12007 331.396 4.28006C330.476 4.28006 329.716 5.00006 329.716 5.92006V27.24C329.716 32.32 325.716 37 318.876 37C311.116 37 308.476 30.84 308.476 27.6C308.476 24.44 310.076 22.84 312.276 22.84C314.156 22.84 315.876 23.84 315.876 26.4C315.876 28.64 314.596 29.8 312.556 29.84C312.836 32.72 314.836 34.92 317.956 34.92C319.556 34.92 322.836 34.24 322.836 28.92V5.92006C322.836 5.48006 322.636 5.04006 322.356 4.76006C322.036 4.44006 321.636 4.28006 321.156 4.28006C321.156 3.12007 322.116 2.20007 323.236 2.20007ZM348.866 5.64006L355.906 33.36C356.186 34.28 357.026 34.92 357.986 34.92C357.986 36.08 357.066 37 355.906 37H349.426C348.266 37 347.346 36.08 347.346 34.92C348.186 34.92 348.786 34.28 348.786 33.48C348.786 33.36 348.786 33.2 348.746 33.08L346.946 26.12H336.866L334.826 33.36C334.786 33.48 334.786 33.6 334.786 33.72C334.786 34.36 335.306 34.92 335.986 34.92C335.986 36.08 335.066 37 333.946 37H332.626C331.506 37 330.546 36.08 330.546 34.92C331.546 34.92 332.386 34.28 332.666 33.36L340.386 5.88006C340.426 5.76006 340.426 5.68006 340.426 5.56006C340.426 4.88006 339.866 4.28006 339.146 4.28006C339.146 3.12007 340.066 2.20007 341.226 2.20007H347.866C349.026 2.20007 349.946 3.12007 349.946 4.28006C349.346 4.28006 348.826 4.80006 348.826 5.36006C348.826 5.44006 348.826 5.56006 348.866 5.64006ZM337.426 24.04H346.426L342.106 7.48005L337.426 24.04ZM391.123 18C395.883 19.48 398.243 23.04 398.243 27.08C398.243 32.56 394.923 37 387.643 37H375.243C374.123 37 373.163 36.08 373.163 34.92C374.083 34.92 374.843 34.2 374.843 33.28V5.92006C374.843 5.00006 374.083 4.28006 373.163 4.28006C373.163 3.12007 374.123 2.20007 375.243 2.20007H387.123C393.683 2.20007 396.323 6.12006 396.323 10.6C396.323 14.16 393.963 17.28 391.123 18ZM389.443 10.72C389.443 7.20006 387.603 4.44006 383.243 4.28006C382.403 4.36006 381.723 5.04006 381.723 5.92006V17.2H382.963C387.483 17.2 389.443 14.28 389.443 10.72ZM391.323 27.08C391.323 22.76 388.723 19.24 383.483 19.24H381.723V33.28C381.723 34.2 382.483 34.92 383.363 34.92H383.483C388.723 34.92 391.323 31.44 391.323 27.08ZM420.411 17.8C420.411 21.04 418.731 21.96 416.971 21.96C415.531 21.96 413.651 21.24 413.651 18.68C413.651 17.04 414.491 16.12 415.491 15.84C415.091 15.4 414.531 15.28 414.091 15.28C410.931 15.28 409.691 20.48 409.691 23.44V33.28C409.691 33.72 409.891 34.16 410.211 34.44C410.491 34.76 410.891 34.92 411.371 34.92C411.371 36.08 410.451 37 409.291 37H403.211C402.651 37 402.131 36.76 401.771 36.4C401.371 36 401.171 35.52 401.171 34.92C402.091 34.92 402.811 34.2 402.811 33.28V16.6C402.811 16.12 402.611 15.72 402.331 15.44C402.011 15.12 401.611 14.92 401.171 14.92C401.171 13.8 402.091 12.88 403.211 12.88H408.331C409.091 12.88 409.691 13.48 409.691 14.24V17.2C410.931 14.12 413.251 12.64 415.531 12.64C418.851 12.64 420.411 15.44 420.411 17.8ZM443.672 34.44C443.992 34.76 444.392 34.92 444.832 34.92C444.832 36.08 443.912 37 442.792 37H437.672C436.912 37 436.312 36.36 436.312 35.6V34.88C434.992 36.2 432.992 37.04 430.392 37.04C424.992 37.04 421.952 32.56 421.952 26.24C421.952 18.44 426.592 12.84 433.392 12.84C437.112 12.84 440.192 14.64 440.192 14.64L440.632 14.08C441.232 13.32 442.112 12.88 443.072 12.88H443.192V33.28C443.192 33.72 443.392 34.16 443.672 34.44ZM436.312 31.32V17.96C435.672 16.04 434.592 14.84 432.952 14.84C429.752 14.84 428.832 19.36 428.832 24.88C428.832 30.4 429.632 34.96 432.832 34.96C434.312 34.96 435.752 33.88 436.312 31.32ZM475.901 12.88H477.141C478.261 12.88 479.181 13.8 479.181 14.96C478.301 14.96 477.501 15.52 477.181 16.32L469.181 37H467.501L462.381 23.88L457.301 37H455.661L447.501 16.16C447.221 15.44 446.541 14.96 445.741 14.96C445.741 13.8 446.701 12.88 447.821 12.88H453.901C455.021 12.88 455.941 13.8 455.941 14.96C455.341 14.96 454.901 15.44 454.901 16C454.901 16.12 454.941 16.24 454.981 16.36L459.061 26.76L461.261 21.04L459.381 16.16C459.101 15.44 458.421 14.96 457.621 14.96C457.621 13.8 458.541 12.88 459.701 12.88H465.741C466.901 12.88 467.821 13.8 467.821 14.96C467.221 14.96 466.781 15.44 466.781 15.96C466.781 16.12 466.821 16.24 466.861 16.36L470.941 26.76L474.901 16.52C474.941 16.4 474.981 16.24 474.981 16.12C474.981 15.52 474.461 14.96 473.821 14.96C473.821 13.8 474.741 12.88 475.901 12.88ZM490.093 34.44C490.373 34.76 490.813 34.92 491.253 34.92C491.253 36.08 490.333 37 489.173 37H483.133C482.533 37 482.053 36.76 481.653 36.4C481.293 36 481.053 35.52 481.053 34.92C481.973 34.92 482.693 34.2 482.693 33.28V16.6C482.693 16.12 482.533 15.72 482.213 15.44C481.933 15.12 481.493 14.92 481.053 14.92C481.053 13.8 481.973 12.88 483.133 12.88H488.213C488.973 12.88 489.613 13.48 489.613 14.24V33.28C489.613 33.72 489.773 34.16 490.093 34.44ZM486.173 10.4C483.973 10.4 482.173 8.64005 482.173 6.44006C482.173 4.28006 483.973 2.48007 486.173 2.48007C488.333 2.48007 490.133 4.28006 490.133 6.44006C490.133 8.64005 488.333 10.4 486.173 10.4ZM495.292 12.88H500.412C501.172 12.88 501.772 13.48 501.772 14.24V33.88C501.772 41.84 497.212 44.6 495.092 45.36C494.572 45.56 493.892 45.68 493.252 45.68C492.332 45.68 491.492 45.44 491.132 44.72C491.092 44.72 491.092 44.72 491.092 44.68C494.612 42.04 494.892 38.4 494.892 37.04V16.6C494.892 16.12 494.692 15.72 494.412 15.44C494.092 15.12 493.692 14.92 493.212 14.92C493.212 13.8 494.172 12.88 495.292 12.88ZM498.332 10.4C496.132 10.4 494.372 8.64005 494.372 6.44006C494.372 4.28006 496.132 2.48007 498.332 2.48007C500.532 2.48007 502.292 4.28006 502.292 6.44006C502.292 8.64005 500.532 10.4 498.332 10.4ZM528.086 34.44C528.406 34.76 528.806 34.92 529.246 34.92C529.246 36.08 528.326 37 527.206 37H522.086C521.326 37 520.726 36.36 520.726 35.6V34.88C519.406 36.2 517.406 37.04 514.806 37.04C509.406 37.04 506.366 32.56 506.366 26.24C506.366 18.44 511.006 12.84 517.806 12.84C521.526 12.84 524.606 14.64 524.606 14.64L525.046 14.08C525.646 13.32 526.526 12.88 527.486 12.88H527.606V33.28C527.606 33.72 527.806 34.16 528.086 34.44ZM520.726 31.32V17.96C520.086 16.04 519.006 14.84 517.366 14.84C514.166 14.84 513.246 19.36 513.246 24.88C513.246 30.4 514.046 34.96 517.246 34.96C518.726 34.96 520.166 33.88 520.726 31.32ZM548.404 12.88H549.644C550.764 12.88 551.684 13.8 551.684 14.96C550.804 14.96 550.004 15.52 549.684 16.32L542.244 35.56C540.724 39.52 538.044 48.28 532.804 48.28C531.364 48.28 529.764 47.48 529.764 45.2C529.764 42.84 531.124 42.2 532.444 42.2C533.404 42.2 534.964 42.64 534.964 44.24C534.964 44.84 534.884 45.28 534.604 45.8C536.124 44.64 538.124 41.32 539.764 36.44L531.884 16.16C531.604 15.44 530.884 14.96 530.124 14.96C530.124 13.8 531.044 12.88 532.204 12.88H538.244C539.404 12.88 540.324 13.8 540.324 14.96C539.724 14.96 539.284 15.44 539.284 15.96C539.284 16.12 539.324 16.24 539.364 16.36L543.404 26.76L547.404 16.52C547.444 16.4 547.484 16.24 547.484 16.12C547.484 15.52 546.964 14.96 546.324 14.96C546.324 13.8 547.244 12.88 548.404 12.88ZM573.047 34.44C573.367 34.76 573.767 34.92 574.207 34.92C574.207 36.08 573.287 37 572.167 37H567.047C566.287 37 565.687 36.36 565.687 35.6V34.88C564.367 36.2 562.367 37.04 559.767 37.04C554.367 37.04 551.327 32.56 551.327 26.24C551.327 18.44 555.967 12.84 562.767 12.84C566.487 12.84 569.567 14.64 569.567 14.64L570.007 14.08C570.607 13.32 571.487 12.88 572.447 12.88H572.567V33.28C572.567 33.72 572.767 34.16 573.047 34.44ZM565.687 31.32V17.96C565.047 16.04 563.967 14.84 562.327 14.84C559.127 14.84 558.207 19.36 558.207 24.88C558.207 30.4 559.007 34.96 562.207 34.96C563.687 34.96 565.127 33.88 565.687 31.32Z" fill="#FCC61A"/>
</svg>
