    <svg width="629" height="778" viewBox="0 0 629 778" fill="none" xmlns="http://www.w3.org/2000/svg">
<g opacity="0.1" filter="url(#filter0_f_1092_12366)">
<path d="M654.771 765.795C641.23 772.72 629.417 773.918 621.854 773.719C614.291 773.918 602.478 772.72 588.937 765.795C579.069 760.734 569.778 753.41 561.423 743.888L559.19 741.358L557.821 744.354C556.741 746.751 555.3 748.749 553.644 750.28C552.203 751.612 550.474 752.611 548.53 753.343C543.704 755.074 538.302 754.409 534.34 753.476C545.288 748.948 547.809 741.424 547.809 735.498C547.809 732.036 546.945 728.24 545.288 724.378C543.128 719.251 538.158 715.655 532.395 714.923C529.802 714.59 526.921 714.723 523.824 715.256C510.931 717.52 497.894 713.525 489.034 704.602V704.469C481.183 697.81 476.718 688.422 476.718 678.633C476.718 676.503 476.934 674.305 477.366 672.241C477.726 670.443 477.942 668.579 477.942 666.848C477.942 666.515 477.942 666.248 477.942 665.915V665.782C477.654 659.856 473.621 654.596 467.714 652.398C462.024 650.267 453.669 648.536 446.25 651.932C441.856 653.93 438.471 657.459 436.094 662.453C435.518 660.455 435.086 658.058 435.086 655.528C435.086 652.332 435.806 649.602 437.318 647.271C439.119 644.408 442.072 642.211 446.034 640.679H444.377L446.538 637.35C437.102 630.225 429.611 622.368 424.209 614.044C415.998 601.326 414.27 590.007 414.27 582.815C414.27 582.349 414.27 581.883 414.27 581.484V581.351C414.27 580.951 414.27 580.485 414.27 580.019C414.27 572.761 415.998 561.508 424.209 548.79C429.611 540.467 437.102 532.609 446.538 525.485L449.275 523.42L446.034 522.155C442 520.624 439.119 518.426 437.318 515.563C435.878 513.233 435.086 510.503 435.086 507.307C435.086 504.776 435.518 502.379 436.094 500.382C438.471 505.376 441.928 508.905 446.25 510.902C453.669 514.298 462.024 512.567 467.714 510.436C473.404 508.372 477.438 503.445 477.942 497.918C477.942 497.252 478.014 496.586 478.014 495.854C478.014 494.189 477.798 492.458 477.438 490.66C477.006 488.529 476.79 486.332 476.79 484.201C476.79 474.546 481.183 465.157 488.89 458.565V458.432C497.75 449.376 510.859 445.315 523.824 447.512C526.201 447.911 528.506 448.111 530.667 447.978H530.739C537.221 447.712 542.911 443.983 545.288 438.456C546.945 434.528 547.809 430.732 547.809 427.203C547.809 421.277 545.288 413.753 534.34 409.225C538.23 408.293 543.704 407.627 548.53 409.358C550.474 410.024 552.203 411.089 553.644 412.421C555.3 413.952 556.741 415.95 557.821 418.414L559.19 421.41L561.423 418.88C569.778 409.425 579.069 402.1 588.937 397.04C602.478 390.115 614.291 388.916 621.854 389.116C629.417 388.916 641.23 390.115 654.771 397.04C664.711 402.1 674.002 409.491 682.357 419.013L685.887 417.015V418.414C686.967 416.017 688.408 413.952 690.064 412.421C691.505 411.089 693.306 410.024 695.178 409.358C700.004 407.627 705.478 408.293 709.368 409.225C698.42 413.753 695.899 421.277 695.899 427.203C695.899 430.732 696.763 434.528 698.492 438.523C700.797 443.85 705.983 447.445 712.033 447.978C714.41 448.178 717.003 448.045 719.812 447.579C732.705 445.315 745.742 449.31 754.601 458.232V458.366C762.453 465.024 766.99 474.413 766.99 484.201C766.99 486.332 766.774 488.463 766.342 490.593C765.982 492.391 765.766 494.256 765.766 495.987C765.766 496.32 765.766 496.586 765.766 496.919V497.052C766.054 503.178 770.232 508.572 776.426 510.769C782.044 512.767 790.255 514.431 797.602 510.969C801.924 508.905 805.381 505.376 807.758 500.382C808.334 502.379 808.766 504.776 808.766 507.307C808.766 510.503 808.046 513.233 806.534 515.563C804.733 518.426 801.78 520.624 797.818 522.155H799.259L797.098 525.351C806.534 532.476 814.097 540.333 819.499 548.723C827.71 561.441 829.438 572.761 829.438 579.952C829.438 580.418 829.438 580.884 829.438 581.284V581.417C829.438 581.817 829.438 582.216 829.438 582.749C829.438 589.94 827.71 601.26 819.499 613.978C814.097 622.368 806.534 630.225 797.026 637.35L799.187 640.546H797.818C801.852 642.077 804.733 644.341 806.534 647.138C807.974 649.468 808.766 652.265 808.766 655.395C808.766 657.925 808.334 660.322 807.758 662.32C805.381 657.392 801.996 653.863 797.674 651.799C790.399 648.403 782.188 650.001 776.642 651.999C772.392 653.53 768.935 656.66 767.278 660.588C766.27 662.985 765.694 665.05 765.694 666.781C765.694 668.512 765.91 670.177 766.27 671.975C766.702 674.105 766.918 676.303 766.918 678.434C766.918 688.089 762.525 697.411 754.818 704.069V704.202C745.958 713.258 732.849 717.32 719.884 715.123C717.507 714.723 715.202 714.523 713.041 714.656H712.969C706.487 714.923 700.725 718.718 698.348 724.312C696.691 728.174 695.899 731.902 695.899 735.298C695.899 741.224 698.42 748.749 709.368 753.277C705.478 754.209 700.004 754.875 695.178 753.143C693.234 752.478 691.505 751.412 690.064 750.08C688.408 748.549 686.967 746.551 685.887 744.154L684.518 741.158L682.285 743.688C673.93 753.21 664.639 760.535 654.699 765.662L654.771 765.795ZM690.857 723.246C692.585 720.45 694.53 718.052 696.547 716.121C698.348 714.457 700.22 713.125 702.237 712.126C706.199 710.129 710.016 709.729 712.897 709.663C715.49 709.596 718.227 709.796 720.964 710.262C732.129 712.193 743.293 708.664 750.856 700.807H750.928L751 700.607C757.627 694.947 761.444 686.957 761.444 678.633C761.444 676.769 761.228 674.971 760.868 673.107C760.436 671.042 760.22 668.978 760.22 666.981C760.22 662.32 761.372 658.324 763.821 654.729C766.27 651.133 769.943 648.07 774.985 645.34C793.208 635.619 806.606 624.232 814.889 611.448C822.452 599.728 824.036 589.408 824.036 582.882C824.036 582.416 824.036 581.95 824.036 581.617V581.417C824.036 581.018 824.036 580.618 824.036 580.152C824.036 573.56 822.452 563.306 814.889 551.587C806.606 538.802 793.208 527.416 774.985 517.694C771.96 516.096 769.367 514.298 767.278 512.434C765.478 510.769 764.037 509.038 762.957 507.173C760.796 503.511 760.364 499.982 760.292 497.319C760.292 496.986 760.292 496.586 760.292 496.187C760.292 494.122 760.508 491.992 760.94 489.861C761.3 488.063 761.516 486.199 761.516 484.401C761.516 476.011 757.627 467.954 750.856 462.228H750.784L750.712 462.028C743.149 454.37 731.985 450.908 720.892 452.839C713.113 454.171 706.415 453.238 700.869 450.042C695.827 447.046 692.729 442.784 690.857 439.788C679.764 422.009 666.727 409.225 652.034 401.767C639.573 395.375 628.769 394.309 621.854 394.509H621.782H621.71C614.795 394.309 603.991 395.441 591.53 401.767C576.909 409.225 563.799 422.076 552.707 439.788C550.979 442.585 549.034 444.982 547.017 446.913C545.216 448.577 543.344 449.909 541.327 450.908C537.365 452.905 533.548 453.305 530.667 453.372C528.074 453.438 525.337 453.238 522.6 452.772C511.435 450.841 500.271 454.37 492.708 462.161H492.636L492.564 462.361C485.937 468.021 482.12 476.011 482.12 484.334C482.12 486.199 482.336 488.063 482.696 489.861C483.128 491.925 483.344 493.989 483.344 495.987C483.344 500.648 482.192 504.643 479.743 508.239C477.294 511.834 473.621 514.897 468.579 517.627C450.355 527.349 436.958 538.735 428.675 551.52C421.112 563.239 419.528 573.56 419.528 580.085C419.528 580.552 419.528 581.018 419.528 581.351V581.55C419.528 581.95 419.528 582.349 419.528 582.815C419.528 589.408 421.112 599.662 428.675 611.381C436.958 624.166 450.355 635.552 468.579 645.274C471.604 646.872 474.197 648.669 476.286 650.534C478.086 652.199 479.527 653.93 480.607 655.794C482.768 659.456 483.2 663.052 483.272 665.716C483.272 666.048 483.272 666.381 483.272 666.714C483.272 668.845 483.056 670.976 482.624 673.107C482.264 674.904 482.048 676.702 482.048 678.567C482.048 686.957 485.937 695.014 492.708 700.74H492.78L492.852 700.94C500.415 708.597 511.579 712.06 522.672 710.129C530.451 708.797 537.149 709.729 542.695 712.925C547.737 715.922 550.834 720.183 552.707 723.18C563.799 740.958 576.837 753.743 591.53 761.2C603.991 767.593 614.795 768.658 621.71 768.458H621.782H621.854C628.697 768.658 639.573 767.593 652.034 761.2C666.727 753.743 679.764 740.892 690.857 723.18V723.246Z" fill="#917006"/>
<path d="M621.494 745.485C618.325 745.618 611.842 745.285 603.631 741.09C592.971 735.63 583.175 725.775 574.388 711.725C557.749 685.024 532.035 685.091 518.134 687.555C515.397 688.021 512.66 687.088 510.931 685.091C510.643 684.691 510.283 684.358 509.851 684.092C508.05 682.827 506.97 680.829 506.97 678.699C506.97 678.299 506.97 677.9 507.114 677.5C507.834 673.904 508.194 670.375 508.194 666.913C508.194 666.247 508.194 665.581 508.194 664.915C507.546 647.936 498.398 634.685 481.04 625.43C473.189 621.235 466.418 616.707 461.016 611.979C456.478 608.05 452.805 603.922 450.068 599.661C447.907 596.331 446.394 593.002 445.458 589.673C444.666 586.743 444.45 584.412 444.45 582.947C444.45 582.548 444.45 582.215 444.45 581.882V581.749V581.349V581.216C444.45 581.216 444.45 580.55 444.45 580.151C444.45 578.686 444.594 576.355 445.458 573.426C446.394 570.096 447.979 566.7 450.068 563.438C452.805 559.243 456.478 555.114 461.016 551.119C466.418 546.391 473.189 541.864 481.04 537.669C503.584 525.683 508.266 508.437 508.266 496.119C508.266 492.723 507.906 489.194 507.186 485.731C507.114 485.332 507.042 484.932 507.042 484.466C507.042 482.402 508.122 480.338 509.923 479.073C510.283 478.806 510.643 478.473 510.931 478.074C512.66 476.01 515.397 475.077 518.062 475.544C522.6 476.343 527.21 476.676 531.603 476.476C549.97 475.877 564.304 467.42 574.316 451.373C583.103 437.323 592.971 427.402 603.559 422.008C611.77 417.813 618.325 417.48 621.422 417.613H621.566H621.926H622.07C625.24 417.48 631.722 417.813 639.933 422.008C650.593 427.402 660.389 437.323 669.177 451.373C685.815 478.007 711.529 477.941 725.43 475.544C728.167 475.077 730.905 476.01 732.633 478.074C732.921 478.407 733.281 478.74 733.642 479.006C735.442 480.338 736.523 482.335 736.523 484.4C736.523 484.799 736.523 485.199 736.379 485.665C735.658 489.194 735.298 492.723 735.298 496.185C735.298 496.851 735.298 497.517 735.298 498.183C735.947 515.162 745.094 528.413 762.453 537.669C770.304 541.864 777.074 546.391 782.477 551.119C787.014 555.048 790.688 559.176 793.425 563.438C795.586 566.767 797.098 570.096 798.035 573.426C798.827 576.355 799.043 578.686 799.043 580.151C799.043 580.55 799.043 580.883 799.043 581.216V581.349V581.749V581.882C799.043 581.882 799.043 582.548 799.043 582.947C799.043 584.412 798.899 586.743 798.035 589.673C797.098 593.002 795.514 596.398 793.425 599.661C790.688 603.856 787.014 607.984 782.477 611.979C777.074 616.707 770.304 621.235 762.453 625.43C739.908 637.415 735.226 654.661 735.226 666.979C735.226 670.375 735.586 673.904 736.307 677.367C736.379 677.766 736.451 678.233 736.451 678.632C736.451 680.696 735.37 682.694 733.642 683.959C733.209 684.225 732.849 684.558 732.561 684.958C730.833 687.022 728.095 687.954 725.43 687.488C720.893 686.689 716.283 686.356 711.889 686.556C693.522 687.155 679.189 695.612 669.177 711.659C660.389 725.709 650.521 735.63 639.933 741.023C631.722 745.218 625.168 745.551 622.07 745.418H621.926H621.566H621.422L621.494 745.485ZM636.836 737.028C644.975 733.632 657.148 725.509 669.249 706.199C674.867 697.143 682.07 690.418 690.641 686.223C697.123 683.027 704.326 681.295 712.033 681.029C712.754 681.029 713.474 681.029 714.122 681.029C717.147 681.029 720.389 681.296 723.558 681.695C725.358 681.961 727.231 681.429 728.528 680.23C729.608 679.231 730.184 677.9 730.184 676.501C730.184 676.235 730.184 676.102 730.184 675.969V675.835V675.702C729.68 672.772 729.464 669.776 729.464 666.913C729.464 666.247 729.464 665.581 729.464 664.982C729.752 657.79 731.625 651.132 735.082 645.206C739.62 637.282 746.895 630.69 756.691 625.43C777.651 614.243 786.366 602.99 790.039 595.466C791.768 591.937 792.777 586.876 792.777 581.616C792.777 576.355 791.768 571.295 790.039 567.766C786.366 560.241 777.579 548.988 756.691 537.802C746.895 532.608 739.62 525.949 735.082 518.026C731.625 512.033 729.752 505.374 729.464 498.25C729.464 497.65 729.464 496.984 729.464 496.319C729.464 493.522 729.68 490.592 730.184 487.662C730.184 487.396 730.256 487.063 730.256 486.797C730.256 485.398 729.68 484.067 728.6 483.068C727.303 481.869 725.43 481.337 723.63 481.603C720.46 482.069 717.291 482.269 714.194 482.269C713.402 482.269 712.754 482.269 712.105 482.269C704.326 482.002 697.123 480.271 690.713 477.075C682.142 472.88 675.011 466.155 669.321 457.099C657.22 437.723 645.047 429.666 636.908 426.27C628.769 422.874 615.012 422.874 606.945 426.27C598.805 429.666 586.633 437.789 574.532 457.099C568.914 466.155 561.711 472.88 553.14 477.075C546.657 480.271 539.454 482.002 531.747 482.269C531.099 482.269 530.379 482.269 529.659 482.269C526.561 482.269 523.392 482.069 520.151 481.603C518.35 481.337 516.477 481.869 515.181 483.068C514.101 484.067 513.524 485.398 513.524 486.797C513.524 487.063 513.524 487.263 513.524 487.396V487.529V487.662C514.028 490.659 514.245 493.588 514.245 496.385C514.245 497.118 514.245 497.717 514.245 498.316C513.956 505.507 512.084 512.166 508.626 518.092C504.089 526.016 496.814 532.608 487.018 537.868C466.058 549.055 457.27 560.308 453.669 567.832C451.94 571.361 450.932 576.422 450.932 581.682C450.932 586.943 451.94 592.003 453.669 595.532C457.342 603.056 466.13 614.31 487.018 625.496C496.814 630.69 504.089 637.348 508.626 645.272C512.084 651.265 513.956 657.924 514.245 665.048C514.245 665.648 514.245 666.314 514.245 666.979C514.245 669.843 513.956 672.839 513.524 675.769V675.902V676.035C513.524 676.102 513.524 676.368 513.524 676.568C513.524 677.966 514.101 679.298 515.181 680.297C516.477 681.562 518.35 682.095 520.151 681.828C523.392 681.362 526.561 681.162 529.659 681.162C530.307 681.162 531.027 681.162 531.747 681.162C539.526 681.429 546.729 683.16 553.14 686.356C561.711 690.551 568.842 697.276 574.532 706.332C586.633 725.709 598.805 733.766 606.945 737.161C615.084 740.557 628.841 740.557 636.908 737.161L636.836 737.028Z" fill="#917006"/>
<path d="M621.855 511.233L635.18 532.608C630.858 531.609 626.392 531.076 621.855 531.076C617.317 531.076 612.851 531.609 608.529 532.608L621.855 511.233Z" fill="#917006"/>
<path d="M621.855 651.799L608.529 630.425C612.851 631.424 617.317 631.956 621.855 631.956C626.392 631.956 630.858 631.424 635.18 630.425L621.855 651.799Z" fill="#917006"/>
<path d="M583.247 617.173C586.416 620.103 590.017 622.7 593.835 624.83L568.049 631.223L574.964 607.385C577.269 610.914 580.006 614.243 583.247 617.173Z" fill="#917006"/>
<path d="M583.247 545.858C580.078 548.788 577.269 552.117 574.964 555.647L568.049 531.809L593.835 538.201C590.017 540.332 586.416 542.862 583.247 545.858Z" fill="#917006"/>
<path d="M545.792 581.484L568.913 569.166C567.833 573.161 567.256 577.29 567.256 581.484C567.256 585.679 567.833 589.808 568.913 593.803L545.792 581.484Z" fill="#917006"/>
<path d="M600.534 518.092C599.381 519.956 597.581 521.421 595.348 522.22H595.276C593.115 523.086 590.666 523.286 588.433 522.686L573.955 519.091L578.781 485.198L608.097 505.973L600.606 518.025L600.534 518.092Z" fill="#917006"/>
<path d="M578.709 677.7L573.883 643.808L588.433 640.212C590.666 639.679 593.115 639.812 595.275 640.678H595.347C597.508 641.544 599.381 643.009 600.534 644.873L608.024 656.859L578.637 677.634L578.709 677.7Z" fill="#917006"/>
<path d="M553.283 601.192C555.3 602.257 556.885 603.922 557.749 605.986C558.325 607.318 558.613 608.583 558.613 609.914C558.613 610.78 558.469 611.579 558.253 612.445L554.364 625.829L517.701 621.367L540.174 594.267L553.211 601.192H553.283Z" fill="#917006"/>
<path d="M558.614 553.118C558.614 554.45 558.326 555.715 557.749 556.98C556.885 559.111 555.228 560.776 553.284 561.841L540.319 568.766L517.846 541.665L554.508 537.204L558.398 550.655C558.614 551.454 558.758 552.319 558.758 553.185L558.614 553.118Z" fill="#917006"/>
<path d="M648.288 605.986C644.831 609.182 640.869 611.646 636.403 613.377C631.794 615.175 626.896 616.107 621.854 616.107C616.812 616.107 611.914 615.175 607.304 613.377C602.838 611.646 598.877 609.115 595.42 605.986C591.962 602.79 589.297 599.127 587.424 594.999C585.48 590.737 584.471 586.21 584.471 581.549C584.471 576.888 585.48 572.36 587.424 568.098C589.297 563.97 592.034 560.308 595.42 557.111C598.877 553.915 602.838 551.452 607.304 549.72C611.914 547.922 616.812 546.99 621.854 546.99C626.896 546.99 631.794 547.922 636.403 549.72C640.869 551.452 644.831 553.982 648.288 557.111C651.745 560.308 654.41 563.97 656.283 568.098C658.228 572.36 659.236 576.888 659.236 581.549C659.236 586.21 658.228 590.737 656.283 594.999C654.41 599.127 651.673 602.79 648.288 605.986ZM621.854 552.517C604.567 552.517 590.45 565.501 590.45 581.549C590.45 597.596 604.495 610.58 621.854 610.58C639.141 610.58 653.186 597.596 653.186 581.549C653.186 565.501 639.141 552.517 621.854 552.517Z" fill="#917006"/>
<path d="M621.854 479.807C614.58 479.807 607.305 480.472 600.246 481.804C596.645 482.47 592.899 481.671 590.018 479.607L587.785 478.009C598.805 474.879 610.258 473.348 621.926 473.348C633.595 473.348 645.119 474.946 656.14 478.009L653.979 479.54C651.026 481.604 647.28 482.403 643.679 481.738C636.62 480.406 629.273 479.74 621.998 479.74L621.854 479.807Z" fill="#917006"/>
<path d="M589.802 683.426C592.755 681.362 596.501 680.563 600.102 681.228C607.161 682.56 614.508 683.226 621.782 683.226C629.057 683.226 636.332 682.56 643.391 681.228C646.992 680.563 650.738 681.362 653.619 683.426L655.852 685.024C644.831 688.153 633.379 689.685 621.71 689.685C610.042 689.685 598.517 688.087 587.497 685.024L589.658 683.492L589.802 683.426Z" fill="#917006"/>
<path d="M560.918 496.852C548.745 504.376 538.445 513.898 530.306 525.084C528.289 527.947 524.976 529.812 521.303 530.211L518.565 530.544C520.438 527.282 522.527 524.019 524.832 520.956C529.01 515.229 533.835 509.836 539.093 504.975C544.424 500.048 550.186 495.653 556.38 491.791C559.765 489.727 563.223 487.729 566.824 485.998L566.464 488.528C565.96 491.924 563.943 494.921 560.846 496.852H560.918Z" fill="#917006"/>
<path d="M530.235 637.815C538.374 649.068 548.674 658.59 560.774 666.114C563.872 667.978 565.888 671.041 566.321 674.437L566.681 676.967C563.151 675.236 559.622 673.305 556.309 671.174C550.114 667.312 544.28 662.851 539.022 657.99C533.764 653.129 528.938 647.736 524.76 642.01C522.528 638.88 520.367 635.684 518.494 632.354L521.231 632.687C524.904 633.154 528.146 635.018 530.235 637.881V637.815Z" fill="#917006"/>
<path d="M514.172 559.11C514.172 559.909 514.1 560.708 513.956 561.441C512.515 567.966 511.795 574.758 511.795 581.483C511.795 588.208 512.515 594.934 513.956 601.459C514.1 602.192 514.172 602.991 514.172 603.79C514.172 606.387 513.236 608.917 511.579 610.914L509.85 612.979C506.465 602.791 504.808 592.204 504.808 581.417C504.808 570.63 506.537 559.976 509.85 549.788L511.507 551.786C513.235 553.85 514.172 556.38 514.172 558.977V559.11Z" fill="#917006"/>
<path d="M244.501 765.795C230.96 772.72 219.147 773.918 211.584 773.719C204.022 773.918 192.209 772.72 178.668 765.795C168.8 760.734 159.508 753.41 151.153 743.888L148.92 741.358L147.552 744.354C146.471 746.751 145.031 748.749 143.374 750.28C141.933 751.612 140.205 752.611 138.26 753.343C133.434 755.074 128.032 754.409 124.071 753.476C135.019 748.948 137.54 741.424 137.54 735.498C137.54 732.036 136.675 728.24 135.019 724.378C132.858 719.251 127.888 715.655 122.126 714.923C119.533 714.59 116.652 714.723 113.554 715.256C100.661 717.52 87.6244 713.525 78.7649 704.602V704.469C70.9139 697.81 66.4482 688.422 66.4482 678.633C66.4482 676.503 66.6643 674.305 67.0964 672.241C67.4566 670.443 67.6727 668.579 67.6727 666.848C67.6727 666.515 67.6727 666.248 67.6727 665.915V665.782C67.3846 659.856 63.351 654.596 57.4447 652.398C51.7545 650.267 43.3992 648.536 35.9803 651.932C31.5866 653.93 28.2013 657.459 25.8243 662.453C25.2481 660.455 24.816 658.058 24.816 655.528C24.816 652.332 25.5363 649.602 27.0489 647.271C28.8496 644.408 31.8027 642.211 35.7643 640.679H34.1076L36.2685 637.35C26.8328 630.225 19.3419 622.368 13.9398 614.044C5.72861 601.326 3.99991 590.007 3.99991 582.815C3.99991 582.349 3.99991 581.883 3.99991 581.484V581.351C3.99991 580.951 3.99991 580.485 3.99991 580.019C3.99991 572.761 5.72861 561.508 13.9398 548.79C19.3419 540.467 26.8328 532.609 36.2685 525.485L39.0055 523.42L35.7643 522.155C31.7307 520.624 28.8496 518.426 27.0489 515.563C25.6084 513.233 24.816 510.503 24.816 507.307C24.816 504.776 25.2481 502.379 25.8243 500.382C28.2013 505.376 31.6586 508.905 35.9803 510.902C43.3992 514.298 51.7545 512.567 57.4447 510.436C63.1349 508.372 67.1685 503.445 67.6727 497.918C67.6727 497.252 67.7447 496.586 67.7447 495.854C67.7447 494.189 67.5286 492.458 67.1684 490.66C66.7363 488.529 66.5202 486.332 66.5202 484.201C66.5202 474.546 70.9138 465.157 78.6208 458.565V458.432C87.4803 449.376 100.589 445.315 113.554 447.512C115.931 447.911 118.236 448.111 120.397 447.978H120.469C126.952 447.712 132.642 443.983 135.019 438.456C136.675 434.528 137.54 430.732 137.54 427.203C137.54 421.277 135.019 413.753 124.071 409.225C127.96 408.293 133.434 407.627 138.26 409.358C140.205 410.024 141.933 411.089 143.374 412.421C145.031 413.952 146.471 415.95 147.552 418.414L148.92 421.41L151.153 418.88C159.508 409.425 168.8 402.1 178.668 397.04C192.209 390.115 204.022 388.916 211.584 389.116C219.147 388.916 230.96 390.115 244.501 397.04C254.441 402.1 263.733 409.491 272.088 419.013L275.617 417.015V418.414C276.698 416.017 278.138 413.952 279.795 412.421C281.235 411.089 283.036 410.024 284.909 409.358C289.735 407.627 295.209 408.293 299.098 409.225C288.15 413.753 285.629 421.277 285.629 427.203C285.629 430.732 286.493 434.528 288.222 438.523C290.527 443.85 295.713 447.445 301.763 447.978C304.14 448.178 306.733 448.045 309.542 447.579C322.435 445.315 335.472 449.31 344.332 458.232V458.366C352.183 465.024 356.721 474.413 356.721 484.201C356.721 486.332 356.505 488.463 356.072 490.593C355.712 492.391 355.496 494.256 355.496 495.987C355.496 496.32 355.496 496.586 355.496 496.919V497.052C355.784 503.178 359.962 508.572 366.156 510.769C371.775 512.767 379.986 514.431 387.333 510.969C391.654 508.905 395.112 505.376 397.489 500.382C398.065 502.379 398.497 504.776 398.497 507.307C398.497 510.503 397.777 513.233 396.264 515.563C394.463 518.426 391.51 520.624 387.549 522.155H388.989L386.828 525.351C396.264 532.476 403.827 540.333 409.229 548.723C417.44 561.441 419.169 572.761 419.169 579.952C419.169 580.418 419.169 580.884 419.169 581.284V581.417C419.169 581.817 419.169 582.216 419.169 582.749C419.169 589.94 417.44 601.26 409.229 613.978C403.827 622.368 396.264 630.225 386.756 637.35L388.917 640.546H387.549C391.582 642.077 394.463 644.341 396.264 647.138C397.705 649.468 398.497 652.265 398.497 655.395C398.497 657.925 398.065 660.322 397.489 662.32C395.112 657.392 391.726 653.863 387.405 651.799C380.13 648.403 371.919 650.001 366.372 651.999C362.123 653.53 358.666 656.66 357.009 660.588C356 662.985 355.424 665.05 355.424 666.781C355.424 668.512 355.64 670.177 356 671.975C356.433 674.105 356.649 676.303 356.649 678.434C356.649 688.089 352.255 697.411 344.548 704.069V704.202C335.689 713.258 322.579 717.32 309.614 715.123C307.238 714.723 304.933 714.523 302.772 714.656H302.7C296.217 714.923 290.455 718.718 288.078 724.312C286.421 728.174 285.629 731.902 285.629 735.298C285.629 741.224 288.15 748.749 299.098 753.277C295.209 754.209 289.735 754.875 284.909 753.143C282.964 752.478 281.235 751.412 279.795 750.08C278.138 748.549 276.698 746.551 275.617 744.154L274.249 741.158L272.016 743.688C263.661 753.21 254.369 760.535 244.429 765.662L244.501 765.795ZM280.587 723.246C282.316 720.45 284.261 718.052 286.277 716.121C288.078 714.457 289.951 713.125 291.968 712.126C295.929 710.129 299.747 709.729 302.628 709.663C305.221 709.596 307.958 709.796 310.695 710.262C321.859 712.193 333.024 708.664 340.586 700.807H340.658L340.731 700.607C347.357 694.947 351.175 686.957 351.175 678.633C351.175 676.769 350.958 674.971 350.598 673.107C350.166 671.042 349.95 668.978 349.95 666.981C349.95 662.32 351.103 658.324 353.551 654.729C356 651.133 359.674 648.07 364.716 645.34C382.939 635.619 396.336 624.232 404.619 611.448C412.182 599.728 413.767 589.408 413.767 582.882C413.767 582.416 413.767 581.95 413.767 581.617V581.417C413.767 581.018 413.767 580.618 413.767 580.152C413.767 573.56 412.182 563.306 404.619 551.587C396.336 538.802 382.939 527.416 364.716 517.694C361.691 516.096 359.098 514.298 357.009 512.434C355.208 510.769 353.768 509.038 352.687 507.173C350.526 503.511 350.094 499.982 350.022 497.319C350.022 496.986 350.022 496.586 350.022 496.187C350.022 494.122 350.238 491.992 350.67 489.861C351.031 488.063 351.247 486.199 351.247 484.401C351.247 476.011 347.357 467.954 340.586 462.228H340.514L340.442 462.028C332.879 454.37 321.715 450.908 310.623 452.839C302.844 454.171 296.145 453.238 290.599 450.042C285.557 447.046 282.46 442.784 280.587 439.788C269.495 422.009 256.458 409.225 241.764 401.767C229.303 395.375 218.499 394.309 211.584 394.509H211.512H211.44C204.526 394.309 193.721 395.441 181.261 401.767C166.639 409.225 153.53 422.076 142.438 439.788C140.709 442.585 138.764 444.982 136.747 446.913C134.947 448.577 133.074 449.909 131.057 450.908C127.096 452.905 123.278 453.305 120.397 453.372C117.804 453.438 115.067 453.238 112.33 452.772C101.166 450.841 90.0013 454.37 82.4383 462.161H82.3663L82.2943 462.361C75.6678 468.021 71.8503 476.011 71.8503 484.334C71.8503 486.199 72.0663 488.063 72.4264 489.861C72.8586 491.925 73.0748 493.989 73.0748 495.987C73.0748 500.648 71.9223 504.643 69.4734 508.239C67.0244 511.834 63.351 514.897 58.309 517.627C40.086 527.349 26.6887 538.735 18.4055 551.52C10.8426 563.239 9.25803 573.56 9.25803 580.085C9.25803 580.552 9.25803 581.018 9.25803 581.351V581.55C9.25803 581.95 9.25803 582.349 9.25803 582.815C9.25803 589.408 10.8426 599.662 18.4055 611.381C26.6887 624.166 40.086 635.552 58.309 645.274C61.3342 646.872 63.9272 648.669 66.016 650.534C67.8167 652.199 69.2573 653.93 70.3377 655.794C72.4985 659.456 72.9306 663.052 73.0027 665.716C73.0027 666.048 73.0027 666.381 73.0027 666.714C73.0027 668.845 72.7866 670.976 72.3544 673.107C71.9943 674.904 71.7782 676.702 71.7782 678.567C71.7782 686.957 75.6677 695.014 82.4383 700.74H82.5104L82.5824 700.94C90.1453 708.597 101.31 712.06 112.402 710.129C120.181 708.797 126.88 709.729 132.426 712.925C137.468 715.922 140.565 720.183 142.438 723.18C153.53 740.958 166.567 753.743 181.261 761.2C193.721 767.593 204.526 768.658 211.44 768.458H211.512H211.584C218.427 768.658 229.303 767.593 241.764 761.2C256.458 753.743 269.495 740.892 280.587 723.18V723.246Z" fill="#917006"/>
<path d="M211.225 745.485C208.055 745.618 201.573 745.285 193.362 741.09C182.702 735.63 172.906 725.775 164.118 711.725C147.48 685.024 121.766 685.091 107.865 687.555C105.128 688.021 102.39 687.088 100.662 685.091C100.374 684.691 100.013 684.358 99.5813 684.092C97.7806 682.827 96.7002 680.829 96.7002 678.699C96.7002 678.299 96.7002 677.9 96.8442 677.5C97.5645 673.904 97.9247 670.375 97.9247 666.913C97.9247 666.247 97.9247 665.581 97.9247 664.915C97.2764 647.936 88.1289 634.685 70.7701 625.43C62.9191 621.235 56.1485 616.707 50.7464 611.979C46.2086 608.05 42.5352 603.922 39.7981 599.661C37.6373 596.331 36.1247 593.002 35.1883 589.673C34.396 586.743 34.1799 584.412 34.1799 582.947C34.1799 582.548 34.1799 582.215 34.1799 581.882V581.749V581.349V581.216C34.1799 581.216 34.1799 580.55 34.1799 580.151C34.1799 578.686 34.324 576.355 35.1883 573.426C36.1247 570.096 37.7093 566.7 39.7981 563.438C42.5352 559.243 46.2086 555.114 50.7464 551.119C56.1485 546.391 62.9191 541.864 70.7701 537.669C93.3149 525.683 97.9967 508.437 97.9967 496.119C97.9967 492.723 97.6366 489.194 96.9163 485.731C96.8443 485.332 96.7722 484.932 96.7722 484.466C96.7722 482.402 97.8526 480.338 99.6533 479.073C100.013 478.806 100.374 478.473 100.662 478.074C102.39 476.01 105.127 475.077 107.792 475.544C112.33 476.343 116.94 476.676 121.334 476.476C139.701 475.877 154.034 467.42 164.046 451.373C172.834 437.323 182.701 427.402 193.29 422.008C201.501 417.813 208.055 417.48 211.153 417.613H211.297H211.657H211.801C214.97 417.48 221.453 417.813 229.664 422.008C240.324 427.402 250.12 437.323 258.907 451.373C275.545 478.007 301.26 477.941 315.161 475.544C317.898 475.077 320.635 476.01 322.364 478.074C322.652 478.407 323.012 478.74 323.372 479.006C325.173 480.338 326.253 482.335 326.253 484.4C326.253 484.799 326.253 485.199 326.109 485.665C325.389 489.194 325.029 492.723 325.029 496.185C325.029 496.851 325.029 497.517 325.029 498.183C325.677 515.162 334.825 528.413 352.183 537.669C360.034 541.864 366.805 546.391 372.207 551.119C376.745 555.048 380.418 559.176 383.155 563.438C385.316 566.767 386.829 570.096 387.765 573.426C388.557 576.355 388.773 578.686 388.773 580.151C388.773 580.55 388.773 580.883 388.773 581.216V581.349V581.749V581.882C388.773 581.882 388.773 582.548 388.773 582.947C388.773 584.412 388.629 586.743 387.765 589.673C386.829 593.002 385.244 596.398 383.155 599.661C380.418 603.856 376.745 607.984 372.207 611.979C366.805 616.707 360.034 621.235 352.183 625.43C329.638 637.415 324.957 654.661 324.957 666.979C324.957 670.375 325.317 673.904 326.037 677.367C326.109 677.766 326.181 678.233 326.181 678.632C326.181 680.696 325.101 682.694 323.372 683.959C322.94 684.225 322.58 684.558 322.292 684.958C320.563 687.022 317.826 687.954 315.161 687.488C310.623 686.689 306.013 686.356 301.62 686.556C283.253 687.155 268.919 695.612 258.907 711.659C250.12 725.709 240.252 735.63 229.664 741.023C221.453 745.218 214.898 745.551 211.801 745.418H211.657H211.297H211.153L211.225 745.485ZM226.567 737.028C234.706 733.632 246.878 725.509 258.979 706.199C264.597 697.143 271.8 690.418 280.371 686.223C286.854 683.027 294.057 681.295 301.764 681.029C302.484 681.029 303.204 681.029 303.853 681.029C306.878 681.029 310.119 681.296 313.288 681.695C315.089 681.961 316.962 681.429 318.258 680.23C319.339 679.231 319.915 677.9 319.915 676.501C319.915 676.235 319.915 676.102 319.915 675.969V675.835V675.702C319.411 672.772 319.194 669.776 319.194 666.913C319.194 666.247 319.194 665.581 319.194 664.982C319.483 657.79 321.355 651.132 324.813 645.206C329.35 637.282 336.625 630.69 346.421 625.43C367.381 614.243 376.097 602.99 379.77 595.466C381.499 591.937 382.507 586.876 382.507 581.616C382.507 576.355 381.499 571.295 379.77 567.766C376.097 560.241 367.309 548.988 346.421 537.802C336.625 532.608 329.35 525.949 324.813 518.026C321.355 512.033 319.483 505.374 319.194 498.25C319.194 497.65 319.194 496.984 319.194 496.319C319.194 493.522 319.411 490.592 319.915 487.662C319.915 487.396 319.987 487.063 319.987 486.797C319.987 485.398 319.411 484.067 318.33 483.068C317.034 481.869 315.161 481.337 313.36 481.603C310.191 482.069 307.022 482.269 303.924 482.269C303.132 482.269 302.484 482.269 301.836 482.269C294.057 482.002 286.854 480.271 280.443 477.075C271.872 472.88 264.741 466.155 259.051 457.099C246.95 437.723 234.778 429.666 226.639 426.27C218.499 422.874 204.742 422.874 196.675 426.27C188.536 429.666 176.363 437.789 164.262 457.099C158.644 466.155 151.441 472.88 142.87 477.075C136.388 480.271 129.185 482.002 121.478 482.269C120.83 482.269 120.109 482.269 119.389 482.269C116.292 482.269 113.123 482.069 109.881 481.603C108.081 481.337 106.208 481.869 104.911 483.068C103.831 484.067 103.255 485.398 103.255 486.797C103.255 487.063 103.255 487.263 103.255 487.396V487.529V487.662C103.759 490.659 103.975 493.588 103.975 496.385C103.975 497.118 103.975 497.717 103.975 498.316C103.687 505.507 101.814 512.166 98.3568 518.092C93.8191 526.016 86.5443 532.608 76.7485 537.868C55.7883 549.055 47.0009 560.308 43.3995 567.832C41.6708 571.361 40.6625 576.422 40.6625 581.682C40.6625 586.943 41.6708 592.003 43.3995 595.532C47.0729 603.056 55.8604 614.31 76.7485 625.496C86.5443 630.69 93.8191 637.348 98.3568 645.272C101.814 651.265 103.687 657.924 103.975 665.048C103.975 665.648 103.975 666.314 103.975 666.979C103.975 669.843 103.687 672.839 103.255 675.769V675.902V676.035C103.255 676.102 103.255 676.368 103.255 676.568C103.255 677.966 103.831 679.298 104.911 680.297C106.208 681.562 108.081 682.095 109.881 681.828C113.123 681.362 116.292 681.162 119.389 681.162C120.037 681.162 120.758 681.162 121.478 681.162C129.257 681.429 136.46 683.16 142.87 686.356C151.441 690.551 158.572 697.276 164.262 706.332C176.363 725.709 188.536 733.766 196.675 737.161C204.814 740.557 218.571 740.557 226.639 737.161L226.567 737.028Z" fill="#917006"/>
<path d="M264.525 569.166L287.646 581.484L264.525 593.803C265.605 589.808 266.181 585.679 266.181 581.484C266.181 577.29 265.605 573.161 264.525 569.166Z" fill="#917006"/>
<path d="M250.192 545.858C247.023 542.929 243.421 540.332 239.604 538.201L265.39 531.809L258.475 555.647C256.17 552.117 253.433 548.788 250.192 545.858Z" fill="#917006"/>
<path d="M250.192 617.173C253.361 614.243 256.17 610.914 258.475 607.385L265.39 631.223L239.604 624.83C243.421 622.7 247.023 620.169 250.192 617.173Z" fill="#917006"/>
<path d="M211.585 511.233L224.91 532.608C220.588 531.609 216.123 531.076 211.585 531.076C207.047 531.076 202.581 531.609 198.26 532.608L211.585 511.233Z" fill="#917006"/>
<path d="M211.585 651.799L198.26 630.425C202.581 631.424 207.047 631.956 211.585 631.956C216.123 631.956 220.588 631.424 224.91 630.425L211.585 651.799Z" fill="#917006"/>
<path d="M172.977 617.173C176.147 620.103 179.748 622.7 183.565 624.83L157.779 631.223L164.694 607.385C166.999 610.914 169.736 614.243 172.977 617.173Z" fill="#917006"/>
<path d="M172.977 545.858C169.808 548.788 166.999 552.117 164.694 555.647L157.779 531.809L183.565 538.201C179.748 540.332 176.147 542.862 172.977 545.858Z" fill="#917006"/>
<path d="M135.523 581.484L158.644 569.166C157.563 573.161 156.987 577.29 156.987 581.484C156.987 585.679 157.563 589.808 158.644 593.803L135.523 581.484Z" fill="#917006"/>
<path d="M280.156 561.841C278.139 560.776 276.554 559.111 275.69 557.047C275.114 555.715 274.825 554.45 274.825 553.118C274.825 552.253 274.97 551.454 275.186 550.588L279.075 537.204L315.737 541.665L293.265 568.766L280.228 561.841H280.156Z" fill="#917006"/>
<path d="M274.753 609.914C274.753 608.583 275.041 607.318 275.617 606.052C276.481 603.922 278.138 602.257 280.083 601.192L293.048 594.267L315.521 621.434L278.858 625.895L274.969 612.445C274.753 611.646 274.609 610.78 274.609 609.914H274.753Z" fill="#917006"/>
<path d="M245.005 522.753C242.772 523.285 240.323 523.152 238.163 522.287H238.091C235.93 521.421 234.057 519.956 232.905 518.092L225.414 506.106L254.801 485.331L259.627 519.224L245.077 522.819L245.005 522.753Z" fill="#917006"/>
<path d="M232.905 644.873C234.058 643.009 235.858 641.544 238.091 640.745H238.163C240.324 639.88 242.773 639.68 245.006 640.279L259.483 643.875L254.658 677.767L225.342 656.992L232.833 644.94L232.905 644.873Z" fill="#917006"/>
<path d="M190.264 518.092C189.112 519.956 187.311 521.421 185.078 522.22H185.006C182.845 523.086 180.396 523.286 178.164 522.686L163.686 519.091L168.512 485.198L197.827 505.973L190.336 518.025L190.264 518.092Z" fill="#917006"/>
<path d="M168.439 677.7L163.614 643.808L178.163 640.212C180.396 639.679 182.845 639.812 185.006 640.678H185.078C187.239 641.544 189.111 643.009 190.264 644.873L197.755 656.859L168.367 677.634L168.439 677.7Z" fill="#917006"/>
<path d="M143.014 601.192C145.03 602.257 146.615 603.922 147.479 605.986C148.056 607.318 148.344 608.583 148.344 609.914C148.344 610.78 148.2 611.579 147.984 612.445L144.094 625.829L107.432 621.367L129.905 594.267L142.942 601.192H143.014Z" fill="#917006"/>
<path d="M148.416 553.118C148.416 554.45 148.128 555.715 147.552 556.98C146.688 559.111 145.031 560.776 143.086 561.841L130.121 568.766L107.649 541.665L144.311 537.204L148.2 550.655C148.416 551.454 148.561 552.319 148.561 553.185L148.416 553.118Z" fill="#917006"/>
<path d="M238.019 605.986C234.561 609.182 230.6 611.646 226.134 613.377C221.524 615.175 216.626 616.107 211.584 616.107C206.542 616.107 201.644 615.175 197.035 613.377C192.569 611.646 188.607 609.115 185.15 605.986C181.693 602.79 179.028 599.127 177.155 594.999C175.21 590.737 174.202 586.21 174.202 581.549C174.202 576.888 175.21 572.36 177.155 568.098C179.028 563.97 181.765 560.308 185.15 557.111C188.607 553.915 192.569 551.452 197.035 549.72C201.644 547.922 206.542 546.99 211.584 546.99C216.626 546.99 221.524 547.922 226.134 549.72C230.6 551.452 234.561 553.982 238.019 557.111C241.476 560.308 244.141 563.97 246.014 568.098C247.958 572.36 248.967 576.888 248.967 581.549C248.967 586.21 247.958 590.737 246.014 594.999C244.141 599.127 241.404 602.79 238.019 605.986ZM211.584 552.517C194.298 552.517 180.18 565.501 180.18 581.549C180.18 597.596 194.226 610.58 211.584 610.58C228.943 610.58 242.916 597.596 242.916 581.549C242.916 565.501 228.871 552.517 211.584 552.517Z" fill="#917006"/>
<path d="M319.194 603.857C319.194 603.058 319.266 602.259 319.41 601.526C320.851 595.001 321.571 588.209 321.571 581.484C321.571 574.758 320.851 568.033 319.41 561.508C319.266 560.775 319.194 559.976 319.194 559.177C319.194 556.58 320.13 554.05 321.787 552.052L323.516 549.988C326.901 560.176 328.558 570.763 328.558 581.55C328.558 592.337 326.829 602.991 323.516 613.179L321.859 611.181C320.13 609.117 319.194 606.587 319.194 603.99V603.857Z" fill="#917006"/>
<path d="M303.132 525.151C294.993 513.898 284.693 504.376 272.593 496.852C269.495 494.987 267.479 491.924 267.047 488.528L266.686 485.998C270.216 487.729 273.745 489.66 277.058 491.791C283.253 495.653 289.087 500.114 294.345 504.975C299.675 509.903 304.429 515.229 308.607 520.956C310.84 524.085 313 527.282 314.873 530.611L312.136 530.278C308.463 529.812 305.221 527.947 303.132 525.084V525.151Z" fill="#917006"/>
<path d="M272.521 666.181C284.693 658.657 294.993 649.135 303.132 637.948C305.149 635.085 308.463 633.221 312.136 632.821L314.873 632.488C313 635.751 310.912 639.014 308.607 642.077C304.429 647.803 299.603 653.197 294.345 658.057C289.015 662.985 283.253 667.38 277.058 671.242C273.673 673.306 270.216 675.303 266.614 677.035L266.975 674.504C267.479 671.108 269.495 668.112 272.593 666.181H272.521Z" fill="#917006"/>
<path d="M211.585 479.807C204.31 479.807 197.035 480.472 189.976 481.804C186.375 482.47 182.63 481.671 179.749 479.607L177.516 478.009C188.536 474.879 199.988 473.348 211.657 473.348C223.325 473.348 234.85 474.946 245.87 478.009L243.709 479.54C240.756 481.604 237.011 482.403 233.409 481.738C226.351 480.406 219.004 479.74 211.729 479.74L211.585 479.807Z" fill="#917006"/>
<path d="M179.604 683.426C182.557 681.362 186.302 680.563 189.904 681.228C196.963 682.56 204.309 683.226 211.584 683.226C218.859 683.226 226.134 682.56 233.193 681.228C236.794 680.563 240.539 681.362 243.42 683.426L245.653 685.024C234.633 688.153 223.181 689.685 211.512 689.685C199.844 689.685 188.319 688.087 177.299 685.024L179.46 683.492L179.604 683.426Z" fill="#917006"/>
<path d="M150.649 496.852C138.477 504.376 128.177 513.898 120.037 525.084C118.021 527.947 114.707 529.812 111.034 530.211L108.297 530.544C110.17 527.282 112.258 524.019 114.563 520.956C118.741 515.229 123.567 509.836 128.825 504.975C134.155 500.048 139.917 495.653 146.112 491.791C149.497 489.727 152.954 487.729 156.556 485.998L156.196 488.528C155.691 491.924 153.675 494.921 150.577 496.852H150.649Z" fill="#917006"/>
<path d="M120.037 637.815C128.176 649.068 138.476 658.59 150.577 666.114C153.674 667.978 155.691 671.041 156.123 674.437L156.483 676.967C152.954 675.236 149.425 673.305 146.111 671.174C139.917 667.312 134.083 662.851 128.825 657.99C123.567 653.129 118.741 647.736 114.563 642.01C112.33 638.88 110.169 635.684 108.297 632.354L111.034 632.687C114.707 633.154 117.948 635.018 120.037 637.881V637.815Z" fill="#917006"/>
<path d="M103.975 559.11C103.975 559.909 103.903 560.708 103.759 561.441C102.318 567.966 101.598 574.758 101.598 581.483C101.598 588.208 102.318 594.934 103.759 601.459C103.903 602.192 103.975 602.991 103.975 603.79C103.975 606.387 103.038 608.917 101.382 610.914L99.6529 612.979C96.2676 602.791 94.611 592.204 94.611 581.417C94.611 570.63 96.3396 559.976 99.6529 549.788L101.31 551.786C103.038 553.85 103.975 556.38 103.975 558.977V559.11Z" fill="#917006"/>
<path d="M654.966 380.758C641.425 387.683 629.612 388.882 622.049 388.682C614.486 388.882 602.674 387.683 589.133 380.758C579.265 375.698 569.973 368.373 561.618 358.851L559.385 356.321L558.016 359.317C556.936 361.714 555.495 363.712 553.839 365.244C552.398 366.575 550.67 367.574 548.725 368.307C543.899 370.038 538.497 369.372 534.535 368.44C545.484 363.912 548.005 356.388 548.005 350.461C548.005 346.999 547.14 343.203 545.484 339.341C543.323 334.214 538.353 330.619 532.591 329.886C529.998 329.553 527.116 329.686 524.019 330.219C511.126 332.483 498.089 328.488 489.23 319.565V319.432C481.379 312.773 476.913 303.385 476.913 293.597C476.913 291.466 477.129 289.268 477.561 287.204C477.921 285.406 478.137 283.542 478.137 281.811C478.137 281.478 478.137 281.212 478.137 280.879V280.745C477.849 274.819 473.816 269.559 467.91 267.362C462.219 265.231 453.864 263.5 446.445 266.895C442.051 268.893 438.666 272.422 436.289 277.416C435.713 275.419 435.281 273.021 435.281 270.491C435.281 267.295 436.001 264.565 437.514 262.234C439.314 259.371 442.268 257.174 446.229 255.642H444.572L446.733 252.313C437.298 245.188 429.807 237.331 424.405 229.008C416.193 216.29 414.465 204.97 414.465 197.779C414.465 197.313 414.465 196.847 414.465 196.447V196.314C414.465 195.914 414.465 195.448 414.465 194.982C414.465 187.724 416.193 176.471 424.405 163.753C429.807 155.43 437.298 147.573 446.733 140.448L449.47 138.384L446.229 137.119C442.196 135.587 439.314 133.39 437.514 130.527C436.073 128.196 435.281 125.466 435.281 122.27C435.281 119.74 435.713 117.342 436.289 115.345C438.666 120.339 442.124 123.868 446.445 125.866C453.864 129.261 462.219 127.53 467.91 125.399C473.6 123.335 477.633 118.408 478.137 112.881C478.137 112.215 478.21 111.549 478.21 110.817C478.21 109.152 477.993 107.421 477.633 105.623C477.201 103.493 476.985 101.295 476.985 99.1644C476.985 89.5094 481.379 80.1207 489.086 73.5287V73.3955C497.945 64.3397 511.054 60.278 524.019 62.4753C526.396 62.8748 528.701 63.0746 530.862 62.9414H530.934C537.416 62.6751 543.107 58.9462 545.484 53.4196C547.14 49.491 548.005 45.6956 548.005 42.1665C548.005 36.2403 545.484 28.716 534.535 24.1882C538.425 23.2559 543.899 22.5901 548.725 24.3213C550.67 24.9872 552.398 26.0526 553.839 27.3843C555.495 28.9158 556.936 30.9134 558.016 33.3771L559.385 36.3735L561.618 33.8432C569.973 24.3879 579.265 17.0634 589.133 12.0028C602.602 5.34421 614.414 4.07907 621.977 4.27883C629.54 4.07907 641.353 5.27763 654.894 12.2026C664.834 17.2632 674.125 24.6543 682.481 34.1761L686.01 32.1785V33.5768C687.09 31.1797 688.531 29.1155 690.188 27.5841C691.628 26.2523 693.429 25.187 695.302 24.5211C700.128 22.7898 705.602 23.4557 709.491 24.3879C698.543 28.9158 696.022 36.44 696.022 42.3662C696.022 45.8953 696.886 49.6907 698.615 53.6859C700.92 59.0128 706.106 62.6085 712.156 63.1412C714.533 63.3409 717.126 63.2078 719.935 62.7417C732.828 60.4777 745.865 64.4729 754.725 73.3955V73.5287C762.576 80.1873 767.114 89.576 767.114 99.3642C767.114 101.495 766.897 103.626 766.465 105.756C766.105 107.554 765.889 109.419 765.889 111.15C765.889 111.483 765.889 111.749 765.889 112.082V112.215C766.177 118.341 770.355 123.735 776.549 125.932C782.167 127.93 790.379 129.594 797.725 126.132C802.047 124.068 805.504 120.539 807.881 115.545C808.458 117.542 808.89 119.939 808.89 122.47C808.89 125.666 808.169 128.396 806.657 130.726C804.856 133.59 801.903 135.787 797.941 137.318H799.382L797.221 140.515C806.657 147.639 814.22 155.496 819.622 163.886C828.193 176.604 829.922 187.857 829.922 195.115C829.922 195.581 829.922 196.048 829.922 196.447V196.58C829.922 196.98 829.922 197.379 829.922 197.912C829.922 205.103 828.193 216.423 819.982 229.141C814.58 237.531 807.017 245.388 797.509 252.513L799.67 255.709H798.302C802.335 257.24 805.216 259.504 807.017 262.301C808.458 264.632 809.25 267.428 809.25 270.558C809.25 273.088 808.818 275.485 808.241 277.483C805.865 272.555 802.479 269.026 798.158 266.962C790.883 263.566 782.672 265.164 777.125 267.162C772.876 268.693 769.418 271.823 767.762 275.751C766.753 278.149 766.177 280.213 766.177 281.944C766.177 283.675 766.393 285.34 766.753 287.138C767.186 289.268 767.402 291.466 767.402 293.597C767.402 303.252 763.008 312.574 755.301 319.232V319.366C746.442 328.421 733.332 332.483 720.367 330.286C717.99 329.886 715.686 329.686 713.525 329.82H713.453C706.97 330.086 701.208 333.881 698.831 339.475C697.174 343.337 696.382 347.065 696.382 350.461C696.382 356.388 698.903 363.912 709.851 368.44C705.962 369.372 700.488 370.038 695.662 368.307C693.717 367.641 691.988 366.575 690.548 365.244C688.891 363.712 687.451 361.714 686.37 359.317L685.002 356.321L682.769 358.851C674.414 368.373 665.122 375.698 655.182 380.825L654.966 380.758ZM691.052 338.21C692.781 335.413 694.725 333.016 696.742 331.085C698.543 329.42 700.416 328.088 702.432 327.09C706.394 325.092 710.211 324.692 713.093 324.626C715.686 324.559 718.423 324.759 721.16 325.225C732.324 327.156 743.488 323.627 751.051 315.77H751.123L751.195 315.57C757.822 309.91 761.639 301.92 761.639 293.597C761.639 291.732 761.423 289.934 761.063 288.07C760.631 286.006 760.415 283.942 760.415 281.944C760.415 277.283 761.567 273.288 764.016 269.692C766.465 266.096 770.139 263.033 775.181 260.303C793.404 250.582 806.801 239.196 815.084 226.411C822.647 214.692 824.232 204.371 824.232 197.845C824.232 197.379 824.232 196.913 824.232 196.58V196.381C824.232 195.981 824.232 195.581 824.232 195.115C824.232 188.523 822.647 178.269 815.084 166.55C806.801 153.765 793.404 142.379 775.181 132.657C772.155 131.059 769.562 129.261 767.474 127.397C765.673 125.732 764.232 124.001 763.152 122.137C760.991 118.474 760.559 114.945 760.487 112.282C760.487 111.949 760.487 111.549 760.487 111.15C760.487 109.086 760.703 106.955 761.135 104.824C761.495 103.026 761.711 101.162 761.711 99.3642C761.711 90.9743 757.822 82.9173 751.051 77.1909H750.979L750.907 76.9911C743.344 69.3337 732.18 65.8712 721.088 67.8022C713.309 69.134 706.61 68.2017 701.064 65.0056C696.022 62.0092 692.925 57.7477 691.052 54.7513C679.96 36.9727 666.923 24.1882 652.229 16.7305C639.768 10.3382 628.964 9.27281 622.049 9.47257H621.977H621.905C614.991 9.27281 604.186 10.4048 591.726 16.7305C577.104 24.1882 563.995 37.0393 552.902 54.7513C551.174 57.5479 549.229 59.945 547.212 61.876C545.412 63.5407 543.539 64.8724 541.522 65.8712C537.561 67.8688 533.743 68.2683 530.862 68.3349C528.269 68.4015 525.532 68.2017 522.795 67.7356C511.63 65.8046 500.466 69.3337 492.903 77.1243H492.831L492.759 77.3241C486.133 82.9839 482.315 90.9743 482.315 99.2976C482.315 101.162 482.531 103.026 482.891 104.824C483.323 106.888 483.54 108.953 483.54 110.95C483.54 115.611 482.387 119.606 479.938 123.202C477.489 126.798 473.816 129.861 468.774 132.591C450.551 142.312 437.154 153.699 428.87 166.483C421.307 178.202 419.723 188.523 419.723 195.049C419.723 195.515 419.723 195.981 419.723 196.314V196.514C419.723 196.913 419.723 197.313 419.723 197.779C419.723 204.371 421.307 214.625 428.87 226.344C437.154 239.129 450.551 250.515 468.774 260.237C471.799 261.835 474.392 263.633 476.481 265.497C478.282 267.162 479.722 268.893 480.803 270.757C482.963 274.42 483.396 278.015 483.468 280.679C483.468 281.012 483.468 281.345 483.468 281.678C483.468 283.808 483.251 285.939 482.819 288.07C482.459 289.868 482.243 291.666 482.243 293.53C482.243 301.92 486.133 309.977 492.903 315.703H492.975L493.047 315.903C500.61 323.56 511.775 327.023 522.867 325.092C530.646 323.76 537.344 324.692 542.891 327.889C547.933 330.885 551.03 335.147 552.902 338.143C563.995 355.921 577.032 368.706 591.726 376.164C604.186 382.556 614.991 383.621 621.905 383.422H621.977H622.049C628.892 383.621 639.768 382.556 652.229 376.164C666.923 368.706 679.96 355.855 691.052 338.143V338.21Z" fill="#917006"/>
<path d="M621.689 360.451C618.52 360.584 612.038 360.251 603.827 356.056C593.166 350.596 583.371 340.741 574.583 326.691C557.945 299.99 532.231 300.057 518.329 302.52C515.592 302.987 512.855 302.054 511.127 300.057C510.838 299.657 510.478 299.324 510.046 299.058C508.245 297.793 507.165 295.795 507.165 293.664C507.165 293.265 507.165 292.865 507.309 292.466C508.029 288.87 508.39 285.341 508.39 281.879C508.39 281.213 508.39 280.547 508.39 279.881C507.741 262.902 498.594 249.651 481.235 240.395C473.384 236.2 466.613 231.673 461.211 226.945C456.673 223.016 453 218.888 450.263 214.626C448.102 211.297 446.59 207.968 445.653 204.638C444.861 201.709 444.645 199.378 444.645 197.913C444.645 197.514 444.645 197.181 444.645 196.848V196.715V196.315V196.182C444.645 196.182 444.645 195.516 444.645 195.117C444.645 193.652 444.789 191.321 445.653 188.391C446.59 185.062 448.174 181.666 450.263 178.403C453 174.208 456.673 170.08 461.211 166.085C466.613 161.357 473.384 156.829 481.235 152.634C503.78 140.649 508.462 123.403 508.462 111.085C508.462 107.689 508.101 104.16 507.381 100.697C507.309 100.298 507.237 99.8981 507.237 99.432C507.237 97.3678 508.318 95.3036 510.118 94.0385C510.478 93.7721 510.838 93.4392 511.127 93.0397C512.855 90.9755 515.592 90.0433 518.257 90.5094C522.795 91.3084 527.405 91.6414 531.799 91.4416C550.166 90.8423 564.499 82.3859 574.511 66.3385C583.299 52.2888 593.166 42.3674 603.754 36.9739C611.966 32.779 618.52 32.4461 621.617 32.5792H621.761H622.122H622.266C625.435 32.4461 631.917 32.779 640.129 36.9739C650.789 42.3674 660.585 52.2888 669.372 66.3385C686.01 92.9731 711.724 92.9065 725.626 90.5094C728.363 90.0433 731.1 90.9755 732.829 93.0397C733.117 93.3726 733.477 93.7055 733.837 93.9719C735.638 95.3036 736.718 97.3012 736.718 99.3654C736.718 99.7649 736.718 100.164 736.574 100.631C735.854 104.16 735.494 107.689 735.494 111.151C735.494 111.817 735.494 112.483 735.494 113.149C736.142 130.128 745.289 143.379 762.648 152.634C770.499 156.829 777.27 161.357 782.672 166.085C787.21 170.014 790.883 174.142 793.62 178.403C795.781 181.733 797.294 185.062 798.23 188.391C799.022 191.321 799.238 193.652 799.238 195.117C799.238 195.516 799.238 195.849 799.238 196.182V196.315V196.715V196.848C799.238 196.848 799.238 197.514 799.238 197.913C799.238 199.378 799.094 201.709 798.23 204.638C797.294 207.968 795.709 211.364 793.62 214.626C790.883 218.821 787.21 222.95 782.672 226.945C777.27 231.673 770.499 236.2 762.648 240.395C740.103 252.381 735.422 269.627 735.422 281.945C735.422 285.341 735.782 288.87 736.502 292.333C736.574 292.732 736.646 293.198 736.646 293.598C736.646 295.662 735.566 297.66 733.837 298.925C733.405 299.191 733.045 299.524 732.757 299.924C731.028 301.988 728.291 302.92 725.626 302.454C721.088 301.655 716.478 301.322 712.084 301.522C693.717 302.121 679.384 310.577 669.372 326.625C660.585 340.674 650.717 350.596 640.129 355.989C631.917 360.184 625.363 360.517 622.266 360.384H622.122H621.761H621.617L621.689 360.451ZM637.031 351.994C645.171 348.598 657.343 340.475 669.444 321.165C675.062 312.109 682.265 305.384 690.836 301.189C697.319 297.993 704.522 296.261 712.229 295.995C712.949 295.995 713.669 295.995 714.317 295.995C717.343 295.995 720.584 296.261 723.753 296.661C725.554 296.927 727.426 296.394 728.723 295.196C729.803 294.197 730.38 292.865 730.38 291.467C730.38 291.201 730.38 291.068 730.38 290.934V290.801V290.668C729.875 287.738 729.659 284.742 729.659 281.879C729.659 281.213 729.659 280.547 729.659 279.948C729.947 272.756 731.82 266.098 735.277 260.171C739.815 252.248 747.09 245.656 756.886 240.395C777.846 229.209 786.561 217.956 790.235 210.431C791.963 206.902 792.972 201.842 792.972 196.581C792.972 191.321 791.963 186.261 790.235 182.732C786.561 175.207 777.774 163.954 756.886 152.768C747.09 147.574 739.815 140.915 735.277 132.992C731.82 126.999 729.947 120.34 729.659 113.215C729.659 112.616 729.659 111.95 729.659 111.284C729.659 108.488 729.875 105.558 730.38 102.628C730.38 102.362 730.452 102.029 730.452 101.762C730.452 100.364 729.875 99.0324 728.795 98.0337C727.498 96.8351 725.626 96.3024 723.825 96.5687C720.656 97.0349 717.487 97.2346 714.389 97.2346C713.597 97.2346 712.949 97.2346 712.301 97.2346C704.522 96.9683 697.319 95.237 690.908 92.0409C682.337 87.8459 675.206 81.1207 669.516 72.065C657.415 52.6883 645.243 44.6314 637.103 41.2355C628.964 37.8396 615.207 37.8396 607.14 41.2355C599.001 44.6314 586.828 52.7549 574.727 72.065C569.109 81.1207 561.906 87.8459 553.335 92.0409C546.852 95.237 539.65 96.9683 531.943 97.2346C531.294 97.2346 530.574 97.2346 529.854 97.2346C526.757 97.2346 523.587 97.0349 520.346 96.5687C518.545 96.3024 516.673 96.8351 515.376 98.0337C514.296 99.0324 513.72 100.364 513.72 101.762C513.72 102.029 513.72 102.229 513.72 102.362V102.495V102.628C514.224 105.625 514.44 108.554 514.44 111.351C514.44 112.083 514.44 112.683 514.44 113.282C514.152 120.473 512.279 127.132 508.822 133.058C504.284 140.982 497.009 147.574 487.213 152.834C466.253 164.021 457.466 175.274 453.864 182.798C452.136 186.327 451.127 191.388 451.127 196.648C451.127 201.908 452.136 206.969 453.864 210.498C457.538 218.022 466.325 229.275 487.213 240.462C497.009 245.656 504.284 252.314 508.822 260.238C512.279 266.231 514.152 272.889 514.44 280.014C514.44 280.613 514.44 281.279 514.44 281.945C514.44 284.808 514.152 287.805 513.72 290.735V290.868V291.001C513.72 291.068 513.72 291.334 513.72 291.534C513.72 292.932 514.296 294.264 515.376 295.263C516.673 296.528 518.545 297.06 520.346 296.794C523.587 296.328 526.757 296.128 529.854 296.128C530.502 296.128 531.222 296.128 531.943 296.128C539.722 296.394 546.924 298.126 553.335 301.322C561.906 305.517 569.037 312.242 574.727 321.298C586.828 340.674 599.001 348.731 607.14 352.127C615.279 355.523 629.036 355.523 637.103 352.127L637.031 351.994Z" fill="#917006"/>
<path d="M621.978 126.2L635.303 147.574C630.981 146.576 626.515 146.043 621.978 146.043C617.44 146.043 612.974 146.576 608.652 147.574L621.978 126.2Z" fill="#917006"/>
<path d="M621.978 266.761L608.652 245.387C612.974 246.386 617.44 246.918 621.978 246.918C626.515 246.918 630.981 246.386 635.303 245.387L621.978 266.761Z" fill="#917006"/>
<path d="M583.442 232.139C586.611 235.069 590.213 237.665 594.03 239.796L568.244 246.189L575.159 222.351C577.464 225.88 580.201 229.209 583.442 232.139Z" fill="#917006"/>
<path d="M583.442 160.823C580.273 163.753 577.464 167.082 575.159 170.611L568.244 146.773L594.03 153.166C590.213 155.297 586.611 157.827 583.442 160.823Z" fill="#917006"/>
<path d="M545.987 196.514L569.108 184.195C568.028 188.19 567.452 192.319 567.452 196.514C567.452 200.709 568.028 204.837 569.108 208.832L545.987 196.514Z" fill="#917006"/>
<path d="M600.729 133.122C599.577 134.987 597.776 136.451 595.543 137.251H595.471C593.31 138.116 590.861 138.316 588.628 137.717L574.151 134.121L578.977 100.229L608.292 121.003L600.801 133.056L600.729 133.122Z" fill="#917006"/>
<path d="M578.832 292.663L574.006 258.771L588.556 255.175C590.789 254.642 593.238 254.775 595.399 255.641H595.471C597.631 256.507 599.504 257.971 600.657 259.836L608.147 271.821L578.76 292.596L578.832 292.663Z" fill="#917006"/>
<path d="M553.479 216.157C555.495 217.223 557.08 218.887 557.944 220.952C558.52 222.283 558.809 223.548 558.809 224.88C558.809 225.746 558.665 226.545 558.448 227.41L554.559 240.794L517.897 236.333L540.369 209.232L553.406 216.157H553.479Z" fill="#917006"/>
<path d="M558.809 168.081C558.809 169.413 558.521 170.678 557.945 171.943C557.08 174.074 555.424 175.739 553.479 176.804L540.514 183.729L518.041 156.628L554.703 152.167L558.593 165.617C558.809 166.416 558.953 167.282 558.953 168.148L558.809 168.081Z" fill="#917006"/>
<path d="M648.483 220.951C645.026 224.147 641.065 226.61 636.599 228.342C631.989 230.14 627.091 231.072 622.049 231.072C617.007 231.072 612.109 230.14 607.5 228.342C603.034 226.61 599.072 224.08 595.615 220.951C592.158 217.754 589.493 214.092 587.62 209.964C585.675 205.702 584.667 201.174 584.667 196.513C584.667 191.852 585.675 187.324 587.62 183.063C589.493 178.935 592.23 175.272 595.615 172.076C599.072 168.88 603.034 166.416 607.5 164.685C612.109 162.887 617.007 161.955 622.049 161.955C627.091 161.955 631.989 162.887 636.599 164.685C641.065 166.416 645.026 168.947 648.483 172.076C651.941 175.272 654.606 178.935 656.478 183.063C658.423 187.324 659.432 191.852 659.432 196.513C659.432 201.174 658.423 205.702 656.478 209.964C654.606 214.092 651.869 217.754 648.483 220.951ZM622.049 167.482C604.762 167.482 590.645 180.466 590.645 196.513C590.645 212.561 604.69 225.545 622.049 225.545C639.408 225.545 653.381 212.561 653.381 196.513C653.381 180.466 639.336 167.482 622.049 167.482Z" fill="#917006"/>
<path d="M621.977 94.7704C614.703 94.7704 607.428 95.4363 600.369 96.768C596.768 97.4339 593.022 96.6348 590.141 94.5706L587.908 92.9726C598.928 89.843 610.381 88.3115 622.049 88.3115C633.718 88.3115 645.242 89.9096 656.263 92.9726L654.102 94.5041C651.149 96.5682 647.403 97.3673 643.802 96.7014C636.743 95.3697 629.396 94.7038 622.121 94.7038L621.977 94.7704Z" fill="#917006"/>
<path d="M589.997 298.457C592.95 296.393 596.696 295.594 600.297 296.26C607.356 297.591 614.703 298.257 621.978 298.257C629.252 298.257 636.527 297.591 643.586 296.26C647.187 295.594 650.933 296.393 653.814 298.457L656.047 300.055C645.027 303.185 633.574 304.716 621.906 304.716C610.237 304.716 598.713 303.118 587.692 300.055L589.853 298.524L589.997 298.457Z" fill="#917006"/>
<path d="M561.042 111.815C548.869 119.34 538.569 128.862 530.43 140.048C528.413 142.911 525.1 144.776 521.427 145.175L518.69 145.508C520.562 142.245 522.651 138.983 524.956 135.92C529.134 130.193 533.959 124.8 539.217 119.939C544.548 115.012 550.31 110.617 556.504 106.755C559.89 104.691 563.347 102.693 566.948 100.962L566.588 103.492C566.084 106.888 564.067 109.884 560.97 111.815H561.042Z" fill="#917006"/>
<path d="M530.43 252.846C538.569 264.099 548.869 273.621 560.97 281.145C564.067 283.009 566.084 286.072 566.516 289.468L566.876 291.999C563.347 290.267 559.817 288.336 556.504 286.206C550.31 282.344 544.475 277.882 539.217 273.022C533.959 268.161 529.133 262.767 524.956 257.041C522.723 253.911 520.562 250.715 518.689 247.386L521.426 247.719C525.1 248.185 528.341 250.049 530.43 252.912V252.846Z" fill="#917006"/>
<path d="M514.367 174.139C514.367 174.939 514.295 175.738 514.151 176.47C512.711 182.995 511.99 189.787 511.99 196.512C511.99 203.238 512.711 209.963 514.151 216.488C514.295 217.221 514.367 218.02 514.367 218.819C514.367 221.416 513.431 223.946 511.774 225.944L510.046 228.008C506.66 217.82 505.004 207.233 505.004 196.446C505.004 185.659 506.732 175.005 510.046 164.817L511.702 166.815C513.431 168.879 514.367 171.409 514.367 174.006V174.139Z" fill="#917006"/>
</g>
<defs>
<filter id="filter0_f_1092_12366" x="0" y="0.258789" width="833.922" height="777.479" filterUnits="userSpaceOnUse" color-interpolation-filters="sRGB">
<feFlood flood-opacity="0" result="BackgroundImageFix"/>
<feBlend mode="normal" in="SourceGraphic" in2="BackgroundImageFix" result="shape"/>
<feGaussianBlur stdDeviation="2" result="effect1_foregroundBlur_1092_12366"/>
</filter>
</defs>
</svg>
