<svg width="621" height="1144" viewBox="0 0 621 1144" fill="none" xmlns="http://www.w3.org/2000/svg">
<g opacity="0.1" filter="url(#filter0_f_1098_11991)">
<path d="M654.771 765.536C641.23 772.461 629.417 773.66 621.854 773.46C614.291 773.66 602.478 772.461 588.937 765.536C579.069 760.475 569.778 753.151 561.423 743.629L559.19 741.099L557.821 744.095C556.741 746.492 555.3 748.49 553.644 750.021C552.203 751.353 550.474 752.352 548.53 753.084C543.704 754.816 538.302 754.15 534.34 753.218C545.288 748.69 547.809 741.165 547.809 735.239C547.809 731.777 546.945 727.981 545.288 724.119C543.128 718.992 538.158 715.397 532.395 714.664C529.802 714.331 526.921 714.464 523.824 714.997C510.931 717.261 497.894 713.266 489.034 704.343V704.21C481.183 697.551 476.718 688.163 476.718 678.375C476.718 676.244 476.934 674.046 477.366 671.982C477.726 670.184 477.942 668.32 477.942 666.589C477.942 666.256 477.942 665.989 477.942 665.656V665.523C477.654 659.597 473.621 654.337 467.714 652.139C462.024 650.009 453.669 648.277 446.25 651.673C441.856 653.671 438.471 657.2 436.094 662.194C435.518 660.196 435.086 657.799 435.086 655.269C435.086 652.073 435.806 649.343 437.318 647.012C439.119 644.149 442.072 641.952 446.034 640.42H444.377L446.538 637.091C437.102 629.966 429.611 622.109 424.209 613.786C415.998 601.068 414.27 589.748 414.27 582.557C414.27 582.091 414.27 581.624 414.27 581.225V581.092C414.27 580.692 414.27 580.226 414.27 579.76C414.27 572.502 415.998 561.249 424.209 548.531C429.611 540.208 437.102 532.351 446.538 525.226L449.275 523.162L446.034 521.897C442 520.365 439.119 518.168 437.318 515.304C435.878 512.974 435.086 510.244 435.086 507.048C435.086 504.517 435.518 502.12 436.094 500.123C438.471 505.117 441.928 508.646 446.25 510.643C453.669 514.039 462.024 512.308 467.714 510.177C473.404 508.113 477.438 503.186 477.942 497.659C477.942 496.993 478.014 496.327 478.014 495.595C478.014 493.93 477.798 492.199 477.438 490.401C477.006 488.27 476.79 486.073 476.79 483.942C476.79 474.287 481.183 464.899 488.89 458.307V458.173C497.75 449.118 510.859 445.056 523.824 447.253C526.201 447.653 528.506 447.852 530.667 447.719H530.739C537.221 447.453 542.911 443.724 545.288 438.197C546.945 434.269 547.809 430.473 547.809 426.944C547.809 421.018 545.288 413.494 534.34 408.966C538.23 408.034 543.704 407.368 548.53 409.099C550.474 409.765 552.203 410.83 553.644 412.162C555.3 413.694 556.741 415.691 557.821 418.155L559.19 421.151L561.423 418.621C569.778 409.166 579.069 401.841 588.937 396.781C602.478 389.856 614.291 388.657 621.854 388.857C629.417 388.657 641.23 389.856 654.771 396.781C664.711 401.841 674.002 409.232 682.357 418.754L685.887 416.757V418.155C686.967 415.758 688.408 413.694 690.064 412.162C691.505 410.83 693.306 409.765 695.178 409.099C700.004 407.368 705.478 408.034 709.368 408.966C698.42 413.494 695.899 421.018 695.899 426.944C695.899 430.473 696.763 434.269 698.492 438.264C700.797 443.591 705.983 447.187 712.033 447.719C714.41 447.919 717.003 447.786 719.812 447.32C732.705 445.056 745.742 449.051 754.601 457.974V458.107C762.453 464.765 766.99 474.154 766.99 483.942C766.99 486.073 766.774 488.204 766.342 490.335C765.982 492.132 765.766 493.997 765.766 495.728C765.766 496.061 765.766 496.327 765.766 496.66V496.793C766.054 502.919 770.232 508.313 776.426 510.51C782.044 512.508 790.255 514.173 797.602 510.71C801.924 508.646 805.381 505.117 807.758 500.123C808.334 502.12 808.766 504.517 808.766 507.048C808.766 510.244 808.046 512.974 806.534 515.304C804.733 518.168 801.78 520.365 797.818 521.897H799.259L797.098 525.093C806.534 532.217 814.097 540.075 819.499 548.464C827.71 561.182 829.438 572.502 829.438 579.693C829.438 580.16 829.438 580.626 829.438 581.025V581.158C829.438 581.558 829.438 581.957 829.438 582.49C829.438 589.681 827.71 601.001 819.499 613.719C814.097 622.109 806.534 629.966 797.026 637.091L799.187 640.287H797.818C801.852 641.819 804.733 644.083 806.534 646.879C807.974 649.21 808.766 652.006 808.766 655.136C808.766 657.666 808.334 660.063 807.758 662.061C805.381 657.133 801.996 653.604 797.674 651.54C790.399 648.144 782.188 649.742 776.642 651.74C772.392 653.271 768.935 656.401 767.278 660.33C766.27 662.727 765.694 664.791 765.694 666.522C765.694 668.253 765.91 669.918 766.27 671.716C766.702 673.847 766.918 676.044 766.918 678.175C766.918 687.83 762.525 697.152 754.818 703.811V703.944C745.958 712.999 732.849 717.061 719.884 714.864C717.507 714.464 715.202 714.265 713.041 714.398H712.969C706.487 714.664 700.725 718.459 698.348 724.053C696.691 727.915 695.899 731.644 695.899 735.039C695.899 740.966 698.42 748.49 709.368 753.018C705.478 753.95 700.004 754.616 695.178 752.885C693.234 752.219 691.505 751.153 690.064 749.822C688.408 748.29 686.967 746.293 685.887 743.895L684.518 740.899L682.285 743.429C673.93 752.951 664.639 760.276 654.699 765.403L654.771 765.536ZM690.857 722.987C692.585 720.191 694.53 717.794 696.547 715.863C698.348 714.198 700.22 712.866 702.237 711.867C706.199 709.87 710.016 709.47 712.897 709.404C715.49 709.337 718.227 709.537 720.964 710.003C732.129 711.934 743.293 708.405 750.856 700.548H750.928L751 700.348C757.627 694.688 761.444 686.698 761.444 678.375C761.444 676.51 761.228 674.712 760.868 672.848C760.436 670.784 760.22 668.719 760.22 666.722C760.22 662.061 761.372 658.066 763.821 654.47C766.27 650.874 769.943 647.811 774.985 645.081C793.208 635.36 806.606 623.973 814.889 611.189C822.452 599.47 824.036 589.149 824.036 582.623C824.036 582.157 824.036 581.691 824.036 581.358V581.158C824.036 580.759 824.036 580.359 824.036 579.893C824.036 573.301 822.452 563.047 814.889 551.328C806.606 538.543 793.208 527.157 774.985 517.435C771.96 515.837 769.367 514.039 767.278 512.175C765.478 510.51 764.037 508.779 762.957 506.915C760.796 503.252 760.364 499.723 760.292 497.06C760.292 496.727 760.292 496.327 760.292 495.928C760.292 493.864 760.508 491.733 760.94 489.602C761.3 487.804 761.516 485.94 761.516 484.142C761.516 475.752 757.627 467.695 750.856 461.969H750.784L750.712 461.769C743.149 454.112 731.985 450.649 720.892 452.58C713.113 453.912 706.415 452.98 700.869 449.783C695.827 446.787 692.729 442.526 690.857 439.529C679.764 421.751 666.727 408.966 652.034 401.508C639.573 395.116 628.769 394.051 621.854 394.25H621.782H621.71C614.795 394.051 603.991 395.183 591.53 401.508C576.909 408.966 563.799 421.817 552.707 439.529C550.979 442.326 549.034 444.723 547.017 446.654C545.216 448.319 543.344 449.65 541.327 450.649C537.365 452.647 533.548 453.046 530.667 453.113C528.074 453.179 525.337 452.98 522.6 452.514C511.435 450.583 500.271 454.112 492.708 461.902H492.636L492.564 462.102C485.937 467.762 482.12 475.752 482.12 484.075C482.12 485.94 482.336 487.804 482.696 489.602C483.128 491.666 483.344 493.731 483.344 495.728C483.344 500.389 482.192 504.384 479.743 507.98C477.294 511.576 473.621 514.639 468.579 517.369C450.355 527.09 436.958 538.477 428.675 551.261C421.112 562.98 419.528 573.301 419.528 579.827C419.528 580.293 419.528 580.759 419.528 581.092V581.292C419.528 581.691 419.528 582.091 419.528 582.557C419.528 589.149 421.112 599.403 428.675 611.122C436.958 623.907 450.355 635.293 468.579 645.015C471.604 646.613 474.197 648.411 476.286 650.275C478.086 651.94 479.527 653.671 480.607 655.535C482.768 659.198 483.2 662.793 483.272 665.457C483.272 665.79 483.272 666.123 483.272 666.456C483.272 668.586 483.056 670.717 482.624 672.848C482.264 674.646 482.048 676.444 482.048 678.308C482.048 686.698 485.937 694.755 492.708 700.481H492.78L492.852 700.681C500.415 708.338 511.579 711.801 522.672 709.87C530.451 708.538 537.149 709.47 542.695 712.666C547.737 715.663 550.834 719.924 552.707 722.921C563.799 740.699 576.837 753.484 591.53 760.942C603.991 767.334 614.795 768.399 621.71 768.2H621.782H621.854C628.697 768.399 639.573 767.334 652.034 760.942C666.727 753.484 679.764 740.633 690.857 722.921V722.987Z" fill="#917006"/>
<path d="M621.494 745.226C618.325 745.359 611.842 745.026 603.631 740.831C592.971 735.371 583.175 725.516 574.388 711.467C557.749 684.766 532.035 684.832 518.134 687.296C515.397 687.762 512.66 686.83 510.931 684.832C510.643 684.433 510.283 684.1 509.851 683.833C508.05 682.568 506.97 680.571 506.97 678.44C506.97 678.04 506.97 677.641 507.114 677.241C507.834 673.646 508.194 670.117 508.194 666.654C508.194 665.988 508.194 665.322 508.194 664.656C507.546 647.677 498.398 634.426 481.04 625.171C473.189 620.976 466.418 616.448 461.016 611.72C456.478 607.792 452.805 603.663 450.068 599.402C447.907 596.072 446.394 592.743 445.458 589.414C444.666 586.484 444.45 584.154 444.45 582.689C444.45 582.289 444.45 581.956 444.45 581.623V581.49V581.091V580.957C444.45 580.957 444.45 580.292 444.45 579.892C444.45 578.427 444.594 576.097 445.458 573.167C446.394 569.837 447.979 566.442 450.068 563.179C452.805 558.984 456.478 554.856 461.016 550.86C466.418 546.133 473.189 541.605 481.04 537.41C503.584 525.424 508.266 508.178 508.266 495.86C508.266 492.464 507.906 488.935 507.186 485.473C507.114 485.073 507.042 484.673 507.042 484.207C507.042 482.143 508.122 480.079 509.923 478.814C510.283 478.548 510.643 478.215 510.931 477.815C512.66 475.751 515.397 474.819 518.062 475.285C522.6 476.084 527.21 476.417 531.603 476.217C549.97 475.618 564.304 467.161 574.316 451.114C583.103 437.064 592.971 427.143 603.559 421.749C611.77 417.554 618.325 417.221 621.422 417.355H621.566H621.926H622.07C625.24 417.221 631.722 417.554 639.933 421.749C650.593 427.143 660.389 437.064 669.177 451.114C685.815 477.748 711.529 477.682 725.43 475.285C728.167 474.819 730.905 475.751 732.633 477.815C732.921 478.148 733.281 478.481 733.642 478.747C735.442 480.079 736.523 482.077 736.523 484.141C736.523 484.54 736.523 484.94 736.379 485.406C735.658 488.935 735.298 492.464 735.298 495.927C735.298 496.592 735.298 497.258 735.298 497.924C735.947 514.904 745.094 528.154 762.453 537.41C770.304 541.605 777.074 546.133 782.477 550.86C787.014 554.789 790.688 558.917 793.425 563.179C795.586 566.508 797.098 569.837 798.035 573.167C798.827 576.097 799.043 578.427 799.043 579.892C799.043 580.292 799.043 580.624 799.043 580.957V581.091V581.49V581.623C799.043 581.623 799.043 582.289 799.043 582.689C799.043 584.154 798.899 586.484 798.035 589.414C797.098 592.743 795.514 596.139 793.425 599.402C790.688 603.597 787.014 607.725 782.477 611.72C777.074 616.448 770.304 620.976 762.453 625.171C739.908 637.156 735.226 654.402 735.226 666.721C735.226 670.117 735.586 673.646 736.307 677.108C736.379 677.508 736.451 677.974 736.451 678.373C736.451 680.437 735.37 682.435 733.642 683.7C733.209 683.966 732.849 684.299 732.561 684.699C730.833 686.763 728.095 687.695 725.43 687.229C720.893 686.43 716.283 686.097 711.889 686.297C693.522 686.896 679.189 695.353 669.177 711.4C660.389 725.45 650.521 735.371 639.933 740.765C631.722 744.96 625.168 745.293 622.07 745.159H621.926H621.566H621.422L621.494 745.226ZM636.836 736.77C644.975 733.374 657.148 725.25 669.249 705.94C674.867 696.884 682.07 690.159 690.641 685.964C697.123 682.768 704.326 681.037 712.033 680.77C712.754 680.77 713.474 680.77 714.122 680.77C717.147 680.77 720.389 681.037 723.558 681.436C725.358 681.703 727.231 681.17 728.528 679.971C729.608 678.973 730.184 677.641 730.184 676.242C730.184 675.976 730.184 675.843 730.184 675.71V675.577V675.443C729.68 672.514 729.464 669.517 729.464 666.654C729.464 665.988 729.464 665.322 729.464 664.723C729.752 657.532 731.625 650.873 735.082 644.947C739.62 637.023 746.895 630.431 756.691 625.171C777.651 613.984 786.366 602.731 790.039 595.207C791.768 591.678 792.777 586.617 792.777 581.357C792.777 576.097 791.768 571.036 790.039 567.507C786.366 559.983 777.579 548.73 756.691 537.543C746.895 532.349 739.62 525.691 735.082 517.767C731.625 511.774 729.752 505.115 729.464 497.991C729.464 497.391 729.464 496.726 729.464 496.06C729.464 493.263 729.68 490.333 730.184 487.404C730.184 487.137 730.256 486.804 730.256 486.538C730.256 485.14 729.68 483.808 728.6 482.809C727.303 481.611 725.43 481.078 723.63 481.344C720.46 481.81 717.291 482.01 714.194 482.01C713.402 482.01 712.754 482.01 712.105 482.01C704.326 481.744 697.123 480.012 690.713 476.816C682.142 472.621 675.011 465.896 669.321 456.84C657.22 437.464 645.047 429.407 636.908 426.011C628.769 422.615 615.012 422.615 606.945 426.011C598.805 429.407 586.633 437.53 574.532 456.84C568.914 465.896 561.711 472.621 553.14 476.816C546.657 480.012 539.454 481.744 531.747 482.01C531.099 482.01 530.379 482.01 529.659 482.01C526.561 482.01 523.392 481.81 520.151 481.344C518.35 481.078 516.477 481.611 515.181 482.809C514.101 483.808 513.524 485.14 513.524 486.538C513.524 486.804 513.524 487.004 513.524 487.137V487.27V487.404C514.028 490.4 514.245 493.33 514.245 496.126C514.245 496.859 514.245 497.458 514.245 498.057C513.956 505.249 512.084 511.907 508.626 517.834C504.089 525.757 496.814 532.349 487.018 537.61C466.058 548.796 457.27 560.049 453.669 567.573C451.94 571.103 450.932 576.163 450.932 581.423C450.932 586.684 451.94 591.744 453.669 595.273C457.342 602.798 466.13 614.051 487.018 625.237C496.814 630.431 504.089 637.09 508.626 645.013C512.084 651.006 513.956 657.665 514.245 664.79C514.245 665.389 514.245 666.055 514.245 666.721C514.245 669.584 513.956 672.58 513.524 675.51V675.643V675.776C513.524 675.843 513.524 676.109 513.524 676.309C513.524 677.707 514.101 679.039 515.181 680.038C516.477 681.303 518.35 681.836 520.151 681.569C523.392 681.103 526.561 680.904 529.659 680.904C530.307 680.904 531.027 680.904 531.747 680.904C539.526 681.17 546.729 682.901 553.14 686.097C561.711 690.292 568.842 697.017 574.532 706.073C586.633 725.45 598.805 733.507 606.945 736.903C615.084 740.299 628.841 740.299 636.908 736.903L636.836 736.77Z" fill="#917006"/>
<path d="M621.855 510.975L635.18 532.349C630.858 531.35 626.392 530.817 621.855 530.817C617.317 530.817 612.851 531.35 608.529 532.349L621.855 510.975Z" fill="#917006"/>
<path d="M621.855 651.54L608.529 630.166C612.851 631.165 617.317 631.698 621.855 631.698C626.392 631.698 630.858 631.165 635.18 630.166L621.855 651.54Z" fill="#917006"/>
<path d="M583.247 616.913C586.416 619.843 590.017 622.44 593.835 624.571L568.049 630.963L574.964 607.125C577.269 610.654 580.006 613.983 583.247 616.913Z" fill="#917006"/>
<path d="M583.247 545.6C580.078 548.529 577.269 551.859 574.964 555.388L568.049 531.55L593.835 537.942C590.017 540.073 586.416 542.603 583.247 545.6Z" fill="#917006"/>
<path d="M545.792 581.226L568.913 568.907C567.833 572.902 567.256 577.031 567.256 581.226C567.256 585.421 567.833 589.549 568.913 593.544L545.792 581.226Z" fill="#917006"/>
<path d="M600.534 517.833C599.381 519.698 597.581 521.162 595.348 521.961H595.276C593.115 522.827 590.666 523.027 588.433 522.428L573.955 518.832L578.781 484.939L608.097 505.714L600.606 517.767L600.534 517.833Z" fill="#917006"/>
<path d="M578.709 677.441L573.883 643.549L588.433 639.953C590.666 639.42 593.115 639.554 595.275 640.419H595.347C597.508 641.285 599.381 642.75 600.534 644.614L608.024 656.6L578.637 677.375L578.709 677.441Z" fill="#917006"/>
<path d="M553.283 600.933C555.3 601.998 556.885 603.663 557.749 605.727C558.325 607.059 558.613 608.324 558.613 609.656C558.613 610.521 558.469 611.32 558.253 612.186L554.364 625.57L517.701 621.108L540.174 594.008L553.211 600.933H553.283Z" fill="#917006"/>
<path d="M558.614 552.859C558.614 554.191 558.326 555.456 557.749 556.721C556.885 558.852 555.228 560.517 553.284 561.582L540.319 568.507L517.846 541.407L554.508 536.945L558.398 550.396C558.614 551.195 558.758 552.06 558.758 552.926L558.614 552.859Z" fill="#917006"/>
<path d="M648.288 605.728C644.831 608.924 640.869 611.388 636.403 613.119C631.794 614.917 626.896 615.849 621.854 615.849C616.812 615.849 611.914 614.917 607.304 613.119C602.838 611.388 598.877 608.858 595.42 605.728C591.962 602.532 589.297 598.87 587.424 594.741C585.48 590.48 584.471 585.952 584.471 581.291C584.471 576.63 585.48 572.102 587.424 567.84C589.297 563.712 592.034 560.05 595.42 556.854C598.877 553.657 602.838 551.194 607.304 549.462C611.914 547.665 616.812 546.732 621.854 546.732C626.896 546.732 631.794 547.665 636.403 549.462C640.869 551.194 644.831 553.724 648.288 556.854C651.745 560.05 654.41 563.712 656.283 567.84C658.228 572.102 659.236 576.63 659.236 581.291C659.236 585.952 658.228 590.48 656.283 594.741C654.41 598.87 651.673 602.532 648.288 605.728ZM621.854 552.259C604.567 552.259 590.45 565.243 590.45 581.291C590.45 597.338 604.495 610.322 621.854 610.322C639.141 610.322 653.186 597.338 653.186 581.291C653.186 565.243 639.141 552.259 621.854 552.259Z" fill="#917006"/>
<path d="M621.854 479.548C614.58 479.548 607.305 480.214 600.246 481.545C596.645 482.211 592.899 481.412 590.018 479.348L587.785 477.75C598.805 474.62 610.258 473.089 621.926 473.089C633.595 473.089 645.119 474.687 656.14 477.75L653.979 479.281C651.026 481.346 647.28 482.145 643.679 481.479C636.62 480.147 629.273 479.481 621.998 479.481L621.854 479.548Z" fill="#917006"/>
<path d="M589.802 683.167C592.755 681.103 596.501 680.304 600.102 680.97C607.161 682.301 614.508 682.967 621.782 682.967C629.057 682.967 636.332 682.301 643.391 680.97C646.992 680.304 650.738 681.103 653.619 683.167L655.852 684.765C644.831 687.895 633.379 689.426 621.71 689.426C610.042 689.426 598.517 687.828 587.497 684.765L589.658 683.234L589.802 683.167Z" fill="#917006"/>
<path d="M560.918 496.593C548.745 504.117 538.445 513.639 530.306 524.825C528.289 527.689 524.976 529.553 521.303 529.953L518.565 530.286C520.438 527.023 522.527 523.76 524.832 520.697C529.01 514.971 533.835 509.577 539.093 504.716C544.424 499.789 550.186 495.394 556.38 491.532C559.765 489.468 563.223 487.471 566.824 485.739L566.464 488.27C565.96 491.665 563.943 494.662 560.846 496.593H560.918Z" fill="#917006"/>
<path d="M530.235 637.556C538.374 648.809 548.674 658.331 560.774 665.855C563.872 667.719 565.888 670.782 566.321 674.178L566.681 676.709C563.151 674.977 559.622 673.046 556.309 670.916C550.114 667.054 544.28 662.592 539.022 657.731C533.764 652.871 528.938 647.477 524.76 641.751C522.528 638.621 520.367 635.425 518.494 632.096L521.231 632.429C524.904 632.895 528.146 634.759 530.235 637.622V637.556Z" fill="#917006"/>
<path d="M514.172 558.851C514.172 559.65 514.1 560.449 513.956 561.182C512.515 567.707 511.795 574.499 511.795 581.224C511.795 587.95 512.515 594.675 513.956 601.2C514.1 601.933 514.172 602.732 514.172 603.531C514.172 606.128 513.236 608.658 511.579 610.656L509.85 612.72C506.465 602.532 504.808 591.945 504.808 581.158C504.808 570.371 506.537 559.717 509.85 549.529L511.507 551.527C513.235 553.591 514.172 556.121 514.172 558.718V558.851Z" fill="#917006"/>
<path d="M666.501 1131.7C652.96 1138.62 641.147 1139.82 633.584 1139.62C626.022 1139.82 614.209 1138.62 600.668 1131.7C590.8 1126.64 581.508 1119.31 573.153 1109.79L570.92 1107.26L569.552 1110.26C568.471 1112.66 567.031 1114.65 565.374 1116.18C563.933 1117.52 562.205 1118.52 560.26 1119.25C555.434 1120.98 550.032 1120.31 546.071 1119.38C557.019 1114.85 559.54 1107.33 559.54 1101.4C559.54 1097.94 558.675 1094.14 557.019 1090.28C554.858 1085.16 549.888 1081.56 544.126 1080.83C541.533 1080.49 538.652 1080.63 535.554 1081.16C522.661 1083.42 509.624 1079.43 500.765 1070.51V1070.37C492.914 1063.71 488.448 1054.33 488.448 1044.54C488.448 1042.41 488.664 1040.21 489.096 1038.15C489.457 1036.35 489.673 1034.48 489.673 1032.75C489.673 1032.42 489.673 1032.15 489.673 1031.82V1031.69C489.385 1025.76 485.351 1020.5 479.445 1018.3C473.754 1016.17 465.399 1014.44 457.98 1017.84C453.587 1019.83 450.201 1023.36 447.824 1028.36C447.248 1026.36 446.816 1023.96 446.816 1021.43C446.816 1018.24 447.536 1015.51 449.049 1013.18C450.85 1010.31 453.803 1008.11 457.764 1006.58H456.108L458.268 1003.25C448.833 996.129 441.342 988.272 435.94 979.949C427.729 967.231 426 955.911 426 948.72C426 948.254 426 947.788 426 947.388V947.255C426 946.855 426 946.389 426 945.923C426 938.665 427.729 927.412 435.94 914.694C441.342 906.371 448.833 898.514 458.268 891.389L461.006 889.325L457.764 888.06C453.731 886.528 450.85 884.331 449.049 881.468C447.608 879.137 446.816 876.407 446.816 873.211C446.816 870.681 447.248 868.283 447.824 866.286C450.201 871.28 453.659 874.809 457.98 876.807C465.399 880.202 473.754 878.471 479.445 876.34C485.135 874.276 489.168 869.349 489.673 863.822C489.673 863.156 489.745 862.49 489.745 861.758C489.745 860.093 489.529 858.362 489.168 856.564C488.736 854.433 488.52 852.236 488.52 850.105C488.52 840.45 492.914 831.062 500.621 824.47V824.336C509.48 815.281 522.589 811.219 535.554 813.416C537.931 813.816 540.236 814.016 542.397 813.882H542.469C548.952 813.616 554.642 809.887 557.019 804.361C558.675 800.432 559.54 796.637 559.54 793.107C559.54 787.181 557.019 779.657 546.071 775.129C549.96 774.197 555.434 773.531 560.26 775.262C562.205 775.928 563.933 776.994 565.374 778.325C567.031 779.857 568.471 781.854 569.552 784.318L570.92 787.314L573.153 784.784C581.508 775.329 590.8 768.004 600.668 762.944C614.209 756.019 626.022 754.82 633.584 755.02C641.147 754.82 652.96 756.019 666.501 762.944C676.441 768.004 685.733 775.395 694.088 784.917L697.617 782.92V784.318C698.698 781.921 700.138 779.857 701.795 778.325C703.235 776.994 705.036 775.928 706.909 775.262C711.735 773.531 717.209 774.197 721.098 775.129C710.15 779.657 707.629 787.181 707.629 793.107C707.629 796.637 708.493 800.432 710.222 804.427C712.527 809.754 717.713 813.35 723.763 813.882C726.14 814.082 728.733 813.949 731.542 813.483C744.435 811.219 757.472 815.214 766.332 824.137V824.27C774.183 830.929 778.721 840.317 778.721 850.105C778.721 852.236 778.505 854.367 778.072 856.498C777.712 858.295 777.496 860.16 777.496 861.891C777.496 862.224 777.496 862.49 777.496 862.823V862.957C777.784 869.082 781.962 874.476 788.156 876.673C793.775 878.671 801.986 880.336 809.333 876.873C813.654 874.809 817.112 871.28 819.489 866.286C820.065 868.283 820.497 870.681 820.497 873.211C820.497 876.407 819.777 879.137 818.264 881.468C816.463 884.331 813.51 886.528 809.549 888.06H810.989L808.828 891.256C818.264 898.38 825.827 906.238 831.229 914.628C839.44 927.346 841.169 938.665 841.169 945.857C841.169 946.323 841.169 946.789 841.169 947.188V947.321C841.169 947.721 841.169 948.121 841.169 948.653C841.169 955.845 839.44 967.164 831.229 979.882C825.827 988.272 818.264 996.129 808.756 1003.25L810.917 1006.45H809.549C813.582 1007.98 816.463 1010.25 818.264 1013.04C819.705 1015.37 820.497 1018.17 820.497 1021.3C820.497 1023.83 820.065 1026.23 819.489 1028.22C817.112 1023.3 813.726 1019.77 809.405 1017.7C802.13 1014.31 793.919 1015.91 788.372 1017.9C784.123 1019.43 780.666 1022.56 779.009 1026.49C778 1028.89 777.424 1030.95 777.424 1032.69C777.424 1034.42 777.64 1036.08 778 1037.88C778.433 1040.01 778.649 1042.21 778.649 1044.34C778.649 1053.99 774.255 1063.31 766.548 1069.97V1070.11C757.689 1079.16 744.58 1083.22 731.614 1081.03C729.238 1080.63 726.933 1080.43 724.772 1080.56H724.7C718.217 1080.83 712.455 1084.62 710.078 1090.22C708.421 1094.08 707.629 1097.81 707.629 1101.2C707.629 1107.13 710.15 1114.65 721.098 1119.18C717.209 1120.11 711.735 1120.78 706.909 1119.05C704.964 1118.38 703.235 1117.32 701.795 1115.98C700.138 1114.45 698.698 1112.46 697.617 1110.06L696.249 1107.06L694.016 1109.59C685.661 1119.11 676.369 1126.44 666.429 1131.57L666.501 1131.7ZM702.587 1089.15C704.316 1086.35 706.261 1083.96 708.277 1082.03C710.078 1080.36 711.951 1079.03 713.968 1078.03C717.929 1076.03 721.747 1075.63 724.628 1075.57C727.221 1075.5 729.958 1075.7 732.695 1076.17C743.859 1078.1 755.024 1074.57 762.586 1066.71H762.658L762.731 1066.51C769.357 1060.85 773.175 1052.86 773.175 1044.54C773.175 1042.67 772.959 1040.88 772.598 1039.01C772.166 1036.95 771.95 1034.88 771.95 1032.88C771.95 1028.22 773.103 1024.23 775.551 1020.63C778 1017.04 781.674 1013.97 786.716 1011.24C804.939 1001.52 818.336 990.137 826.619 977.352C834.182 965.633 835.767 955.312 835.767 948.786C835.767 948.32 835.767 947.854 835.767 947.521V947.321C835.767 946.922 835.767 946.522 835.767 946.056C835.767 939.464 834.182 929.21 826.619 917.491C818.336 904.706 804.939 893.32 786.716 883.598C783.691 882 781.098 880.202 779.009 878.338C777.208 876.673 775.768 874.942 774.687 873.078C772.526 869.415 772.094 865.886 772.022 863.223C772.022 862.89 772.022 862.49 772.022 862.091C772.022 860.027 772.238 857.896 772.67 855.765C773.031 853.967 773.247 852.103 773.247 850.305C773.247 841.915 769.357 833.858 762.586 828.132H762.514L762.442 827.932C754.879 820.275 743.715 816.812 732.623 818.743C724.844 820.075 718.145 819.143 712.599 815.947C707.557 812.95 704.46 808.689 702.587 805.692C691.495 787.914 678.458 775.129 663.764 767.671C651.303 761.279 640.499 760.214 633.584 760.414H633.512H633.44C626.526 760.214 615.722 761.346 603.261 767.671C588.639 775.129 575.53 787.98 564.438 805.692C562.709 808.489 560.764 810.886 558.747 812.817C556.947 814.482 555.074 815.813 553.057 816.812C549.096 818.81 545.278 819.209 542.397 819.276C539.804 819.342 537.067 819.143 534.33 818.677C523.166 816.746 512.001 820.275 504.438 828.065H504.366L504.294 828.265C497.668 833.925 493.85 841.915 493.85 850.239C493.85 852.103 494.066 853.967 494.427 855.765C494.859 857.829 495.075 859.894 495.075 861.891C495.075 866.552 493.922 870.547 491.473 874.143C489.024 877.739 485.351 880.802 480.309 883.532C462.086 893.253 448.689 904.64 440.406 917.424C432.843 929.143 431.258 939.464 431.258 945.99C431.258 946.456 431.258 946.922 431.258 947.255V947.455C431.258 947.854 431.258 948.254 431.258 948.72C431.258 955.312 432.843 965.566 440.406 977.285C448.689 990.07 462.086 1001.46 480.309 1011.18C483.334 1012.78 485.927 1014.57 488.016 1016.44C489.817 1018.1 491.257 1019.83 492.338 1021.7C494.499 1025.36 494.931 1028.96 495.003 1031.62C495.003 1031.95 495.003 1032.29 495.003 1032.62C495.003 1034.75 494.787 1036.88 494.354 1039.01C493.994 1040.81 493.778 1042.61 493.778 1044.47C493.778 1052.86 497.668 1060.92 504.438 1066.64H504.51L504.582 1066.84C512.145 1074.5 523.31 1077.96 534.402 1076.03C542.181 1074.7 548.88 1075.63 554.426 1078.83C559.468 1081.83 562.565 1086.09 564.438 1089.08C575.53 1106.86 588.567 1119.65 603.261 1127.1C615.722 1133.5 626.526 1134.56 633.44 1134.36H633.512H633.584C640.427 1134.56 651.303 1133.5 663.764 1127.1C678.458 1119.65 691.495 1106.8 702.587 1089.08V1089.15Z" fill="#917006"/>
<path d="M633.225 1111.39C630.055 1111.52 623.573 1111.19 615.362 1106.99C604.702 1101.53 594.906 1091.68 586.118 1077.63C569.48 1050.93 543.766 1051 529.865 1053.46C527.127 1053.92 524.39 1052.99 522.662 1051C522.374 1050.6 522.013 1050.26 521.581 1050C519.781 1048.73 518.7 1046.73 518.7 1044.6C518.7 1044.2 518.7 1043.8 518.844 1043.4C519.565 1039.81 519.925 1036.28 519.925 1032.82C519.925 1032.15 519.925 1031.49 519.925 1030.82C519.276 1013.84 510.129 1000.59 492.77 991.334C484.919 987.139 478.148 982.611 472.746 977.883C468.209 973.955 464.535 969.826 461.798 965.565C459.637 962.236 458.125 958.906 457.188 955.577C456.396 952.647 456.18 950.317 456.18 948.852C456.18 948.452 456.18 948.119 456.18 947.786V947.653V947.254V947.12C456.18 947.12 456.18 946.455 456.18 946.055C456.18 944.59 456.324 942.26 457.188 939.33C458.125 936.001 459.709 932.605 461.798 929.342C464.535 925.147 468.209 921.019 472.746 917.023C478.148 912.296 484.919 907.768 492.77 903.573C515.315 891.587 519.997 874.342 519.997 862.023C519.997 858.627 519.637 855.098 518.916 851.636C518.844 851.236 518.772 850.837 518.772 850.37C518.772 848.306 519.853 846.242 521.653 844.977C522.013 844.711 522.374 844.378 522.662 843.978C524.39 841.914 527.127 840.982 529.792 841.448C534.33 842.247 538.94 842.58 543.334 842.38C561.701 841.781 576.034 833.324 586.046 817.277C594.834 803.227 604.702 793.306 615.29 787.912C623.501 783.717 630.055 783.385 633.153 783.518H633.297H633.657H633.801C636.97 783.385 643.453 783.717 651.664 787.912C662.324 793.306 672.12 803.227 680.907 817.277C697.546 843.912 723.259 843.845 737.161 841.448C739.898 840.982 742.635 841.914 744.364 843.978C744.652 844.311 745.012 844.644 745.372 844.91C747.173 846.242 748.253 848.24 748.253 850.304C748.253 850.703 748.253 851.103 748.109 851.569C747.389 855.098 747.029 858.627 747.029 862.09C747.029 862.756 747.029 863.421 747.029 864.087C747.677 881.067 756.825 894.317 774.183 903.573C782.034 907.768 788.805 912.296 794.207 917.023C798.745 920.952 802.418 925.08 805.155 929.342C807.316 932.671 808.829 936.001 809.765 939.33C810.557 942.26 810.773 944.59 810.773 946.055C810.773 946.455 810.773 946.788 810.773 947.12V947.254V947.653V947.786C810.773 947.786 810.773 948.452 810.773 948.852C810.773 950.317 810.629 952.647 809.765 955.577C808.829 958.906 807.244 962.302 805.155 965.565C802.418 969.76 798.745 973.888 794.207 977.883C788.805 982.611 782.034 987.139 774.183 991.334C751.638 1003.32 746.957 1020.57 746.957 1032.88C746.957 1036.28 747.317 1039.81 748.037 1043.27C748.109 1043.67 748.181 1044.14 748.181 1044.54C748.181 1046.6 747.101 1048.6 745.372 1049.86C744.94 1050.13 744.58 1050.46 744.292 1050.86C742.563 1052.93 739.826 1053.86 737.161 1053.39C732.623 1052.59 728.013 1052.26 723.62 1052.46C705.253 1053.06 690.919 1061.52 680.907 1077.56C672.12 1091.61 662.252 1101.53 651.664 1106.93C643.453 1111.12 636.898 1111.46 633.801 1111.32H633.657H633.297H633.153L633.225 1111.39ZM648.567 1102.93C656.706 1099.54 668.878 1091.41 680.979 1072.1C686.597 1063.05 693.8 1056.32 702.371 1052.13C708.854 1048.93 716.057 1047.2 723.764 1046.93C724.484 1046.93 725.204 1046.93 725.853 1046.93C728.878 1046.93 732.119 1047.2 735.288 1047.6C737.089 1047.87 738.962 1047.33 740.258 1046.13C741.339 1045.14 741.915 1043.8 741.915 1042.41C741.915 1042.14 741.915 1042.01 741.915 1041.87V1041.74V1041.61C741.411 1038.68 741.194 1035.68 741.194 1032.82C741.194 1032.15 741.194 1031.49 741.194 1030.89C741.483 1023.69 743.355 1017.04 746.813 1011.11C751.35 1003.19 758.625 996.594 768.421 991.334C789.381 980.147 798.097 968.894 801.77 961.37C803.499 957.841 804.507 952.78 804.507 947.52C804.507 942.26 803.499 937.199 801.77 933.67C798.097 926.146 789.309 914.893 768.421 903.706C758.625 898.512 751.35 891.854 746.813 883.93C743.355 877.937 741.483 871.279 741.194 864.154C741.194 863.555 741.194 862.889 741.194 862.223C741.194 859.426 741.411 856.496 741.915 853.567C741.915 853.3 741.987 852.967 741.987 852.701C741.987 851.303 741.411 849.971 740.33 848.972C739.034 847.774 737.161 847.241 735.36 847.507C732.191 847.973 729.022 848.173 725.925 848.173C725.132 848.173 724.484 848.173 723.836 848.173C716.057 847.907 708.854 846.176 702.443 842.979C693.872 838.784 686.741 832.059 681.051 823.003C668.95 803.627 656.778 795.57 648.639 792.174C640.499 788.778 626.742 788.778 618.675 792.174C610.536 795.57 598.363 803.693 586.262 823.003C580.644 832.059 573.441 838.784 564.87 842.979C558.388 846.176 551.185 847.907 543.478 848.173C542.83 848.173 542.109 848.173 541.389 848.173C538.292 848.173 535.123 847.973 531.881 847.507C530.081 847.241 528.208 847.774 526.911 848.972C525.831 849.971 525.255 851.303 525.255 852.701C525.255 852.967 525.255 853.167 525.255 853.3V853.433V853.567C525.759 856.563 525.975 859.493 525.975 862.289C525.975 863.022 525.975 863.621 525.975 864.22C525.687 871.412 523.814 878.07 520.357 883.997C515.819 891.92 508.544 898.512 498.748 903.773C477.788 914.959 469.001 926.212 465.4 933.737C463.671 937.266 462.662 942.326 462.662 947.587C462.662 952.847 463.671 957.907 465.4 961.437C469.073 968.961 477.86 980.214 498.748 991.4C508.544 996.594 515.819 1003.25 520.357 1011.18C523.814 1017.17 525.687 1023.83 525.975 1030.95C525.975 1031.55 525.975 1032.22 525.975 1032.88C525.975 1035.75 525.687 1038.74 525.255 1041.67V1041.81V1041.94C525.255 1042.01 525.255 1042.27 525.255 1042.47C525.255 1043.87 525.831 1045.2 526.911 1046.2C528.208 1047.47 530.081 1048 531.881 1047.73C535.123 1047.27 538.292 1047.07 541.389 1047.07C542.037 1047.07 542.758 1047.07 543.478 1047.07C551.257 1047.33 558.46 1049.06 564.87 1052.26C573.441 1056.46 580.572 1063.18 586.262 1072.24C598.363 1091.61 610.536 1099.67 618.675 1103.07C626.814 1106.46 640.571 1106.46 648.639 1103.07L648.567 1102.93Z" fill="#917006"/>
<path d="M633.585 877.138L646.91 898.512C642.588 897.513 638.123 896.98 633.585 896.98C629.047 896.98 624.582 897.513 620.26 898.512L633.585 877.138Z" fill="#917006"/>
<path d="M633.585 1017.7L620.26 996.329C624.582 997.328 629.047 997.861 633.585 997.861C638.123 997.861 642.588 997.328 646.91 996.329L633.585 1017.7Z" fill="#917006"/>
<path d="M594.977 983.077C598.147 986.007 601.748 988.604 605.565 990.735L579.779 997.127L586.694 973.289C588.999 976.818 591.736 980.147 594.977 983.077Z" fill="#917006"/>
<path d="M594.977 911.763C591.808 914.692 588.999 918.022 586.694 921.551L579.779 897.713L605.565 904.105C601.748 906.236 598.147 908.766 594.977 911.763Z" fill="#917006"/>
<path d="M557.523 947.389L580.644 935.07C579.563 939.065 578.987 943.194 578.987 947.389C578.987 951.584 579.563 955.712 580.644 959.707L557.523 947.389Z" fill="#917006"/>
<path d="M612.264 883.996C611.112 885.861 609.311 887.326 607.078 888.125H607.006C604.845 888.99 602.396 889.19 600.164 888.591L585.686 884.995L590.512 851.103L619.827 871.878L612.336 883.93L612.264 883.996Z" fill="#917006"/>
<path d="M590.44 1043.6L585.614 1009.71L600.163 1006.12C602.396 1005.58 604.845 1005.72 607.006 1006.58H607.078C609.239 1007.45 611.112 1008.91 612.264 1010.78L619.755 1022.76L590.367 1043.54L590.44 1043.6Z" fill="#917006"/>
<path d="M565.014 967.096C567.03 968.161 568.615 969.826 569.479 971.89C570.056 973.222 570.344 974.487 570.344 975.819C570.344 976.684 570.2 977.483 569.984 978.349L566.094 991.733L529.432 987.272L551.905 960.171L564.942 967.096H565.014Z" fill="#917006"/>
<path d="M570.344 919.023C570.344 920.354 570.056 921.619 569.48 922.885C568.616 925.015 566.959 926.68 565.014 927.745L552.049 934.67L529.576 907.57L566.239 903.108L570.128 916.559C570.344 917.358 570.488 918.224 570.488 919.089L570.344 919.023Z" fill="#917006"/>
<path d="M660.019 971.89C656.561 975.086 652.6 977.55 648.134 979.281C643.524 981.079 638.626 982.011 633.584 982.011C628.542 982.011 623.644 981.079 619.035 979.281C614.569 977.55 610.607 975.02 607.15 971.89C603.693 968.694 601.028 965.032 599.155 960.903C597.21 956.642 596.202 952.114 596.202 947.453C596.202 942.792 597.21 938.264 599.155 934.002C601.028 929.874 603.765 926.212 607.15 923.016C610.607 919.82 614.569 917.356 619.035 915.625C623.644 913.827 628.542 912.895 633.584 912.895C638.626 912.895 643.524 913.827 648.134 915.625C652.6 917.356 656.561 919.886 660.019 923.016C663.476 926.212 666.141 929.874 668.014 934.002C669.958 938.264 670.967 942.792 670.967 947.453C670.967 952.114 669.958 956.642 668.014 960.903C666.141 965.032 663.404 968.694 660.019 971.89ZM633.584 918.421C616.298 918.421 602.18 931.406 602.18 947.453C602.18 963.5 616.226 976.485 633.584 976.485C650.871 976.485 664.916 963.5 664.916 947.453C664.916 931.406 650.871 918.421 633.584 918.421Z" fill="#917006"/>
<path d="M633.585 845.711C626.31 845.711 619.035 846.377 611.976 847.708C608.375 848.374 604.63 847.575 601.748 845.511L599.516 843.913C610.536 840.783 621.988 839.252 633.657 839.252C645.325 839.252 656.85 840.85 667.87 843.913L665.709 845.444C662.756 847.509 659.011 848.308 655.409 847.642C648.351 846.31 641.004 845.644 633.729 845.644L633.585 845.711Z" fill="#917006"/>
<path d="M601.532 1049.33C604.486 1047.27 608.231 1046.47 611.832 1047.13C618.891 1048.46 626.238 1049.13 633.513 1049.13C640.788 1049.13 648.062 1048.46 655.121 1047.13C658.723 1046.47 662.468 1047.27 665.349 1049.33L667.582 1050.93C656.562 1054.06 645.109 1055.59 633.441 1055.59C621.772 1055.59 610.248 1053.99 599.228 1050.93L601.388 1049.4L601.532 1049.33Z" fill="#917006"/>
<path d="M572.648 862.756C560.476 870.28 550.176 879.802 542.037 890.989C540.02 893.852 536.706 895.716 533.033 896.116L530.296 896.449C532.169 893.186 534.257 889.923 536.562 886.86C540.74 881.134 545.566 875.74 550.824 870.879C556.154 865.952 561.916 861.557 568.111 857.695C571.496 855.631 574.953 853.634 578.555 851.902L578.195 854.433C577.69 857.829 575.674 860.825 572.576 862.756H572.648Z" fill="#917006"/>
<path d="M541.965 1003.72C550.104 1014.97 560.404 1024.49 572.505 1032.02C575.602 1033.88 577.619 1036.95 578.051 1040.34L578.411 1042.87C574.882 1041.14 571.352 1039.21 568.039 1037.08C561.845 1033.22 556.01 1028.76 550.752 1023.89C545.494 1019.03 540.669 1013.64 536.491 1007.91C534.258 1004.78 532.097 1001.59 530.224 998.259L532.962 998.592C536.635 999.058 539.876 1000.92 541.965 1003.79V1003.72Z" fill="#917006"/>
<path d="M525.902 925.014C525.902 925.814 525.83 926.613 525.686 927.345C524.246 933.87 523.525 940.662 523.525 947.388C523.525 954.113 524.246 960.838 525.686 967.363C525.83 968.096 525.902 968.895 525.902 969.694C525.902 972.291 524.966 974.821 523.309 976.819L521.581 978.883C518.195 968.695 516.539 958.108 516.539 947.321C516.539 936.534 518.267 925.88 521.581 915.692L523.237 917.69C524.966 919.754 525.902 922.284 525.902 924.881V925.014Z" fill="#917006"/>
<path d="M244.501 765.536C230.96 772.461 219.147 773.66 211.584 773.46C204.022 773.66 192.209 772.461 178.668 765.536C168.8 760.475 159.508 753.151 151.153 743.629L148.92 741.099L147.552 744.095C146.471 746.492 145.031 748.49 143.374 750.021C141.933 751.353 140.205 752.352 138.26 753.084C133.434 754.816 128.032 754.15 124.071 753.218C135.019 748.69 137.54 741.165 137.54 735.239C137.54 731.777 136.675 727.981 135.019 724.119C132.858 718.992 127.888 715.397 122.126 714.664C119.533 714.331 116.652 714.464 113.554 714.997C100.661 717.261 87.6244 713.266 78.7649 704.343V704.21C70.9139 697.551 66.4482 688.163 66.4482 678.375C66.4482 676.244 66.6643 674.046 67.0964 671.982C67.4566 670.184 67.6727 668.32 67.6727 666.589C67.6727 666.256 67.6727 665.989 67.6727 665.656V665.523C67.3846 659.597 63.351 654.337 57.4447 652.139C51.7545 650.009 43.3992 648.277 35.9803 651.673C31.5866 653.671 28.2013 657.2 25.8243 662.194C25.2481 660.196 24.816 657.799 24.816 655.269C24.816 652.073 25.5363 649.343 27.0489 647.012C28.8496 644.149 31.8027 641.952 35.7643 640.42H34.1076L36.2685 637.091C26.8328 629.966 19.3419 622.109 13.9398 613.786C5.72861 601.068 3.99991 589.748 3.99991 582.557C3.99991 582.091 3.99991 581.624 3.99991 581.225V581.092C3.99991 580.692 3.99991 580.226 3.99991 579.76C3.99991 572.502 5.72861 561.249 13.9398 548.531C19.3419 540.208 26.8328 532.351 36.2685 525.226L39.0055 523.162L35.7643 521.897C31.7307 520.365 28.8496 518.168 27.0489 515.304C25.6084 512.974 24.816 510.244 24.816 507.048C24.816 504.517 25.2481 502.12 25.8243 500.123C28.2013 505.117 31.6586 508.646 35.9803 510.643C43.3992 514.039 51.7545 512.308 57.4447 510.177C63.1349 508.113 67.1685 503.186 67.6727 497.659C67.6727 496.993 67.7447 496.327 67.7447 495.595C67.7447 493.93 67.5286 492.199 67.1684 490.401C66.7363 488.27 66.5202 486.073 66.5202 483.942C66.5202 474.287 70.9138 464.899 78.6208 458.307V458.173C87.4803 449.118 100.589 445.056 113.554 447.253C115.931 447.653 118.236 447.852 120.397 447.719H120.469C126.952 447.453 132.642 443.724 135.019 438.197C136.675 434.269 137.54 430.473 137.54 426.944C137.54 421.018 135.019 413.494 124.071 408.966C127.96 408.034 133.434 407.368 138.26 409.099C140.205 409.765 141.933 410.83 143.374 412.162C145.031 413.694 146.471 415.691 147.552 418.155L148.92 421.151L151.153 418.621C159.508 409.166 168.8 401.841 178.668 396.781C192.209 389.856 204.022 388.657 211.584 388.857C219.147 388.657 230.96 389.856 244.501 396.781C254.441 401.841 263.733 409.232 272.088 418.754L275.617 416.757V418.155C276.698 415.758 278.138 413.694 279.795 412.162C281.235 410.83 283.036 409.765 284.909 409.099C289.735 407.368 295.209 408.034 299.098 408.966C288.15 413.494 285.629 421.018 285.629 426.944C285.629 430.473 286.493 434.269 288.222 438.264C290.527 443.591 295.713 447.187 301.763 447.719C304.14 447.919 306.733 447.786 309.542 447.32C322.435 445.056 335.472 449.051 344.332 457.974V458.107C352.183 464.765 356.721 474.154 356.721 483.942C356.721 486.073 356.505 488.204 356.072 490.335C355.712 492.132 355.496 493.997 355.496 495.728C355.496 496.061 355.496 496.327 355.496 496.66V496.793C355.784 502.919 359.962 508.313 366.156 510.51C371.775 512.508 379.986 514.173 387.333 510.71C391.654 508.646 395.112 505.117 397.489 500.123C398.065 502.12 398.497 504.517 398.497 507.048C398.497 510.244 397.777 512.974 396.264 515.304C394.463 518.168 391.51 520.365 387.549 521.897H388.989L386.828 525.093C396.264 532.217 403.827 540.075 409.229 548.464C417.44 561.182 419.169 572.502 419.169 579.693C419.169 580.16 419.169 580.626 419.169 581.025V581.158C419.169 581.558 419.169 581.957 419.169 582.49C419.169 589.681 417.44 601.001 409.229 613.719C403.827 622.109 396.264 629.966 386.756 637.091L388.917 640.287H387.549C391.582 641.819 394.463 644.083 396.264 646.879C397.705 649.21 398.497 652.006 398.497 655.136C398.497 657.666 398.065 660.063 397.489 662.061C395.112 657.133 391.726 653.604 387.405 651.54C380.13 648.144 371.919 649.742 366.372 651.74C362.123 653.271 358.666 656.401 357.009 660.33C356 662.727 355.424 664.791 355.424 666.522C355.424 668.253 355.64 669.918 356 671.716C356.433 673.847 356.649 676.044 356.649 678.175C356.649 687.83 352.255 697.152 344.548 703.811V703.944C335.689 712.999 322.579 717.061 309.614 714.864C307.238 714.464 304.933 714.265 302.772 714.398H302.7C296.217 714.664 290.455 718.459 288.078 724.053C286.421 727.915 285.629 731.644 285.629 735.039C285.629 740.966 288.15 748.49 299.098 753.018C295.209 753.95 289.735 754.616 284.909 752.885C282.964 752.219 281.235 751.153 279.795 749.822C278.138 748.29 276.698 746.293 275.617 743.895L274.249 740.899L272.016 743.429C263.661 752.951 254.369 760.276 244.429 765.403L244.501 765.536ZM280.587 722.987C282.316 720.191 284.261 717.794 286.277 715.863C288.078 714.198 289.951 712.866 291.968 711.867C295.929 709.87 299.747 709.47 302.628 709.404C305.221 709.337 307.958 709.537 310.695 710.003C321.859 711.934 333.024 708.405 340.586 700.548H340.658L340.731 700.348C347.357 694.688 351.175 686.698 351.175 678.375C351.175 676.51 350.958 674.712 350.598 672.848C350.166 670.784 349.95 668.719 349.95 666.722C349.95 662.061 351.103 658.066 353.551 654.47C356 650.874 359.674 647.811 364.716 645.081C382.939 635.36 396.336 623.973 404.619 611.189C412.182 599.47 413.767 589.149 413.767 582.623C413.767 582.157 413.767 581.691 413.767 581.358V581.158C413.767 580.759 413.767 580.359 413.767 579.893C413.767 573.301 412.182 563.047 404.619 551.328C396.336 538.543 382.939 527.157 364.716 517.435C361.691 515.837 359.098 514.039 357.009 512.175C355.208 510.51 353.768 508.779 352.687 506.915C350.526 503.252 350.094 499.723 350.022 497.06C350.022 496.727 350.022 496.327 350.022 495.928C350.022 493.864 350.238 491.733 350.67 489.602C351.031 487.804 351.247 485.94 351.247 484.142C351.247 475.752 347.357 467.695 340.586 461.969H340.514L340.442 461.769C332.879 454.112 321.715 450.649 310.623 452.58C302.844 453.912 296.145 452.98 290.599 449.783C285.557 446.787 282.46 442.526 280.587 439.529C269.495 421.751 256.458 408.966 241.764 401.508C229.303 395.116 218.499 394.051 211.584 394.25H211.512H211.44C204.526 394.051 193.721 395.183 181.261 401.508C166.639 408.966 153.53 421.817 142.438 439.529C140.709 442.326 138.764 444.723 136.747 446.654C134.947 448.319 133.074 449.65 131.057 450.649C127.096 452.647 123.278 453.046 120.397 453.113C117.804 453.179 115.067 452.98 112.33 452.514C101.166 450.583 90.0013 454.112 82.4383 461.902H82.3663L82.2943 462.102C75.6678 467.762 71.8503 475.752 71.8503 484.075C71.8503 485.94 72.0663 487.804 72.4264 489.602C72.8586 491.666 73.0748 493.731 73.0748 495.728C73.0748 500.389 71.9223 504.384 69.4734 507.98C67.0244 511.576 63.351 514.639 58.309 517.369C40.086 527.09 26.6887 538.477 18.4055 551.261C10.8426 562.98 9.25803 573.301 9.25803 579.827C9.25803 580.293 9.25803 580.759 9.25803 581.092V581.292C9.25803 581.691 9.25803 582.091 9.25803 582.557C9.25803 589.149 10.8426 599.403 18.4055 611.122C26.6887 623.907 40.086 635.293 58.309 645.015C61.3342 646.613 63.9272 648.411 66.016 650.275C67.8167 651.94 69.2573 653.671 70.3377 655.535C72.4985 659.198 72.9306 662.793 73.0027 665.457C73.0027 665.79 73.0027 666.123 73.0027 666.456C73.0027 668.586 72.7866 670.717 72.3544 672.848C71.9943 674.646 71.7782 676.444 71.7782 678.308C71.7782 686.698 75.6677 694.755 82.4383 700.481H82.5104L82.5824 700.681C90.1453 708.338 101.31 711.801 112.402 709.87C120.181 708.538 126.88 709.47 132.426 712.666C137.468 715.663 140.565 719.924 142.438 722.921C153.53 740.699 166.567 753.484 181.261 760.942C193.721 767.334 204.526 768.399 211.44 768.2H211.512H211.584C218.427 768.399 229.303 767.334 241.764 760.942C256.458 753.484 269.495 740.633 280.587 722.921V722.987Z" fill="#917006"/>
<path d="M211.225 745.226C208.055 745.359 201.573 745.026 193.362 740.831C182.702 735.371 172.906 725.516 164.118 711.467C147.48 684.766 121.766 684.832 107.865 687.296C105.128 687.762 102.39 686.83 100.662 684.832C100.374 684.433 100.013 684.1 99.5813 683.833C97.7806 682.568 96.7002 680.571 96.7002 678.44C96.7002 678.04 96.7002 677.641 96.8442 677.241C97.5645 673.646 97.9247 670.117 97.9247 666.654C97.9247 665.988 97.9247 665.322 97.9247 664.656C97.2764 647.677 88.1289 634.426 70.7701 625.171C62.9191 620.976 56.1485 616.448 50.7464 611.72C46.2086 607.792 42.5352 603.663 39.7981 599.402C37.6373 596.072 36.1247 592.743 35.1883 589.414C34.396 586.484 34.1799 584.154 34.1799 582.689C34.1799 582.289 34.1799 581.956 34.1799 581.623V581.49V581.091V580.957C34.1799 580.957 34.1799 580.292 34.1799 579.892C34.1799 578.427 34.324 576.097 35.1883 573.167C36.1247 569.837 37.7093 566.442 39.7981 563.179C42.5352 558.984 46.2086 554.856 50.7464 550.86C56.1485 546.133 62.9191 541.605 70.7701 537.41C93.3149 525.424 97.9967 508.178 97.9967 495.86C97.9967 492.464 97.6366 488.935 96.9163 485.473C96.8443 485.073 96.7722 484.673 96.7722 484.207C96.7722 482.143 97.8526 480.079 99.6533 478.814C100.013 478.548 100.374 478.215 100.662 477.815C102.39 475.751 105.127 474.819 107.792 475.285C112.33 476.084 116.94 476.417 121.334 476.217C139.701 475.618 154.034 467.161 164.046 451.114C172.834 437.064 182.701 427.143 193.29 421.749C201.501 417.554 208.055 417.221 211.153 417.355H211.297H211.657H211.801C214.97 417.221 221.453 417.554 229.664 421.749C240.324 427.143 250.12 437.064 258.907 451.114C275.545 477.748 301.26 477.682 315.161 475.285C317.898 474.819 320.635 475.751 322.364 477.815C322.652 478.148 323.012 478.481 323.372 478.747C325.173 480.079 326.253 482.077 326.253 484.141C326.253 484.54 326.253 484.94 326.109 485.406C325.389 488.935 325.029 492.464 325.029 495.927C325.029 496.592 325.029 497.258 325.029 497.924C325.677 514.904 334.825 528.154 352.183 537.41C360.034 541.605 366.805 546.133 372.207 550.86C376.745 554.789 380.418 558.917 383.155 563.179C385.316 566.508 386.829 569.837 387.765 573.167C388.557 576.097 388.773 578.427 388.773 579.892C388.773 580.292 388.773 580.624 388.773 580.957V581.091V581.49V581.623C388.773 581.623 388.773 582.289 388.773 582.689C388.773 584.154 388.629 586.484 387.765 589.414C386.829 592.743 385.244 596.139 383.155 599.402C380.418 603.597 376.745 607.725 372.207 611.72C366.805 616.448 360.034 620.976 352.183 625.171C329.638 637.156 324.957 654.402 324.957 666.721C324.957 670.117 325.317 673.646 326.037 677.108C326.109 677.508 326.181 677.974 326.181 678.373C326.181 680.437 325.101 682.435 323.372 683.7C322.94 683.966 322.58 684.299 322.292 684.699C320.563 686.763 317.826 687.695 315.161 687.229C310.623 686.43 306.013 686.097 301.62 686.297C283.253 686.896 268.919 695.353 258.907 711.4C250.12 725.45 240.252 735.371 229.664 740.765C221.453 744.96 214.898 745.293 211.801 745.159H211.657H211.297H211.153L211.225 745.226ZM226.567 736.77C234.706 733.374 246.878 725.25 258.979 705.94C264.597 696.884 271.8 690.159 280.371 685.964C286.854 682.768 294.057 681.037 301.764 680.77C302.484 680.77 303.204 680.77 303.853 680.77C306.878 680.77 310.119 681.037 313.288 681.436C315.089 681.703 316.962 681.17 318.258 679.971C319.339 678.973 319.915 677.641 319.915 676.242C319.915 675.976 319.915 675.843 319.915 675.71V675.577V675.443C319.411 672.514 319.194 669.517 319.194 666.654C319.194 665.988 319.194 665.322 319.194 664.723C319.483 657.532 321.355 650.873 324.813 644.947C329.35 637.023 336.625 630.431 346.421 625.171C367.381 613.984 376.097 602.731 379.77 595.207C381.499 591.678 382.507 586.617 382.507 581.357C382.507 576.097 381.499 571.036 379.77 567.507C376.097 559.983 367.309 548.73 346.421 537.543C336.625 532.349 329.35 525.691 324.813 517.767C321.355 511.774 319.483 505.115 319.194 497.991C319.194 497.391 319.194 496.726 319.194 496.06C319.194 493.263 319.411 490.333 319.915 487.404C319.915 487.137 319.987 486.804 319.987 486.538C319.987 485.14 319.411 483.808 318.33 482.809C317.034 481.611 315.161 481.078 313.36 481.344C310.191 481.81 307.022 482.01 303.924 482.01C303.132 482.01 302.484 482.01 301.836 482.01C294.057 481.744 286.854 480.012 280.443 476.816C271.872 472.621 264.741 465.896 259.051 456.84C246.95 437.464 234.778 429.407 226.639 426.011C218.499 422.615 204.742 422.615 196.675 426.011C188.536 429.407 176.363 437.53 164.262 456.84C158.644 465.896 151.441 472.621 142.87 476.816C136.388 480.012 129.185 481.744 121.478 482.01C120.83 482.01 120.109 482.01 119.389 482.01C116.292 482.01 113.123 481.81 109.881 481.344C108.081 481.078 106.208 481.611 104.911 482.809C103.831 483.808 103.255 485.14 103.255 486.538C103.255 486.804 103.255 487.004 103.255 487.137V487.27V487.404C103.759 490.4 103.975 493.33 103.975 496.126C103.975 496.859 103.975 497.458 103.975 498.057C103.687 505.249 101.814 511.907 98.3568 517.834C93.8191 525.757 86.5443 532.349 76.7485 537.61C55.7883 548.796 47.0009 560.049 43.3995 567.573C41.6708 571.103 40.6625 576.163 40.6625 581.423C40.6625 586.684 41.6708 591.744 43.3995 595.273C47.0729 602.798 55.8604 614.051 76.7485 625.237C86.5443 630.431 93.8191 637.09 98.3568 645.013C101.814 651.006 103.687 657.665 103.975 664.79C103.975 665.389 103.975 666.055 103.975 666.721C103.975 669.584 103.687 672.58 103.255 675.51V675.643V675.776C103.255 675.843 103.255 676.109 103.255 676.309C103.255 677.707 103.831 679.039 104.911 680.038C106.208 681.303 108.081 681.836 109.881 681.569C113.123 681.103 116.292 680.904 119.389 680.904C120.037 680.904 120.758 680.904 121.478 680.904C129.257 681.17 136.46 682.901 142.87 686.097C151.441 690.292 158.572 697.017 164.262 706.073C176.363 725.45 188.536 733.507 196.675 736.903C204.814 740.299 218.571 740.299 226.639 736.903L226.567 736.77Z" fill="#917006"/>
<path d="M264.525 568.907L287.646 581.226L264.525 593.544C265.605 589.549 266.181 585.421 266.181 581.226C266.181 577.031 265.605 572.902 264.525 568.907Z" fill="#917006"/>
<path d="M250.192 545.6C247.023 542.67 243.421 540.073 239.604 537.942L265.39 531.55L258.475 555.388C256.17 551.859 253.433 548.529 250.192 545.6Z" fill="#917006"/>
<path d="M250.192 616.913C253.361 613.983 256.17 610.654 258.475 607.125L265.39 630.963L239.604 624.571C243.421 622.44 247.023 619.91 250.192 616.913Z" fill="#917006"/>
<path d="M211.585 510.975L224.91 532.349C220.588 531.35 216.123 530.817 211.585 530.817C207.047 530.817 202.581 531.35 198.26 532.349L211.585 510.975Z" fill="#917006"/>
<path d="M211.585 651.54L198.26 630.166C202.581 631.165 207.047 631.698 211.585 631.698C216.123 631.698 220.588 631.165 224.91 630.166L211.585 651.54Z" fill="#917006"/>
<path d="M172.977 616.913C176.147 619.843 179.748 622.44 183.565 624.571L157.779 630.963L164.694 607.125C166.999 610.654 169.736 613.983 172.977 616.913Z" fill="#917006"/>
<path d="M172.977 545.6C169.808 548.529 166.999 551.859 164.694 555.388L157.779 531.55L183.565 537.942C179.748 540.073 176.147 542.603 172.977 545.6Z" fill="#917006"/>
<path d="M135.523 581.226L158.644 568.907C157.563 572.902 156.987 577.031 156.987 581.226C156.987 585.421 157.563 589.549 158.644 593.544L135.523 581.226Z" fill="#917006"/>
<path d="M280.156 561.582C278.139 560.517 276.554 558.852 275.69 556.788C275.114 555.456 274.825 554.191 274.825 552.859C274.825 551.994 274.97 551.195 275.186 550.329L279.075 536.945L315.737 541.407L293.265 568.507L280.228 561.582H280.156Z" fill="#917006"/>
<path d="M274.753 609.656C274.753 608.324 275.041 607.059 275.617 605.794C276.481 603.663 278.138 601.998 280.083 600.933L293.048 594.008L315.521 621.175L278.858 625.636L274.969 612.186C274.753 611.387 274.609 610.521 274.609 609.656H274.753Z" fill="#917006"/>
<path d="M245.005 522.494C242.772 523.027 240.323 522.893 238.163 522.028H238.091C235.93 521.162 234.057 519.697 232.905 517.833L225.414 505.847L254.801 485.072L259.627 518.965L245.077 522.56L245.005 522.494Z" fill="#917006"/>
<path d="M232.905 644.615C234.058 642.75 235.858 641.285 238.091 640.486H238.163C240.324 639.621 242.773 639.421 245.006 640.02L259.483 643.616L254.658 677.508L225.342 656.733L232.833 644.681L232.905 644.615Z" fill="#917006"/>
<path d="M190.264 517.833C189.112 519.698 187.311 521.162 185.078 521.961H185.006C182.845 522.827 180.396 523.027 178.164 522.428L163.686 518.832L168.512 484.939L197.827 505.714L190.336 517.767L190.264 517.833Z" fill="#917006"/>
<path d="M168.439 677.441L163.614 643.549L178.163 639.953C180.396 639.42 182.845 639.554 185.006 640.419H185.078C187.239 641.285 189.111 642.75 190.264 644.614L197.755 656.6L168.367 677.375L168.439 677.441Z" fill="#917006"/>
<path d="M143.014 600.933C145.03 601.998 146.615 603.663 147.479 605.727C148.056 607.059 148.344 608.324 148.344 609.656C148.344 610.521 148.2 611.32 147.984 612.186L144.094 625.57L107.432 621.108L129.905 594.008L142.942 600.933H143.014Z" fill="#917006"/>
<path d="M148.416 552.859C148.416 554.191 148.128 555.456 147.552 556.721C146.688 558.852 145.031 560.517 143.086 561.582L130.121 568.507L107.649 541.407L144.311 536.945L148.2 550.396C148.416 551.195 148.561 552.06 148.561 552.926L148.416 552.859Z" fill="#917006"/>
<path d="M238.019 605.728C234.561 608.924 230.6 611.388 226.134 613.119C221.524 614.917 216.626 615.849 211.584 615.849C206.542 615.849 201.644 614.917 197.035 613.119C192.569 611.388 188.607 608.858 185.15 605.728C181.693 602.532 179.028 598.87 177.155 594.741C175.21 590.48 174.202 585.952 174.202 581.291C174.202 576.63 175.21 572.102 177.155 567.84C179.028 563.712 181.765 560.05 185.15 556.854C188.607 553.657 192.569 551.194 197.035 549.462C201.644 547.665 206.542 546.732 211.584 546.732C216.626 546.732 221.524 547.665 226.134 549.462C230.6 551.194 234.561 553.724 238.019 556.854C241.476 560.05 244.141 563.712 246.014 567.84C247.958 572.102 248.967 576.63 248.967 581.291C248.967 585.952 247.958 590.48 246.014 594.741C244.141 598.87 241.404 602.532 238.019 605.728ZM211.584 552.259C194.298 552.259 180.18 565.243 180.18 581.291C180.18 597.338 194.226 610.322 211.584 610.322C228.943 610.322 242.916 597.338 242.916 581.291C242.916 565.243 228.871 552.259 211.584 552.259Z" fill="#917006"/>
<path d="M319.194 603.598C319.194 602.799 319.266 602 319.41 601.267C320.851 594.742 321.571 587.95 321.571 581.225C321.571 574.5 320.851 567.774 319.41 561.249C319.266 560.517 319.194 559.717 319.194 558.918C319.194 556.322 320.13 553.791 321.787 551.794L323.516 549.729C326.901 559.917 328.558 570.504 328.558 581.291C328.558 592.078 326.829 602.732 323.516 612.92L321.859 610.922C320.13 608.858 319.194 606.328 319.194 603.731V603.598Z" fill="#917006"/>
<path d="M303.132 524.892C294.993 513.639 284.693 504.117 272.593 496.593C269.495 494.728 267.479 491.665 267.047 488.27L266.686 485.739C270.216 487.471 273.745 489.401 277.058 491.532C283.253 495.394 289.087 499.856 294.345 504.716C299.675 509.644 304.429 514.971 308.607 520.697C310.84 523.827 313 527.023 314.873 530.352L312.136 530.019C308.463 529.553 305.221 527.689 303.132 524.825V524.892Z" fill="#917006"/>
<path d="M272.521 665.922C284.693 658.398 294.993 648.876 303.132 637.69C305.149 634.826 308.463 632.962 312.136 632.562L314.873 632.229C313 635.492 310.912 638.755 308.607 641.818C304.429 647.544 299.603 652.938 294.345 657.799C289.015 662.726 283.253 667.121 277.058 670.983C273.673 673.047 270.216 675.044 266.614 676.776L266.975 674.245C267.479 670.85 269.495 667.853 272.593 665.922H272.521Z" fill="#917006"/>
<path d="M211.585 479.548C204.31 479.548 197.035 480.214 189.976 481.545C186.375 482.211 182.63 481.412 179.749 479.348L177.516 477.75C188.536 474.62 199.988 473.089 211.657 473.089C223.325 473.089 234.85 474.687 245.87 477.75L243.709 479.281C240.756 481.346 237.011 482.145 233.409 481.479C226.351 480.147 219.004 479.481 211.729 479.481L211.585 479.548Z" fill="#917006"/>
<path d="M179.604 683.167C182.557 681.103 186.302 680.304 189.904 680.97C196.963 682.301 204.309 682.967 211.584 682.967C218.859 682.967 226.134 682.301 233.193 680.97C236.794 680.304 240.539 681.103 243.42 683.167L245.653 684.765C234.633 687.895 223.181 689.426 211.512 689.426C199.844 689.426 188.319 687.828 177.299 684.765L179.46 683.234L179.604 683.167Z" fill="#917006"/>
<path d="M150.649 496.593C138.477 504.117 128.177 513.639 120.037 524.825C118.021 527.689 114.707 529.553 111.034 529.953L108.297 530.286C110.17 527.023 112.258 523.76 114.563 520.697C118.741 514.971 123.567 509.577 128.825 504.716C134.155 499.789 139.917 495.394 146.112 491.532C149.497 489.468 152.954 487.471 156.556 485.739L156.196 488.27C155.691 491.665 153.675 494.662 150.577 496.593H150.649Z" fill="#917006"/>
<path d="M120.037 637.556C128.176 648.809 138.476 658.331 150.577 665.855C153.674 667.719 155.691 670.782 156.123 674.178L156.483 676.709C152.954 674.977 149.425 673.046 146.111 670.916C139.917 667.054 134.083 662.592 128.825 657.731C123.567 652.871 118.741 647.477 114.563 641.751C112.33 638.621 110.169 635.425 108.297 632.096L111.034 632.429C114.707 632.895 117.948 634.759 120.037 637.622V637.556Z" fill="#917006"/>
<path d="M103.975 558.851C103.975 559.65 103.903 560.449 103.759 561.182C102.318 567.707 101.598 574.499 101.598 581.224C101.598 587.95 102.318 594.675 103.759 601.2C103.903 601.933 103.975 602.732 103.975 603.531C103.975 606.128 103.038 608.658 101.382 610.656L99.6529 612.72C96.2676 602.532 94.611 591.945 94.611 581.158C94.611 570.371 96.3396 559.717 99.6529 549.529L101.31 551.527C103.038 553.591 103.975 556.121 103.975 558.718V558.851Z" fill="#917006"/>
<path d="M654.966 380.499C641.425 387.424 629.612 388.623 622.049 388.423C614.486 388.623 602.674 387.424 589.133 380.499C579.265 375.439 569.973 368.114 561.618 358.592L559.385 356.062L558.016 359.059C556.936 361.456 555.495 363.453 553.839 364.985C552.398 366.316 550.67 367.315 548.725 368.048C543.899 369.779 538.497 369.113 534.535 368.181C545.484 363.653 548.005 356.129 548.005 350.203C548.005 346.74 547.14 342.945 545.484 339.083C543.323 333.956 538.353 330.36 532.591 329.627C529.998 329.294 527.116 329.428 524.019 329.96C511.126 332.224 498.089 328.229 489.23 319.306V319.173C481.379 312.515 476.913 303.126 476.913 293.338C476.913 291.207 477.129 289.01 477.561 286.946C477.921 285.148 478.137 283.283 478.137 281.552C478.137 281.219 478.137 280.953 478.137 280.62V280.487C477.849 274.56 473.816 269.3 467.91 267.103C462.219 264.972 453.864 263.241 446.445 266.637C442.051 268.634 438.666 272.163 436.289 277.157C435.713 275.16 435.281 272.763 435.281 270.232C435.281 267.036 436.001 264.306 437.514 261.976C439.314 259.112 442.268 256.915 446.229 255.384H444.572L446.733 252.054C437.298 244.93 429.807 237.072 424.405 228.749C416.193 216.031 414.465 204.711 414.465 197.52C414.465 197.054 414.465 196.588 414.465 196.188V196.055C414.465 195.656 414.465 195.19 414.465 194.723C414.465 187.465 416.193 176.212 424.405 163.494C429.807 155.171 437.298 147.314 446.733 140.189L449.47 138.125L446.229 136.86C442.196 135.328 439.314 133.131 437.514 130.268C436.073 127.937 435.281 125.207 435.281 122.011C435.281 119.481 435.713 117.084 436.289 115.086C438.666 120.08 442.124 123.609 446.445 125.607C453.864 129.003 462.219 127.271 467.91 125.141C473.6 123.076 477.633 118.149 478.137 112.622C478.137 111.957 478.21 111.291 478.21 110.558C478.21 108.894 477.993 107.162 477.633 105.365C477.201 103.234 476.985 101.036 476.985 98.9056C476.985 89.2506 481.379 79.8619 489.086 73.2699V73.1367C497.945 64.0809 511.054 60.0192 524.019 62.2165C526.396 62.616 528.701 62.8158 530.862 62.6826H530.934C537.416 62.4163 543.107 58.6875 545.484 53.1608C547.14 49.2322 548.005 45.4368 548.005 41.9077C548.005 35.9815 545.484 28.4572 534.535 23.9294C538.425 22.9972 543.899 22.3313 548.725 24.0625C550.67 24.7284 552.398 25.7938 553.839 27.1255C555.495 28.657 556.936 30.6546 558.016 33.1183L559.385 36.1147L561.618 33.5844C569.973 24.1291 579.265 16.8046 589.133 11.7441C602.602 5.08542 614.414 3.82028 621.977 4.02004C629.54 3.82028 641.353 5.01884 654.894 11.9438C664.834 17.0044 674.125 24.3955 682.481 33.9173L686.01 31.9197V33.318C687.09 30.9209 688.531 28.8568 690.188 27.3253C691.628 25.9935 693.429 24.9282 695.302 24.2623C700.128 22.5311 705.602 23.1969 709.491 24.1291C698.543 28.657 696.022 36.1813 696.022 42.1074C696.022 45.6365 696.886 49.4319 698.615 53.4271C700.92 58.754 706.106 62.3497 712.156 62.8824C714.533 63.0822 717.126 62.949 719.935 62.4829C732.828 60.2189 745.865 64.2141 754.725 73.1367V73.2699C762.576 79.9285 767.114 89.3172 767.114 99.1054C767.114 101.236 766.897 103.367 766.465 105.498C766.105 107.296 765.889 109.16 765.889 110.891C765.889 111.224 765.889 111.49 765.889 111.823V111.957C766.177 118.082 770.355 123.476 776.549 125.673C782.167 127.671 790.379 129.336 797.725 125.873C802.047 123.809 805.504 120.28 807.881 115.286C808.458 117.283 808.89 119.681 808.89 122.211C808.89 125.407 808.169 128.137 806.657 130.468C804.856 133.331 801.903 135.528 797.941 137.06H799.382L797.221 140.256C806.657 147.38 814.22 155.238 819.622 163.628C828.193 176.346 829.922 187.599 829.922 194.857C829.922 195.323 829.922 195.789 829.922 196.188V196.321C829.922 196.721 829.922 197.121 829.922 197.653C829.922 204.845 828.193 216.164 819.982 228.882C814.58 237.272 807.017 245.129 797.509 252.254L799.67 255.45H798.302C802.335 256.982 805.216 259.246 807.017 262.042C808.458 264.373 809.25 267.169 809.25 270.299C809.25 272.829 808.818 275.226 808.241 277.224C805.865 272.297 802.479 268.767 798.158 266.703C790.883 263.307 782.672 264.905 777.125 266.903C772.876 268.435 769.418 271.564 767.762 275.493C766.753 277.89 766.177 279.954 766.177 281.685C766.177 283.416 766.393 285.081 766.753 286.879C767.186 289.01 767.402 291.207 767.402 293.338C767.402 302.993 763.008 312.315 755.301 318.974V319.107C746.442 328.162 733.332 332.224 720.367 330.027C717.99 329.627 715.686 329.428 713.525 329.561H713.453C706.97 329.827 701.208 333.623 698.831 339.216C697.174 343.078 696.382 346.807 696.382 350.203C696.382 356.129 698.903 363.653 709.851 368.181C705.962 369.113 700.488 369.779 695.662 368.048C693.717 367.382 691.988 366.316 690.548 364.985C688.891 363.453 687.451 361.456 686.37 359.059L685.002 356.062L682.769 358.592C674.414 368.114 665.122 375.439 655.182 380.566L654.966 380.499ZM691.052 337.951C692.781 335.154 694.725 332.757 696.742 330.826C698.543 329.161 700.416 327.83 702.432 326.831C706.394 324.833 710.211 324.434 713.093 324.367C715.686 324.3 718.423 324.5 721.16 324.966C732.324 326.897 743.488 323.368 751.051 315.511H751.123L751.195 315.311C757.822 309.651 761.639 301.661 761.639 293.338C761.639 291.473 761.423 289.676 761.063 287.811C760.631 285.747 760.415 283.683 760.415 281.685C760.415 277.024 761.567 273.029 764.016 269.433C766.465 265.838 770.139 262.775 775.181 260.045C793.404 250.323 806.801 238.937 815.084 226.152C822.647 214.433 824.232 204.112 824.232 197.587C824.232 197.121 824.232 196.654 824.232 196.321V196.122C824.232 195.722 824.232 195.323 824.232 194.857C824.232 188.265 822.647 178.01 815.084 166.291C806.801 153.506 793.404 142.12 775.181 132.399C772.155 130.8 769.562 129.003 767.474 127.138C765.673 125.474 764.232 123.742 763.152 121.878C760.991 118.216 760.559 114.687 760.487 112.023C760.487 111.69 760.487 111.291 760.487 110.891C760.487 108.827 760.703 106.696 761.135 104.565C761.495 102.768 761.711 100.903 761.711 99.1054C761.711 90.7155 757.822 82.6585 751.051 76.9321H750.979L750.907 76.7324C743.344 69.0749 732.18 65.6124 721.088 67.5434C713.309 68.8752 706.61 67.943 701.064 64.7468C696.022 61.7504 692.925 57.4889 691.052 54.4925C679.96 36.7139 666.923 23.9294 652.229 16.4717C639.768 10.0794 628.964 9.01402 622.049 9.21378H621.977H621.905C614.991 9.01402 604.186 10.146 591.726 16.4717C577.104 23.9294 563.995 36.7805 552.902 54.4925C551.174 57.2891 549.229 59.6862 547.212 61.6172C545.412 63.2819 543.539 64.6136 541.522 65.6124C537.561 67.61 533.743 68.0095 530.862 68.0761C528.269 68.1427 525.532 67.943 522.795 67.4768C511.63 65.5458 500.466 69.0749 492.903 76.8655H492.831L492.759 77.0653C486.133 82.7251 482.315 90.7155 482.315 99.0388C482.315 100.903 482.531 102.768 482.891 104.565C483.323 106.63 483.54 108.694 483.54 110.691C483.54 115.352 482.387 119.348 479.938 122.943C477.489 126.539 473.816 129.602 468.774 132.332C450.551 142.054 437.154 153.44 428.87 166.224C421.307 177.944 419.723 188.265 419.723 194.79C419.723 195.256 419.723 195.722 419.723 196.055V196.255C419.723 196.654 419.723 197.054 419.723 197.52C419.723 204.112 421.307 214.366 428.87 226.086C437.154 238.87 450.551 250.256 468.774 259.978C471.799 261.576 474.392 263.374 476.481 265.238C478.282 266.903 479.722 268.634 480.803 270.499C482.963 274.161 483.396 277.757 483.468 280.42C483.468 280.753 483.468 281.086 483.468 281.419C483.468 283.55 483.251 285.68 482.819 287.811C482.459 289.609 482.243 291.407 482.243 293.271C482.243 301.661 486.133 309.718 492.903 315.444H492.975L493.047 315.644C500.61 323.302 511.775 326.764 522.867 324.833C530.646 323.501 537.344 324.434 542.891 327.63C547.933 330.626 551.03 334.888 552.902 337.884C563.995 355.663 577.032 368.447 591.726 375.905C604.186 382.297 614.991 383.363 621.905 383.163H621.977H622.049C628.892 383.363 639.768 382.297 652.229 375.905C666.923 368.447 679.96 355.596 691.052 337.884V337.951Z" fill="#917006"/>
<path d="M621.689 360.192C618.52 360.325 612.038 359.992 603.827 355.797C593.166 350.337 583.371 340.482 574.583 326.432C557.945 299.731 532.231 299.798 518.329 302.262C515.592 302.728 512.855 301.796 511.127 299.798C510.838 299.398 510.478 299.065 510.046 298.799C508.245 297.534 507.165 295.536 507.165 293.406C507.165 293.006 507.165 292.607 507.309 292.207C508.029 288.611 508.39 285.082 508.39 281.62C508.39 280.954 508.39 280.288 508.39 279.622C507.741 262.643 498.594 249.392 481.235 240.137C473.384 235.942 466.613 231.414 461.211 226.686C456.673 222.757 453 218.629 450.263 214.368C448.102 211.038 446.59 207.709 445.653 204.38C444.861 201.45 444.645 199.119 444.645 197.654C444.645 197.255 444.645 196.922 444.645 196.589V196.456V196.056V195.923C444.645 195.923 444.645 195.257 444.645 194.858C444.645 193.393 444.789 191.062 445.653 188.133C446.59 184.803 448.174 181.407 450.263 178.145C453 173.95 456.673 169.821 461.211 165.826C466.613 161.098 473.384 156.571 481.235 152.376C503.78 140.39 508.462 123.144 508.462 110.826C508.462 107.43 508.101 103.901 507.381 100.438C507.309 100.039 507.237 99.6393 507.237 99.1732C507.237 97.109 508.318 95.0448 510.118 93.7797C510.478 93.5133 510.838 93.1804 511.127 92.7809C512.855 90.7167 515.592 89.7845 518.257 90.2506C522.795 91.0496 527.405 91.3826 531.799 91.1828C550.166 90.5835 564.499 82.1271 574.511 66.0798C583.299 52.03 593.166 42.1087 603.754 36.7152C611.966 32.5202 618.52 32.1873 621.617 32.3205H621.761H622.122H622.266C625.435 32.1873 631.917 32.5202 640.129 36.7152C650.789 42.1087 660.585 52.03 669.372 66.0798C686.01 92.7143 711.724 92.6477 725.626 90.2506C728.363 89.7845 731.1 90.7167 732.829 92.7809C733.117 93.1138 733.477 93.4468 733.837 93.7131C735.638 95.0448 736.718 97.0424 736.718 99.1066C736.718 99.5061 736.718 99.9056 736.574 100.372C735.854 103.901 735.494 107.43 735.494 110.892C735.494 111.558 735.494 112.224 735.494 112.89C736.142 129.869 745.289 143.12 762.648 152.376C770.499 156.571 777.27 161.098 782.672 165.826C787.21 169.755 790.883 173.883 793.62 178.145C795.781 181.474 797.294 184.803 798.23 188.133C799.022 191.062 799.238 193.393 799.238 194.858C799.238 195.257 799.238 195.59 799.238 195.923V196.056V196.456V196.589C799.238 196.589 799.238 197.255 799.238 197.654C799.238 199.119 799.094 201.45 798.23 204.38C797.294 207.709 795.709 211.105 793.62 214.368C790.883 218.563 787.21 222.691 782.672 226.686C777.27 231.414 770.499 235.942 762.648 240.137C740.103 252.122 735.422 269.368 735.422 281.686C735.422 285.082 735.782 288.611 736.502 292.074C736.574 292.473 736.646 292.94 736.646 293.339C736.646 295.403 735.566 297.401 733.837 298.666C733.405 298.932 733.045 299.265 732.757 299.665C731.028 301.729 728.291 302.661 725.626 302.195C721.088 301.396 716.478 301.063 712.084 301.263C693.717 301.862 679.384 310.319 669.372 326.366C660.585 340.416 650.717 350.337 640.129 355.73C631.917 359.925 625.363 360.258 622.266 360.125H622.122H621.761H621.617L621.689 360.192ZM637.031 351.735C645.171 348.339 657.343 340.216 669.444 320.906C675.062 311.85 682.265 305.125 690.836 300.93C697.319 297.734 704.522 296.003 712.229 295.736C712.949 295.736 713.669 295.736 714.317 295.736C717.343 295.736 720.584 296.003 723.753 296.402C725.554 296.668 727.426 296.136 728.723 294.937C729.803 293.938 730.38 292.607 730.38 291.208C730.38 290.942 730.38 290.809 730.38 290.676V290.542V290.409C729.875 287.479 729.659 284.483 729.659 281.62C729.659 280.954 729.659 280.288 729.659 279.689C729.947 272.498 731.82 265.839 735.277 259.913C739.815 251.989 747.09 245.397 756.886 240.137C777.846 228.95 786.561 217.697 790.235 210.173C791.963 206.644 792.972 201.583 792.972 196.323C792.972 191.062 791.963 186.002 790.235 182.473C786.561 174.948 777.774 163.695 756.886 152.509C747.09 147.315 739.815 140.656 735.277 132.733C731.82 126.74 729.947 120.081 729.659 112.957C729.659 112.357 729.659 111.691 729.659 111.026C729.659 108.229 729.875 105.299 730.38 102.369C730.38 102.103 730.452 101.77 730.452 101.504C730.452 100.105 729.875 98.7737 728.795 97.7749C727.498 96.5763 725.626 96.0436 723.825 96.31C720.656 96.7761 717.487 96.9758 714.389 96.9758C713.597 96.9758 712.949 96.9758 712.301 96.9758C704.522 96.7095 697.319 94.9782 690.908 91.7821C682.337 87.5872 675.206 80.8619 669.516 71.8062C657.415 52.4295 645.243 44.3726 637.103 40.9767C628.964 37.5808 615.207 37.5808 607.14 40.9767C599.001 44.3726 586.828 52.4961 574.727 71.8062C569.109 80.8619 561.906 87.5872 553.335 91.7821C546.852 94.9782 539.65 96.7095 531.943 96.9758C531.294 96.9758 530.574 96.9758 529.854 96.9758C526.757 96.9758 523.587 96.7761 520.346 96.31C518.545 96.0436 516.673 96.5763 515.376 97.7749C514.296 98.7737 513.72 100.105 513.72 101.504C513.72 101.77 513.72 101.97 513.72 102.103V102.236V102.369C514.224 105.366 514.44 108.296 514.44 111.092C514.44 111.825 514.44 112.424 514.44 113.023C514.152 120.214 512.279 126.873 508.822 132.799C504.284 140.723 497.009 147.315 487.213 152.575C466.253 163.762 457.466 175.015 453.864 182.539C452.136 186.068 451.127 191.129 451.127 196.389C451.127 201.65 452.136 206.71 453.864 210.239C457.538 217.764 466.325 229.017 487.213 240.203C497.009 245.397 504.284 252.055 508.822 259.979C512.279 265.972 514.152 272.631 514.44 279.755C514.44 280.355 514.44 281.021 514.44 281.686C514.44 284.55 514.152 287.546 513.72 290.476V290.609V290.742C513.72 290.809 513.72 291.075 513.72 291.275C513.72 292.673 514.296 294.005 515.376 295.004C516.673 296.269 518.545 296.802 520.346 296.535C523.587 296.069 526.757 295.869 529.854 295.869C530.502 295.869 531.222 295.869 531.943 295.869C539.722 296.136 546.924 297.867 553.335 301.063C561.906 305.258 569.037 311.983 574.727 321.039C586.828 340.416 599.001 348.473 607.14 351.868C615.279 355.264 629.036 355.264 637.103 351.868L637.031 351.735Z" fill="#917006"/>
<path d="M621.978 125.941L635.303 147.316C630.981 146.317 626.515 145.784 621.978 145.784C617.44 145.784 612.974 146.317 608.652 147.316L621.978 125.941Z" fill="#917006"/>
<path d="M621.978 266.502L608.652 245.128C612.974 246.127 617.44 246.659 621.978 246.659C626.515 246.659 630.981 246.127 635.303 245.128L621.978 266.502Z" fill="#917006"/>
<path d="M583.442 231.88C586.611 234.81 590.213 237.407 594.03 239.537L568.244 245.93L575.159 222.092C577.464 225.621 580.201 228.95 583.442 231.88Z" fill="#917006"/>
<path d="M583.442 160.564C580.273 163.494 577.464 166.823 575.159 170.353L568.244 146.515L594.03 152.907C590.213 155.038 586.611 157.568 583.442 160.564Z" fill="#917006"/>
<path d="M545.987 196.255L569.108 183.937C568.028 187.932 567.452 192.06 567.452 196.255C567.452 200.45 568.028 204.578 569.108 208.573L545.987 196.255Z" fill="#917006"/>
<path d="M600.729 132.863C599.577 134.728 597.776 136.193 595.543 136.992H595.471C593.31 137.857 590.861 138.057 588.628 137.458L574.151 133.862L578.977 99.9697L608.292 120.745L600.801 132.797L600.729 132.863Z" fill="#917006"/>
<path d="M578.832 292.404L574.006 258.512L588.556 254.916C590.789 254.383 593.238 254.517 595.399 255.382H595.471C597.631 256.248 599.504 257.713 600.657 259.577L608.147 271.563L578.76 292.338L578.832 292.404Z" fill="#917006"/>
<path d="M553.479 215.899C555.495 216.964 557.08 218.629 557.944 220.693C558.52 222.025 558.809 223.29 558.809 224.621C558.809 225.487 558.665 226.286 558.448 227.152L554.559 240.536L517.897 236.074L540.369 208.974L553.406 215.899H553.479Z" fill="#917006"/>
<path d="M558.809 167.822C558.809 169.154 558.521 170.419 557.945 171.684C557.08 173.815 555.424 175.48 553.479 176.545L540.514 183.47L518.041 156.369L554.703 151.908L558.593 165.359C558.809 166.158 558.953 167.023 558.953 167.889L558.809 167.822Z" fill="#917006"/>
<path d="M648.483 220.692C645.026 223.888 641.065 226.352 636.599 228.083C631.989 229.881 627.091 230.813 622.049 230.813C617.007 230.813 612.109 229.881 607.5 228.083C603.034 226.352 599.072 223.821 595.615 220.692C592.158 217.496 589.493 213.833 587.62 209.705C585.675 205.444 584.667 200.916 584.667 196.255C584.667 191.594 585.675 187.066 587.62 182.804C589.493 178.676 592.23 175.014 595.615 171.817C599.072 168.621 603.034 166.158 607.5 164.426C612.109 162.628 617.007 161.696 622.049 161.696C627.091 161.696 631.989 162.628 636.599 164.426C641.065 166.158 645.026 168.688 648.483 171.817C651.941 175.014 654.606 178.676 656.478 182.804C658.423 187.066 659.432 191.594 659.432 196.255C659.432 200.916 658.423 205.444 656.478 209.705C654.606 213.833 651.869 217.496 648.483 220.692ZM622.049 167.223C604.762 167.223 590.645 180.207 590.645 196.255C590.645 212.302 604.69 225.286 622.049 225.286C639.408 225.286 653.381 212.302 653.381 196.255C653.381 180.207 639.336 167.223 622.049 167.223Z" fill="#917006"/>
<path d="M621.977 94.5116C614.703 94.5116 607.428 95.1775 600.369 96.5092C596.768 97.1751 593.022 96.376 590.141 94.3119L587.908 92.7138C598.928 89.5842 610.381 88.0527 622.049 88.0527C633.718 88.0527 645.242 89.6508 656.263 92.7138L654.102 94.2453C651.149 96.3094 647.403 97.1085 643.802 96.4426C636.743 95.1109 629.396 94.445 622.121 94.445L621.977 94.5116Z" fill="#917006"/>
<path d="M589.997 298.198C592.95 296.134 596.696 295.335 600.297 296.001C607.356 297.333 614.703 297.998 621.978 297.998C629.252 297.998 636.527 297.333 643.586 296.001C647.187 295.335 650.933 296.134 653.814 298.198L656.047 299.796C645.027 302.926 633.574 304.457 621.906 304.457C610.237 304.457 598.713 302.859 587.692 299.796L589.853 298.265L589.997 298.198Z" fill="#917006"/>
<path d="M561.042 111.557C548.869 119.081 538.569 128.603 530.43 139.789C528.413 142.653 525.1 144.517 521.427 144.916L518.69 145.249C520.562 141.987 522.651 138.724 524.956 135.661C529.134 129.935 533.959 124.541 539.217 119.68C544.548 114.753 550.31 110.358 556.504 106.496C559.89 104.432 563.347 102.434 566.948 100.703L566.588 103.233C566.084 106.629 564.067 109.626 560.97 111.557H561.042Z" fill="#917006"/>
<path d="M530.43 252.587C538.569 263.84 548.869 273.362 560.97 280.886C564.067 282.751 566.084 285.814 566.516 289.21L566.876 291.74C563.347 290.009 559.817 288.078 556.504 285.947C550.31 282.085 544.475 277.624 539.217 272.763C533.959 267.902 529.133 262.508 524.956 256.782C522.723 253.652 520.562 250.456 518.689 247.127L521.426 247.46C525.1 247.926 528.341 249.79 530.43 252.654V252.587Z" fill="#917006"/>
<path d="M514.367 173.881C514.367 174.68 514.295 175.479 514.151 176.211C512.711 182.737 511.99 189.528 511.99 196.254C511.99 202.979 512.711 209.704 514.151 216.23C514.295 216.962 514.367 217.761 514.367 218.56C514.367 221.157 513.431 223.687 511.774 225.685L510.046 227.749C506.66 217.561 505.004 206.974 505.004 196.187C505.004 185.4 506.732 174.746 510.046 164.559L511.702 166.556C513.431 168.62 514.367 171.151 514.367 173.748V173.881Z" fill="#917006"/>
</g>
<defs>
<filter id="filter0_f_1098_11991" x="0" y="0" width="845.169" height="1143.64" filterUnits="userSpaceOnUse" color-interpolation-filters="sRGB">
<feFlood flood-opacity="0" result="BackgroundImageFix"/>
<feBlend mode="normal" in="SourceGraphic" in2="BackgroundImageFix" result="shape"/>
<feGaussianBlur stdDeviation="2" result="effect1_foregroundBlur_1098_11991"/>
</filter>
</defs>
</svg>
