<svg width="719" height="461" viewBox="0 0 719 461" fill="none" xmlns="http://www.w3.org/2000/svg">
<path d="M-27.7743 50.7087H-28.334V39.4787H-1.43124C7.99697 39.4787 14.7489 35.9803 18.7546 33.0591L20.084 32.0796L19.6292 33.6714C18.8771 36.2777 17.81 38.6391 16.4456 40.6857C14.7139 43.2745 12.4575 45.4436 9.7287 47.1053C4.28867 50.4463 -1.37874 50.7087 -1.62363 50.7262H-27.7743V50.7087ZM-27.2145 49.5716H-1.64114C-1.43123 49.5716 3.93883 49.3093 9.13398 46.1258C11.7053 44.5515 13.8569 42.5049 15.5011 40.056C16.5156 38.5342 17.3727 36.8199 18.0374 34.9308C13.7869 37.712 7.27984 40.6157 -1.4487 40.6157H-27.2145V49.5716Z" fill="#4AC4CD" fill-opacity="0.3"/>
<path d="M-1.43124 33.3569H-28.334V4.37256L0.562876 33.3219L-0.766537 33.3569C-0.993933 33.3569 -1.20385 33.3569 -1.43124 33.3569ZM-27.197 32.2199H-2.13091L-27.197 7.10132V32.2199Z" fill="#4AC4CD" fill-opacity="0.3"/>
<path d="M44.817 14.6232L43.785 13.0663C42.0708 10.4775 40.0417 8.06364 37.7677 5.87713C35.9311 4.11043 33.9195 2.48364 31.8204 1.08427L30.2637 0.0522461H44.8345V14.6406L44.817 14.6232ZM33.9195 1.17176C35.5463 2.36122 37.0855 3.65564 38.5374 5.055C40.4265 6.87418 42.1582 8.85077 43.68 10.9498V1.17176H33.9195Z" fill="#4AC4CD" fill-opacity="0.3"/>
<path d="M44.8166 73.3448H26.0126L27.4645 72.3127C31.6975 69.2866 35.161 65.4209 37.7323 60.8379C41.4231 54.2434 43.3123 46.0922 43.3123 36.629V31.8536L44.4317 31.7837C44.5717 32.8682 44.6766 33.9877 44.7291 35.0897L44.8166 37.0663V73.3273V73.3448ZM29.4936 72.2078H43.6796V46.6344C42.7875 52.1444 41.1433 57.0947 38.7294 61.3977C36.3504 65.6308 33.2543 69.2691 29.4936 72.2078ZM16.5669 49.7829L18.1587 48.1737C19.9254 46.3895 21.4472 44.3604 22.6891 42.1389C25.6103 36.9438 27.0796 30.5417 27.0796 23.1076V11.5453L21.3772 21.5858C21.1848 21.9006 19.4706 24.6469 16.0071 27.4281C13.6107 29.3348 10.9694 30.7866 8.13571 31.7837L7.80336 31.9061L-24.0146 0.0180664H6.73637L8.24066 0.0705405C24.1234 0.0705405 38.0996 10.1984 42.9799 25.2941L43.0499 25.539L37.5923 35.1071C37.5923 35.1071 35.3009 39.0253 30.4381 42.9086C26.9222 45.7248 22.969 47.8063 18.7184 49.1182L16.5494 49.7829H16.5669ZM28.2166 7.3647V23.1251C28.2166 30.7516 26.6948 37.3286 23.6862 42.6987C22.7591 44.3429 21.6921 45.8823 20.4851 47.3166C23.8086 46.0572 26.9222 44.273 29.7384 42.034C34.3388 38.3606 36.5603 34.6349 36.6128 34.5474L41.8254 25.434C39.3241 17.8949 34.4613 11.6328 28.2166 7.38221V7.3647ZM-21.2859 1.17255L8.10075 30.6117C10.6896 29.6671 13.121 28.3028 15.3075 26.5711C18.6834 23.8773 20.3452 21.1659 20.4152 21.0435L28.1816 7.34724C22.4443 3.44651 15.5524 1.22502 8.2232 1.22502L6.7014 1.17255H-21.3034H-21.2859Z" fill="#4AC4CD" fill-opacity="0.3"/>
<path d="M-27.7743 73.292H-28.334V56.9194H7.26231C20.1365 56.9194 29.1099 51.8642 34.3575 47.6311C34.6724 47.3863 34.9697 47.1414 35.2671 46.879L36.509 45.812L36.1767 47.4213C35.2846 51.7943 33.7803 55.6775 31.7337 59.001C29.3373 62.8667 26.1188 66.0677 22.1481 68.4816C15.0988 72.7847 7.7871 73.2395 6.96498 73.2745H-27.7917L-27.7743 73.292ZM-27.2145 72.155H6.94747C7.69963 72.1201 14.7489 71.6827 21.5533 67.5196C25.3666 65.1932 28.4627 62.1145 30.7542 58.4062C32.4859 55.6075 33.8153 52.3889 34.6899 48.7856C29.2499 53.0711 20.154 58.0389 7.22735 58.0389H-27.232V72.1375L-27.2145 72.155Z" fill="#4AC4CD" fill-opacity="0.3"/>
<path d="M126.749 42.1557L126.959 41.2636C127.379 39.4794 127.589 37.6254 127.589 35.7537V19.8184H141.127V41.2987H133.134C131.297 41.2987 129.443 41.5085 127.641 41.9283L126.749 42.1382V42.1557ZM128.726 20.9554V35.7537C128.726 37.398 128.568 39.0422 128.253 40.6515C129.863 40.3366 131.507 40.1791 133.134 40.1791H139.991V20.9554H128.726Z" fill="#4AC4CD" fill-opacity="0.3"/>
<path d="M103.607 53.665H87.6016V37.6247C87.6016 33.2691 89.1933 29.0711 92.0795 25.7826L92.132 25.7301C92.6393 25.2753 93.1465 24.7681 93.6188 24.2433L93.6713 24.1908C96.9423 21.2871 101.14 19.6953 105.496 19.6953H121.484V35.7356C121.484 39.9862 119.962 44.1142 117.216 47.3502L117.163 47.4028C116.498 47.9975 115.886 48.6098 115.274 49.2919L115.221 49.3444C111.985 52.1256 107.875 53.6475 103.624 53.6475L103.607 53.665ZM88.7385 52.5279H103.607C107.56 52.5279 111.408 51.1111 114.434 48.5223C115.064 47.8401 115.694 47.2103 116.359 46.5981C118.93 43.572 120.329 39.7238 120.329 35.7356V20.8323H105.461C101.403 20.8323 97.4671 22.3192 94.4059 25.013C93.9162 25.5552 93.4089 26.0625 92.8841 26.5348C90.1904 29.6134 88.7035 33.5316 88.7035 37.6073V52.5104L88.7385 52.5279Z" fill="#4AC4CD" fill-opacity="0.3"/>
<path d="M99.0576 14.4482L99.2675 13.5561C99.6873 11.7544 99.9147 9.90027 99.9147 8.02862V0.0522461H121.395V13.5911H105.495C103.623 13.5911 101.769 13.801 99.9672 14.2383L99.0751 14.4482H99.0576ZM101.034 1.18922V8.02862C101.034 9.69036 100.877 11.3346 100.562 12.9439C102.171 12.629 103.833 12.4541 105.477 12.4541H120.24V1.17176H101.034V1.18922Z" fill="#4AC4CD" fill-opacity="0.3"/>
<path d="M109.152 73.3439H87.4795V59.805H103.607C105.479 59.805 107.315 59.595 109.1 59.1752L109.992 58.9653L109.782 59.8574C109.362 61.6591 109.152 63.5133 109.152 65.3675V73.3614V73.3439ZM88.6165 72.2068H108.015V65.35C108.015 63.7057 108.173 62.0615 108.487 60.4522C106.896 60.7671 105.251 60.9244 103.607 60.9244H88.6165V72.2068Z" fill="#4AC4CD" fill-opacity="0.3"/>
<path d="M81.4783 53.7879H67.9395V32.0627H75.8984C77.77 32.0627 79.6242 31.8528 81.4259 31.4155L82.3179 31.2056L82.108 32.0977C81.6882 33.8994 81.4608 35.7535 81.4608 37.6251V53.7879H81.4783ZM69.0764 52.6508H80.3413V37.6251C80.3413 35.9634 80.4987 34.3191 80.8311 32.7099C79.2218 33.0247 77.5601 33.1997 75.9158 33.1997H69.0939V52.6508H69.0764Z" fill="#4AC4CD" fill-opacity="0.3"/>
<path d="M75.9178 25.923H67.959V0.0522461H93.8122V8.02862C93.8122 12.4016 92.2205 16.6173 89.3518 19.8708C88.792 20.3955 88.2847 20.9028 87.795 21.4276L87.76 21.4625C84.5065 24.3487 80.2909 25.9405 75.9354 25.9405L75.9178 25.923ZM69.096 24.786H75.9178C79.9935 24.786 83.9292 23.2992 86.9728 20.6054C87.4626 20.0807 87.9874 19.5559 88.5297 19.0486C91.1885 16.04 92.6753 12.1043 92.6753 8.01116V1.17176H69.096V24.786Z" fill="#4AC4CD" fill-opacity="0.3"/>
<path d="M141.127 13.6961H127.501V0.0522461H141.127V13.6961ZM128.638 12.5591H139.99V1.17176H128.638V12.5591Z" fill="#4AC4CD" fill-opacity="0.3"/>
<path d="M141.128 73.3437H115.274V65.3498C115.274 61.0818 116.796 56.9536 119.542 53.7176L119.595 53.6652C120.26 53.0879 120.889 52.4407 121.484 51.776L121.537 51.7235C124.773 48.9597 128.883 47.438 133.134 47.438H141.128V73.3437ZM116.394 72.2067H139.991V48.5749H133.134C129.163 48.5749 125.315 49.9918 122.306 52.5631C121.694 53.2453 121.064 53.8925 120.382 54.4872C117.811 57.5134 116.411 61.3791 116.411 65.3498V72.2067H116.394Z" fill="#4AC4CD" fill-opacity="0.3"/>
<path d="M81.3754 73.3436H67.959V59.9097H81.3754V73.3436ZM69.096 72.2065H80.2559V61.0466H69.096V72.2065Z" fill="#4AC4CD" fill-opacity="0.3"/>
<path d="M97.3609 149.19L88.5449 140.356L89.8568 140.321C93.0229 140.216 96.0665 139.464 98.9002 138.082L100.387 137.365L99.6699 138.852C98.288 141.686 97.5359 144.729 97.4309 147.913L97.3959 149.225L97.3609 149.19ZM93.8625 144.082L96.3464 146.566C96.5563 144.187 97.0985 141.895 98.0081 139.709C95.8216 140.618 93.5302 141.161 91.1513 141.371L93.8625 144.082ZM108.433 129.266L109.151 127.779C110.48 125.068 111.215 122.164 111.372 119.138L111.442 117.861L119.821 126.257L118.544 126.327C115.518 126.485 112.614 127.22 109.92 128.549L108.433 129.284V129.266ZM112.422 120.433C112.194 122.672 111.652 124.823 110.795 126.887C112.859 126.03 115.01 125.488 117.249 125.26L112.422 120.415V120.433Z" fill="#4AC4CD" fill-opacity="0.3"/>
<path d="M141.128 138.939L137.647 135.44C136.282 133.569 134.656 131.942 132.802 130.577L132.732 130.525L107.123 104.847C105.759 102.992 104.132 101.348 102.278 100.001L102.208 99.9487L99.0244 96.7651H141.128V138.939ZM138.539 134.74L139.991 136.192V97.8847H101.753L102.978 99.1091C104.902 100.526 106.598 102.205 108.015 104.147L133.501 129.703C135.425 131.12 137.122 132.816 138.539 134.758V134.74Z" fill="#4AC4CD" fill-opacity="0.3"/>
<path d="M109.555 170.057H67.959V128.391L109.555 170.057ZM69.096 168.92H106.826L69.096 131.137V168.92Z" fill="#4AC4CD" fill-opacity="0.3"/>
<path d="M-6.08677 108.941L-6.20923 107.647C-6.61154 103.606 -8.18585 100.317 -10.9321 97.8336L-12.0166 96.854H8.41411L6.61243 97.9035C2.53678 100.3 -1.45139 103.693 -5.22967 107.961L-6.08677 108.941ZM-9.1829 97.9734C-7.10134 100.23 -5.78945 103.011 -5.26469 106.282C-2.18609 102.924 1.03248 100.125 4.33848 97.9734H-9.1829Z" fill="#4AC4CD" fill-opacity="0.3"/>
<path d="M44.7465 106.65L43.697 104.9C42.0003 102.084 39.9012 99.7226 37.4523 97.8685L36.1055 96.854H44.729V106.667L44.7465 106.65ZM39.394 97.9734C40.9683 99.3378 42.3676 100.912 43.6095 102.696V97.9734H39.394Z" fill="#4AC4CD" fill-opacity="0.3"/>
<path d="M44.7461 170.128H-27.1113L-26.9364 169.428C-24.9598 161.382 -19.0475 142.7 -6.873 142.7C-6.47069 142.7 -6.06837 142.718 -5.66605 142.753C-3.95183 142.927 -2.535 143.4 -1.433 144.169C-0.348494 144.939 0.421169 146.006 0.875963 147.37C1.54066 149.347 1.50566 151.796 0.805981 154.28C0.158773 156.536 -0.995663 158.6 -2.32506 159.807C-2.9023 160.35 -3.82938 160.997 -4.84392 160.997C-5.21125 160.997 -5.5611 160.909 -5.94593 160.752C-8.02748 159.86 -8.69218 157.778 -8.62221 156.256C-8.55224 154.472 -7.64268 153.16 -6.13837 152.653L-4.54659 152.128L-6.47067 146.321L-8.06245 146.846C-11.9982 148.158 -14.552 151.656 -14.7269 155.994C-14.9193 160.542 -12.418 164.618 -8.35984 166.367C-4.94889 167.854 -1.20558 167.084 1.82055 164.303C5.2315 161.154 7.43549 155.732 7.43549 150.484C7.43549 148.665 7.17314 146.968 6.64837 145.429C4.95164 140.356 0.788513 137.243 -5.07133 136.665C-5.68355 136.613 -6.29575 136.578 -6.90797 136.578C-10.0041 136.578 -12.9777 137.365 -15.724 138.922L-17.2283 139.761L-16.5286 138.187C-15.4791 135.843 -14.3771 133.517 -13.2401 131.278C-13.0127 130.893 -11.8932 129.056 -10.5813 126.327C-8.28985 122.252 -5.87596 118.578 -3.42707 115.395C2.5902 107.593 8.97481 102.608 15.5518 100.597C18.1756 99.792 20.7295 99.3896 23.1259 99.3896C26.8867 99.3896 30.2626 100.387 33.1138 102.328C35.9825 104.288 38.239 107.121 39.8308 110.795C42.0698 115.937 42.6295 122.129 41.4051 127.779C40.7579 130.753 39.6384 133.447 38.0816 135.773C36.4024 138.292 34.2683 140.321 31.7145 141.79C29.6329 142.997 27.4639 143.61 25.2949 143.61C21.5341 143.61 17.9657 141.703 15.9891 138.642C14.6597 136.56 14.2399 134.076 14.7996 131.61C15.132 130.176 15.7967 128.776 16.7588 127.429C17.8433 125.943 19.3126 124.526 21.1318 123.231L22.4962 122.252L18.9278 117.267L17.5634 118.229C12.8755 121.57 9.84942 125.68 8.78241 130.123C7.82034 134.181 8.55498 138.379 10.8289 141.948C13.1204 145.481 16.8112 148.123 20.9743 149.19C22.3912 149.539 23.8431 149.732 25.2774 149.732C28.5309 149.732 31.7319 148.84 34.7581 147.073C38.309 145.009 41.3876 141.983 43.6266 138.309L44.6761 136.595V170.145L44.7461 170.128ZM-25.6595 168.991H43.609V140.461C41.3876 143.575 38.5714 146.181 35.3878 148.035C32.1868 149.907 28.7933 150.851 25.3299 150.851C23.8081 150.851 22.2513 150.659 20.747 150.274C16.304 149.137 12.3683 146.321 9.91938 142.543C7.47049 138.712 6.68333 134.216 7.71536 129.843C8.83485 125.138 12.0184 120.8 16.9337 117.284L19.2077 115.657L24.088 122.479L21.7964 124.123C20.0822 125.348 18.7004 126.677 17.6859 128.059C16.8113 129.266 16.199 130.543 15.9191 131.82C15.4119 133.989 15.7967 136.176 16.9512 137.977C18.7179 140.723 21.9189 142.438 25.3124 142.438C27.289 142.438 29.2481 141.878 31.1722 140.776C33.5686 139.377 35.5802 137.47 37.1545 135.109C38.6238 132.887 39.6908 130.333 40.3031 127.499C41.4925 122.077 40.9328 116.147 38.7987 111.214C37.2944 107.751 35.1604 105.057 32.4841 103.238C29.8253 101.419 26.6768 100.492 23.1259 100.492C20.8344 100.492 18.403 100.877 15.8842 101.646C9.53456 103.588 3.34234 108.433 -2.5175 116.06C-4.9489 119.191 -7.31032 122.829 -9.5668 126.817C-10.8962 129.581 -12.0332 131.453 -12.2431 131.802C-13.1177 133.534 -13.9748 135.336 -14.8144 137.155C-12.3131 136.001 -9.65422 135.423 -6.90797 135.423C-6.26076 135.423 -5.59608 135.458 -4.94887 135.511C1.38326 136.123 5.89617 139.516 7.75033 145.044C8.31007 146.706 8.58997 148.525 8.58997 150.466C8.58997 156.011 6.24601 161.766 2.60766 165.125C0.386169 167.171 -2.16764 168.238 -4.79145 168.238C-6.13833 168.238 -7.48522 167.959 -8.77963 167.399C-13.2751 165.457 -16.0388 160.962 -15.8289 155.924C-15.6365 151.114 -12.7853 147.213 -8.39481 145.761L-5.73603 144.869L-3.09472 152.81L-5.75354 153.703C-7.10043 154.157 -7.43274 155.347 -7.46773 156.274C-7.5202 157.428 -7.03045 159.003 -5.47366 159.685C-5.24627 159.79 -5.03637 159.842 -4.82646 159.842C-4.31919 159.842 -3.68948 159.527 -3.07726 158.95C-1.90529 157.866 -0.855757 156.011 -0.278519 153.947C0.368687 151.691 0.386211 149.469 -0.191027 147.72C-0.558359 146.601 -1.2056 145.709 -2.0802 145.096C-3.00728 144.432 -4.24919 144.029 -5.771 143.889C-6.13833 143.854 -6.50567 143.837 -6.873 143.837C-18.1379 143.837 -23.9103 162.239 -25.6595 169.008V168.991Z" fill="#4AC4CD" fill-opacity="0.3"/>
<path d="M67.9062 205.741V193.777H79.8533L79.7484 194.424C79.3111 197.205 77.9817 199.847 75.9701 201.858C73.976 203.87 71.3347 205.199 68.5534 205.637L67.9062 205.741ZM69.0432 194.914V204.395C71.3522 203.905 73.5037 202.733 75.183 201.054C76.8622 199.374 78.0342 197.223 78.5239 194.914H69.0607H69.0432Z" fill="#4AC4CD" fill-opacity="0.3"/>
<path d="M140.951 266.842H129.004L129.109 266.194C129.546 263.413 130.876 260.772 132.887 258.76C134.881 256.749 137.523 255.419 140.304 254.982L140.951 254.877V266.842ZM130.351 265.705H139.814V256.224C137.505 256.714 135.354 257.886 133.674 259.565C131.995 261.244 130.823 263.396 130.333 265.705H130.351Z" fill="#4AC4CD" fill-opacity="0.3"/>
<path d="M130.543 252.218L133.429 249.629C135.371 247.88 137.75 246.761 140.304 246.358L140.951 246.253V248.755L140.443 248.807C138.204 249.017 136.053 249.612 134.041 250.574L130.543 252.236V252.218ZM139.831 247.583C139.429 247.67 139.044 247.775 138.659 247.898C139.044 247.828 139.429 247.775 139.831 247.723V247.583Z" fill="#4AC4CD" fill-opacity="0.3"/>
<path d="M122.848 267.069H92.9365L131.821 228.114C134.987 224.93 137.751 221.362 140.008 217.531L141.057 215.729V240.096L140.55 240.148C130.457 241.093 122.848 249.472 122.848 259.635V267.069ZM95.6653 265.932H121.711V259.635C121.711 249.052 129.512 240.288 139.92 239.064V219.805C137.821 223.076 135.372 226.137 132.608 228.901L95.6653 265.914V265.932Z" fill="#4AC4CD" fill-opacity="0.3"/>
<path d="M84.2963 267.069H68.0986L68.1511 266.456C68.5709 261.069 69.9003 255.856 72.1043 250.941C74.4308 245.781 77.6493 241.11 81.69 237.07L124.895 193.794H141.075L141.023 194.407C140.183 205.462 135.391 215.904 127.502 223.811L84.2963 267.086V267.069ZM69.3231 265.932H83.824L126.697 222.989C134.254 215.415 138.907 205.479 139.851 194.914H125.368L82.4946 237.857C78.5589 241.81 75.4103 246.358 73.1364 251.396C71.0723 255.996 69.7954 260.876 69.3231 265.914V265.932Z" fill="#4AC4CD" fill-opacity="0.3"/>
<path d="M67.9062 245.536V220.522L68.4135 220.47C78.454 219.49 86.0105 211.111 86.0105 200.984V193.777H116.237L77.3519 232.714C74.0809 236.003 71.2647 239.693 68.9558 243.699L67.9062 245.536ZM69.0432 221.537V241.373C71.1773 237.962 73.6961 234.796 76.5648 231.927L113.508 194.931H87.1475V201.001C87.1475 211.531 79.3985 220.277 69.0432 221.554V221.537Z" fill="#4AC4CD" fill-opacity="0.3"/>
<path d="M67.9062 214.365V211.864L68.4135 211.811C70.6525 211.601 72.804 211.007 74.8156 210.044L78.314 208.383L75.4278 210.972C73.4862 212.721 71.1073 213.84 68.5534 214.243L67.9062 214.348V214.365ZM69.0432 212.896V213.036C69.4455 212.948 69.8304 212.843 70.2152 212.721C69.8304 212.791 69.428 212.843 69.0432 212.896Z" fill="#4AC4CD" fill-opacity="0.3"/>
<path d="M141.128 170.058H118.196L109.975 161.837L110.028 161.767L108.908 160.665C108.453 160.263 108.033 159.843 107.631 159.388C104.972 156.414 103.521 152.601 103.521 148.613C103.521 139.692 110.762 132.433 119.683 132.433C122.954 132.433 126.085 133.412 128.779 135.249L128.884 135.336L133.03 139.499L141.146 147.616V170.076L141.128 170.058ZM118.669 168.921H139.991V148.071L128.097 136.158C125.596 134.444 122.692 133.552 119.666 133.552C111.374 133.552 104.64 140.304 104.64 148.595C104.64 152.304 106.004 155.855 108.453 158.618C108.821 159.038 109.223 159.44 109.643 159.808L111.514 161.644L111.462 161.714L118.651 168.904L118.669 168.921Z" fill="#4AC4CD" fill-opacity="0.3"/>
<path d="M89.1418 134.198C85.1711 134.198 81.3404 132.729 78.3842 130.07C77.9294 129.668 77.5096 129.248 77.1248 128.811L76.0928 127.639L75.9529 127.744L67.959 119.732V96.7651H90.3838L102.488 108.905C104.342 111.616 105.287 114.765 105.287 118.018C105.287 126.939 98.0453 134.198 89.1244 134.198H89.1418ZM76.2502 126.099L77.9644 128.058C78.3143 128.461 78.6991 128.846 79.1189 129.213C81.8827 131.697 85.4335 133.061 89.1418 133.061C97.4331 133.061 104.168 126.309 104.168 118.018C104.168 114.992 103.275 112.088 101.614 109.604L89.9115 97.8847H69.096V119.242L76.0578 126.222L76.2502 126.082V126.099Z" fill="#4AC4CD" fill-opacity="0.3"/>
<path d="M-28.0379 341.147H-28.5977V329.917H-1.69487C7.73335 329.917 14.4853 326.419 18.491 323.498L19.8204 322.518L19.3656 324.11C18.6134 326.716 17.5464 329.078 16.182 331.124C14.4503 333.713 12.1938 335.882 9.46507 337.544C4.02504 340.885 -1.64236 341.147 -1.88725 341.165H-28.0379V341.147ZM-27.4781 340.01H-1.90476C-1.69486 340.01 3.67521 339.748 8.87035 336.564C11.4417 334.99 13.5932 332.943 15.2374 330.494C16.252 328.973 17.1091 327.258 17.7738 325.369C13.5232 328.15 7.01621 331.054 -1.71232 331.054H-27.4781V340.01Z" fill="#4AC4CD" fill-opacity="0.3"/>
<path d="M-1.71244 323.795H-28.6152V294.811L0.264116 323.76L-1.06524 323.795C-1.29264 323.795 -1.50255 323.795 -1.72995 323.795H-1.71244ZM-27.4783 322.658H-2.41217L-27.4783 297.54V322.658Z" fill="#4AC4CD" fill-opacity="0.3"/>
<path d="M44.5367 305.061L43.5047 303.504C41.7905 300.916 39.7614 298.502 37.4875 296.315C35.6508 294.548 33.6392 292.922 31.5402 291.522L29.9834 290.49H44.5543V305.079L44.5367 305.061ZM33.6392 291.61C35.266 292.799 36.8053 294.094 38.2571 295.493C40.1462 297.312 41.878 299.289 43.3998 301.388V291.61H33.6392Z" fill="#4AC4CD" fill-opacity="0.3"/>
<path d="M44.5363 363.782H25.7323L27.1842 362.75C31.4348 359.724 34.8807 355.858 37.452 351.275C41.1428 344.68 43.032 336.529 43.032 327.066V322.291L44.1515 322.221C44.2914 323.323 44.3964 324.425 44.4488 325.527L44.5363 327.503V363.764V363.782ZM29.2133 362.645H43.3993V337.071C42.5072 342.581 40.863 347.532 38.4491 351.835C36.0702 356.068 32.9741 359.706 29.2133 362.645ZM16.2866 340.22L17.8784 338.611C19.6451 336.826 21.1669 334.797 22.4088 332.576C25.33 327.381 26.7994 320.979 26.7994 313.545V301.982L21.0969 312.023C21.0095 312.163 19.2778 315.031 15.7269 317.865C13.3305 319.772 10.6891 321.224 7.85544 322.221L7.52314 322.343L-24.2949 290.455H6.45609L7.96044 290.507C23.8432 290.507 37.8194 300.635 42.6996 315.731L42.7696 315.976L37.3121 325.544C37.3121 325.544 34.9681 329.497 30.1578 333.346C26.6419 336.162 22.6887 338.243 18.4382 339.555L16.2692 340.22H16.2866ZM27.9363 297.802V313.562C27.9363 321.189 26.4145 327.766 23.4059 333.136C22.4788 334.78 21.4118 336.319 20.2049 337.754C23.5284 336.494 26.6419 334.71 29.4581 332.471C34.0411 328.798 36.2801 325.089 36.3326 324.984L41.5452 315.871C39.0438 308.332 34.181 302.07 27.9363 297.819V297.802ZM-21.5662 291.61L7.82047 321.049C10.4093 320.104 12.8407 318.74 15.0272 317.008C18.4207 314.297 20.0649 311.603 20.1349 311.48L27.9014 297.784C22.164 293.884 15.2721 291.662 7.94293 291.662L6.42113 291.61H-21.5837H-21.5662Z" fill="#4AC4CD" fill-opacity="0.3"/>
<path d="M-28.0379 363.729H-28.5977V347.356H6.99869C19.8728 347.356 28.8463 342.301 34.1114 338.068C34.4262 337.823 34.7236 337.578 35.021 337.316L36.2629 336.249L35.9306 337.858C35.0385 342.214 33.5341 346.115 31.4876 349.438C29.0912 353.304 25.8727 356.505 21.902 358.919C14.8352 363.222 7.54094 363.677 6.71881 363.712H-28.0379V363.729ZM-27.4781 362.592H6.68385C7.436 362.557 14.4678 362.12 21.2897 357.957C25.0855 355.63 28.199 352.552 30.4905 348.843C32.2222 346.045 33.5516 342.826 34.4262 339.223C28.9862 343.508 19.8904 348.476 6.96372 348.476H-27.4956V362.575L-27.4781 362.592Z" fill="#4AC4CD" fill-opacity="0.3"/>
<path d="M126.47 332.594L126.68 331.702C127.099 329.917 127.309 328.063 127.309 326.192V310.256H140.848V331.737H132.854C131.018 331.737 129.163 331.946 127.362 332.366L126.47 332.576V332.594ZM128.446 311.393V326.192C128.446 327.836 128.289 329.48 127.974 331.089C129.583 330.774 131.228 330.617 132.854 330.617H139.711V311.393H128.446Z" fill="#4AC4CD" fill-opacity="0.3"/>
<path d="M103.326 344.103H87.3203V328.063C87.3203 323.708 88.9121 319.509 91.7983 316.221L91.8507 316.169C92.358 315.714 92.8653 315.206 93.3376 314.682L93.3901 314.629C96.6611 311.726 100.859 310.134 105.215 310.134H121.202V326.174C121.202 330.425 119.681 334.553 116.934 337.789L116.882 337.841C116.217 338.436 115.605 339.048 114.993 339.73L114.94 339.783C111.704 342.564 107.594 344.086 103.343 344.086L103.326 344.103ZM88.4573 342.966H103.326C107.279 342.966 111.127 341.549 114.153 338.961C114.783 338.278 115.413 337.649 116.077 337.037C118.649 334.01 120.048 330.162 120.048 326.174V311.271H105.18C101.122 311.271 97.1858 312.758 94.1247 315.451C93.6349 315.994 93.1277 316.501 92.6029 316.973C89.9091 320.052 88.4223 323.97 88.4223 328.046V342.949L88.4573 342.966Z" fill="#4AC4CD" fill-opacity="0.3"/>
<path d="M98.7793 304.886L98.9892 303.994C99.409 302.192 99.6364 300.338 99.6364 298.467V290.49H121.117V304.029H105.216C103.345 304.029 101.491 304.239 99.6889 304.676L98.7968 304.886H98.7793ZM100.756 291.627V298.467C100.756 300.128 100.598 301.773 100.266 303.382C101.875 303.067 103.52 302.892 105.181 302.892H119.945V291.61H100.738L100.756 291.627Z" fill="#4AC4CD" fill-opacity="0.3"/>
<path d="M108.873 363.782H87.2002V350.243H103.328C105.2 350.243 107.036 350.034 108.82 349.614L109.712 349.404L109.503 350.296C109.083 352.097 108.873 353.952 108.873 355.806V363.8V363.782ZM88.3372 362.645H107.736V355.788C107.736 354.144 107.893 352.5 108.208 350.891C106.616 351.205 104.972 351.363 103.328 351.363H88.3372V362.645Z" fill="#4AC4CD" fill-opacity="0.3"/>
<path d="M81.2175 344.226H67.6787V322.501H75.6376C77.5092 322.501 79.3634 322.291 81.1651 321.854L82.0572 321.644L81.8473 322.536C81.4275 324.338 81.2001 326.192 81.2001 328.064V344.226H81.2175ZM68.8157 343.089H80.0806V328.064C80.0806 326.419 80.238 324.758 80.5703 323.148C78.9611 323.463 77.2993 323.638 75.6551 323.638H68.8157V343.089Z" fill="#4AC4CD" fill-opacity="0.3"/>
<path d="M75.6376 316.361H67.6787V290.49H93.532V298.467C93.532 302.84 91.9402 307.055 89.0715 310.309C88.5118 310.834 88.0045 311.341 87.5147 311.866L87.4797 311.901C84.2262 314.787 80.0106 316.379 75.6551 316.379L75.6376 316.361ZM68.7982 315.224H75.6376C79.7132 315.224 83.649 313.737 86.6926 311.043C87.1823 310.519 87.7071 309.994 88.2494 309.487C90.9082 306.478 92.395 302.542 92.395 298.449V291.61H68.8157V315.224H68.7982Z" fill="#4AC4CD" fill-opacity="0.3"/>
<path d="M140.848 304.134H127.222V290.49H140.848V304.134ZM128.359 302.997H139.711V291.61H128.359V302.997Z" fill="#4AC4CD" fill-opacity="0.3"/>
<path d="M140.848 363.782H114.995V355.788C114.995 351.52 116.517 347.392 119.263 344.156L119.316 344.104C119.98 343.526 120.61 342.879 121.205 342.214L121.257 342.162C124.493 339.398 128.604 337.876 132.855 337.876H140.848V363.782ZM116.115 362.645H139.711V339.013H132.855C128.884 339.013 125.036 340.43 122.027 343.002C121.415 343.684 120.785 344.331 120.103 344.926C117.531 347.952 116.132 351.818 116.132 355.788V362.645H116.115Z" fill="#4AC4CD" fill-opacity="0.3"/>
<path d="M81.0951 363.783H67.6787V350.349H81.0951V363.783ZM68.8157 362.646H79.9756V351.486H68.8157V362.646Z" fill="#4AC4CD" fill-opacity="0.3"/>
<path d="M97.1012 439.628L88.2852 430.794L89.5971 430.759C92.7631 430.654 95.8068 429.902 98.6405 428.52L100.127 427.785L99.4101 429.272C98.0283 432.106 97.2761 435.15 97.1712 438.333L97.1361 439.645L97.1012 439.628ZM93.6028 434.52L96.0866 437.004C96.2965 434.625 96.8388 432.333 97.7484 430.147C95.5619 431.056 93.2704 431.599 90.8915 431.809L93.6028 434.52ZM108.174 419.704L108.891 418.217C110.22 415.506 110.955 412.602 111.112 409.576L111.182 408.299L119.561 416.695L118.284 416.765C115.258 416.923 112.354 417.658 109.66 418.987L108.174 419.704ZM112.162 410.871C111.934 413.11 111.392 415.261 110.535 417.325C112.599 416.468 114.768 415.926 116.99 415.698L112.162 410.853V410.871Z" fill="#4AC4CD" fill-opacity="0.3"/>
<path d="M140.848 429.377L137.367 425.879C136.002 424.007 134.375 422.381 132.521 421.016L132.451 420.964L106.843 395.285C105.479 393.431 103.852 391.787 101.998 390.44L101.928 390.388L98.7441 387.204H140.848V429.377ZM138.259 425.179L139.711 426.631V388.324H101.473L102.697 389.548C104.621 390.965 106.318 392.644 107.735 394.586L133.221 420.142C135.145 421.559 136.842 423.255 138.259 425.197V425.179Z" fill="#4AC4CD" fill-opacity="0.3"/>
<path d="M109.275 460.496H67.6787V418.83L109.275 460.496ZM68.7982 459.359H106.529L68.7982 421.576V459.359Z" fill="#4AC4CD" fill-opacity="0.3"/>
<path d="M140.848 460.495H117.916L109.695 452.274L109.747 452.204L108.628 451.102C108.173 450.7 107.753 450.28 107.351 449.825C104.692 446.852 103.24 443.038 103.24 439.05C103.24 430.129 110.482 422.87 119.403 422.87C122.674 422.87 125.805 423.85 128.499 425.686L128.604 425.774L132.749 429.937L140.866 438.053V460.513L140.848 460.495ZM118.388 459.359H139.711V438.508L127.817 426.596C125.298 424.882 122.411 423.99 119.385 423.99C111.094 423.99 104.36 430.742 104.36 439.033C104.36 442.741 105.724 446.292 108.173 449.056C108.54 449.475 108.943 449.878 109.362 450.245L111.234 452.082L111.182 452.152L118.371 459.341L118.388 459.359Z" fill="#4AC4CD" fill-opacity="0.3"/>
<path d="M88.8616 424.637C84.8909 424.637 81.0601 423.168 78.104 420.509C77.6492 420.107 77.2294 419.687 76.8445 419.25L75.8125 418.078L75.6726 418.182L67.6787 410.171V387.204H90.1035L102.226 399.344C104.062 402.055 105.024 405.186 105.024 408.457C105.024 417.378 97.7826 424.637 88.8616 424.637ZM75.9699 416.538L77.6842 418.497C78.034 418.9 78.4188 419.285 78.8387 419.652C81.6024 422.136 85.1533 423.5 88.8616 423.5C97.1529 423.5 103.887 416.748 103.887 408.457C103.887 405.431 102.995 402.527 101.333 400.043L89.6312 388.324H68.8157V409.681L75.7775 416.661L75.9699 416.521V416.538Z" fill="#4AC4CD" fill-opacity="0.3"/>
<path d="M332.579 50.7106H305.869C305.606 50.7106 299.939 50.4307 294.499 47.0897C291.788 45.4279 289.531 43.2765 287.782 40.6701C286.418 38.6236 285.351 36.2796 284.598 33.6558L284.144 32.064L285.473 33.0435C289.479 35.9822 296.248 39.4632 305.659 39.4632H332.562V50.693L332.579 50.7106ZM286.19 34.9327C286.855 36.8043 287.712 38.5185 288.726 40.0578C290.371 42.5067 292.505 44.5534 295.094 46.1276C300.289 49.3112 305.676 49.5735 305.904 49.5735H331.46V40.6176H305.694C296.965 40.6176 290.458 37.7139 286.208 34.9327H286.19Z" fill="#4AC4CD" fill-opacity="0.3"/>
<path d="M332.58 33.3573H305.677C305.449 33.3573 305.239 33.3573 305.012 33.3573L303.683 33.3224L332.58 4.37305V33.3573ZM306.394 32.2204H331.46V7.1018L306.394 32.2204Z" fill="#4AC4CD" fill-opacity="0.3"/>
<path d="M259.426 14.6235V0.0351562H273.997L272.44 1.06718C270.323 2.46655 268.329 4.09329 266.493 5.85999C264.219 8.04649 262.19 10.4604 260.475 13.0492L259.443 14.606L259.426 14.6235ZM260.563 1.17213V10.9502C262.085 8.85114 263.816 6.87454 265.705 5.05537C267.157 3.656 268.697 2.36159 270.323 1.17213H260.563Z" fill="#4AC4CD" fill-opacity="0.3"/>
<path d="M278.23 73.3448H259.426V37.0837L259.513 35.1071C259.566 34.0051 259.653 32.8857 259.811 31.8012L260.93 31.8711V36.6464C260.93 46.1096 262.802 54.2609 266.51 60.8554C269.081 65.4558 272.545 69.3041 276.795 72.3302L278.247 73.3623L278.23 73.3448ZM260.563 72.2078H274.749C270.988 69.2516 267.892 65.6308 265.513 61.3977C263.099 57.0946 261.437 52.1444 260.563 46.6344V72.2078ZM287.675 49.7829L285.506 49.1182C281.256 47.8063 277.303 45.7248 273.787 42.9086C268.924 39.0253 266.667 35.1421 266.632 35.1071L261.175 25.539L261.245 25.2941C266.125 10.2159 280.101 0.0705404 295.984 0.0705404L297.453 0.0180664H328.24L296.422 31.8886L296.089 31.7661C293.255 30.7866 290.597 29.3173 288.218 27.4106C284.737 24.6294 283.023 21.8831 282.848 21.5857L277.145 11.5453V23.1075C277.145 30.5417 278.615 36.9438 281.536 42.1389C282.778 44.3604 284.299 46.3895 286.066 48.1737L287.658 49.7829H287.675ZM262.417 25.4165L267.63 34.5474C267.63 34.5474 269.869 38.3257 274.504 42.034C277.338 44.2904 280.434 46.0572 283.757 47.3166C282.55 45.8997 281.483 44.3429 280.556 42.6987C277.548 37.3286 276.026 30.7341 276.026 23.1251V7.3647C269.781 11.6153 264.918 17.8774 262.417 25.4165ZM276.061 7.32973L283.845 21.026C283.915 21.1309 285.559 23.8423 288.935 26.536C291.121 28.2852 293.553 29.6496 296.142 30.5767L325.528 1.13753H297.506L296.054 1.19C288.707 1.19 281.798 3.4115 276.061 7.31222V7.32973Z" fill="#4AC4CD" fill-opacity="0.3"/>
<path d="M332.578 73.2926H297.279C296.44 73.2576 289.128 72.8029 282.079 68.4998C278.126 66.0684 274.89 62.8849 272.493 59.0192C270.429 55.6957 268.942 51.8124 268.05 47.4394L267.718 45.8301L268.96 46.8972C269.257 47.1421 269.555 47.4044 269.869 47.6493C275.134 51.8824 284.108 56.9376 296.982 56.9376H332.578V73.3101V73.2926ZM269.52 48.8037C270.412 52.3896 271.724 55.6257 273.455 58.4244C275.764 62.1502 278.86 65.2113 282.656 67.5378C289.478 71.7009 296.51 72.1381 297.297 72.1731H331.441V58.0745H296.982C284.055 58.0745 274.96 53.1068 269.52 48.8213V48.8037Z" fill="#4AC4CD" fill-opacity="0.3"/>
<path d="M177.494 42.1563L176.602 41.9464C174.8 41.5266 172.946 41.3167 171.109 41.3167H163.115V19.8364H176.654V35.7717C176.654 37.6433 176.864 39.4975 177.284 41.2817L177.494 42.1738V42.1563ZM164.252 40.1797H171.109C172.736 40.1797 174.38 40.3372 175.989 40.652C175.675 39.0427 175.517 37.416 175.517 35.7543V20.9559H164.252V40.1797Z" fill="#4AC4CD" fill-opacity="0.3"/>
<path d="M216.642 53.6655H200.637C196.386 53.6655 192.276 52.1437 189.04 49.3624L188.987 49.31C188.375 48.6278 187.763 48.0156 187.098 47.4208L187.045 47.3683C184.282 44.1323 182.777 40.0042 182.777 35.7537V19.7134H198.765C203.121 19.7134 207.319 21.3052 210.59 24.2088L210.642 24.2614C211.114 24.7861 211.622 25.2934 212.129 25.7482L212.181 25.8007C215.068 29.0892 216.659 33.2872 216.659 37.6427V53.683L216.642 53.6655ZM189.809 48.5229C192.835 51.1117 196.684 52.5285 200.637 52.5285H215.505V37.6252C215.505 33.5671 214.018 29.6314 211.324 26.5528C210.8 26.0805 210.292 25.5733 209.803 25.031C206.741 22.3373 202.806 20.8504 198.748 20.8504H183.879V35.7537C183.879 39.7244 185.296 43.5726 187.85 46.6162C188.532 47.2109 189.162 47.8407 189.774 48.5404L189.809 48.5229Z" fill="#4AC4CD" fill-opacity="0.3"/>
<path d="M205.183 14.4482L204.291 14.2383C202.489 13.8185 200.635 13.5911 198.764 13.5911H182.863V0.0522461H204.344V8.02862C204.344 9.90027 204.553 11.7544 204.991 13.5561L205.201 14.4482H205.183ZM183.983 12.4541H198.746C200.408 12.4541 202.052 12.6115 203.661 12.9439C203.347 11.3346 203.172 9.69036 203.172 8.02862V1.18922H183.965V12.4716L183.983 12.4541Z" fill="#4AC4CD" fill-opacity="0.3"/>
<path d="M216.763 73.3448H195.091V65.3509C195.091 63.4967 194.881 61.6425 194.461 59.8408L194.251 58.9487L195.143 59.1586C196.927 59.5784 198.781 59.7884 200.636 59.7884H216.763V73.3273V73.3448ZM196.228 72.2077H215.626V60.9253H200.636C198.991 60.9253 197.347 60.768 195.755 60.4531C196.07 62.0624 196.228 63.7066 196.228 65.3509V72.2077Z" fill="#4AC4CD" fill-opacity="0.3"/>
<path d="M236.284 53.7884H222.745V37.6256C222.745 35.754 222.535 33.8998 222.098 32.0982L221.888 31.2061L222.78 31.416C224.581 31.8358 226.436 32.0631 228.307 32.0631H236.266V53.7884H236.284ZM223.882 52.6513H235.147V33.2002H228.325C226.663 33.2002 225.019 33.0427 223.41 32.7103C223.724 34.3196 223.899 35.9639 223.899 37.6256V52.6513H223.882Z" fill="#4AC4CD" fill-opacity="0.3"/>
<path d="M236.284 25.923H228.325C223.97 25.923 219.754 24.3312 216.501 21.445L216.466 21.4101C215.993 20.9028 215.486 20.3956 214.961 19.9058C212.04 16.6173 210.448 12.4191 210.448 8.02862V0.0522461H236.302V25.923H236.284ZM217.27 20.6229C220.331 23.3167 224.25 24.8036 228.325 24.8036H235.147V1.18922H211.568V8.02862C211.568 12.1218 213.055 16.0575 215.748 19.1011C216.256 19.5734 216.78 20.0982 217.253 20.6229H217.27Z" fill="#4AC4CD" fill-opacity="0.3"/>
<path d="M176.742 13.6961H163.115V0.0522461H176.742V13.6961ZM164.252 12.5591H175.605V1.17176H164.252V12.5591Z" fill="#4AC4CD" fill-opacity="0.3"/>
<path d="M188.986 73.3442H163.133V47.4385H171.127C175.377 47.4385 179.488 48.9602 182.724 51.7239L182.776 51.7765C183.371 52.4412 184.001 53.0709 184.666 53.6656L184.718 53.7181C187.482 56.9541 188.986 61.0823 188.986 65.3503V73.3442ZM164.252 72.2072H187.849V65.3503C187.849 61.3621 186.432 57.5138 183.878 54.4877C183.214 53.893 182.567 53.2458 181.954 52.5636C178.928 49.9923 175.08 48.5754 171.127 48.5754H164.27V72.2072H164.252Z" fill="#4AC4CD" fill-opacity="0.3"/>
<path d="M236.286 73.344H222.869V59.9102H236.286V73.344ZM224.006 72.207H235.166V61.0471H224.006V72.207Z" fill="#4AC4CD" fill-opacity="0.3"/>
<path d="M206.88 149.19L206.845 147.878C206.74 144.712 205.988 141.668 204.606 138.817L203.889 137.33L205.375 138.047C208.209 139.429 211.253 140.181 214.419 140.286L215.731 140.321L206.915 149.155L206.88 149.19ZM206.233 139.709C207.142 141.895 207.684 144.204 207.894 146.566L213.089 141.371C210.728 141.161 208.437 140.618 206.233 139.709ZM195.807 129.266L194.32 128.549C191.609 127.22 188.706 126.467 185.697 126.327L184.42 126.257L192.799 117.861L192.869 119.138C193.026 122.164 193.761 125.068 195.09 127.779L195.807 129.266ZM186.991 125.278C189.213 125.505 191.382 126.048 193.446 126.905C192.589 124.841 192.047 122.672 191.819 120.45L186.991 125.295V125.278Z" fill="#4AC4CD" fill-opacity="0.3"/>
<path d="M163.115 138.939V96.7651H205.219L201.965 100.019C200.111 101.383 198.484 103.01 197.12 104.864L197.067 104.934L171.441 130.612C169.587 131.977 167.943 133.603 166.596 135.475L166.544 135.545L163.115 138.973V138.939ZM164.252 97.8847V136.192L165.704 134.74C167.121 132.816 168.818 131.102 170.742 129.685L196.228 104.129C197.645 102.205 199.341 100.508 201.265 99.0916L202.49 97.8671H164.252V97.8847Z" fill="#4AC4CD" fill-opacity="0.3"/>
<path d="M236.285 170.058H194.688L236.285 128.392V170.058ZM197.417 168.921H235.148V131.138L197.417 168.921Z" fill="#4AC4CD" fill-opacity="0.3"/>
<path d="M399.17 52.4416L399.135 51.1297C399.03 47.9462 398.278 44.9025 396.878 42.0513L396.144 40.5645L397.631 41.2992C400.464 42.6985 403.525 43.4507 406.692 43.5556L408.003 43.5906L399.17 52.4416ZM398.523 42.9434C399.432 45.1474 399.992 47.4389 400.185 49.8178L405.397 44.6052C403.018 44.3953 400.709 43.8355 398.523 42.9259V42.9434ZM388.15 32.5532L386.663 31.8185C383.952 30.4891 381.048 29.7369 378.022 29.5795L376.745 29.5096L385.124 21.1133L385.194 22.3903C385.351 25.4164 386.103 28.3375 387.433 31.0663L388.167 32.5532H388.15ZM379.316 28.5474C381.555 28.7748 383.707 29.3171 385.788 30.1743C384.931 28.0927 384.389 25.9237 384.162 23.6847L379.334 28.53L379.316 28.5474Z" fill="#4AC4CD" fill-opacity="0.3"/>
<path d="M355.425 42.1734V0H397.528L394.275 3.25355C392.421 4.61793 390.794 6.26218 389.447 8.11634L389.394 8.18627L363.769 33.8471C361.914 35.2115 360.288 36.8383 358.923 38.6925L358.871 38.7624L355.46 42.1909L355.425 42.1734ZM356.562 1.11952V39.4271L358.014 37.9752C359.413 36.0511 361.11 34.3544 363.034 32.9375L388.537 7.38165C389.954 5.45752 391.633 3.76079 393.557 2.34393L394.782 1.11952H356.562Z" fill="#4AC4CD" fill-opacity="0.3"/>
<path d="M428.576 73.2921H386.997L428.576 31.626V73.2921ZM389.726 72.1551H427.439V34.3722L389.726 72.1551Z" fill="#4AC4CD" fill-opacity="0.3"/>
<path d="M332.647 151.744L331.545 148.701C330.181 144.922 328.747 141.267 327.26 137.821C326.193 135.337 325.108 132.958 324.024 130.754L323.796 130.299H323.814L323.184 128.952C323.132 128.847 322.974 128.585 322.834 128.375L322.782 128.287C321.96 126.696 321.138 125.156 320.333 123.722C318.934 120.783 317.149 116.445 316.607 112.265C316.012 107.664 317.01 104.253 319.581 102.102L321.907 100.178L319.563 104.411C317.884 107.42 318.286 111.005 320.595 113.769C322.327 115.833 324.811 117.005 327.417 117.005C328.397 117.005 329.341 116.848 330.268 116.515C330.811 116.323 331.318 116.095 331.773 115.798L332.63 115.273V151.762L332.647 151.744ZM325.266 130.701C326.28 132.8 327.295 135.039 328.309 137.366C329.411 139.92 330.478 142.596 331.51 145.342V117.215C331.231 117.337 330.951 117.46 330.653 117.565C329.621 117.932 328.537 118.107 327.435 118.107C324.496 118.107 321.68 116.778 319.738 114.469C318.636 113.139 317.919 111.653 317.604 110.096C317.604 110.726 317.674 111.39 317.762 112.09C318.286 116.113 320.001 120.346 321.365 123.18C322.152 124.597 322.974 126.136 323.796 127.728C324.111 128.252 324.181 128.392 324.216 128.462L325.283 130.684L325.266 130.701Z" fill="#4AC4CD" fill-opacity="0.3"/>
<path d="M310.329 108.941L309.472 107.961C305.694 103.676 301.706 100.3 297.63 97.9035L295.828 96.854H316.259L315.174 97.8336C312.446 100.317 310.854 103.606 310.451 107.647L310.329 108.941ZM299.904 97.9734C303.192 100.142 306.411 102.924 309.507 106.282C310.032 103.011 311.361 100.23 313.425 97.9734H299.904Z" fill="#4AC4CD" fill-opacity="0.3"/>
<path d="M332.65 102.924L331.653 101.752C330.481 100.37 329.239 99.0408 327.98 97.7989L327 96.8193H332.65V102.907V102.924ZM329.729 97.9738C330.341 98.6035 330.936 99.2332 331.513 99.8804V97.9738H329.729Z" fill="#4AC4CD" fill-opacity="0.3"/>
<path d="M259.496 106.649V96.8364H268.12L266.773 97.851C264.324 99.7052 262.225 102.084 260.528 104.883L259.479 106.632L259.496 106.649ZM260.633 97.9733V102.696C261.875 100.93 263.292 99.3377 264.849 97.9733H260.633Z" fill="#4AC4CD" fill-opacity="0.3"/>
<path d="M331.353 170.128H259.496V136.578L260.546 138.292C262.802 141.966 265.863 144.992 269.414 147.056C272.458 148.823 275.641 149.715 278.895 149.715C280.329 149.715 281.781 149.54 283.198 149.172C287.361 148.105 291.052 145.464 293.343 141.931C295.617 138.38 296.352 134.164 295.39 130.106C294.34 125.663 291.297 121.552 286.609 118.211L285.244 117.249L281.676 122.235L283.04 123.214C284.86 124.509 286.329 125.925 287.413 127.412C288.393 128.759 289.04 130.159 289.373 131.593C289.95 134.059 289.513 136.561 288.183 138.625C286.207 141.686 282.638 143.592 278.877 143.592C276.708 143.592 274.539 142.98 272.458 141.773C269.904 140.286 267.77 138.275 266.091 135.756C264.534 133.43 263.432 130.736 262.767 127.762C261.543 122.112 262.102 115.92 264.341 110.777C265.933 107.121 268.19 104.27 271.058 102.311C273.91 100.352 277.286 99.3726 281.046 99.3726C283.443 99.3726 285.997 99.7749 288.62 100.58C295.197 102.591 301.582 107.576 307.599 115.378C310.066 118.561 312.462 122.235 314.754 126.275C316.1 129.074 317.202 130.893 317.412 131.226C318.567 133.499 319.669 135.844 320.718 138.187L321.418 139.762L319.914 138.922C317.167 137.365 314.194 136.578 311.098 136.578C310.485 136.578 309.873 136.613 309.261 136.666C303.401 137.243 299.221 140.356 297.541 145.429C297.017 146.968 296.754 148.683 296.754 150.502C296.754 155.749 298.958 161.172 302.369 164.321C304.363 166.157 306.672 167.137 309.016 167.137C310.206 167.137 311.395 166.892 312.55 166.385C316.608 164.635 319.109 160.56 318.917 156.012C318.742 151.674 316.188 148.175 312.252 146.863L310.66 146.339L308.719 152.146L310.311 152.671C311.815 153.178 312.724 154.49 312.794 156.274C312.864 157.796 312.2 159.878 310.101 160.77C309.733 160.927 309.366 161.015 308.999 161.015C307.984 161.015 307.075 160.367 306.48 159.825C305.168 158.618 303.996 156.554 303.366 154.298C302.667 151.831 302.632 149.365 303.296 147.388C303.751 146.024 304.521 144.957 305.605 144.187C306.69 143.418 308.124 142.945 309.838 142.77C310.241 142.735 310.643 142.718 311.045 142.718C323.202 142.718 329.132 161.417 331.109 169.446L331.284 170.145L331.353 170.128ZM260.633 168.991H329.902C328.17 162.239 322.38 143.82 311.115 143.82C310.748 143.82 310.38 143.837 310.013 143.872C308.491 144.03 307.249 144.432 306.322 145.079C305.448 145.709 304.801 146.584 304.433 147.703C303.838 149.47 303.874 151.674 304.521 153.93C305.098 155.994 306.147 157.866 307.319 158.933C307.949 159.51 308.561 159.825 309.069 159.825C309.279 159.825 309.488 159.773 309.716 159.685C311.273 159.02 311.762 157.429 311.727 156.274C311.692 155.347 311.36 154.158 310.013 153.703L307.354 152.811L309.996 144.869L312.654 145.761C317.045 147.213 319.896 151.114 320.089 155.924C320.299 160.945 317.535 165.457 313.039 167.399C311.745 167.959 310.398 168.239 309.051 168.239C306.427 168.239 303.856 167.154 301.652 165.125C298.014 161.767 295.67 156.012 295.67 150.467C295.67 148.525 295.95 146.706 296.509 145.044C298.346 139.517 302.859 136.123 309.209 135.511C309.856 135.441 310.503 135.424 311.168 135.424C313.914 135.424 316.573 136.001 319.074 137.155C318.235 135.319 317.36 133.517 316.468 131.768C316.275 131.47 315.156 129.599 313.792 126.783C311.553 122.812 309.174 119.191 306.76 116.042C300.882 108.416 294.69 103.571 288.358 101.629C285.839 100.859 283.408 100.475 281.116 100.475C277.583 100.475 274.434 101.402 271.776 103.221C269.099 105.057 266.965 107.734 265.461 111.197C263.327 116.13 262.767 122.06 263.957 127.482C264.569 130.316 265.636 132.887 267.105 135.091C268.679 137.453 270.691 139.359 273.087 140.759C274.994 141.861 276.971 142.42 278.947 142.42C282.341 142.42 285.542 140.706 287.309 137.96C288.48 136.141 288.848 133.954 288.341 131.803C288.043 130.526 287.448 129.249 286.574 128.042C285.559 126.66 284.177 125.331 282.463 124.106L280.172 122.462L285.052 115.64L287.326 117.267C292.241 120.765 295.425 125.121 296.544 129.826C297.576 134.199 296.789 138.695 294.34 142.525C291.909 146.304 287.956 149.12 283.513 150.257C282.008 150.642 280.469 150.834 278.93 150.834C275.466 150.834 272.09 149.89 268.872 148.018C265.688 146.164 262.872 143.575 260.651 140.444V168.973L260.633 168.991Z" fill="#4AC4CD" fill-opacity="0.3"/>
<path d="M236.338 205.741L235.69 205.637C232.909 205.199 230.268 203.852 228.274 201.858C226.28 199.864 224.933 197.223 224.496 194.424L224.391 193.777H236.338V205.741ZM225.737 194.914C226.227 197.223 227.399 199.392 229.078 201.054C230.758 202.715 232.909 203.905 235.218 204.395V194.914H225.755H225.737Z" fill="#4AC4CD" fill-opacity="0.3"/>
<path d="M175.237 266.842H163.29V254.877L163.937 254.982C166.718 255.419 169.36 256.766 171.354 258.76C173.348 260.772 174.695 263.396 175.132 266.194L175.237 266.842ZM164.427 265.705H173.89C173.4 263.396 172.228 261.244 170.549 259.565C168.87 257.886 166.718 256.714 164.41 256.224V265.705H164.427Z" fill="#4AC4CD" fill-opacity="0.3"/>
<path d="M173.698 252.218L170.199 250.556C168.188 249.594 166.036 249.017 163.797 248.79L163.29 248.737V246.236L163.937 246.341C166.509 246.743 168.887 247.88 170.812 249.612L173.698 252.201V252.218ZM164.41 247.723C164.794 247.775 165.197 247.828 165.581 247.898C165.197 247.775 164.812 247.67 164.41 247.583V247.723Z" fill="#4AC4CD" fill-opacity="0.3"/>
<path d="M211.306 267.069H181.395V259.635C181.395 249.455 173.786 241.076 163.693 240.149L163.186 240.096V215.73L164.235 217.532C166.492 221.38 169.255 224.948 172.421 228.114L211.306 267.069ZM182.532 265.932H208.577L171.634 228.919C168.87 226.155 166.422 223.094 164.323 219.823V239.082C174.748 240.306 182.532 249.052 182.532 259.653V265.95V265.932Z" fill="#4AC4CD" fill-opacity="0.3"/>
<path d="M236.145 267.069H219.947L176.742 223.793C168.853 215.887 164.06 205.444 163.22 194.389L163.168 193.777H179.348L222.553 237.052C226.594 241.093 229.813 245.763 232.139 250.923C234.343 255.839 235.673 261.051 236.092 266.439L236.145 267.051V267.069ZM220.419 265.932H234.92C234.466 260.894 233.171 256.014 231.107 251.413C228.833 246.375 225.702 241.81 221.749 237.874L178.876 194.931H164.392C165.337 205.497 169.99 215.432 177.546 223.006L220.419 265.949V265.932Z" fill="#4AC4CD" fill-opacity="0.3"/>
<path d="M236.336 245.536L235.287 243.699C232.995 239.693 230.162 236.003 226.891 232.714L188.006 193.777H218.232V200.984C218.232 211.094 225.806 219.473 235.829 220.47L236.336 220.522V245.536ZM190.735 194.914L227.678 231.91C230.529 234.778 233.065 237.944 235.2 241.355V221.519C224.844 220.242 217.095 211.496 217.095 200.966V194.896H190.735V194.914Z" fill="#4AC4CD" fill-opacity="0.3"/>
<path d="M236.338 214.366L235.691 214.261C233.12 213.858 230.741 212.721 228.817 210.99L225.931 208.401L229.429 210.063C231.441 211.007 233.592 211.602 235.831 211.829L236.338 211.882V214.383V214.366ZM234.029 212.704C234.414 212.826 234.799 212.931 235.201 213.019V212.879C234.817 212.826 234.414 212.774 234.029 212.704Z" fill="#4AC4CD" fill-opacity="0.3"/>
<path d="M186.047 170.058H163.115V147.598L175.465 135.249C178.158 133.395 181.307 132.433 184.561 132.433C193.464 132.433 200.723 139.692 200.723 148.613C200.723 152.601 199.271 156.432 196.613 159.388C196.21 159.843 195.773 160.28 195.318 160.682L194.216 161.784L194.269 161.854L186.047 170.076V170.058ZM164.252 168.921H185.575L192.764 161.732L192.712 161.662L194.549 159.86C195.003 159.458 195.406 159.056 195.773 158.636C198.239 155.872 199.604 152.321 199.604 148.613C199.604 140.322 192.869 133.57 184.578 133.57C181.552 133.57 178.631 134.462 176.147 136.176L172.036 140.304L164.252 148.088V168.939V168.921Z" fill="#4AC4CD" fill-opacity="0.3"/>
<path d="M215.101 134.199C206.198 134.199 198.938 126.94 198.938 118.019C198.938 114.748 199.901 111.617 201.72 108.941L201.807 108.836L213.859 96.749H236.284V119.716L228.29 127.727L228.15 127.622L227.118 128.794C226.733 129.232 226.314 129.652 225.859 130.054C222.885 132.713 219.072 134.182 215.101 134.182V134.199ZM202.647 109.606C200.968 112.072 200.093 114.993 200.093 118.019C200.093 126.311 206.827 133.062 215.119 133.062C218.809 133.062 222.378 131.698 225.124 129.232C225.544 128.847 225.946 128.462 226.296 128.06L228.01 126.101L228.203 126.241L235.165 119.261V97.9035H214.349L202.647 109.623V109.606Z" fill="#4AC4CD" fill-opacity="0.3"/>
<path d="M378.339 73.2918H355.425V50.832L367.809 38.4476C370.485 36.6284 373.617 35.6489 376.87 35.6489C385.774 35.6489 393.033 42.9081 393.033 51.8291C393.033 55.7998 391.581 59.613 388.957 62.5866C388.52 63.0589 388.1 63.4962 387.628 63.916L386.596 64.9481L386.631 65.0005L384.724 66.9072L378.339 73.2743V73.2918ZM356.562 72.1548H377.885L385.179 64.8606L385.144 64.8082L386.858 63.1114C387.33 62.6916 387.733 62.2718 388.135 61.8345C390.566 59.0707 391.913 55.5198 391.913 51.8465C391.913 43.5552 385.179 36.8034 376.888 36.8034C373.879 36.8034 370.975 37.6954 368.509 39.3746L356.579 51.3217V72.1722L356.562 72.1548Z" fill="#4AC4CD" fill-opacity="0.3"/>
<path d="M407.41 37.433C398.506 37.433 391.247 30.1738 391.247 21.2528C391.247 17.9993 392.209 14.8683 394.011 12.2095L394.098 12.1045L398.279 7.90644C398.384 7.83647 398.471 7.74899 398.559 7.66153L399.084 7.10177L399.871 6.29715L406.15 0H428.558V22.9321L420.721 30.821L419.462 32.0804V32.0454L419.269 32.2204C418.92 32.6052 418.552 32.9726 418.185 33.3224C415.211 35.9812 411.398 37.433 407.41 37.433ZM394.938 12.8567C393.259 15.3405 392.384 18.2442 392.384 21.2528C392.384 29.5441 399.119 36.2961 407.41 36.2961C411.101 36.2961 414.651 34.9316 417.415 32.4827C417.765 32.1678 418.097 31.8181 418.43 31.4682L419.514 30.2788L419.584 30.3662L420.721 29.2292L427.438 22.4948V1.15448H406.623L399.363 8.46615C399.241 8.58859 399.119 8.69355 398.979 8.7985L394.92 12.8742L394.938 12.8567Z" fill="#4AC4CD" fill-opacity="0.3"/>
<path d="M525.988 244.469H499.278C499.015 244.469 493.348 244.189 487.908 240.848C485.197 239.186 482.923 237.035 481.191 234.428C479.827 232.382 478.76 230.038 478.008 227.414L477.553 225.822L478.882 226.802C482.888 229.74 489.657 233.221 499.068 233.221H525.971V244.451L525.988 244.469ZM479.599 228.691C480.264 230.563 481.121 232.294 482.136 233.816C483.78 236.265 485.914 238.312 488.503 239.886C493.698 243.069 499.085 243.332 499.313 243.332H524.869V234.376H499.103C490.374 234.376 483.867 231.472 479.617 228.691H479.599Z" fill="#4AC4CD" fill-opacity="0.3"/>
<path d="M525.988 227.117H499.085C498.858 227.117 498.648 227.117 498.42 227.117L497.091 227.082L525.988 198.132V227.117ZM499.802 225.98H524.868V200.861L499.802 225.98Z" fill="#4AC4CD" fill-opacity="0.3"/>
<path d="M452.837 208.4V193.812H467.408L465.851 194.843C463.734 196.26 461.74 197.87 459.904 199.636C457.63 201.823 455.601 204.237 453.886 206.826L452.854 208.382L452.837 208.4ZM453.974 194.948V204.727C455.496 202.628 457.227 200.651 459.117 198.832C460.568 197.432 462.108 196.138 463.734 194.948H453.974Z" fill="#4AC4CD" fill-opacity="0.3"/>
<path d="M471.641 267.104H452.837V230.843L452.924 228.866C452.977 227.764 453.064 226.644 453.222 225.56L454.341 225.63V230.405C454.341 239.868 456.213 248.02 459.921 254.614C462.493 259.197 465.956 263.063 470.207 266.089L471.658 267.121L471.641 267.104ZM453.974 265.967H468.16C464.399 263.01 461.303 259.39 458.924 255.157C456.51 250.853 454.849 245.903 453.974 240.393V265.967ZM481.087 243.542L478.918 242.877C474.667 241.565 470.714 239.484 467.198 236.667C462.44 232.872 460.149 229.041 460.061 228.866L454.604 219.298L454.674 219.053C459.554 203.975 473.53 193.829 489.413 193.829L490.882 193.777H521.668L489.85 225.665L489.518 225.542C486.684 224.563 484.025 223.094 481.646 221.187C478.095 218.353 476.346 215.485 476.276 215.362L470.574 205.322V216.884C470.574 224.318 472.043 230.72 474.964 235.915C476.206 238.137 477.728 240.166 479.495 241.95L481.087 243.559V243.542ZM455.828 219.175L461.041 228.306C461.128 228.446 463.315 232.119 467.915 235.793C470.749 238.049 473.845 239.816 477.168 241.075C475.961 239.658 474.894 238.102 473.967 236.458C470.959 231.087 469.437 224.493 469.437 216.884V201.124C463.192 205.374 458.329 211.636 455.828 219.175ZM469.472 201.089L477.256 214.785C477.326 214.89 478.97 217.584 482.364 220.295C484.55 222.044 486.981 223.408 489.57 224.336L518.957 194.896H490.935L489.483 194.949C482.136 194.949 475.227 197.17 469.489 201.071L469.472 201.089Z" fill="#4AC4CD" fill-opacity="0.3"/>
<path d="M525.989 267.052H490.69C489.85 267.017 482.556 266.563 475.489 262.26C471.536 259.828 468.3 256.645 465.903 252.779C463.839 249.455 462.352 245.572 461.46 241.199L461.128 239.59L462.37 240.657C462.667 240.919 462.965 241.164 463.279 241.409C468.545 245.642 477.518 250.697 490.392 250.697H525.989V267.07V267.052ZM462.93 242.564C463.822 246.149 465.134 249.385 466.865 252.184C469.174 255.91 472.27 258.971 476.066 261.298C482.888 265.461 489.92 265.898 490.707 265.933H524.851V251.834H490.392C477.465 251.834 468.37 246.867 462.93 242.564Z" fill="#4AC4CD" fill-opacity="0.3"/>
<path d="M370.904 235.915L370.012 235.705C368.21 235.285 366.373 235.075 364.519 235.075H356.525V213.595H370.064V229.53C370.064 231.402 370.274 233.256 370.694 235.04L370.904 235.933V235.915ZM357.662 233.938H364.519C366.164 233.938 367.79 234.096 369.4 234.411C369.085 232.801 368.927 231.175 368.927 229.513V214.715H357.662V233.938Z" fill="#4AC4CD" fill-opacity="0.3"/>
<path d="M410.05 247.426H394.045C389.794 247.426 385.684 245.904 382.448 243.123L382.395 243.07C381.783 242.388 381.153 241.776 380.506 241.181L380.454 241.129C377.69 237.893 376.186 233.764 376.186 229.514V213.474H392.173C396.529 213.474 400.727 215.065 403.998 217.969L404.05 218.022C404.523 218.546 405.03 219.054 405.537 219.508L405.59 219.561C408.476 222.849 410.068 227.047 410.068 231.403V247.443L410.05 247.426ZM383.217 242.283C386.244 244.872 390.092 246.289 394.045 246.289H408.913V231.385C408.913 227.327 407.426 223.392 404.733 220.313C404.208 219.841 403.701 219.333 403.211 218.791C400.15 216.097 396.214 214.611 392.156 214.611H377.288V229.514C377.288 233.485 378.704 237.333 381.258 240.376C381.923 240.971 382.57 241.601 383.182 242.301L383.217 242.283Z" fill="#4AC4CD" fill-opacity="0.3"/>
<path d="M398.594 208.207L397.702 207.998C395.901 207.578 394.046 207.35 392.175 207.35H376.274V193.812H397.755V201.788C397.755 203.66 397.965 205.514 398.402 207.315L398.612 208.207H398.594ZM377.394 206.213H392.157C393.819 206.213 395.463 206.371 397.072 206.703C396.758 205.094 396.6 203.45 396.6 201.788V194.948H377.394V206.231V206.213Z" fill="#4AC4CD" fill-opacity="0.3"/>
<path d="M410.172 267.104H388.5V259.11C388.5 257.256 388.29 255.402 387.87 253.6L387.66 252.708L388.552 252.918C390.336 253.338 392.191 253.548 394.045 253.548H410.172V267.087V267.104ZM389.637 265.967H409.036V254.685H394.045C392.401 254.685 390.756 254.527 389.164 254.212C389.479 255.822 389.637 257.466 389.637 259.11V265.967Z" fill="#4AC4CD" fill-opacity="0.3"/>
<path d="M429.695 247.548H416.156V231.385C416.156 229.513 415.946 227.659 415.509 225.857L415.299 224.965L416.191 225.175C417.993 225.595 419.847 225.822 421.718 225.822H429.677V247.548H429.695ZM417.293 246.411H428.558V226.959H421.718C420.057 226.959 418.412 226.802 416.803 226.47C417.118 228.079 417.293 229.723 417.293 231.385V246.411Z" fill="#4AC4CD" fill-opacity="0.3"/>
<path d="M429.694 219.682H421.735C417.362 219.682 413.164 218.09 409.911 215.204L409.876 215.169C409.403 214.644 408.896 214.137 408.371 213.665C405.45 210.376 403.858 206.161 403.858 201.788V193.812H429.712V219.682H429.694ZM410.68 214.382C413.724 217.076 417.66 218.563 421.735 218.563H428.575V194.948H404.995V201.788C404.995 205.881 406.482 209.817 409.176 212.878C409.683 213.333 410.191 213.857 410.68 214.382Z" fill="#4AC4CD" fill-opacity="0.3"/>
<path d="M370.152 207.455H356.525V193.812H370.152V207.455ZM357.662 206.318H369.015V194.931H357.662V206.318Z" fill="#4AC4CD" fill-opacity="0.3"/>
<path d="M382.396 267.104H356.543V241.199H364.537C368.787 241.199 372.898 242.721 376.134 245.484L376.187 245.537C376.781 246.202 377.411 246.831 378.076 247.426L378.128 247.478C380.892 250.714 382.396 254.843 382.396 259.111V267.104ZM357.662 265.968H381.259V259.111C381.259 255.122 379.842 251.274 377.289 248.248C376.624 247.653 375.977 247.006 375.364 246.324C372.338 243.753 368.49 242.336 364.537 242.336H357.68V265.968H357.662Z" fill="#4AC4CD" fill-opacity="0.3"/>
<path d="M429.694 267.104H416.277V253.67H429.694V267.104ZM417.414 265.967H428.574V254.807H417.414V265.967Z" fill="#4AC4CD" fill-opacity="0.3"/>
<path d="M400.291 342.968L400.256 341.656C400.151 338.49 399.399 335.446 398.017 332.595L397.3 331.108L398.787 331.843C401.62 333.225 404.664 333.977 407.83 334.082L409.142 334.117L400.326 342.95L400.291 342.968ZM399.644 333.487C400.553 335.674 401.095 337.983 401.305 340.344L406.501 335.149C404.139 334.939 401.848 334.397 399.644 333.487ZM389.218 323.045L387.732 322.327C385.02 320.998 382.117 320.246 379.108 320.106L377.831 320.036L386.21 311.64L386.28 312.917C386.437 315.943 387.172 318.846 388.501 321.558L389.218 323.045ZM380.402 319.056C382.624 319.284 384.793 319.826 386.857 320.683C386 318.619 385.458 316.45 385.23 314.228L380.402 319.074V319.056Z" fill="#4AC4CD" fill-opacity="0.3"/>
<path d="M356.525 332.699V290.525H398.629L395.375 293.779C393.521 295.126 391.894 296.77 390.53 298.624L390.477 298.694L364.852 324.373C362.997 325.737 361.353 327.364 360.006 329.235L359.954 329.305L356.525 332.734V332.699ZM357.662 291.645V329.953L359.114 328.501C360.531 326.577 362.228 324.862 364.152 323.463L389.638 297.907C391.055 295.983 392.751 294.286 394.676 292.869L395.9 291.645H357.662Z" fill="#4AC4CD" fill-opacity="0.3"/>
<path d="M429.694 363.818H388.098L429.694 322.152V363.818ZM390.826 362.681H428.557V324.898L390.826 362.681Z" fill="#4AC4CD" fill-opacity="0.3"/>
<path d="M592.563 246.201L592.528 244.889C592.424 241.705 591.671 238.662 590.272 235.811L589.537 234.324L591.024 235.058C593.858 236.458 596.919 237.21 600.085 237.315L601.397 237.35L592.563 246.201ZM591.916 236.703C592.826 238.907 593.386 241.198 593.578 243.577L598.791 238.364C596.412 238.154 594.103 237.595 591.916 236.685V236.703ZM581.544 226.312L580.057 225.578C577.345 224.248 574.442 223.496 571.416 223.339L570.139 223.269L578.517 214.873L578.587 216.149C578.745 219.176 579.497 222.097 580.826 224.826L581.561 226.312H581.544ZM572.71 222.307C574.949 222.534 577.1 223.076 579.182 223.933C578.325 221.852 577.783 219.683 577.555 217.444L572.727 222.289L572.71 222.307Z" fill="#4AC4CD" fill-opacity="0.3"/>
<path d="M548.832 235.933V193.759H590.935L587.682 197.013C585.828 198.377 584.201 200.021 582.854 201.876L582.802 201.946L557.176 227.606C555.322 228.971 553.695 230.598 552.33 232.452L552.278 232.522L548.867 235.95L548.832 235.933ZM549.969 194.879V233.186L551.421 231.735C552.82 229.81 554.517 228.114 556.441 226.697L581.944 201.141C583.344 199.217 585.041 197.52 586.965 196.103L588.189 194.879H549.969Z" fill="#4AC4CD" fill-opacity="0.3"/>
<path d="M621.983 267.052H580.404L621.983 225.386V267.052ZM583.133 265.915H620.846V228.132L583.133 265.915Z" fill="#4AC4CD" fill-opacity="0.3"/>
<path d="M526.059 345.503L524.957 342.46C523.593 338.681 522.158 335.008 520.672 331.58C519.605 329.096 518.502 326.717 517.435 324.513L517.208 324.058H517.226L516.596 322.711C516.596 322.711 516.526 322.571 516.246 322.134L516.193 322.046C515.389 320.472 514.567 318.933 513.745 317.481C512.345 314.542 510.561 310.204 510.019 306.024C509.424 301.423 510.421 298.012 512.993 295.861L515.319 293.937L512.975 298.17C511.296 301.178 511.698 304.764 514.007 307.528C515.739 309.592 518.223 310.764 520.829 310.764C521.808 310.764 522.753 310.607 523.68 310.274C524.222 310.082 524.73 309.854 525.184 309.557L526.042 309.032V345.521L526.059 345.503ZM518.677 324.46C519.692 326.559 520.707 328.798 521.721 331.125C522.823 333.679 523.89 336.355 524.922 339.101V310.974C524.642 311.096 524.362 311.219 524.065 311.324C523.033 311.691 521.948 311.866 520.846 311.866C517.908 311.866 515.109 310.537 513.15 308.228C512.048 306.898 511.331 305.411 511.016 303.855C511.016 304.484 511.086 305.149 511.173 305.849C511.698 309.872 513.412 314.105 514.777 316.939C515.581 318.356 516.403 319.895 517.208 321.487C517.505 321.994 517.593 322.151 517.628 322.221L518.695 324.46H518.677ZM503.739 302.718L502.882 301.738C499.104 297.453 495.116 294.077 491.04 291.68L489.238 290.631H509.669L508.584 291.61C505.856 294.094 504.264 297.383 503.862 301.423L503.739 302.718ZM493.314 291.75C496.602 293.919 499.821 296.7 502.917 300.059C503.442 296.788 504.771 294.007 506.853 291.75H493.331H493.314ZM526.059 296.42L525.062 295.249C523.977 293.972 522.823 292.73 521.651 291.575L520.672 290.596H526.059V296.403V296.42ZM523.4 291.75C523.908 292.275 524.415 292.835 524.922 293.377V291.75H523.4Z" fill="#4AC4CD" fill-opacity="0.3"/>
<path d="M452.907 300.409V290.596H461.531L460.184 291.61C457.735 293.464 455.636 295.843 453.939 298.642L452.89 300.391L452.907 300.409ZM454.044 291.733V296.455C455.286 294.689 456.703 293.097 458.26 291.733H454.044Z" fill="#4AC4CD" fill-opacity="0.3"/>
<path d="M524.747 363.887H452.89V330.337L453.939 332.052C456.196 335.725 459.257 338.751 462.808 340.815C465.851 342.582 469.035 343.474 472.288 343.474C473.723 343.474 475.175 343.299 476.591 342.932C480.754 341.865 484.445 339.223 486.737 335.69C489.011 332.139 489.745 327.924 488.783 323.865C487.734 319.422 484.69 315.312 480.002 311.971L478.638 311.009L475.07 315.994L476.434 316.974C478.253 318.268 479.722 319.685 480.807 321.172C481.786 322.519 482.434 323.918 482.766 325.352C483.343 327.819 482.906 330.32 481.577 332.384C479.6 335.445 476.032 337.352 472.271 337.352C470.102 337.352 467.933 336.74 465.851 335.533C463.297 334.046 461.163 332.034 459.484 329.515C457.927 327.189 456.825 324.495 456.161 321.522C454.936 315.872 455.496 309.679 457.735 304.537C459.327 300.881 461.583 298.03 464.452 296.07C467.303 294.111 470.679 293.132 474.44 293.132C476.836 293.132 479.39 293.534 482.014 294.339C488.591 296.35 494.976 301.336 500.993 309.137C503.459 312.321 505.856 315.994 508.147 320.035C509.494 322.816 510.596 324.653 510.806 324.985C511.978 327.276 513.08 329.603 514.112 331.947L514.811 333.521L513.325 332.681C510.578 331.125 507.605 330.337 504.509 330.337C503.896 330.337 503.267 330.372 502.672 330.425C496.795 331.002 492.632 334.116 490.952 339.188C490.428 340.728 490.165 342.442 490.165 344.244C490.165 349.491 492.369 354.914 495.78 358.062C497.774 359.899 500.083 360.879 502.427 360.879C503.617 360.879 504.824 360.634 505.96 360.127C510.019 358.377 512.52 354.302 512.328 349.754C512.153 345.416 509.599 341.917 505.663 340.605L504.071 340.081L502.13 345.888L503.722 346.413C505.226 346.92 506.135 348.232 506.205 350.016C506.275 351.538 505.611 353.619 503.512 354.512C503.144 354.669 502.777 354.756 502.41 354.756C501.395 354.756 500.486 354.109 499.891 353.567C498.579 352.36 497.407 350.296 496.777 348.039C496.077 345.573 496.043 343.124 496.707 341.148C497.162 339.783 497.932 338.716 499.016 337.946C500.101 337.177 501.535 336.705 503.249 336.53C503.652 336.495 504.054 336.477 504.456 336.477C516.613 336.477 522.525 355.176 524.52 363.205L524.695 363.905L524.747 363.887ZM454.027 362.75H523.295C521.563 355.998 515.774 337.579 504.509 337.579C504.141 337.579 503.774 337.597 503.407 337.632C501.885 337.789 500.66 338.191 499.716 338.839C498.841 339.468 498.194 340.343 497.827 341.462C497.232 343.229 497.267 345.433 497.914 347.69C498.491 349.754 499.541 351.625 500.713 352.692C501.343 353.27 501.955 353.584 502.462 353.584C502.672 353.584 502.882 353.532 503.109 353.445C504.666 352.78 505.156 351.188 505.121 350.034C505.086 349.106 504.753 347.917 503.407 347.462L500.748 346.57L503.389 338.611L506.048 339.503C510.438 340.973 513.29 344.856 513.482 349.666C513.692 354.686 510.928 359.199 506.433 361.141C505.138 361.701 503.791 361.981 502.445 361.981C499.821 361.981 497.249 360.896 495.045 358.867C491.407 355.509 489.063 349.754 489.063 344.209C489.063 342.267 489.343 340.448 489.903 338.786C491.739 333.259 496.252 329.865 502.602 329.253C503.249 329.183 503.896 329.166 504.561 329.166C507.307 329.166 509.966 329.743 512.468 330.897C511.628 329.078 510.753 327.276 509.861 325.51C509.669 325.195 508.549 323.341 507.185 320.524C504.946 316.554 502.567 312.933 500.153 309.784C494.276 302.158 488.084 297.312 481.752 295.371C479.233 294.601 476.801 294.216 474.51 294.216C470.976 294.216 467.828 295.143 465.151 296.963C462.475 298.799 460.341 301.476 458.837 304.939C456.703 309.872 456.143 315.802 457.333 321.224C457.945 324.058 459.012 326.629 460.481 328.833C462.055 331.212 464.067 333.119 466.463 334.501C468.37 335.603 470.347 336.162 472.323 336.162C475.717 336.162 478.918 334.448 480.684 331.702C481.856 329.883 482.224 327.696 481.717 325.545C481.419 324.268 480.824 322.991 479.95 321.784C478.935 320.402 477.553 319.073 475.839 317.848L473.548 316.204L478.428 309.382L480.702 311.009C485.617 314.507 488.801 318.863 489.92 323.568C490.952 327.941 490.165 332.437 487.716 336.267C485.285 340.046 481.332 342.862 476.889 343.999C475.384 344.384 473.845 344.576 472.306 344.576C468.842 344.576 465.466 343.631 462.248 341.76C459.064 339.906 456.248 337.317 454.027 334.186V362.715V362.75Z" fill="#4AC4CD" fill-opacity="0.3"/>
<path d="M429.746 399.501L429.099 399.396C426.317 398.958 423.676 397.612 421.682 395.617C419.688 393.606 418.341 390.982 417.904 388.183L417.799 387.536H429.746V399.501ZM419.146 388.673C419.636 390.982 420.808 393.151 422.487 394.813C424.166 396.492 426.317 397.664 428.626 398.154V388.673H419.163H419.146Z" fill="#4AC4CD" fill-opacity="0.3"/>
<path d="M368.631 460.601H356.684V448.636L357.331 448.741C360.112 449.178 362.753 450.525 364.747 452.519C366.742 454.531 368.088 457.155 368.526 459.954L368.631 460.601ZM357.821 459.464H367.284C366.794 457.155 365.622 454.986 363.943 453.324C362.263 451.645 360.112 450.473 357.803 449.983V459.464H357.821Z" fill="#4AC4CD" fill-opacity="0.3"/>
<path d="M367.107 445.978L363.609 444.316C361.597 443.354 359.446 442.777 357.207 442.549L356.699 442.497V439.996L357.346 440.101C359.918 440.503 362.297 441.64 364.221 443.372L367.107 445.96V445.978ZM357.819 441.482C358.204 441.535 358.606 441.587 358.991 441.657C358.606 441.535 358.221 441.43 357.819 441.343V441.482Z" fill="#4AC4CD" fill-opacity="0.3"/>
<path d="M404.716 460.828H374.805V453.394C374.805 443.213 367.196 434.835 357.103 433.908L356.596 433.855V409.471L357.645 411.273C359.902 415.121 362.665 418.69 365.832 421.856L404.716 460.81V460.828ZM375.942 459.691H401.988L365.044 422.678C362.281 419.914 359.832 416.853 357.733 413.582V432.841C368.158 434.065 375.942 442.811 375.942 453.411V459.708V459.691Z" fill="#4AC4CD" fill-opacity="0.3"/>
<path d="M429.554 460.828H413.356L370.151 417.552C362.262 409.646 357.469 399.203 356.63 388.148L356.577 387.536H372.757L415.963 430.811C420.003 434.852 423.222 439.522 425.548 444.683C427.752 449.598 429.082 454.811 429.502 460.198L429.554 460.81V460.828ZM413.829 459.691H428.33C427.875 454.653 426.58 449.773 424.516 445.155C422.242 440.117 419.111 435.552 415.158 431.616L372.285 388.673H357.802C358.746 399.238 363.399 409.174 370.956 416.748L413.829 459.691Z" fill="#4AC4CD" fill-opacity="0.3"/>
<path d="M429.747 439.295L428.697 437.458C426.406 433.453 423.572 429.762 420.301 426.473L381.416 387.536H411.642V394.743C411.642 404.853 419.216 413.232 429.239 414.229L429.747 414.281V439.295ZM384.145 388.673L421.088 425.669C423.939 428.537 426.476 431.704 428.61 435.115V415.279C418.254 414.002 410.505 405.256 410.505 394.725V388.656H384.145V388.673Z" fill="#4AC4CD" fill-opacity="0.3"/>
<path d="M429.746 408.142L429.098 408.038C426.527 407.635 424.148 406.498 422.224 404.767L419.338 402.178L422.836 403.84C424.848 404.784 426.999 405.379 429.238 405.606L429.746 405.659V408.16V408.142ZM427.437 406.498C427.822 406.621 428.206 406.726 428.609 406.813V406.673C428.224 406.621 427.822 406.568 427.437 406.498Z" fill="#4AC4CD" fill-opacity="0.3"/>
<path d="M379.457 363.818H356.525V341.358L368.892 328.991C371.569 327.155 374.717 326.175 377.988 326.175C386.892 326.175 394.151 333.434 394.151 342.355C394.151 346.344 392.699 350.174 390.04 353.131C389.638 353.585 389.201 354.023 388.746 354.425L387.644 355.51L387.696 355.579L379.475 363.801L379.457 363.818ZM357.662 362.681H378.985L386.174 355.492L386.122 355.422L387.959 353.62C388.413 353.218 388.816 352.816 389.183 352.396C391.649 349.632 393.014 346.081 393.014 342.373C393.014 334.082 386.279 327.33 377.988 327.33C374.962 327.33 372.041 328.222 369.557 329.936L365.446 334.064L357.662 341.848V362.699V362.681Z" fill="#4AC4CD" fill-opacity="0.3"/>
<path d="M408.51 327.976C399.607 327.976 392.348 320.717 392.348 311.796C392.348 308.525 393.31 305.394 395.129 302.717L395.216 302.612L407.268 290.525H429.693V313.492L421.699 321.504L421.559 321.399L420.527 322.571C420.143 323.008 419.723 323.428 419.268 323.83C416.294 326.489 412.481 327.958 408.51 327.958V327.976ZM396.056 303.382C394.377 305.866 393.502 308.77 393.502 311.796C393.502 320.087 400.237 326.839 408.528 326.839C412.219 326.839 415.787 325.475 418.533 323.008C418.953 322.641 419.355 322.239 419.705 321.836L421.419 319.877L421.612 320.017L428.574 313.038V291.68H407.758L396.056 303.4V303.382Z" fill="#4AC4CD" fill-opacity="0.3"/>
<path d="M622.405 51.0592H595.695C595.432 51.0592 589.783 50.7968 584.325 47.4383C581.614 45.7766 579.34 43.625 577.608 41.0187C576.244 38.9721 575.177 36.6282 574.425 34.0044L573.97 32.4126L575.299 33.3921C579.305 36.3308 586.074 39.8117 595.485 39.8117H622.388V51.0417L622.405 51.0592ZM576.016 35.2813C576.681 37.153 577.538 38.8847 578.553 40.4065C580.197 42.8554 582.331 44.9019 584.92 46.4762C590.132 49.6772 595.502 49.9222 595.73 49.9222H621.286V40.9662H595.52C586.791 40.9662 580.284 38.0626 576.034 35.2813H576.016Z" fill="#4AC4CD" fill-opacity="0.3"/>
<path d="M622.404 33.7079H595.501C595.274 33.7079 595.064 33.7079 594.836 33.7079L593.507 33.673L622.404 4.72363V33.7079ZM596.218 32.571H621.284V7.45239L596.218 32.571Z" fill="#4AC4CD" fill-opacity="0.3"/>
<path d="M549.253 14.9741V0.385742H563.824L562.267 1.41777C560.15 2.81713 558.156 4.44393 556.32 6.21063C554.046 8.39713 552.017 10.811 550.302 13.3998L549.27 14.9567L549.253 14.9741ZM550.39 1.52272V11.3008C551.912 9.20172 553.643 7.22513 555.533 5.40595C556.984 4.00659 558.524 2.71218 560.15 1.52272H550.39Z" fill="#4AC4CD" fill-opacity="0.3"/>
<path d="M568.057 73.6945H549.253V37.4333L549.34 35.4567C549.393 34.3547 549.48 33.2353 549.638 32.1508L550.757 32.2208V36.996C550.757 46.4593 552.629 54.6106 556.337 61.2051C558.909 65.8055 562.372 69.6538 566.605 72.6799L568.057 73.7119V73.6945ZM550.39 72.5574H564.576C560.815 69.6013 557.719 65.9804 555.34 61.7474C552.926 57.4443 551.265 52.494 550.39 46.9841V72.5574ZM577.503 50.1326L575.334 49.4679C571.083 48.156 567.13 46.0745 563.614 43.2582C558.751 39.375 556.495 35.4917 556.46 35.4567L551.002 25.8886L551.072 25.6437C555.952 10.5656 569.929 0.420203 585.811 0.420203L587.281 0.367676H618.067L586.249 32.2558L585.916 32.1333C583.083 31.1538 580.424 29.6844 578.045 27.7778C574.581 25.0141 572.867 22.2503 572.675 21.9529L566.972 11.895V23.4572C566.972 30.8913 568.442 37.2934 571.363 42.4886C572.605 44.7101 574.127 46.7392 575.893 48.5234L577.485 50.1326H577.503ZM552.244 25.7662L557.457 34.897C557.457 34.897 559.696 38.6753 564.331 42.3836C567.147 44.6401 570.261 46.4068 573.584 47.6663C572.377 46.2494 571.31 44.6926 570.383 43.0483C567.375 37.6783 565.853 31.0838 565.853 23.4747V7.71436C559.608 11.9649 554.745 18.2271 552.244 25.7662ZM565.888 7.6794L573.672 21.3757C573.742 21.4806 575.404 24.2094 578.78 26.8857C580.966 28.6349 583.397 29.9993 585.986 30.9264L615.373 1.48719H587.351L585.899 1.53967C578.552 1.53967 571.643 3.76116 565.905 7.66189L565.888 7.6794Z" fill="#4AC4CD" fill-opacity="0.3"/>
<path d="M622.405 73.6422H587.106C586.266 73.6073 578.954 73.1525 571.905 68.8494C567.952 66.418 564.716 63.2345 562.319 59.3688C560.255 56.0453 558.768 52.1619 557.876 47.7889L557.544 46.1797L558.786 47.2467C559.083 47.5091 559.381 47.754 559.696 47.9989C564.961 52.232 573.934 57.2872 586.808 57.2872H622.405V73.6597V73.6422ZM559.346 49.1534C560.238 52.7392 561.55 55.9753 563.281 58.774C565.59 62.4998 568.686 65.5609 572.482 67.8874C579.304 72.0505 586.336 72.4877 587.123 72.5227H621.267V58.4241H586.808C573.882 58.4241 564.786 53.4564 559.346 49.1534Z" fill="#4AC4CD" fill-opacity="0.3"/>
<path d="M645.652 51.0593H645.092V39.8293H671.995C681.423 39.8293 688.175 36.3309 692.18 33.4097L693.51 32.4302L693.055 34.0219C692.303 36.6282 691.236 38.9897 689.872 41.0362C688.14 43.6251 685.883 45.7942 683.155 47.4559C677.697 50.8144 672.047 51.0592 671.802 51.0767H645.652V51.0593ZM646.211 49.9222H671.785C671.995 49.9222 677.347 49.6773 682.56 46.4762C685.131 44.902 687.283 42.8554 688.927 40.4065C689.941 38.8847 690.799 37.1705 691.463 35.2814C687.213 38.0626 680.706 40.9663 671.977 40.9663H646.211V49.9222Z" fill="#4AC4CD" fill-opacity="0.3"/>
<path d="M671.995 33.7079H645.092V4.72363L673.989 33.673L672.659 33.7079C672.432 33.7079 672.222 33.7079 671.995 33.7079ZM646.229 32.571H671.295L646.229 7.45239V32.571Z" fill="#4AC4CD" fill-opacity="0.3"/>
<path d="M718.244 14.9732L717.212 13.4164C715.498 10.8276 713.469 8.41368 711.195 6.22718C709.358 4.46048 707.346 2.83373 705.247 1.43437L703.69 0.402344H718.261V14.9907L718.244 14.9732ZM707.346 1.52181C708.973 2.71127 710.512 4.00568 711.964 5.40505C713.853 7.22422 715.585 9.20081 717.107 11.2999V1.52181H707.346Z" fill="#4AC4CD" fill-opacity="0.3"/>
<path d="M718.243 73.6945H699.439L700.891 72.6624C705.142 69.6363 708.588 65.7705 711.159 61.1876C714.85 54.5931 716.739 46.4417 716.739 36.9785V32.2032L717.859 32.1333C717.998 33.2178 718.103 34.3372 718.156 35.4392L718.243 37.4158V73.6769V73.6945ZM702.92 72.5574H717.106V46.9841C716.214 52.494 714.57 57.4443 712.156 61.7474C709.777 65.9804 706.681 69.6188 702.92 72.5574ZM689.994 50.1326L691.585 48.5234C693.352 46.7392 694.874 44.7101 696.116 42.4886C699.037 37.2934 700.506 30.8913 700.506 23.4572V11.895L694.804 21.9354C694.612 22.2503 692.897 25.0141 689.434 27.7778C687.038 29.6844 684.396 31.1363 681.563 32.1333L681.23 32.2558L649.412 0.367676H680.163L681.667 0.420203C697.55 0.420203 711.526 10.5481 716.407 25.6437L716.477 25.8886L711.019 35.4567C711.019 35.4567 708.728 39.375 703.865 43.2582C700.349 46.0745 696.396 48.156 692.145 49.4679L689.976 50.1326H689.994ZM701.643 7.71436V23.4747C701.643 31.1013 700.122 37.6783 697.113 43.0483C696.186 44.6926 695.119 46.2319 693.912 47.6663C697.235 46.4068 700.349 44.6226 703.165 42.3836C707.766 38.7103 709.987 35.0019 710.04 34.897L715.252 25.7837C712.751 18.2446 707.888 11.9824 701.643 7.73187V7.71436ZM652.141 1.52216L681.528 30.9613C684.116 30.0167 686.548 28.6523 688.734 26.9206C692.093 24.2268 693.772 21.5156 693.842 21.3932L701.608 7.69685C695.871 3.79612 688.979 1.57463 681.65 1.57463L680.128 1.52216H652.123H652.141Z" fill="#4AC4CD" fill-opacity="0.3"/>
<path d="M645.652 73.6417H645.092V57.2691H680.688C693.562 57.2691 702.536 52.2139 707.783 47.9809C708.098 47.736 708.396 47.4911 708.693 47.2287L709.935 46.1616L709.603 47.771C708.71 52.144 707.224 56.0272 705.16 59.3507C702.763 63.2164 699.545 66.4175 695.574 68.8314C688.525 73.1344 681.213 73.5892 680.391 73.6242H645.634L645.652 73.6417ZM646.211 72.5047H680.373C681.126 72.4697 688.175 72.0324 694.979 67.8693C698.792 65.5429 701.889 62.4642 704.18 58.7559C705.912 55.9572 707.241 52.7387 708.116 49.1353C702.676 53.4208 693.58 58.3887 680.653 58.3887H646.194V72.4873L646.211 72.5047Z" fill="#4AC4CD" fill-opacity="0.3"/>
<path d="M467.321 42.5059L466.429 42.296C464.627 41.8762 462.79 41.6662 460.936 41.6662H452.942V20.186H466.481V36.1213C466.481 37.9929 466.691 39.8471 467.111 41.6313L467.321 42.5234V42.5059ZM454.079 40.5293H460.936C462.581 40.5293 464.207 40.6868 465.817 41.0016C465.502 39.3924 465.344 37.7655 465.344 36.1038V21.3056H454.079V40.5293Z" fill="#4AC4CD" fill-opacity="0.3"/>
<path d="M506.466 54.0161H490.461C486.21 54.0161 482.1 52.4943 478.864 49.713L478.811 49.6605C478.199 48.9783 477.569 48.3662 476.922 47.7714L476.87 47.7189C474.106 44.4829 472.602 40.3547 472.602 36.1042V20.064H488.589C492.945 20.064 497.143 21.6558 500.414 24.5594L500.466 24.6119C500.939 25.1366 501.446 25.644 501.953 26.0987L502.006 26.1512C504.892 29.4397 506.484 33.6378 506.484 37.9933V54.0335L506.466 54.0161ZM479.633 48.8734C482.66 51.4623 486.508 52.8791 490.461 52.8791H505.329V37.9758C505.329 33.9177 503.842 29.982 501.149 26.9034C500.624 26.4311 500.117 25.9238 499.627 25.3815C496.566 22.6877 492.63 21.201 488.572 21.201H473.704V36.1042C473.704 40.0749 475.12 43.9231 477.674 46.9668C478.339 47.5615 478.969 48.1912 479.598 48.8908L479.633 48.8734Z" fill="#4AC4CD" fill-opacity="0.3"/>
<path d="M495.009 14.7983L494.117 14.5884C492.316 14.1686 490.461 13.9412 488.59 13.9412H472.689V0.402344H494.17V8.37872C494.17 10.2504 494.38 12.1045 494.817 13.9062L495.027 14.7983H495.009ZM473.809 12.8042H488.572C490.234 12.8042 491.878 12.9616 493.488 13.294C493.173 11.6847 493.015 10.0405 493.015 8.37872V1.53932H473.809V12.8217V12.8042Z" fill="#4AC4CD" fill-opacity="0.3"/>
<path d="M506.59 73.6944H484.918V65.7005C484.918 63.8463 484.708 61.9921 484.288 60.1905L484.078 59.2983L484.97 59.5082C486.754 59.928 488.609 60.138 490.463 60.138H506.59V73.6769V73.6944ZM486.055 72.5574H505.453V61.275H490.463C488.819 61.275 487.174 61.1175 485.582 60.8026C485.897 62.4119 486.055 64.0562 486.055 65.7005V72.5574Z" fill="#4AC4CD" fill-opacity="0.3"/>
<path d="M526.111 54.1383H512.572V37.9757C512.572 36.1041 512.362 34.2499 511.925 32.4483L511.715 31.5562L512.607 31.766C514.409 32.1859 516.263 32.4132 518.135 32.4132H526.093V54.1383H526.111ZM513.709 53.0014H524.974V33.5503H518.135C516.473 33.5503 514.829 33.3928 513.219 33.0604C513.534 34.6697 513.709 36.314 513.709 37.9757V53.0014Z" fill="#4AC4CD" fill-opacity="0.3"/>
<path d="M526.11 26.2731H518.151C513.796 26.2731 509.58 24.6813 506.327 21.7951L506.292 21.7602C505.819 21.2529 505.312 20.7281 504.787 20.2558C501.866 16.9673 500.274 12.7517 500.274 8.37872V0.402344H526.128V26.2731H526.11ZM507.096 20.973C510.14 23.6668 514.076 25.1536 518.151 25.1536H524.991V1.53932H501.411V8.37872C501.411 12.4719 502.898 16.4076 505.592 19.4512C506.099 19.906 506.624 20.4308 507.114 20.973H507.096Z" fill="#4AC4CD" fill-opacity="0.3"/>
<path d="M466.569 14.0461H452.942V0.402344H466.569V14.0461ZM454.079 12.9092H465.432V1.52181H454.079V12.9092Z" fill="#4AC4CD" fill-opacity="0.3"/>
<path d="M478.812 73.6934H452.959V47.7876H460.953C465.203 47.7876 469.314 49.3094 472.55 52.0732L472.603 52.1257C473.197 52.7904 473.827 53.4201 474.492 54.0149L474.544 54.0673C477.308 57.3033 478.812 61.4315 478.812 65.6996V73.6934ZM454.079 72.5564H477.675V65.6996C477.675 61.7114 476.258 57.8631 473.705 54.8369C473.04 54.2422 472.393 53.5951 471.78 52.9129C468.754 50.3415 464.906 48.9246 460.953 48.9246H454.096V72.5564H454.079Z" fill="#4AC4CD" fill-opacity="0.3"/>
<path d="M526.11 73.6942H512.693V60.2603H526.11V73.6942ZM513.83 72.5572H524.99V61.3973H513.83V72.5572Z" fill="#4AC4CD" fill-opacity="0.3"/>
<path d="M496.707 149.54L496.672 148.228C496.567 145.062 495.815 142.019 494.433 139.167L493.716 137.681L495.203 138.415C498.036 139.797 501.08 140.549 504.246 140.654L505.558 140.689L496.742 149.523L496.707 149.54ZM496.06 140.059C496.969 142.246 497.511 144.555 497.721 146.916L502.917 141.721C500.555 141.511 498.264 140.969 496.06 140.059ZM485.634 129.617L484.148 128.9C481.436 127.57 478.533 126.818 475.524 126.678L474.247 126.608L482.626 118.212L482.696 119.489C482.853 122.515 483.588 125.419 484.917 128.13L485.634 129.617ZM476.818 125.629C479.04 125.856 481.209 126.398 483.273 127.255C482.416 125.191 481.874 123.022 481.646 120.783L476.818 125.629Z" fill="#4AC4CD" fill-opacity="0.3"/>
<path d="M452.942 139.29V97.1167H495.046L491.792 100.37C489.938 101.717 488.311 103.361 486.947 105.216L486.894 105.286L461.269 130.964C459.414 132.328 457.77 133.955 456.423 135.827L456.371 135.897L452.942 139.325V139.29ZM454.079 98.2362V136.544L455.531 135.092C456.948 133.168 458.645 131.454 460.569 130.037L486.055 104.481C487.472 102.557 489.168 100.86 491.093 99.4432L492.317 98.2187H454.079V98.2362Z" fill="#4AC4CD" fill-opacity="0.3"/>
<path d="M526.111 170.408H484.515L526.111 128.742V170.408ZM487.243 169.271H524.974V131.488L487.243 169.271Z" fill="#4AC4CD" fill-opacity="0.3"/>
<path d="M475.874 170.409H452.942V147.949L465.292 135.599C467.986 133.745 471.134 132.783 474.388 132.783C483.291 132.783 490.55 140.042 490.55 148.963C490.55 152.952 489.099 156.782 486.44 159.738C486.037 160.193 485.618 160.631 485.145 161.033L484.043 162.117L484.096 162.187L475.874 170.409ZM454.079 169.272H475.402L482.591 162.082L482.539 162.012L484.411 160.176C484.83 159.808 485.233 159.406 485.583 158.986C488.049 156.223 489.413 152.672 489.413 148.963C489.413 140.672 482.679 133.92 474.388 133.92C471.362 133.92 468.44 134.812 465.956 136.527L461.846 140.655L454.062 148.439V169.289L454.079 169.272Z" fill="#4AC4CD" fill-opacity="0.3"/>
<path d="M504.926 134.548C496.023 134.548 488.764 127.289 488.764 118.368C488.764 115.097 489.726 111.966 491.545 109.29L491.632 109.185L503.684 97.0977H526.109V120.065L518.115 128.076L517.975 127.971L516.943 129.143C516.559 129.58 516.139 130 515.684 130.403C512.71 133.061 508.897 134.531 504.926 134.531V134.548ZM492.472 109.954C490.793 112.438 489.918 115.342 489.918 118.368C489.918 126.659 496.653 133.411 504.944 133.411C508.635 133.411 512.203 132.047 514.949 129.58C515.387 129.196 515.771 128.811 516.121 128.408L517.835 126.449L518.028 126.589L524.99 119.61V98.2522H504.174L492.472 109.972V109.954Z" fill="#4AC4CD" fill-opacity="0.3"/>
<path d="M332.857 341.147H306.147C305.885 341.147 300.217 340.868 294.777 337.527C292.066 335.865 289.809 333.713 288.06 331.107C286.696 329.078 285.629 326.717 284.877 324.093L284.422 322.501L285.751 323.481C289.757 326.419 296.526 329.9 305.937 329.9H332.84V341.13L332.857 341.147ZM286.469 325.37C287.133 327.241 287.99 328.973 289.005 330.495C290.649 332.944 292.783 334.99 295.372 336.565C300.567 339.748 305.955 340.011 306.182 340.011H331.738V331.055H305.972C297.244 331.055 290.737 328.151 286.486 325.37H286.469Z" fill="#4AC4CD" fill-opacity="0.3"/>
<path d="M332.859 323.795H305.956C305.729 323.795 305.519 323.795 305.291 323.795L303.962 323.76L332.841 294.811V323.795H332.859ZM306.673 322.658H331.739V297.54L306.673 322.658Z" fill="#4AC4CD" fill-opacity="0.3"/>
<path d="M259.706 305.062V290.474H274.277L272.72 291.506C270.604 292.905 268.609 294.532 266.773 296.298C264.499 298.485 262.47 300.899 260.756 303.488L259.723 305.044L259.706 305.062ZM260.843 291.611V301.389C262.365 299.29 264.097 297.313 265.986 295.494C267.437 294.094 268.977 292.8 270.604 291.611H260.843Z" fill="#4AC4CD" fill-opacity="0.3"/>
<path d="M278.492 363.782H259.688V327.521L259.776 325.545C259.828 324.443 259.916 323.323 260.073 322.239L261.193 322.309V327.084C261.193 336.547 263.064 344.698 266.773 351.293C269.344 355.893 272.807 359.742 277.041 362.768L278.492 363.8V363.782ZM260.825 362.645H275.012C271.251 359.689 268.155 356.068 265.776 351.835C263.362 347.532 261.7 342.582 260.825 337.072V362.645ZM287.938 340.22L285.769 339.556C281.519 338.244 277.565 336.162 274.049 333.346C269.187 329.463 266.93 325.58 266.895 325.545L261.438 315.976L261.508 315.732C266.388 300.653 280.364 290.508 296.247 290.508L297.716 290.456H328.502L296.684 322.344L296.352 322.221C293.518 321.242 290.859 319.772 288.48 317.866C284.999 315.102 283.285 312.338 283.11 312.041L277.408 301.983V313.545C277.408 320.979 278.877 327.381 281.798 332.576C283.04 334.798 284.562 336.827 286.329 338.611L287.921 340.22H287.938ZM262.68 315.854L267.892 324.985C267.892 324.985 270.131 328.763 274.767 332.471C277.583 334.728 280.696 336.495 284.02 337.754C282.813 336.337 281.746 334.78 280.819 333.136C277.81 327.766 276.288 321.172 276.288 313.563V297.802C270.044 302.053 265.181 308.315 262.68 315.854ZM276.323 297.767L284.107 311.464C284.177 311.568 285.822 314.28 289.215 316.973C291.402 318.723 293.833 320.087 296.422 321.014L325.808 291.575H297.786L296.334 291.628C288.988 291.628 282.078 293.849 276.341 297.75L276.323 297.767Z" fill="#4AC4CD" fill-opacity="0.3"/>
<path d="M332.858 363.731H297.559C296.719 363.696 289.425 363.241 282.358 358.938C278.405 356.507 275.169 353.323 272.772 349.458C270.708 346.134 269.222 342.251 268.329 337.878L267.997 336.269L269.239 337.336C269.536 337.598 269.834 337.843 270.149 338.088C275.414 342.321 284.387 347.376 297.261 347.376H332.858V363.749V363.731ZM269.799 339.242C270.691 342.828 272.003 346.064 273.734 348.863C276.043 352.589 279.139 355.65 282.935 357.976C289.757 362.139 296.789 362.577 297.576 362.612H331.721V348.513H297.261C284.335 348.513 275.239 343.545 269.799 339.26V339.242Z" fill="#4AC4CD" fill-opacity="0.3"/>
<path d="M177.774 332.594L176.882 332.384C175.08 331.964 173.226 331.754 171.389 331.754H163.396V310.274H176.934V326.209C176.934 328.081 177.144 329.935 177.564 331.719L177.774 332.611V332.594ZM164.532 330.617H171.389C173.034 330.617 174.66 330.775 176.27 331.089C175.955 329.48 175.797 327.836 175.797 326.192V311.393H164.532V330.617Z" fill="#4AC4CD" fill-opacity="0.3"/>
<path d="M216.921 344.103H200.916C196.665 344.103 192.555 342.582 189.319 339.8L189.266 339.748C188.654 339.066 188.042 338.453 187.377 337.859L187.325 337.806C184.561 334.57 183.057 330.442 183.057 326.192V310.151H199.044C203.4 310.151 207.598 311.743 210.869 314.647L210.921 314.699C211.394 315.224 211.901 315.731 212.408 316.186L212.461 316.239C215.347 319.527 216.939 323.725 216.939 328.081V344.121L216.921 344.103ZM190.088 338.961C193.115 341.55 196.963 342.966 200.916 342.966H215.784V328.063C215.784 324.005 214.297 320.069 211.604 316.991C211.079 316.518 210.572 316.011 210.082 315.469C207.021 312.775 203.085 311.288 199.027 311.288H184.159V326.192C184.159 330.162 185.575 334.011 188.129 337.054C188.811 337.649 189.441 338.279 190.053 338.978L190.088 338.961Z" fill="#4AC4CD" fill-opacity="0.3"/>
<path d="M205.465 304.887L204.573 304.677C202.772 304.257 200.917 304.03 199.046 304.03H183.146V290.491H204.626V298.467C204.626 300.339 204.836 302.193 205.273 303.995L205.483 304.887H205.465ZM184.265 302.893H199.028C200.69 302.893 202.334 303.05 203.944 303.382C203.629 301.773 203.471 300.129 203.471 298.467V291.628H184.265V302.91V302.893Z" fill="#4AC4CD" fill-opacity="0.3"/>
<path d="M217.044 363.783H195.371V355.789C195.371 353.935 195.161 352.098 194.741 350.279L194.531 349.387L195.423 349.597C197.208 350.017 199.062 350.227 200.916 350.227H217.044V363.766V363.783ZM196.508 362.646H215.906V351.364H200.916C199.272 351.364 197.627 351.206 196.036 350.891C196.35 352.501 196.508 354.145 196.508 355.789V362.646Z" fill="#4AC4CD" fill-opacity="0.3"/>
<path d="M236.564 344.226H223.025V328.064C223.025 326.192 222.815 324.338 222.378 322.536L222.168 321.644L223.06 321.854C224.862 322.274 226.716 322.501 228.588 322.501H236.546V344.226H236.564ZM224.162 343.089H235.427V323.638H228.605C226.943 323.638 225.299 323.481 223.69 323.148C224.005 324.758 224.18 326.402 224.18 328.064V343.089H224.162Z" fill="#4AC4CD" fill-opacity="0.3"/>
<path d="M236.563 316.362H228.604C224.231 316.362 220.033 314.77 216.78 311.884L216.745 311.849C216.273 311.324 215.765 310.817 215.24 310.344C212.319 307.056 210.728 302.84 210.728 298.467V290.491H236.581V316.362H236.563ZM217.549 311.061C220.593 313.755 224.529 315.242 228.604 315.242H235.426V291.628H211.847V298.467C211.847 302.56 213.334 306.496 216.028 309.557C216.535 310.012 217.042 310.537 217.532 311.061H217.549Z" fill="#4AC4CD" fill-opacity="0.3"/>
<path d="M177.022 304.135H163.396V290.491H177.022V304.135ZM164.532 302.998H175.885V291.61H164.532V302.998Z" fill="#4AC4CD" fill-opacity="0.3"/>
<path d="M189.249 363.782H163.396V337.876H171.389C175.64 337.876 179.751 339.398 182.987 342.162L183.039 342.214C183.634 342.879 184.264 343.509 184.928 344.104L184.981 344.156C187.744 347.392 189.249 351.52 189.249 355.788V363.782ZM164.515 362.645H188.112V355.788C188.112 351.8 186.695 347.952 184.141 344.926C183.476 344.331 182.829 343.684 182.217 343.002C179.191 340.43 175.343 339.013 171.389 339.013H164.532V362.645H164.515Z" fill="#4AC4CD" fill-opacity="0.3"/>
<path d="M236.565 363.783H223.148V350.349H236.565V363.783ZM224.285 362.646H235.445V351.486H224.285V362.646Z" fill="#4AC4CD" fill-opacity="0.3"/>
<path d="M207.142 439.628L207.107 438.316C207.002 435.15 206.25 432.106 204.868 429.255L204.151 427.768L205.638 428.503C208.472 429.885 211.515 430.637 214.681 430.742L215.993 430.777L207.177 439.611L207.142 439.628ZM206.495 430.147C207.405 432.334 207.947 434.643 208.157 437.004L213.352 431.809C210.991 431.599 208.699 431.057 206.495 430.147ZM196.07 419.705L194.583 418.987C191.872 417.658 188.968 416.906 185.96 416.766L184.683 416.696L193.061 408.3L193.131 409.577C193.289 412.603 194.023 415.507 195.353 418.218L196.07 419.705ZM187.254 415.716C189.475 415.944 191.644 416.486 193.708 417.343C192.851 415.279 192.309 413.11 192.082 410.871L187.254 415.716Z" fill="#4AC4CD" fill-opacity="0.3"/>
<path d="M163.396 429.378V387.205H205.499L202.245 390.458C200.391 391.805 198.764 393.449 197.4 395.303L197.348 395.373L171.722 421.052C169.868 422.416 168.223 424.043 166.876 425.915L166.824 425.984L163.396 429.413V429.378ZM164.532 388.324V426.632L165.984 425.18C167.401 423.256 169.098 421.542 171.022 420.125L196.508 394.569C197.925 392.645 199.622 390.948 201.546 389.531L202.77 388.307H164.532V388.324Z" fill="#4AC4CD" fill-opacity="0.3"/>
<path d="M236.565 460.496H194.969L236.565 418.83V460.496ZM197.698 459.359H235.428V421.576L197.698 459.359Z" fill="#4AC4CD" fill-opacity="0.3"/>
<path d="M186.328 460.495H163.396V438.036L175.745 425.686C178.439 423.832 181.587 422.87 184.841 422.87C193.744 422.87 201.003 430.129 201.003 439.05C201.003 443.038 199.552 446.869 196.893 449.825C196.49 450.28 196.053 450.717 195.598 451.12L194.496 452.204L194.549 452.274L186.328 460.495ZM164.532 459.359H185.855L193.045 452.169L192.992 452.099L194.864 450.263C195.284 449.895 195.668 449.493 196.036 449.073C198.502 446.309 199.866 442.759 199.866 439.05C199.866 430.759 193.132 424.007 184.841 424.007C181.815 424.007 178.893 424.899 176.41 426.613L172.299 430.742L164.515 438.525V459.376L164.532 459.359Z" fill="#4AC4CD" fill-opacity="0.3"/>
<path d="M215.38 424.637C206.477 424.637 199.218 417.378 199.218 408.457C199.218 405.186 200.18 402.055 201.999 399.378L202.086 399.273L214.138 387.187H236.563V410.154L228.569 418.165L228.43 418.06L227.397 419.232C227.013 419.669 226.593 420.089 226.138 420.491C223.164 423.15 219.351 424.62 215.38 424.62V424.637ZM202.926 400.043C201.247 402.527 200.355 405.431 200.355 408.457C200.355 416.748 207.089 423.5 215.38 423.5C219.071 423.5 222.64 422.136 225.386 419.669C225.806 419.302 226.208 418.9 226.558 418.497L228.272 416.538L228.464 416.678L235.426 409.699V388.341H214.611L202.926 400.061V400.043Z" fill="#4AC4CD" fill-opacity="0.3"/>
<path d="M571.747 267.052H548.832V244.592L561.216 232.207C563.875 230.388 567.024 229.409 570.277 229.409C579.181 229.409 586.44 236.668 586.44 245.589C586.44 249.56 584.988 253.373 582.364 256.347C581.927 256.819 581.507 257.256 581.035 257.676L580.003 258.708L580.038 258.76L578.149 260.667L571.764 267.034L571.747 267.052ZM549.969 265.915H571.292L578.586 258.62L578.551 258.568L580.248 256.871C580.72 256.451 581.122 256.032 581.525 255.594C583.956 252.848 585.303 249.28 585.303 245.606C585.303 237.315 578.569 230.563 570.277 230.563C567.269 230.563 564.365 231.455 561.899 233.135L549.969 245.082V265.932V265.915Z" fill="#4AC4CD" fill-opacity="0.3"/>
<path d="M600.82 231.192C591.916 231.192 584.657 223.933 584.657 215.012C584.657 211.759 585.619 208.628 587.421 205.969L587.508 205.864L591.689 201.666C591.794 201.596 591.881 201.508 591.969 201.421L592.494 200.861L593.281 200.056L599.56 193.759H621.968V216.691L614.131 224.58L612.872 225.84V225.805L612.68 225.98C612.33 226.365 611.962 226.732 611.595 227.082C608.621 229.74 604.808 231.192 600.82 231.192ZM588.348 206.616C586.669 209.1 585.794 212.004 585.794 215.012C585.794 223.303 592.529 230.055 600.82 230.055C604.511 230.055 608.062 228.691 610.825 226.242C611.175 225.927 611.508 225.577 611.84 225.227L612.924 224.038L612.977 224.126L614.114 222.989L620.831 216.254V194.914H600.015L592.756 202.225C592.634 202.348 592.511 202.47 592.371 202.558L588.313 206.634L588.348 206.616Z" fill="#4AC4CD" fill-opacity="0.3"/>
</svg>
