<svg width="128" height="461" viewBox="0 0 128 461" fill="none" xmlns="http://www.w3.org/2000/svg">
<path d="M6.1016 428.748L4.77219 427.769C0.766502 424.83 -6.00294 421.349 -15.4137 421.349H-42.3164V410.119H-15.6061C-15.3437 410.119 -9.67624 410.399 -4.23621 413.74C-1.52494 415.402 0.731525 417.553 2.48073 420.16C3.84511 422.206 4.91214 424.55 5.6643 427.174L6.11905 428.766L6.1016 428.748ZM-41.1969 420.212H-15.4311C-6.70258 420.212 -0.195568 423.116 4.055 425.897C3.3903 424.025 2.53323 422.311 1.51869 420.772C-0.125565 418.323 -2.25962 416.276 -4.84845 414.702C-10.0436 411.519 -15.4311 411.256 -15.6585 411.256H-41.2145V420.212H-41.1969Z" fill="white" fill-opacity="0.36"/>
<path d="M30.8355 460.776H16.2646L17.8214 459.744C19.938 458.327 21.9321 456.718 23.7688 454.951C26.0427 452.765 28.0718 450.351 29.786 447.762L30.8181 446.205V460.793L30.8355 460.776ZM19.938 459.639H29.6985V449.861C28.1767 451.96 26.445 453.937 24.5559 455.756C23.104 457.155 21.5648 458.45 19.938 459.639Z" fill="white" fill-opacity="0.36"/>
<path d="M-36.6327 460.776H-37.9971L-6.17907 428.888L-5.84671 429.01C-3.013 429.99 -0.354206 431.459 2.02472 433.366C5.5756 436.2 7.32482 439.068 7.39479 439.191L13.0972 449.231V437.669C13.0972 430.235 11.6279 423.833 8.70669 418.638C7.46476 416.416 5.94296 414.387 4.17626 412.603L2.58447 410.994L4.75347 411.658C9.00404 412.97 12.9573 415.052 16.4732 417.868C21.336 421.751 23.5924 425.634 23.6274 425.669L29.0849 435.238L29.015 435.482C24.1347 450.561 10.1585 460.706 -5.72425 460.706L-7.19358 460.759H-36.6152L-36.6327 460.776ZM-35.2683 459.639H-7.24606L-5.79424 459.587C1.55243 459.587 8.46183 457.365 14.1992 453.464L6.41524 439.768C6.34527 439.663 4.70099 436.952 1.30753 434.258C-0.878975 432.509 -3.31036 431.144 -5.89919 430.217L-35.2858 459.656L-35.2683 459.639ZM6.50268 413.495C7.70963 414.912 8.77668 416.469 9.70375 418.113C12.7124 423.483 14.2342 430.077 14.2342 437.686V453.447C20.4789 449.196 25.3416 442.934 27.843 435.395L22.6304 426.264C22.6304 426.264 20.3914 422.486 15.756 418.778C12.9398 416.521 9.82617 414.754 6.50268 413.495ZM30.4493 429.028L29.3298 428.958V424.183C29.3298 414.719 27.4582 406.568 23.7499 399.974C21.1785 395.391 17.7151 391.525 13.482 388.499L12.0302 387.467H30.8341V423.728L30.7467 425.704C30.6942 426.806 30.6067 427.926 30.4493 429.01V429.028ZM15.5111 388.604C19.2719 391.56 22.368 395.181 24.7469 399.414C27.1608 403.717 28.8226 408.667 29.6972 414.177V388.604H15.5111Z" fill="white" fill-opacity="0.36"/>
<path d="M22.5256 414.999L21.2836 413.932C20.9863 413.669 20.6889 413.424 20.3741 413.179C15.109 408.946 6.13554 403.891 -6.73861 403.891H-42.335V387.519H-7.036C-6.19638 387.554 1.09781 388.008 8.1646 392.311C12.1178 394.743 15.3539 397.926 17.7503 401.792C19.8143 405.116 21.3011 408.999 22.1932 413.372L22.5256 414.981V414.999ZM-41.198 402.754H-6.73861C6.18802 402.754 15.2839 407.722 20.7239 412.007C19.8318 408.422 18.5199 405.186 16.7882 402.387C14.4792 398.661 11.3832 395.6 7.58739 393.273C0.765484 389.11 -6.26637 388.673 -7.05351 388.638H-41.198V402.737V402.754Z" fill="white" fill-opacity="0.36"/>
<path d="M127.145 441.01H113.606V425.074C113.606 423.203 113.396 421.349 112.977 419.564L112.767 418.672L113.659 418.882C115.46 419.302 117.315 419.512 119.151 419.512H127.145V440.992V441.01ZM114.743 439.873H126.008V420.649H119.151C117.507 420.649 115.88 420.492 114.271 420.177C114.586 421.786 114.743 423.413 114.743 425.074V439.873Z" fill="white" fill-opacity="0.36"/>
<path d="M107.484 441.097H91.496C87.1404 441.097 82.9423 439.505 79.6713 436.601L79.6188 436.549C79.1465 436.024 78.6393 435.517 78.132 435.062L78.0795 435.009C75.1933 431.721 73.6016 427.523 73.6016 423.167V407.127H89.6068C93.8574 407.127 97.968 408.649 101.204 411.43L101.257 411.482C101.869 412.165 102.481 412.777 103.146 413.372L103.198 413.424C105.962 416.66 107.466 420.788 107.466 425.039V441.079L107.484 441.097ZM80.441 435.779C83.5021 438.473 87.4378 439.96 91.496 439.96H106.364V425.056C106.364 421.086 104.947 417.237 102.393 414.194C101.711 413.599 101.082 412.969 100.469 412.27C97.4432 409.681 93.595 408.264 89.6417 408.264H74.7735V423.167C74.7735 427.225 76.2604 431.161 78.9541 434.24C79.4789 434.712 79.9862 435.219 80.4759 435.761L80.441 435.779Z" fill="white" fill-opacity="0.36"/>
<path d="M107.396 460.776H85.9157V452.799C85.9157 450.928 85.7058 449.074 85.2685 447.272L85.0586 446.38L85.9507 446.59C87.7524 447.01 89.6066 447.237 91.4782 447.237H107.378V460.776H107.396ZM87.0527 459.639H106.259V448.356H91.4957C89.834 448.356 88.1897 448.199 86.5804 447.867C86.8953 449.476 87.0527 451.12 87.0527 452.782V459.621V459.639Z" fill="white" fill-opacity="0.36"/>
<path d="M96.0103 401.88L95.1182 401.671C93.334 401.251 91.4799 401.041 89.6257 401.041H73.498V387.502H95.1707V395.496C95.1707 397.35 95.3806 399.204 95.8004 401.006L96.0103 401.898V401.88ZM74.635 399.904H89.6257C91.27 399.904 92.9142 400.061 94.506 400.376C94.1912 398.767 94.0337 397.123 94.0337 395.478V388.621H74.635V399.904Z" fill="white" fill-opacity="0.36"/>
<path d="M68.355 429.605L67.4629 429.395C65.6612 428.975 63.8071 428.748 61.9354 428.748H53.9766V407.023H67.5154V423.186C67.5154 425.057 67.7253 426.911 68.1626 428.713L68.3725 429.605H68.355ZM55.096 427.611H61.918C63.5797 427.611 65.224 427.769 66.8332 428.101C66.5184 426.492 66.3435 424.847 66.3435 423.186V408.16H55.0786V427.611H55.096Z" fill="white" fill-opacity="0.36"/>
<path d="M79.8122 460.776H53.959V434.905H61.9179C66.2909 434.905 70.489 436.497 73.7425 439.383L73.7775 439.418C74.2498 439.942 74.757 440.45 75.2818 440.922C78.203 444.211 79.7948 448.426 79.7948 452.799V460.776H79.8122ZM55.096 459.639H78.6753V452.799C78.6753 448.706 77.1885 444.77 74.4947 441.709C73.9874 441.254 73.4801 440.73 72.9904 440.205C69.9467 437.511 66.011 436.024 61.9354 436.024H55.1135V459.639H55.096Z" fill="white" fill-opacity="0.36"/>
<path d="M127.145 460.776H113.519V447.132H127.145V460.776ZM114.656 459.639H126.008V448.252H114.656V459.639Z" fill="white" fill-opacity="0.36"/>
<path d="M127.145 413.39H119.151C114.901 413.39 110.79 411.868 107.554 409.104L107.502 409.052C106.907 408.387 106.277 407.757 105.613 407.162L105.56 407.11C102.796 403.874 101.292 399.746 101.292 395.478V387.484H127.145V413.39ZM108.324 408.264C111.35 410.836 115.198 412.253 119.151 412.253H126.008V388.621H102.412V395.478C102.412 399.466 103.828 403.314 106.382 406.34C107.047 406.935 107.694 407.582 108.306 408.264H108.324Z" fill="white" fill-opacity="0.36"/>
<path d="M67.393 400.918H53.9766V387.484H67.393V400.918ZM55.1135 399.781H66.2735V388.621H55.1135V399.781Z" fill="white" fill-opacity="0.36"/>
<path d="M97.4605 342.95L97.3905 341.673C97.2331 338.647 96.4984 335.743 95.169 333.032L94.4518 331.545L95.9387 332.262C98.6499 333.592 101.554 334.344 104.562 334.484L105.839 334.554L97.4605 342.95ZM96.8133 333.906C97.6704 335.971 98.2127 338.14 98.4401 340.379L103.268 335.533C101.046 335.306 98.8773 334.764 96.8133 333.906ZM86.388 323.464L84.9012 322.729C82.0675 321.347 79.0239 320.595 75.8578 320.49L74.5459 320.455L83.3619 311.622L83.3969 312.933C83.5018 316.1 84.254 319.143 85.6359 321.994L86.353 323.481L86.388 323.464ZM77.1697 319.441C79.5311 319.65 81.8226 320.193 84.0266 321.102C83.117 318.916 82.5748 316.607 82.3649 314.245L77.1697 319.441Z" fill="white" fill-opacity="0.36"/>
<path d="M127.145 364.061H85.042L88.2955 360.808C90.1496 359.461 91.7764 357.817 93.1408 355.963L93.1933 355.893L118.819 330.214C120.673 328.85 122.318 327.223 123.664 325.351L123.717 325.281L127.145 321.853V364.026V364.061ZM87.7707 362.924H126.008V324.617L124.557 326.069C123.14 327.993 121.443 329.707 119.519 331.124L94.0329 356.68C92.616 358.604 90.9193 360.301 88.9952 361.717L87.7707 362.942V362.924Z" fill="white" fill-opacity="0.36"/>
<path d="M53.9766 332.437V290.771H95.5727L53.9766 332.437ZM55.1135 291.907V329.69L92.8439 291.907H55.1135Z" fill="white" fill-opacity="0.36"/>
<path d="M30.7643 363.992H22.1406L23.4875 362.977C25.9364 361.123 28.0354 358.744 29.7322 355.945L30.7817 354.196V364.009L30.7643 363.992ZM25.4117 362.855H29.6272V358.132C28.3853 359.899 26.9685 361.49 25.4117 362.855Z" fill="white" fill-opacity="0.36"/>
<path d="M9.1629 361.474C6.76649 361.474 4.21262 361.071 1.58881 360.267C-4.9882 358.255 -11.3728 353.27 -17.39 345.468C-19.8564 342.285 -22.2529 338.611 -24.5443 334.571C-25.8912 331.79 -26.9932 329.953 -27.2031 329.621C-28.3576 327.329 -29.477 325.003 -30.5091 322.659L-31.2088 321.084L-29.7045 321.924C-26.9582 323.481 -23.9845 324.268 -20.8884 324.268C-20.2762 324.268 -19.6465 324.233 -19.0518 324.181C-13.1745 323.603 -9.01133 320.49 -7.3321 315.417C-6.80733 313.878 -6.54498 312.163 -6.54498 310.362C-6.54498 305.114 -8.74897 299.692 -12.1599 296.543C-14.154 294.706 -16.463 293.727 -18.8069 293.727C-19.9964 293.727 -21.2033 293.972 -22.3403 294.479C-26.3985 296.228 -28.8998 300.304 -28.7074 304.852C-28.5325 309.19 -25.9786 312.688 -22.0429 314L-20.4511 314.525L-18.5271 308.717L-20.1188 308.193C-21.6232 307.685 -22.5327 306.374 -22.6027 304.589C-22.6726 303.068 -22.0079 300.986 -19.9089 300.094C-19.5416 299.936 -19.1743 299.849 -18.8069 299.849C-17.7924 299.849 -16.8828 300.496 -16.2881 301.038C-14.9762 302.245 -13.8042 304.31 -13.1745 306.566C-12.4748 309.032 -12.4398 311.499 -13.1045 313.458C-13.5593 314.822 -14.329 315.889 -15.4135 316.659C-16.498 317.429 -17.9323 317.901 -19.6465 318.076C-20.0488 318.111 -20.4512 318.128 -20.8535 318.128C-33.0105 318.128 -38.9403 299.429 -40.9169 291.4L-41.0918 290.701H30.7656V324.25L29.7161 322.536C27.4596 318.863 24.3985 315.837 20.8476 313.773C17.804 312.006 14.6204 311.114 11.3669 311.114C9.93252 311.114 8.48069 311.289 7.06384 311.656C2.90072 312.723 -0.790077 315.364 -3.08154 318.898C-5.3555 322.449 -6.09019 326.664 -5.12813 330.723C-4.07861 335.166 -1.03496 339.276 3.65292 342.617L5.01729 343.579L8.58564 338.594L7.22126 337.614C5.40208 336.32 3.93275 334.903 2.84824 333.416C1.86869 332.069 1.22149 330.67 0.889141 329.236C0.311901 326.769 0.749191 324.268 2.07859 322.204C4.05519 319.143 7.62358 317.236 11.3844 317.236C13.5534 317.236 15.7224 317.848 17.804 319.055C20.3578 320.542 22.4918 322.554 24.1711 325.073C25.7279 327.399 26.8298 330.093 27.4945 333.066C28.719 338.716 28.1593 344.909 25.9203 350.051C24.3285 353.707 22.072 356.558 19.2033 358.517C16.3521 360.476 12.9762 361.456 9.21538 361.456L9.1629 361.474ZM-28.7949 323.673C-27.9553 325.492 -27.0806 327.312 -26.1885 329.061C-25.9961 329.358 -24.8766 331.23 -23.5122 334.046C-21.2733 338.017 -18.8944 341.638 -16.4805 344.786C-10.6031 352.413 -4.41096 357.258 1.92117 359.2C4.44002 359.969 6.87144 360.354 9.1629 360.354C12.6963 360.354 15.8449 359.427 18.5212 357.608C21.1974 355.771 23.3315 353.095 24.8358 349.631C26.9698 344.699 27.5296 338.769 26.3401 333.346C25.7279 330.513 24.6608 327.941 23.1915 325.737C21.6172 323.358 19.6057 321.452 17.2093 320.07C15.3026 318.968 13.326 318.408 11.3494 318.408C7.95595 318.408 4.75491 320.122 2.98821 322.869C1.81624 324.688 1.44891 326.874 1.95618 329.026C2.25355 330.303 2.84824 331.58 3.72284 332.787C4.73738 334.168 6.11927 335.498 7.83349 336.722L10.1249 338.367L5.24464 345.188L2.9707 343.562C-1.94457 340.063 -5.12811 335.708 -6.2476 331.002C-7.27963 326.629 -6.49252 322.116 -4.04363 318.303C-1.61224 314.525 2.34097 311.709 6.78395 310.572C8.28827 310.187 9.82756 309.994 11.3669 309.994C14.8303 309.994 18.2063 310.939 21.4248 312.811C24.6084 314.665 27.4246 317.254 29.6461 320.385V291.855H-39.6225C-37.8908 298.607 -32.1009 317.026 -20.836 317.026C-20.4686 317.026 -20.1013 317.009 -19.734 316.974C-18.2122 316.816 -16.9702 316.414 -16.0432 315.767C-15.1686 315.137 -14.5214 314.262 -14.154 313.143C-13.5593 311.376 -13.5943 309.172 -14.2415 306.916C-14.8187 304.852 -15.8682 302.98 -17.0402 301.913C-17.6699 301.336 -18.2822 301.021 -18.7894 301.021C-18.9993 301.021 -19.2092 301.073 -19.4366 301.161C-20.9934 301.826 -21.4832 303.417 -21.4482 304.572C-21.4132 305.499 -21.0809 306.688 -19.734 307.143L-17.0752 308.035L-19.7165 315.977L-22.3753 315.085C-26.7658 313.615 -29.617 309.732 -29.8094 304.922C-30.0193 299.902 -27.2556 295.389 -22.7601 293.447C-21.4657 292.887 -20.1188 292.607 -18.7719 292.607C-16.1481 292.607 -13.5768 293.692 -11.3728 295.721C-7.73446 299.079 -5.3905 304.834 -5.3905 310.379C-5.3905 312.321 -5.67039 314.14 -6.23014 315.802C-8.06681 321.329 -12.5797 324.723 -18.9293 325.335C-19.5765 325.405 -20.2237 325.44 -20.8884 325.44C-23.6347 325.44 -26.2935 324.863 -28.7949 323.708V323.673Z" fill="white" fill-opacity="0.36"/>
<path d="M65.8699 267.051H53.9229V255.086L54.57 255.191C57.3513 255.628 59.9926 256.975 61.9867 258.969C63.9808 260.981 65.3277 263.605 65.765 266.404L65.8699 267.051ZM55.0598 265.914H64.523C64.0333 263.605 62.8613 261.436 61.182 259.774C59.5028 258.095 57.3513 256.923 55.0423 256.433V265.914H55.0598Z" fill="white" fill-opacity="0.36"/>
<path d="M126.971 205.952L126.323 205.847C123.542 205.41 120.901 204.063 118.907 202.069C116.913 200.057 115.566 197.433 115.128 194.635L115.023 193.988H126.971V205.952ZM116.37 195.125C116.86 197.434 118.032 199.603 119.711 201.264C121.391 202.943 123.542 204.115 125.851 204.605V195.125H116.388H116.37Z" fill="white" fill-opacity="0.36"/>
<path d="M126.97 214.575L126.323 214.47C123.752 214.068 121.373 212.931 119.449 211.199L116.562 208.61L120.061 210.272C122.072 211.234 124.224 211.811 126.463 212.039L126.97 212.091V214.592V214.575ZM124.661 212.931C125.046 213.053 125.431 213.158 125.833 213.245V213.106C125.448 213.053 125.046 213.001 124.661 212.931Z" fill="white" fill-opacity="0.36"/>
<path d="M127.076 245.098L126.026 243.297C123.77 239.449 121.006 235.88 117.84 232.714L78.9551 193.759H108.867V201.193C108.867 211.374 116.476 219.753 126.568 220.68L127.076 220.732V245.116V245.098ZM81.6838 194.896L118.627 231.91C121.391 234.673 123.84 237.734 125.939 241.005V221.747C115.513 220.522 107.73 211.776 107.73 201.176V194.879H81.6838V194.896Z" fill="white" fill-opacity="0.36"/>
<path d="M127.093 267.052H110.913L67.7076 223.776C63.6669 219.736 60.4484 215.065 58.1219 209.905C55.9179 204.99 54.5885 199.777 54.1687 194.39L54.1162 193.777H70.3139L113.519 237.053C121.408 244.959 126.201 255.402 127.041 266.457L127.093 267.069V267.052ZM111.385 265.915H125.869C124.924 255.349 120.271 245.414 112.715 237.84L69.8416 194.897H55.3407C55.7955 199.935 57.0899 204.815 59.1539 209.433C61.4279 214.47 64.559 219.036 68.5122 222.972L111.385 265.915Z" fill="white" fill-opacity="0.36"/>
<path d="M102.253 267.051H72.0271V259.844C72.0271 249.734 64.4531 241.355 54.4301 240.358L53.9229 240.306V215.292L54.9724 217.129C57.2638 221.134 60.0975 224.825 63.3686 228.114L102.253 267.051ZM73.1641 265.914H99.5247L62.5814 228.918C59.7302 226.05 57.1939 222.884 55.0598 219.473V239.309C65.4151 240.585 73.1641 249.332 73.1641 259.862V265.931V265.914Z" fill="white" fill-opacity="0.36"/>
<path d="M64.3491 252.428L60.8507 250.766C58.8392 249.822 56.6876 249.227 54.4486 248.999L53.9414 248.947V246.446L54.5886 246.551C57.1599 246.953 59.5388 248.09 61.463 249.822L64.3491 252.41V252.428ZM55.0609 247.932C55.4457 247.985 55.848 248.037 56.2329 248.107C55.848 247.985 55.4632 247.88 55.0609 247.792V247.932Z" fill="white" fill-opacity="0.36"/>
<path d="M105.683 328.413C96.7797 328.413 89.5205 321.154 89.5205 312.233C89.5205 308.245 90.9724 304.414 93.6312 301.458C94.0335 301.003 94.4708 300.566 94.9255 300.164L96.0276 299.062L95.9751 298.992L104.196 290.771H127.128V313.23L114.779 325.58C112.085 327.434 108.937 328.396 105.683 328.396V328.413ZM97.4969 299.097L97.5494 299.167L95.7127 300.968C95.2579 301.371 94.8556 301.773 94.4882 302.193C92.0219 304.957 90.6575 308.507 90.6575 312.216C90.6575 320.507 97.3919 327.259 105.683 327.259C108.709 327.259 111.63 326.367 114.114 324.653L118.225 320.524L126.009 312.741V291.89H104.686L97.4969 299.079V299.097Z" fill="white" fill-opacity="0.36"/>
<path d="M76.4014 364.062H53.9766V341.095L61.9704 333.084L62.1104 333.189L63.1424 332.017C63.5272 331.58 63.947 331.16 64.4018 330.757C67.3755 328.099 71.1887 326.629 75.1594 326.629C84.0629 326.629 91.3221 333.889 91.3221 342.81C91.3221 346.081 90.3601 349.212 88.5409 351.888L88.4534 351.993L76.4014 364.08V364.062ZM55.1135 362.925H75.9291L87.6313 351.206C89.3105 348.722 90.1851 345.818 90.1851 342.792C90.1851 334.501 83.4507 327.749 75.1594 327.749C71.4686 327.749 67.9002 329.113 65.154 331.58C64.7342 331.947 64.3319 332.349 63.982 332.752L62.2678 334.711L62.0754 334.571L55.1135 341.55V362.908V362.925Z" fill="white" fill-opacity="0.36"/>
<path d="M5.83798 138.309L4.50856 137.33C0.502884 134.391 -6.26656 130.91 -15.6773 130.91H-42.5801V119.68H-15.8697C-15.6073 119.68 -9.95736 119.943 -4.49984 123.301C-1.78857 124.963 0.467903 127.115 2.21711 129.721C3.58149 131.767 4.64852 134.111 5.40068 136.735L5.85543 138.327L5.83798 138.309ZM-41.4606 129.773H-15.6947C-6.96621 129.773 -0.459187 132.677 3.79138 135.458C3.12668 133.587 2.26955 131.872 1.25501 130.333C-0.38924 127.884 -2.52324 125.838 -5.11207 124.263C-10.3247 121.062 -15.6947 120.817 -15.9221 120.817H-41.4781V129.773H-41.4606Z" fill="white" fill-opacity="0.36"/>
<path d="M30.5543 170.337H15.9834L17.5402 169.305C19.6568 167.889 21.6508 166.279 23.4875 164.513C25.7615 162.326 27.7906 159.912 29.5048 157.323L30.5368 155.767V170.355L30.5543 170.337ZM19.6567 169.2H29.4173V159.422C27.8955 161.521 26.1638 163.498 24.2746 165.317C22.8228 166.717 21.2835 168.011 19.6567 169.2Z" fill="white" fill-opacity="0.36"/>
<path d="M-36.913 170.338H-38.2773L-6.45929 138.449L-6.12698 138.572C-3.29327 139.552 -0.63448 141.021 1.74444 142.927C5.22536 145.709 6.93959 148.455 7.11452 148.752L12.8169 158.793V147.231C12.8169 139.796 11.3476 133.394 8.42642 128.199C7.18448 125.978 5.66268 123.949 3.89598 122.164L2.3042 120.555L4.47325 121.22C8.72382 122.532 12.677 124.613 16.1929 127.43C21.0032 131.278 23.3122 135.196 23.3471 135.231L28.8047 144.799L28.7347 145.044C23.8544 160.122 9.87826 170.268 -6.00453 170.268L-7.47385 170.32H-36.8955L-36.913 170.338ZM-35.5486 169.201H-7.52633L-6.07446 169.148C1.27221 169.148 8.18156 166.927 13.919 163.026L6.13496 149.33C6.06499 149.225 4.42077 146.513 1.02731 143.82C-1.15919 142.07 -3.59063 140.706 -6.17946 139.779L-35.5661 169.218L-35.5486 169.201ZM6.22246 123.057C7.42941 124.473 8.4964 126.03 9.42348 127.674C12.4321 133.044 13.9539 139.639 13.9539 147.248V163.008C20.1986 158.758 25.0614 152.496 27.5627 144.957L22.3501 135.826C22.3501 135.826 20.0936 132.047 15.4757 128.339C12.6595 126.083 9.54595 124.316 6.22246 123.057ZM30.169 138.589L29.0496 138.519V133.744C29.0496 124.281 27.1779 116.147 23.4696 109.535C20.8983 104.935 17.4348 101.086 13.2018 98.0603L11.7499 97.0283H30.5539V133.289L30.4664 135.266C30.4139 136.368 30.3265 137.487 30.169 138.572V138.589ZM15.2309 98.1653C18.9916 101.121 22.0877 104.742 24.4667 108.975C26.8806 113.278 28.5423 118.229 29.4169 123.739V98.1653H15.2309Z" fill="white" fill-opacity="0.36"/>
<path d="M22.2619 124.579L21.02 123.512C20.7226 123.249 20.4252 123.004 20.1104 122.759C14.8452 118.526 5.87182 113.471 -7.00234 113.471H-42.5986V97.0986H-7.29967C-6.46005 97.1336 0.851631 97.5884 7.90093 101.891C11.8541 104.323 15.0901 107.506 17.4865 111.372C19.5506 114.696 21.0374 118.579 21.9295 122.952L22.2619 124.561V124.579ZM-41.4617 112.334H-7.00234C5.92429 112.334 15.0202 117.302 20.4602 121.588C19.5681 118.002 18.2562 114.766 16.5245 111.967C14.2155 108.241 11.1194 105.18 7.32366 102.854C0.501759 98.6904 -6.53004 98.2531 -7.31718 98.2181H-41.4617V112.317V112.334Z" fill="white" fill-opacity="0.36"/>
<path d="M126.867 150.572H113.328V134.636C113.328 132.765 113.118 130.91 112.698 129.126L112.488 128.234L113.38 128.444C115.182 128.864 117.019 129.074 118.873 129.074H126.867V150.554V150.572ZM114.465 149.434H125.73V130.211H118.873C117.229 130.211 115.602 130.053 113.993 129.738C114.307 131.348 114.465 132.992 114.465 134.636V149.434Z" fill="white" fill-opacity="0.36"/>
<path d="M107.223 150.659H91.2352C86.8796 150.659 82.6816 149.067 79.4106 146.164L79.3581 146.111C78.8858 145.586 78.3785 145.079 77.8713 144.624L77.8188 144.572C74.9326 141.283 73.3408 137.085 73.3408 132.73V116.689H89.346C93.5966 116.689 97.7073 118.211 100.943 120.993L100.996 121.045C101.608 121.727 102.238 122.339 102.885 122.934L102.937 122.987C105.701 126.223 107.205 130.351 107.205 134.601V150.642L107.223 150.659ZM80.1802 145.341C83.2413 148.035 87.177 149.522 91.2352 149.522H106.103V134.619C106.103 130.648 104.687 126.8 102.133 123.756C101.468 123.162 100.821 122.532 100.209 121.832C97.1825 119.243 93.3342 117.826 89.381 117.826H74.5128V132.73C74.5128 136.788 75.9996 140.724 78.6934 143.802C79.2181 144.274 79.7254 144.782 80.2152 145.324L80.1802 145.341Z" fill="white" fill-opacity="0.36"/>
<path d="M107.135 170.338H85.6549V162.362C85.6549 160.49 85.445 158.636 85.0077 156.834L84.7979 155.942L85.69 156.152C87.4916 156.572 89.3458 156.799 91.2175 156.799H107.118V170.338H107.135ZM86.792 169.201H105.998V157.919H91.2349C89.5732 157.919 87.9289 157.761 86.3197 157.429C86.6345 159.038 86.8094 160.682 86.8094 162.344V169.183L86.792 169.201Z" fill="white" fill-opacity="0.36"/>
<path d="M95.7291 111.442L94.837 111.232C93.0528 110.812 91.1986 110.602 89.3445 110.602H73.2168V97.0632H94.8894V105.057C94.8894 106.911 95.0994 108.765 95.5192 110.567L95.7291 111.459V111.442ZM74.3538 109.465H89.3445C90.9887 109.465 92.633 109.623 94.2248 109.937C93.9099 108.328 93.7525 106.684 93.7525 105.04V98.1827H74.3538V109.465Z" fill="white" fill-opacity="0.36"/>
<path d="M68.0914 139.167L67.1993 138.957C65.3976 138.537 63.5434 138.31 61.6718 138.31H53.7129V116.584H67.2517V132.747C67.2517 134.619 67.4616 136.473 67.8989 138.275L68.1088 139.167H68.0914ZM54.8324 137.173H61.6718C63.3335 137.173 64.9778 137.33 66.587 137.662C66.2722 136.053 66.0972 134.409 66.0972 132.747V117.721H54.8324V137.173Z" fill="white" fill-opacity="0.36"/>
<path d="M79.5495 170.338H53.6963V144.468H61.6552C66.0282 144.468 70.2263 146.059 73.4798 148.945L73.5148 148.981C73.9871 149.488 74.4943 150.013 75.0191 150.485C77.9403 153.773 79.532 157.989 79.532 162.362V170.338H79.5495ZM54.8333 169.201H78.4126V162.362C78.4126 158.269 76.9257 154.333 74.2319 151.289C73.7247 150.835 73.1999 150.31 72.7277 149.768C69.684 147.074 65.7483 145.587 61.6727 145.587H54.8333V169.201Z" fill="white" fill-opacity="0.36"/>
<path d="M126.866 170.338H113.239V156.694H126.866V170.338ZM114.376 169.201H125.729V157.814H114.376V169.201Z" fill="white" fill-opacity="0.36"/>
<path d="M126.865 122.952H118.871C114.621 122.952 110.51 121.43 107.274 118.667L107.221 118.614C106.627 117.949 105.997 117.32 105.332 116.725L105.28 116.672C102.516 113.436 101.012 109.308 101.012 105.04V97.0464H126.865V122.952ZM108.044 117.827C111.07 120.398 114.918 121.815 118.871 121.815H125.728V98.1834H102.131V105.04C102.131 109.028 103.548 112.877 106.102 115.903C106.767 116.498 107.414 117.145 108.026 117.827H108.044Z" fill="white" fill-opacity="0.36"/>
<path d="M67.1127 110.48H53.6963V97.0464H67.1127V110.48ZM54.8333 109.343H65.9932V98.1834H54.8333V109.343Z" fill="white" fill-opacity="0.36"/>
<path d="M97.1812 52.5114L97.1112 51.2345C96.9538 48.2083 96.2191 45.3047 94.8897 42.5934L94.1726 41.1066L95.6594 41.8412C98.3706 43.1706 101.274 43.9228 104.283 44.0627L105.56 44.1327L97.1812 52.5289V52.5114ZM96.534 43.468C97.3911 45.5321 97.9334 47.7011 98.1608 49.9226L102.989 45.0773C100.767 44.8499 98.598 44.3076 96.534 43.4505V43.468ZM86.1087 33.0252L84.6219 32.2906C81.7882 30.9087 78.7446 30.1565 75.5785 30.0516L74.2666 30.0166L83.0826 21.1831L83.1176 22.495C83.2225 25.6611 83.9747 28.7047 85.3566 31.5559L86.0737 33.0427L86.1087 33.0252ZM76.8904 29.0021C79.2518 29.212 81.5433 29.7542 83.7473 30.6638C82.8377 28.4773 82.2955 26.1683 82.0856 23.8069L76.8904 29.0021Z" fill="white" fill-opacity="0.36"/>
<path d="M126.865 73.6243H84.7617L88.0152 70.3708C89.8694 69.0239 91.4962 67.3797 92.8605 65.5255L92.913 65.4556L118.539 39.7772C120.393 38.4128 122.037 36.7861 123.384 34.9144L123.437 34.8444L126.865 31.416V73.5894V73.6243ZM87.4905 72.4874H125.728V34.1798L124.276 35.6316C122.859 37.5557 121.163 39.27 119.239 40.6868L93.7526 66.2427C92.3358 68.1668 90.639 69.8635 88.7149 71.2804L87.4905 72.5049V72.4874Z" fill="white" fill-opacity="0.36"/>
<path d="M53.6963 41.9986V0.33252H95.2924L53.6963 41.9986ZM54.8333 1.46949V39.2523L92.5636 1.46949H54.8333Z" fill="white" fill-opacity="0.36"/>
<path d="M105.42 37.9754C96.517 37.9754 89.2578 30.7162 89.2578 21.7953C89.2578 17.8071 90.7096 13.9763 93.3684 11.0202C93.7707 10.5654 94.1906 10.1281 94.6629 9.72575L95.7648 8.62376L95.7123 8.55378L103.934 0.33252H126.866V22.7923L114.516 35.1592C111.823 37.0134 108.674 37.9754 105.42 37.9754ZM97.2342 8.65873L97.2867 8.72871L95.415 10.5654C94.9952 10.9327 94.5928 11.335 94.243 11.7548C91.7766 14.5186 90.4122 18.0695 90.4122 21.7778C90.4122 30.069 97.1467 36.821 105.438 36.821C108.464 36.821 111.385 35.9288 113.869 34.2146L117.98 30.0865L125.764 22.3025V1.45201H104.441L97.2516 8.64125L97.2342 8.65873Z" fill="white" fill-opacity="0.36"/>
<path d="M76.1211 73.6242H53.6963V50.6571L61.6902 42.6457L61.8301 42.7507L62.8621 41.5787C63.2469 41.1414 63.6667 40.7216 64.1215 40.3193C67.0952 37.6605 70.9085 36.1912 74.8792 36.1912C83.7827 36.1912 91.0418 43.4504 91.0418 52.3713C91.0418 55.6423 90.0798 58.7734 88.2606 61.4497L88.1731 61.5546L76.1211 73.6417V73.6242ZM54.8333 72.4872H75.6488L87.351 60.7675C89.0302 58.2836 89.9049 55.3799 89.9049 52.3538C89.9049 44.0626 83.1704 37.3107 74.8792 37.3107C71.1884 37.3107 67.62 38.675 64.8737 41.1414C64.4539 41.5262 64.0516 41.9111 63.7017 42.3134L61.9875 44.2725L61.7951 44.1326L54.8333 51.1119V72.4697V72.4872Z" fill="white" fill-opacity="0.36"/>
</svg>
