<svg width="527" height="224" viewBox="0 0 527 224" fill="none" xmlns="http://www.w3.org/2000/svg">
<path d="M79.8926 2.5C98.9497 2.5 433.181 2.4992 451.505 2.5C455.712 2.5002 458.426 3.44411 460.206 4.69043C461.976 5.92957 463.053 7.62814 463.702 9.56738C465.087 13.7063 464.398 18.1079 464.397 20.752C464.397 21.6157 464.348 22.7795 464.432 23.6523C464.528 24.6554 464.833 25.9286 465.941 26.9443C466.951 27.869 468.285 28.253 469.606 28.458C470.973 28.6699 472.735 28.7451 474.96 28.7451H485.954C490.157 28.7451 492.831 28.7701 494.512 29.2568C495.265 29.4751 495.529 29.7139 495.634 29.8477C495.728 29.9674 495.914 30.2809 495.914 31.1279V43.4424L495.924 43.5488L498.414 43.335C496.012 43.541 495.927 43.55 495.924 43.5518C495.924 43.5523 495.924 43.5546 495.924 43.5557C495.924 43.5578 495.925 43.5601 495.925 43.5625C495.925 43.5674 495.926 43.5731 495.927 43.5791C495.928 43.591 495.929 43.6051 495.931 43.6211C495.934 43.6536 495.938 43.6947 495.944 43.7432C495.957 43.8403 495.975 43.9693 496.002 44.125C496.055 44.4358 496.143 44.8592 496.285 45.3574C496.568 46.3474 497.08 47.6788 498.002 49.0225C499.929 51.83 503.445 54.3799 509.409 54.3799C514.471 54.3799 518.171 55.0132 520.604 56.7412C522.831 58.3223 524.5 61.2118 524.5 67.1396V157.472C524.5 163.938 523.074 166.494 521.201 167.761C520.165 168.462 518.742 168.951 516.74 169.246C514.735 169.542 512.325 169.62 509.409 169.62C503.359 169.62 499.625 170.849 497.601 173.258C495.603 175.634 495.914 178.575 495.914 179.444V191.651C495.914 193.304 495.816 194.256 495.647 194.834C495.518 195.279 495.409 195.317 495.34 195.356C495.11 195.488 494.569 195.669 493.276 195.768C492.019 195.864 490.389 195.865 488.153 195.865H474.96C472.527 195.865 470.43 196.278 468.806 197.39C467.093 198.562 466.281 200.248 465.917 201.967C465.571 203.601 465.59 205.447 465.658 207.217C465.731 209.089 465.863 210.94 465.863 213.014C465.863 216.276 464.33 218.269 462.165 219.567C459.871 220.943 456.875 221.5 454.437 221.5H77.6943C74.2357 221.5 70.886 220.913 68.4912 219.542C66.2652 218.268 64.8018 216.31 64.8018 213.014C64.8018 210.916 64.8052 208.777 64.5791 206.831C64.3514 204.872 63.8715 202.888 62.7627 201.144C60.4082 197.44 55.9676 195.865 49.1084 195.865H35.915C34.4109 195.865 33.4154 195.863 32.6982 195.813C32.6493 195.81 32.6036 195.803 32.5605 195.8C32.5535 195.54 32.5518 195.19 32.5518 194.703V179.525C32.5524 179.515 32.5531 179.504 32.5537 179.493C32.5587 179.403 32.5635 179.282 32.5654 179.137C32.5693 178.846 32.5612 178.447 32.5176 177.975C32.4316 177.044 32.2002 175.754 31.5879 174.429C30.9663 173.083 29.9432 171.686 28.3018 170.641C26.6614 169.596 24.5716 169.01 21.9893 169.01C17.6184 169.01 12.5774 168.689 8.69141 167.004C6.79172 166.18 5.27624 165.074 4.23047 163.615C3.19959 162.177 2.50006 160.224 2.5 157.472V67.1396C2.49994 63.1037 4.27842 60.0099 7.17383 57.8525C10.1332 55.6476 14.3393 54.3809 19.0566 54.3809C21.6082 54.3809 23.7207 54.345 25.4014 54.1436C27.0541 53.9454 28.6627 53.5512 29.9404 52.5537C31.3141 51.4813 31.934 50.0154 32.2305 48.4971C32.5124 47.0531 32.5518 45.2946 32.5518 43.335V31.1279C32.5518 30.1867 32.5527 29.4776 32.5918 28.8916C32.6155 28.5364 32.6509 28.2996 32.6826 28.1465C32.759 28.1395 32.8582 28.1348 32.9834 28.1348C35.9161 28.1351 49.842 28.1351 54.9727 28.1348C56.5444 28.1346 57.9818 27.8549 59.2256 27.1943C60.497 26.5191 61.4068 25.5302 62.0273 24.3818C63.1841 22.2412 63.3359 19.5149 63.3359 17.0898C63.3359 14.597 63.3841 11.0432 65.3135 8.07715C67.0998 5.33111 70.9296 2.50008 79.8926 2.5Z" fill="white" stroke="#1D5D77" stroke-width="5"/>
</svg>
