<svg width="658" height="737" viewBox="0 0 658 737" fill="none" xmlns="http://www.w3.org/2000/svg">
<g opacity="0.1" filter="url(#filter0_i_1098_12272)">
<path d="M105.82 262.618C97.6586 254.107 95.8149 241.82 95.7046 232.867C95.6927 232.783 95.7046 232.704 95.7142 232.623C95.7766 231.29 95.7886 230.002 95.7814 228.811C95.8317 227.653 95.8916 226.6 95.9804 225.687C101.169 225.509 106.34 224.385 111.202 222.328C110.778 226.833 110.437 238.034 117.697 244.33C121.907 247.993 127.057 248.473 137.199 249.274C147.189 250.091 155.508 249.516 161.243 248.83C162.382 238.255 161.795 229.592 161.001 223.567C159.69 213.404 158.915 208.046 154.617 203.761C148.246 197.41 138.546 197.832 134.667 198.259C136.781 192.937 137.767 187.247 137.656 181.589C137.668 181.601 137.68 181.589 137.692 181.577C137.704 181.589 137.728 181.589 137.74 181.577C137.776 181.589 137.8 181.589 137.834 181.575C140.044 181.618 142.627 181.539 145.492 181.345C146.17 181.294 146.894 181.241 147.618 181.189C155.794 181.515 166.364 183.651 174.159 191.426C174.876 192.133 175.525 192.865 176.149 193.622C182.164 200.99 183.516 210.474 185.674 227.061C187.074 237.912 188.132 253.512 186.094 272.534C175.767 273.755 160.809 274.774 142.818 273.335C124.592 271.877 115.314 271.019 107.728 264.445C107.057 263.86 106.41 263.246 105.82 262.618Z" stroke="white" stroke-width="6" stroke-miterlimit="10"/>
<path d="M136.478 181.75C136.804 181.702 137.202 181.649 137.657 181.592" stroke="white" stroke-width="6" stroke-miterlimit="10"/>
<path d="M111.202 222.328C111.246 221.858 111.291 221.462 111.334 221.156" stroke="white" stroke-width="6" stroke-miterlimit="10"/>
<path d="M133.676 198.372C133.944 198.334 134.282 198.298 134.671 198.26" stroke="white" stroke-width="6" stroke-miterlimit="10"/>
<path d="M78.8641 222.839L78.8761 222.85C84.2681 224.939 89.9814 225.881 95.6731 225.689C95.7786 225.699 95.8841 225.689 95.9776 225.687C101.166 225.509 106.337 224.385 111.199 222.328C116.304 220.187 121.075 217.017 125.208 212.826C129.445 208.528 132.6 203.56 134.666 198.262C136.781 192.939 137.766 187.25 137.656 181.592C137.668 181.58 137.668 181.58 137.656 181.568C137.563 176.741 136.652 171.918 134.935 167.348C132.813 161.587 129.418 156.221 124.767 151.637C121.176 148.098 117.121 145.31 112.782 143.282C107.469 140.783 101.753 139.421 96.0112 139.218C95.6827 139.196 95.3662 139.187 95.0306 139.201C89.8759 139.11 84.702 139.954 79.7919 141.709C73.87 143.833 68.3054 147.288 63.5823 152.078C60.2162 155.492 57.5309 159.323 55.5506 163.428C52.9349 168.719 51.4892 174.447 51.2063 180.225C51.1943 180.237 51.1943 180.261 51.1943 180.285C50.9402 185.372 51.5707 190.501 53.1147 195.387C55.1478 201.942 58.7944 208.111 64.021 213.265C68.3989 217.586 73.4721 220.774 78.8641 222.839ZM75.1599 163.032C85.9991 152.035 103.7 151.908 114.709 162.759C125.707 173.598 125.834 191.299 114.995 202.297C104.144 213.306 86.4427 213.433 75.4452 202.594C64.4358 191.743 64.3087 174.042 75.1599 163.032Z" stroke="white" stroke-width="6" stroke-miterlimit="10"/>
<path d="M4.38638 270.395C3.16604 260.069 2.1471 245.111 3.58561 227.12C5.0457 208.896 5.91362 199.627 12.4876 192.042C13.2189 191.205 13.9717 190.418 14.7725 189.699C22.1712 182.876 32.2672 180.663 40.553 180.15L40.577 180.15C44.5329 180.543 48.1196 180.457 50.8528 180.25C50.8767 180.25 50.8887 180.262 50.9007 180.25C51.0182 180.272 51.0877 180.274 51.1932 180.284C50.9391 185.372 51.5696 190.5 53.1136 195.386C47.9662 195.072 38.2778 195.434 32.5956 201.998C28.9322 206.208 28.4647 211.37 27.6519 221.5C26.8464 231.502 27.4098 239.81 28.0955 245.545C38.6733 246.686 47.3332 246.096 53.3702 245.314C63.5213 243.991 68.8917 243.229 73.1641 238.918C77.9352 234.147 78.8942 227.501 78.8822 222.847C84.2742 224.936 89.9875 225.878 95.6792 225.686C95.732 226.645 95.7751 227.685 95.7847 228.807C95.7224 229.977 95.696 231.251 95.7176 232.62C95.708 232.701 95.696 232.785 95.708 232.864C95.2525 240.886 92.9868 250.958 85.5113 258.472C84.5356 259.438 83.5382 260.311 82.5024 261.102C75.2356 266.566 65.8565 267.909 49.8674 269.978C39.0234 271.385 23.4227 272.447 4.38638 270.395Z" stroke="white" stroke-width="6" stroke-miterlimit="10"/>
<path d="M17.237 170.148C16.99 169.906 16.7527 169.649 16.5201 169.417C9.40427 161.821 8.03767 152.212 5.73605 134.504C4.33589 123.677 3.2666 108.064 5.30449 89.0422C15.6426 87.8338 30.6008 86.7909 48.5918 88.2294C66.8177 89.6871 76.0841 90.5574 83.6819 97.1434C83.9888 97.4215 84.3172 97.702 84.6097 97.9897C98.0047 110.661 95.8517 133.03 95.1109 138.844L95.0318 139.206C89.8771 139.114 84.7032 139.958 79.7931 141.713L80.064 140.426C80.474 137.115 81.7255 124.187 73.713 117.239C69.491 113.588 64.3411 113.108 54.2116 112.296C44.2211 111.502 35.9017 112.078 30.1548 112.751C29.0256 123.317 29.613 131.999 30.397 138.014C31.7084 148.177 32.4828 153.536 36.7816 157.82C42.5884 163.588 51.1355 163.773 55.5518 163.437C52.9361 168.729 51.4904 174.456 51.2075 180.234C51.114 180.237 51.0085 180.246 50.903 180.261C50.891 180.273 50.879 180.261 50.855 180.261C48.189 180.045 44.6095 179.908 40.5792 180.16L40.5552 180.16C32.9695 179.412 24.0435 176.926 17.237 170.148Z" stroke="white" stroke-width="6" stroke-miterlimit="10"/>
<path d="M112.782 143.283C107.469 140.785 101.753 139.423 96.0109 139.22C95.3252 131.533 95.3276 115.491 106.04 104.717C107.665 103.067 109.384 101.722 111.259 100.576C118.219 96.34 127.258 95.0837 141.686 93.2136C152.513 91.8135 168.126 90.7442 187.138 92.7917C189.265 110.723 188.824 125.563 187.963 136.067C186.359 155.264 185.412 165.173 178.514 171.557C178.385 171.687 178.272 171.804 178.131 171.922C170.08 179.004 157.196 180.443 147.615 181.191C143.535 181.023 140.063 181.315 137.831 181.577C137.795 181.589 137.771 181.589 137.737 181.579C137.725 181.591 137.701 181.591 137.689 181.579C137.689 181.579 137.677 181.567 137.653 181.567C137.56 176.741 136.649 171.917 134.932 167.347L135.764 167.542C139.075 167.952 151.993 169.213 158.951 161.191C162.602 156.969 163.082 151.819 163.894 141.689C164.688 131.699 164.113 123.379 163.439 117.632C152.873 116.503 144.192 117.091 138.176 117.875C128.013 119.186 122.655 119.96 118.358 124.271C112.479 130.169 112.412 138.949 112.782 143.283Z" stroke="white" stroke-width="6" stroke-miterlimit="10"/>
<path d="M103.82 450.41C95.6586 441.899 93.8149 429.612 93.7046 420.659C93.6927 420.575 93.7046 420.496 93.7142 420.415C93.7766 419.082 93.7886 417.794 93.7814 416.603C93.8317 415.445 93.8916 414.392 93.9804 413.479C99.1686 413.301 104.34 412.177 109.202 410.12C108.778 414.625 108.437 425.826 115.697 432.122C119.907 435.785 125.057 436.265 135.199 437.066C145.189 437.883 153.508 437.308 159.243 436.622C160.382 426.047 159.795 417.384 159.001 411.359C157.69 401.196 156.915 395.838 152.617 391.553C146.246 385.202 136.546 385.624 132.667 386.051C134.781 380.729 135.767 375.039 135.656 369.381C135.668 369.393 135.68 369.381 135.692 369.369C135.704 369.381 135.728 369.381 135.74 369.369C135.776 369.381 135.8 369.381 135.834 369.367C138.044 369.41 140.627 369.331 143.492 369.137C144.17 369.086 144.894 369.033 145.618 368.981C153.794 369.307 164.364 371.443 172.159 379.218C172.876 379.925 173.525 380.657 174.149 381.414C180.164 388.782 181.516 398.266 183.674 414.852C185.074 425.704 186.132 441.304 184.094 460.326C173.767 461.547 158.809 462.566 140.818 461.127C122.592 459.669 113.314 458.811 105.728 452.237C105.057 451.652 104.41 451.038 103.82 450.41Z" stroke="white" stroke-width="6" stroke-miterlimit="10"/>
<path d="M134.478 369.545C134.804 369.497 135.202 369.444 135.657 369.387" stroke="white" stroke-width="6" stroke-miterlimit="10"/>
<path d="M109.201 410.121C109.245 409.651 109.29 409.255 109.333 408.948" stroke="white" stroke-width="6" stroke-miterlimit="10"/>
<path d="M131.675 386.165C131.943 386.127 132.282 386.091 132.67 386.053" stroke="white" stroke-width="6" stroke-miterlimit="10"/>
<path d="M76.8641 410.631L76.8761 410.643C82.2681 412.732 87.9814 413.674 93.6731 413.482C93.7786 413.492 93.8841 413.482 93.9776 413.48C99.1658 413.302 104.337 412.178 109.199 410.121C114.304 407.98 119.075 404.81 123.208 400.619C127.445 396.321 130.6 391.353 132.666 386.054C134.781 380.732 135.766 375.043 135.656 369.384C135.668 369.373 135.668 369.373 135.656 369.361C135.563 364.534 134.652 359.71 132.935 355.141C130.813 349.38 127.418 344.014 122.767 339.43C119.176 335.891 115.121 333.103 110.782 331.074C105.469 328.576 99.7532 327.214 94.0112 327.011C93.6827 326.989 93.3662 326.98 93.0306 326.994C87.8759 326.903 82.702 327.747 77.7919 329.502C71.87 331.626 66.3054 335.081 61.5823 339.871C58.2162 343.285 55.5309 347.116 53.5506 351.221C50.9349 356.512 49.4892 362.24 49.2063 368.018C49.1943 368.03 49.1943 368.054 49.1943 368.078C48.9402 373.165 49.5707 378.294 51.1147 383.18C53.1478 389.735 56.7944 395.903 62.021 401.058C66.3989 405.378 71.4721 408.567 76.8641 410.631ZM73.1599 350.825C83.9991 339.828 101.7 339.701 112.709 350.552C123.707 361.391 123.834 379.092 112.995 390.089C102.144 401.099 84.4427 401.226 73.4452 390.387C62.4358 379.536 62.3087 361.835 73.1599 350.825Z" stroke="white" stroke-width="6" stroke-miterlimit="10"/>
<path d="M2.38443 458.189C1.16409 447.863 0.145145 432.905 1.58366 414.914C3.04375 396.69 3.91166 387.421 10.4857 379.835C11.2169 378.999 11.9697 378.212 12.7705 377.493C20.1693 370.67 30.2652 368.457 38.5511 367.944L38.575 367.944C42.5309 368.337 46.1176 368.251 48.8508 368.044C48.8748 368.044 48.8868 368.056 48.8987 368.044C49.0162 368.066 49.0858 368.068 49.1913 368.078C48.9371 373.166 49.5677 378.294 51.1117 383.18C45.9642 382.866 36.2758 383.228 30.5937 389.792C26.9303 394.002 26.4627 399.164 25.65 409.294C24.8444 419.296 25.4078 427.604 26.0935 433.339C36.6714 434.48 45.3312 433.89 51.3682 433.108C61.5193 431.785 66.8898 431.023 71.1621 426.712C75.9332 421.941 76.8922 415.295 76.8803 410.641C82.2723 412.729 87.9856 413.672 93.6773 413.48C93.73 414.439 93.7732 415.479 93.7828 416.601C93.7204 417.771 93.6941 419.045 93.7156 420.414C93.7061 420.495 93.6941 420.579 93.7061 420.658C93.2505 428.68 90.9849 438.752 83.5094 446.266C82.5336 447.232 81.5362 448.105 80.5005 448.896C73.2336 454.36 63.8545 455.703 47.8654 457.772C37.0214 459.179 21.4208 460.241 2.38443 458.189Z" stroke="white" stroke-width="6" stroke-miterlimit="10"/>
<path d="M15.237 357.942C14.99 357.7 14.7527 357.443 14.5201 357.211C7.40427 349.615 6.03767 340.006 3.73605 322.298C2.33589 311.471 1.2666 295.858 3.30449 276.836C13.6426 275.628 28.6008 274.585 46.5918 276.023C64.8177 277.481 74.0841 278.351 81.6819 284.937C81.9888 285.215 82.3172 285.496 82.6097 285.784C96.0047 298.455 93.8517 320.823 93.1109 326.637L93.0318 326.999C87.8771 326.908 82.7032 327.752 77.7931 329.507L78.064 328.22C78.474 324.909 79.7255 311.981 71.713 305.033C67.491 301.382 62.3411 300.902 52.2116 300.09C42.2211 299.296 33.9017 299.872 28.1548 300.545C27.0256 311.111 27.613 319.793 28.397 325.808C29.7084 335.971 30.4828 341.329 34.7816 345.614C40.5884 351.382 49.1355 351.567 53.5518 351.231C50.9361 356.523 49.4904 362.25 49.2075 368.028C49.114 368.031 49.0085 368.04 48.903 368.055C48.891 368.067 48.879 368.055 48.855 368.055C46.189 367.839 42.6095 367.702 38.5792 367.954L38.5552 367.954C30.9695 367.206 22.0435 364.72 15.237 357.942Z" stroke="white" stroke-width="6" stroke-miterlimit="10"/>
<path d="M110.78 331.078C105.467 328.58 99.751 327.218 94.0089 327.015C93.3233 319.328 93.3257 303.286 104.038 292.512C105.663 290.862 107.382 289.517 109.257 288.371C116.217 284.135 125.256 282.879 139.684 281.009C150.511 279.608 166.124 278.539 185.136 280.587C187.263 298.518 186.822 313.358 185.961 323.862C184.357 343.059 183.41 352.968 176.512 359.352C176.383 359.482 176.27 359.599 176.129 359.717C168.078 366.799 155.194 368.238 145.613 368.986C141.533 368.818 138.061 369.11 135.829 369.372C135.793 369.384 135.769 369.384 135.735 369.374C135.723 369.386 135.699 369.386 135.687 369.374C135.687 369.374 135.675 369.362 135.652 369.362C135.558 364.536 134.647 359.712 132.93 355.142L133.762 355.337C137.073 355.747 149.991 357.008 156.949 348.985C160.6 344.763 161.08 339.614 161.892 329.484C162.686 319.494 162.111 311.174 161.437 305.427C150.871 304.298 142.19 304.885 136.174 305.669C126.011 306.981 120.653 307.755 116.356 312.066C110.478 317.964 110.41 326.744 110.78 331.078Z" stroke="white" stroke-width="6" stroke-miterlimit="10"/>
<path d="M295.229 452.106C287.068 443.595 285.224 431.308 285.114 422.356C285.102 422.272 285.114 422.193 285.123 422.111C285.186 420.778 285.198 419.491 285.191 418.299C285.241 417.141 285.301 416.088 285.39 415.175C290.578 414.998 295.749 413.873 300.611 411.816C300.187 416.321 299.847 427.522 307.106 433.818C311.316 437.482 316.466 437.961 326.608 438.762C336.598 439.579 344.918 439.004 350.653 438.318C351.791 427.743 351.204 419.081 350.41 413.056C349.099 402.892 348.325 397.534 344.026 393.25C337.656 386.899 327.955 387.321 324.076 387.747C326.191 382.425 327.176 376.736 327.066 371.077C327.078 371.089 327.09 371.077 327.102 371.065C327.114 371.077 327.138 371.077 327.15 371.065C327.186 371.077 327.21 371.077 327.243 371.063C329.454 371.106 332.036 371.027 334.901 370.833C335.579 370.782 336.303 370.73 337.027 370.677C345.203 371.003 355.774 373.139 363.568 380.914C364.285 381.622 364.935 382.353 365.558 383.111C371.573 390.478 372.925 399.963 375.083 416.549C376.483 427.4 377.541 443.001 375.503 462.023C365.177 463.243 350.219 464.262 332.228 462.823C314.002 461.366 304.723 460.507 297.137 453.933C296.466 453.348 295.819 452.735 295.229 452.106Z" stroke="white" stroke-width="6" stroke-miterlimit="10"/>
<path d="M325.887 371.24C326.213 371.192 326.611 371.14 327.066 371.082" stroke="white" stroke-width="6" stroke-miterlimit="10"/>
<path d="M300.611 411.817C300.654 411.347 300.699 410.952 300.742 410.645" stroke="white" stroke-width="6" stroke-miterlimit="10"/>
<path d="M323.084 387.862C323.353 387.823 323.691 387.787 324.079 387.749" stroke="white" stroke-width="6" stroke-miterlimit="10"/>
<path d="M268.274 412.328L268.286 412.34C273.678 414.428 279.392 415.37 285.083 415.178C285.189 415.188 285.294 415.178 285.388 415.176C290.576 414.999 295.747 413.874 300.61 411.817C305.714 409.676 310.485 406.507 314.618 402.316C318.855 398.017 322.01 393.049 324.077 387.751C326.191 382.428 327.177 376.739 327.066 371.081C327.078 371.069 327.078 371.069 327.066 371.057C326.973 366.231 326.062 361.407 324.345 356.837C322.223 351.076 318.828 345.71 314.177 341.126C310.586 337.587 306.532 334.799 302.192 332.771C296.879 330.273 291.163 328.911 285.421 328.707C285.093 328.685 284.776 328.676 284.441 328.69C279.286 328.599 274.112 329.443 269.202 331.198C263.28 333.322 257.716 336.777 252.992 341.567C249.626 344.981 246.941 348.813 244.961 352.917C242.345 358.208 240.899 363.936 240.616 369.714C240.604 369.726 240.604 369.75 240.604 369.774C240.35 374.862 240.981 379.99 242.525 384.876C244.558 391.431 248.205 397.6 253.431 402.754C257.809 407.075 262.882 410.264 268.274 412.328ZM264.57 352.522C275.409 341.524 293.11 341.397 304.12 352.248C315.117 363.087 315.244 380.788 304.405 391.786C293.554 402.795 275.853 402.922 264.855 392.083C253.846 381.232 253.719 363.531 264.57 352.522Z" stroke="white" stroke-width="6" stroke-miterlimit="10"/>
<path d="M193.794 459.885C192.573 449.559 191.554 434.601 192.993 416.61C194.453 398.386 195.321 389.118 201.895 381.532C202.626 380.695 203.379 379.909 204.18 379.189C211.578 372.366 221.674 370.153 229.96 369.64L229.984 369.64C233.94 370.033 237.527 369.947 240.26 369.741C240.284 369.741 240.296 369.753 240.308 369.741C240.425 369.762 240.495 369.765 240.6 369.774C240.346 374.862 240.977 379.99 242.521 384.876C237.373 384.562 227.685 384.924 222.003 391.489C218.339 395.699 217.872 400.861 217.059 410.99C216.254 420.993 216.817 429.3 217.503 435.035C228.081 436.176 236.74 435.586 242.777 434.805C252.928 433.481 258.299 432.719 262.571 428.408C267.342 423.637 268.301 416.991 268.289 412.337C273.681 414.426 279.395 415.368 285.086 415.176C285.139 416.135 285.182 417.176 285.192 418.298C285.13 419.468 285.103 420.741 285.125 422.11C285.115 422.191 285.103 422.275 285.115 422.354C284.66 430.376 282.394 440.448 274.919 447.962C273.943 448.928 272.945 449.801 271.91 450.592C264.643 456.056 255.264 457.399 239.275 459.468C228.431 460.875 212.83 461.937 193.794 459.885Z" stroke="white" stroke-width="6" stroke-miterlimit="10"/>
<path d="M206.646 359.638C206.399 359.396 206.162 359.14 205.929 358.907C198.813 351.312 197.447 341.702 195.145 323.994C193.745 313.167 192.676 297.554 194.714 278.532C205.052 277.324 220.01 276.281 238.001 277.72C256.227 279.177 265.493 280.048 273.091 286.634C273.398 286.912 273.726 287.192 274.019 287.48C287.414 300.151 285.261 322.52 284.52 328.334L284.441 328.696C279.286 328.605 274.112 329.449 269.202 331.204L269.473 329.916C269.883 326.605 271.135 313.678 263.122 306.73C258.9 303.078 253.75 302.599 243.621 301.786C233.63 300.992 225.311 301.568 219.564 302.242C218.435 312.807 219.022 321.489 219.806 327.504C221.118 337.667 221.892 343.026 226.191 347.31C231.998 353.079 240.545 353.263 244.961 352.928C242.345 358.219 240.9 363.947 240.617 369.725C240.523 369.727 240.418 369.737 240.312 369.751C240.3 369.763 240.288 369.751 240.264 369.751C237.598 369.535 234.019 369.398 229.988 369.65L229.964 369.65C222.379 368.902 213.453 366.416 206.646 359.638Z" stroke="white" stroke-width="6" stroke-miterlimit="10"/>
<path d="M302.19 332.775C296.877 330.276 291.161 328.915 285.419 328.711C284.733 321.024 284.736 304.983 295.448 294.208C297.073 292.559 298.793 291.214 300.667 290.068C307.627 285.831 316.666 284.575 331.094 282.705C341.922 281.305 357.534 280.235 376.547 282.283C378.673 300.214 378.232 315.055 377.371 325.558C375.767 344.755 374.82 354.664 367.923 361.049C367.793 361.178 367.68 361.296 367.539 361.413C359.488 368.495 346.604 369.934 337.023 370.682C332.943 370.514 329.471 370.807 327.239 371.068C327.203 371.08 327.179 371.08 327.146 371.07C327.134 371.082 327.11 371.082 327.098 371.07C327.098 371.07 327.086 371.058 327.062 371.058C326.968 366.232 326.057 361.408 324.34 356.839L325.172 357.033C328.483 357.443 341.401 358.704 348.359 350.682C352.01 346.46 352.49 341.31 353.303 331.18C354.096 321.19 353.521 312.87 352.847 307.124C342.281 305.994 333.6 306.582 327.584 307.366C317.421 308.677 312.063 309.452 307.766 313.762C301.888 319.66 301.821 328.44 302.19 332.775Z" stroke="white" stroke-width="6" stroke-miterlimit="10"/>
<path d="M102.652 633.428C94.4907 624.917 92.647 612.629 92.5367 603.677C92.5247 603.593 92.5367 603.514 92.5463 603.432C92.6086 602.099 92.6206 600.812 92.6134 599.62C92.6637 598.462 92.7237 597.41 92.8124 596.496C98.0006 596.319 103.172 595.194 108.034 593.137C107.61 597.642 107.269 608.844 114.529 615.139C118.739 618.803 123.889 619.282 134.031 620.083C144.021 620.901 152.34 620.325 158.075 619.64C159.214 609.064 158.627 600.402 157.833 594.377C156.522 584.214 155.747 578.855 151.449 574.571C145.078 568.22 135.378 568.642 131.499 569.069C133.613 563.746 134.599 558.057 134.489 552.399C134.501 552.411 134.512 552.399 134.524 552.387C134.536 552.399 134.56 552.399 134.572 552.387C134.608 552.399 134.632 552.399 134.666 552.384C136.876 552.427 139.459 552.348 142.324 552.154C143.002 552.104 143.726 552.051 144.45 551.998C152.626 552.324 163.196 554.461 170.991 562.236C171.708 562.943 172.357 563.674 172.981 564.432C178.996 571.799 180.348 581.284 182.506 597.87C183.906 608.721 184.964 624.322 182.926 643.344C172.6 644.564 157.641 645.583 139.65 644.145C121.424 642.687 112.146 641.829 104.56 635.255C103.889 634.67 103.242 634.056 102.652 633.428Z" stroke="white" stroke-width="6" stroke-miterlimit="10"/>
<path d="M133.309 552.562C133.635 552.514 134.033 552.461 134.488 552.403" stroke="white" stroke-width="6" stroke-miterlimit="10"/>
<path d="M108.032 593.137C108.076 592.668 108.121 592.272 108.164 591.965" stroke="white" stroke-width="6" stroke-miterlimit="10"/>
<path d="M130.506 569.183C130.775 569.145 131.113 569.109 131.501 569.07" stroke="white" stroke-width="6" stroke-miterlimit="10"/>
<path d="M75.6961 593.649L75.7081 593.661C81.1001 595.749 86.8134 596.692 92.5051 596.5C92.6106 596.509 92.7161 596.5 92.8096 596.497C97.9979 596.32 103.169 595.195 108.032 593.138C113.136 590.997 117.907 587.828 122.04 583.637C126.277 579.338 129.432 574.371 131.498 569.072C133.613 563.75 134.598 558.06 134.488 552.402C134.5 552.39 134.5 552.39 134.488 552.378C134.395 547.552 133.484 542.728 131.767 538.158C129.645 532.397 126.25 527.031 121.599 522.447C118.008 518.909 113.953 516.12 109.614 514.092C104.301 511.594 98.5853 510.232 92.8432 510.028C92.5147 510.007 92.1983 509.997 91.8626 510.011C86.7079 509.92 81.5341 510.764 76.6239 512.519C70.7021 514.643 65.1374 518.098 60.4143 522.889C57.0482 526.303 54.363 530.134 52.3826 534.238C49.7669 539.53 48.3212 545.257 48.0383 551.035C48.0263 551.047 48.0263 551.071 48.0263 551.095C47.7722 556.183 48.4027 561.311 49.9467 566.197C51.9798 572.752 55.6265 578.921 60.853 584.076C65.2309 588.396 70.3041 591.585 75.6961 593.649ZM71.9919 533.843C82.8311 522.845 100.532 522.718 111.541 533.57C122.539 544.409 122.666 562.11 111.827 573.107C100.976 584.116 83.2747 584.244 72.2772 573.404C61.2678 562.553 61.1408 544.852 71.9919 533.843Z" stroke="white" stroke-width="6" stroke-miterlimit="10"/>
<path d="M1.21646 641.206C-0.00387831 630.88 -1.02282 615.922 0.41569 597.931C1.87578 579.708 2.74369 570.439 9.3177 562.853C10.0489 562.016 10.8018 561.23 11.6025 560.511C19.0013 553.687 29.0973 551.474 37.3831 550.961L37.407 550.961C41.363 551.354 44.9497 551.268 47.6828 551.062C47.7068 551.062 47.7188 551.074 47.7308 551.062C47.8483 551.084 47.9178 551.086 48.0233 551.096C47.7692 556.183 48.3997 561.311 49.9437 566.198C44.7962 565.883 35.1078 566.246 29.4257 572.81C25.7623 577.02 25.2948 582.182 24.482 592.311C23.6764 602.314 24.2399 610.621 24.9256 616.356C35.5034 617.497 44.1633 616.908 50.2002 616.126C60.3513 614.803 65.7218 614.04 69.9942 609.729C74.7653 604.958 75.7243 598.312 75.7123 593.659C81.1043 595.747 86.8176 596.689 92.5093 596.497C92.5621 597.456 92.6052 598.497 92.6148 599.619C92.5525 600.789 92.5261 602.062 92.5477 603.431C92.5381 603.513 92.5261 603.597 92.5381 603.676C92.0826 611.698 89.8169 621.77 82.3414 629.284C81.3656 630.25 80.3683 631.122 79.3325 631.914C72.0656 637.378 62.6865 638.72 46.6975 640.789C35.8535 642.197 20.2528 643.259 1.21646 641.206Z" stroke="white" stroke-width="6" stroke-miterlimit="10"/>
<path d="M14.069 540.959C13.8221 540.717 13.5847 540.461 13.3521 540.228C6.2363 532.633 4.8697 523.024 2.56808 505.315C1.16793 494.488 0.098633 478.876 2.13653 459.854C12.4746 458.645 27.4328 457.602 45.4238 459.041C63.6498 460.499 72.9162 461.369 80.5139 467.955C80.8208 468.233 81.1493 468.514 81.4418 468.801C94.8367 481.472 92.6838 503.841 91.9429 509.655L91.8638 510.017C86.7091 509.926 81.5353 510.77 76.6251 512.525L76.8961 511.237C77.306 507.926 78.5575 494.999 70.545 488.051C66.323 484.4 61.1731 483.92 51.0436 483.107C41.0531 482.314 32.7337 482.889 26.9869 483.563C25.8576 494.129 26.445 502.81 27.229 508.825C28.5404 518.989 29.3148 524.347 33.6136 528.631C39.4204 534.4 47.9676 534.584 52.3838 534.249C49.7681 539.54 48.3224 545.268 48.0395 551.046C47.946 551.048 47.8405 551.058 47.735 551.072C47.723 551.084 47.711 551.072 47.6871 551.072C45.021 550.856 41.4415 550.72 37.4113 550.972L37.3873 550.972C29.8015 550.223 20.8756 547.737 14.069 540.959Z" stroke="white" stroke-width="6" stroke-miterlimit="10"/>
<path d="M109.612 514.095C104.299 511.597 98.583 510.235 92.841 510.031C92.1553 502.345 92.1577 486.303 102.87 475.528C104.495 473.879 106.214 472.534 108.089 471.388C115.049 467.152 124.088 465.895 138.516 464.025C149.343 462.625 164.956 461.556 183.968 463.603C186.095 481.534 185.654 496.375 184.793 506.878C183.189 526.075 182.242 535.984 175.345 542.369C175.215 542.498 175.102 542.616 174.961 542.733C166.91 549.816 154.026 551.254 144.445 552.002C140.365 551.834 136.893 552.127 134.661 552.388C134.625 552.4 134.601 552.4 134.567 552.391C134.555 552.403 134.531 552.403 134.52 552.391C134.52 552.391 134.508 552.379 134.484 552.379C134.39 547.552 133.479 542.729 131.762 538.159L132.594 538.353C135.905 538.763 148.823 540.024 155.781 532.002C159.432 527.78 159.912 522.63 160.724 512.501C161.518 502.51 160.943 494.191 160.269 488.444C149.703 487.315 141.022 487.902 135.006 488.686C124.843 489.998 119.485 490.772 115.188 495.083C109.31 500.981 109.242 509.76 109.612 514.095Z" stroke="white" stroke-width="6" stroke-miterlimit="10"/>
<path d="M294.828 634.958C286.666 626.447 284.823 614.159 284.712 605.207C284.7 605.123 284.712 605.044 284.722 604.963C284.784 603.63 284.796 602.342 284.789 601.151C284.84 599.993 284.899 598.94 284.988 598.027C290.176 597.849 295.348 596.725 300.21 594.668C299.786 599.173 299.445 610.374 306.705 616.67C310.915 620.333 316.065 620.813 326.206 621.613C336.197 622.431 344.516 621.856 350.251 621.17C351.39 610.594 350.803 601.932 350.009 595.907C348.698 585.744 347.923 580.386 343.624 576.101C337.254 569.75 327.554 570.172 323.675 570.599C325.789 565.276 326.775 559.587 326.664 553.929C326.676 553.941 326.688 553.929 326.7 553.917C326.712 553.929 326.736 553.929 326.748 553.917C326.784 553.929 326.808 553.929 326.842 553.915C329.052 553.958 331.634 553.879 334.499 553.684C335.178 553.634 335.902 553.581 336.626 553.529C344.802 553.855 355.372 555.991 363.167 563.766C363.883 564.473 364.533 565.204 365.157 565.962C371.172 573.33 372.524 582.814 374.682 599.4C376.082 610.252 377.139 625.852 375.101 644.874C364.775 646.094 349.817 647.113 331.826 645.675C313.6 644.217 304.322 643.359 296.736 636.785C296.065 636.2 295.417 635.586 294.828 634.958Z" stroke="white" stroke-width="6" stroke-miterlimit="10"/>
<path d="M325.484 554.092C325.811 554.044 326.209 553.991 326.664 553.934" stroke="white" stroke-width="6" stroke-miterlimit="10"/>
<path d="M300.209 594.668C300.252 594.198 300.298 593.802 300.341 593.495" stroke="white" stroke-width="6" stroke-miterlimit="10"/>
<path d="M322.683 570.713C322.951 570.675 323.289 570.639 323.678 570.601" stroke="white" stroke-width="6" stroke-miterlimit="10"/>
<path d="M267.872 595.179L267.884 595.191C273.276 597.28 278.989 598.222 284.681 598.03C284.786 598.04 284.892 598.03 284.985 598.028C290.174 597.85 295.345 596.726 300.207 594.669C305.312 592.528 310.083 589.358 314.216 585.167C318.452 580.869 321.608 575.901 323.674 570.602C325.789 565.28 326.774 559.591 326.664 553.932C326.676 553.92 326.676 553.92 326.664 553.908C326.57 549.082 325.659 544.258 323.943 539.689C321.821 533.927 318.426 528.562 313.775 523.978C310.183 520.439 306.129 517.651 301.79 515.622C296.477 513.124 290.761 511.762 285.019 511.559C284.691 511.537 284.374 511.527 284.038 511.542C278.884 511.451 273.71 512.295 268.8 514.05C262.878 516.174 257.313 519.629 252.59 524.419C249.224 527.833 246.539 531.664 244.558 535.769C241.943 541.06 240.497 546.788 240.214 552.566C240.202 552.578 240.202 552.602 240.202 552.626C239.948 557.713 240.578 562.842 242.123 567.728C244.156 574.283 247.802 580.451 253.029 585.606C257.407 589.926 262.48 593.115 267.872 595.179ZM264.168 535.373C275.007 524.376 292.708 524.249 303.717 535.1C314.715 545.939 314.842 563.64 304.003 574.637C293.151 585.647 275.45 585.774 264.453 574.935C253.444 564.083 253.317 546.383 264.168 535.373Z" stroke="white" stroke-width="6" stroke-miterlimit="10"/>
<path d="M193.392 642.737C192.172 632.411 191.153 617.452 192.591 599.461C194.052 581.238 194.919 571.969 201.493 564.383C202.225 563.547 202.978 562.76 203.778 562.041C211.177 555.218 221.273 553.005 229.559 552.492L229.583 552.492C233.539 552.885 237.125 552.798 239.859 552.592C239.883 552.592 239.895 552.604 239.907 552.592C240.024 552.614 240.094 552.616 240.199 552.626C239.945 557.713 240.575 562.842 242.119 567.728C236.972 567.414 227.284 567.776 221.601 574.34C217.938 578.55 217.471 583.712 216.658 593.842C215.852 603.844 216.416 612.152 217.101 617.886C227.679 619.028 236.339 618.438 242.376 617.656C252.527 616.333 257.898 615.57 262.17 611.26C266.941 606.489 267.9 599.843 267.888 595.189C273.28 597.277 278.993 598.22 284.685 598.028C284.738 598.987 284.781 600.027 284.791 601.149C284.728 602.319 284.702 603.592 284.723 604.961C284.714 605.043 284.702 605.127 284.714 605.206C284.258 613.228 281.993 623.3 274.517 630.814C273.541 631.78 272.544 632.653 271.508 633.444C264.241 638.908 254.862 640.25 238.873 642.32C228.029 643.727 212.429 644.789 193.392 642.737Z" stroke="white" stroke-width="6" stroke-miterlimit="10"/>
<path d="M206.245 542.49C205.998 542.248 205.76 541.991 205.528 541.759C198.412 534.163 197.045 524.554 194.744 506.846C193.344 496.019 192.274 480.406 194.312 461.384C204.65 460.176 219.609 459.133 237.6 460.571C255.826 462.029 265.092 462.899 272.69 469.485C272.997 469.763 273.325 470.044 273.618 470.331C287.013 483.002 284.86 505.371 284.119 511.185L284.04 511.547C278.885 511.456 273.711 512.3 268.801 514.055L269.072 512.768C269.482 509.457 270.733 496.529 262.721 489.581C258.499 485.93 253.349 485.45 243.219 484.638C233.229 483.844 224.909 484.419 219.163 485.093C218.033 495.659 218.621 504.34 219.405 510.356C220.716 520.519 221.491 525.877 225.789 530.162C231.596 535.93 240.143 536.115 244.56 535.779C241.944 541.07 240.498 546.798 240.215 552.576C240.122 552.579 240.016 552.588 239.911 552.602C239.899 552.614 239.887 552.602 239.863 552.602C237.197 552.387 233.617 552.25 229.587 552.502L229.563 552.502C221.977 551.754 213.051 549.268 206.245 542.49Z" stroke="white" stroke-width="6" stroke-miterlimit="10"/>
<path d="M301.787 515.625C296.475 513.127 290.759 511.765 285.017 511.561C284.331 503.875 284.333 487.833 295.046 477.059C296.671 475.409 298.39 474.064 300.265 472.918C307.225 468.682 316.264 467.425 330.692 465.555C341.519 464.155 357.132 463.086 376.144 465.133C378.271 483.065 377.83 497.905 376.969 508.409C375.365 527.606 374.418 537.515 367.52 543.899C367.391 544.029 367.278 544.146 367.137 544.264C359.086 551.346 346.202 552.784 336.621 553.533C332.54 553.365 329.069 553.657 326.837 553.919C326.801 553.93 326.777 553.93 326.743 553.921C326.731 553.933 326.707 553.933 326.695 553.921C326.695 553.921 326.683 553.909 326.659 553.909C326.566 549.083 325.655 544.259 323.938 539.689L324.77 539.883C328.081 540.293 340.999 541.554 347.957 533.532C351.608 529.31 352.087 524.16 352.9 514.031C353.694 504.04 353.118 495.721 352.445 489.974C341.879 488.845 333.197 489.432 327.182 490.216C317.019 491.528 311.66 492.302 307.364 496.613C301.485 502.511 301.418 511.291 301.787 515.625Z" stroke="white" stroke-width="6" stroke-miterlimit="10"/>
<path d="M487.333 636.822C479.172 628.311 477.329 616.024 477.218 607.071C477.206 606.987 477.218 606.908 477.228 606.827C477.29 605.494 477.302 604.206 477.295 603.015C477.345 601.857 477.405 600.804 477.494 599.891C482.682 599.713 487.854 598.589 492.716 596.532C492.292 601.037 491.951 612.238 499.211 618.534C503.421 622.197 508.571 622.677 518.712 623.478C528.703 624.295 537.022 623.72 542.757 623.034C543.896 612.459 543.308 603.796 542.515 597.771C541.203 587.608 540.429 582.25 536.13 577.965C529.76 571.614 520.06 572.036 516.18 572.463C518.295 567.141 519.28 561.451 519.17 555.793C519.182 555.805 519.194 555.793 519.206 555.781C519.218 555.793 519.242 555.793 519.254 555.781C519.29 555.793 519.314 555.793 519.348 555.779C521.558 555.822 524.14 555.743 527.005 555.549C527.684 555.498 528.408 555.446 529.132 555.393C537.307 555.719 547.878 557.855 555.672 565.63C556.389 566.337 557.039 567.069 557.662 567.826C563.678 575.194 565.03 584.679 567.188 601.265C568.588 612.116 569.645 627.716 567.607 646.738C557.281 647.959 542.323 648.978 524.332 647.539C506.106 646.081 496.828 645.223 489.242 638.649C488.571 638.064 487.923 637.45 487.333 636.822Z" stroke="white" stroke-width="6" stroke-miterlimit="10"/>
<path d="M517.991 555.954C518.317 555.906 518.715 555.853 519.171 555.796" stroke="white" stroke-width="6" stroke-miterlimit="10"/>
<path d="M492.717 596.532C492.76 596.062 492.806 595.666 492.849 595.36" stroke="white" stroke-width="6" stroke-miterlimit="10"/>
<path d="M515.191 572.578C515.459 572.539 515.797 572.503 516.186 572.465" stroke="white" stroke-width="6" stroke-miterlimit="10"/>
<path d="M460.379 597.043L460.391 597.055C465.783 599.143 471.496 600.085 477.188 599.893C477.293 599.903 477.399 599.893 477.492 599.891C482.68 599.713 487.852 598.589 492.714 596.532C497.818 594.391 502.59 591.221 506.723 587.031C510.959 582.732 514.114 577.764 516.181 572.466C518.296 567.143 519.281 561.454 519.171 555.796C519.183 555.784 519.183 555.784 519.171 555.772C519.077 550.945 518.166 546.122 516.45 541.552C514.328 535.791 510.933 530.425 506.282 525.841C502.69 522.302 498.636 519.514 494.296 517.486C488.984 514.987 483.268 513.626 477.526 513.422C477.197 513.4 476.881 513.391 476.545 513.405C471.391 513.314 466.217 514.158 461.307 515.913C455.385 518.037 449.82 521.492 445.097 526.282C441.731 529.696 439.046 533.527 437.065 537.632C434.45 542.923 433.004 548.651 432.721 554.429C432.709 554.441 432.709 554.465 432.709 554.489C432.455 559.577 433.085 564.705 434.629 569.591C436.662 576.146 440.309 582.315 445.536 587.469C449.914 591.79 454.987 594.978 460.379 597.043ZM456.675 537.236C467.514 526.239 485.215 526.112 496.224 536.963C507.222 547.802 507.349 565.503 496.509 576.501C485.658 587.51 467.957 587.637 456.96 576.798C445.95 565.947 445.823 548.246 456.675 537.236Z" stroke="white" stroke-width="6" stroke-miterlimit="10"/>
<path d="M385.9 644.599C384.68 634.273 383.661 619.315 385.099 601.324C386.559 583.1 387.427 573.831 394.001 566.246C394.733 565.409 395.485 564.622 396.286 563.903C403.685 557.08 413.781 554.867 422.067 554.354L422.091 554.354C426.047 554.747 429.633 554.661 432.366 554.455C432.39 554.455 432.402 554.467 432.414 554.455C432.532 554.476 432.601 554.479 432.707 554.488C432.453 559.576 433.083 564.704 434.627 569.59C429.48 569.276 419.791 569.638 414.109 576.203C410.446 580.413 409.978 585.574 409.166 595.704C408.36 605.706 408.923 614.014 409.609 619.749C420.187 620.89 428.847 620.3 434.884 619.519C445.035 618.195 450.405 617.433 454.678 613.122C459.449 608.351 460.408 601.705 460.396 597.051C465.788 599.14 471.501 600.082 477.193 599.89C477.246 600.849 477.289 601.89 477.298 603.012C477.236 604.182 477.21 605.455 477.231 606.824C477.222 606.905 477.21 606.989 477.222 607.068C476.766 615.09 474.5 625.162 467.025 632.676C466.049 633.642 465.052 634.515 464.016 635.306C456.749 640.77 447.37 642.113 431.381 644.182C420.537 645.589 404.936 646.651 385.9 644.599Z" stroke="white" stroke-width="6" stroke-miterlimit="10"/>
<path d="M398.751 544.352C398.504 544.11 398.266 543.853 398.034 543.621C390.918 536.025 389.551 526.416 387.25 508.708C385.85 497.881 384.78 482.268 386.818 463.246C397.156 462.038 412.114 460.995 430.105 462.433C448.331 463.891 457.598 464.762 465.196 471.347C465.502 471.626 465.831 471.906 466.123 472.194C479.518 484.865 477.365 507.234 476.625 513.048L476.545 513.41C471.391 513.319 466.217 514.162 461.307 515.917L461.578 514.63C461.988 511.319 463.239 498.392 455.227 491.444C451.005 487.792 445.855 487.313 435.725 486.5C425.735 485.706 417.415 486.282 411.668 486.955C410.539 497.521 411.127 506.203 411.911 512.218C413.222 522.381 413.996 527.74 418.295 532.024C424.102 537.792 432.649 537.977 437.065 537.641C434.45 542.933 433.004 548.66 432.721 554.438C432.628 554.441 432.522 554.45 432.417 554.465C432.405 554.477 432.393 554.465 432.369 554.465C429.703 554.249 426.123 554.112 422.093 554.364L422.069 554.364C414.483 553.616 405.557 551.13 398.751 544.352Z" stroke="white" stroke-width="6" stroke-miterlimit="10"/>
<path d="M494.295 517.488C488.982 514.989 483.267 513.628 477.525 513.424C476.839 505.737 476.841 489.696 487.553 478.921C489.179 477.272 490.898 475.927 492.773 474.781C499.733 470.544 508.771 469.288 523.2 467.418C534.027 466.018 549.64 464.948 568.652 466.996C570.779 484.927 570.337 499.768 569.477 510.271C567.873 529.468 566.926 539.377 560.028 545.762C559.899 545.891 559.786 546.009 559.645 546.126C551.594 553.208 538.709 554.647 529.129 555.395C525.048 555.227 521.577 555.519 519.345 555.781C519.309 555.793 519.285 555.793 519.251 555.783C519.239 555.795 519.215 555.795 519.203 555.783C519.203 555.783 519.191 555.771 519.167 555.771C519.074 550.945 518.163 546.121 516.446 541.552L517.278 541.746C520.589 542.156 533.507 543.417 540.464 535.395C544.116 531.173 544.595 526.023 545.408 515.893C546.202 505.903 545.626 497.583 544.953 491.836C534.387 490.707 525.705 491.295 519.69 492.079C509.527 493.39 504.168 494.164 499.872 498.475C493.993 504.373 493.926 513.153 494.295 517.488Z" stroke="white" stroke-width="6" stroke-miterlimit="10"/>
</g>
<defs>
<filter id="filter0_i_1098_12272" x="-3.28809" y="84.5312" width="576.478" height="570.712" filterUnits="userSpaceOnUse" color-interpolation-filters="sRGB">
<feFlood flood-opacity="0" result="BackgroundImageFix"/>
<feBlend mode="normal" in="SourceGraphic" in2="BackgroundImageFix" result="shape"/>
<feColorMatrix in="SourceAlpha" type="matrix" values="0 0 0 0 0 0 0 0 0 0 0 0 0 0 0 0 0 0 127 0" result="hardAlpha"/>
<feOffset dy="4"/>
<feGaussianBlur stdDeviation="2"/>
<feComposite in2="hardAlpha" operator="arithmetic" k2="-1" k3="1"/>
<feColorMatrix type="matrix" values="0 0 0 0 0 0 0 0 0 0 0 0 0 0 0 0 0 0 0.5 0"/>
<feBlend mode="normal" in2="shape" result="effect1_innerShadow_1098_12272"/>
</filter>
</defs>
</svg>
