<svg width="641" height="134" viewBox="0 0 641 134" fill="none" xmlns="http://www.w3.org/2000/svg">
<g clip-path="url(#clip0_1098_10743)">
<path d="M206.66 82.9541C213.161 81.4128 217.779 78.6008 220.544 76.4888C220.861 76.8418 217.514 84.2895 218.173 93.0549C218.238 93.8903 218.102 94.7315 218.102 95.5434V95.6139C218.102 100.726 214.584 105.168 209.608 106.321C201.654 108.162 194.301 106.144 194.301 106.144C193.942 104.621 193.695 103.15 193.536 101.744C192.553 93.0902 198.189 84.966 206.666 82.9541H206.66Z" fill="#FCC61A"/>
<path d="M196.312 54.7105C201.701 55.3164 206.084 52.5868 208.99 49.916C209.202 50.6984 209.313 51.5161 209.313 52.3515C209.313 56.04 206.996 60.4521 201.913 61.4228C190.535 63.5995 177.158 55.5694 173.846 44.5744C171.993 38.4209 168.175 35.909 165.298 34.8795C162.233 33.7853 158.874 33.8735 155.692 34.5265C154.415 34.7912 153.074 34.7147 151.897 34.1618C150.874 33.6794 150.038 33.0087 149.479 32.0557C145.985 26.1023 147.403 14.4719 147.403 14.4719C148.915 19.8606 155.062 23.3609 164.516 16.7427C173.969 10.1245 183.894 20.2371 183.894 20.2371C184.747 12.96 175.67 10.5951 175.67 10.5951C175.67 10.5951 189.771 11.5658 195.406 19.5194C195.195 20.6548 195.083 21.8254 195.083 23.0197C195.083 26.2788 195.883 29.4025 197.465 32.3322C196.059 38.0209 191.741 39.9034 191.741 39.9034C189.818 29.126 179.546 33.2852 180.682 39.8446C181.817 46.3981 186.229 53.581 196.312 54.7164V54.7105Z" fill="#FCC61A"/>
<path d="M142.737 39.9857C140.931 35.0912 136.06 25.6963 125.718 27.4847C110.546 30.1025 117.27 53.4515 131.707 41.98C131.707 41.98 133.036 43.8566 132.831 46.8274C132.701 48.7805 131.901 51.216 129.624 53.8927C128.713 54.9634 127.454 55.7341 125.971 56.2164C118.135 58.7519 104.105 53.1103 102.681 40.4681C101.075 26.1904 109.958 18.1545 123.859 14.8425C137.749 11.5363 131.901 -1.22357 125.283 2.45321C125.471 2.23554 130.013 -2.72958 136.184 2.112C139.643 4.82987 141.949 9.91264 143.32 13.9424C143.32 13.9483 143.32 13.96 143.32 13.9659C143.308 14.0718 143.008 16.5897 143.008 19.9076C143.008 26.0375 143.99 30.8261 145.932 34.1323C146.573 35.2265 147.432 36.1618 148.496 36.9149C145.902 38.0679 143.831 39.2915 142.743 39.9857H142.737Z" fill="#FCC61A"/>
<path d="M99.9456 46.4153C88.4447 59.4516 72.52 49.1626 72.52 49.1626C81.9736 51.0568 84.8739 43.868 84.8739 43.868C71.6375 49.792 63.1898 39.6441 63.1898 39.6441C70.0021 38.197 70.1256 33.5319 70.1256 33.5319C64.5782 38.4499 56.5128 38.0734 39.4938 29.3727C22.4749 20.672 12.2976 28.9315 12.2976 28.9315C14.5625 45.0034 -5.00375 39.05 2.46154 28.6491C9.93271 18.2483 38.482 17.207 52.3831 17.207C66.2842 17.207 74.2201 19.0013 74.2201 19.0013L66.09 13.142C77.6851 8.96514 87.0858 13.1008 92.145 16.4069C95.5982 18.66 97.6866 22.5898 97.3807 26.7019C96.7277 35.4791 86.2328 34.9967 84.3856 31.5788C82.1854 27.5196 85.5857 24.1782 85.7504 24.0193C77.438 28.402 78.8616 37.4145 85.8504 39.3323C91.7097 40.9384 95.6335 38.9558 98.6867 33.0142C98.4808 34.3731 98.3749 35.7791 98.3749 37.2322C98.3749 38.4323 98.4455 39.6735 98.5867 40.9266C98.8044 42.8385 99.2632 44.6798 99.9456 46.4153Z" fill="#FCC61A"/>
<path d="M418.994 93.2843C418.971 92.8314 418.935 92.3843 418.894 91.9431C417.588 105.585 408.782 110.433 408.782 110.433C408.782 110.433 403.646 100.973 403.487 100.597C403.74 100.973 403.746 119.357 383.821 125.558C369.072 130.146 352.654 118.975 350.206 105.032C347.194 121.922 366.643 137.959 383.821 132.617C403.746 126.416 403.74 108.033 403.487 107.656C403.646 108.033 408.782 117.492 408.782 117.492C408.782 117.492 420 111.315 418.994 93.2843Z" fill="#FFF7D9"/>
<path d="M336.688 78.207C335.329 99.8441 321.557 109.004 320.657 109.58C320.663 109.592 320.663 109.598 320.663 109.604C320.657 109.604 320.651 109.598 320.64 109.592C320.628 109.592 320.622 109.604 320.616 109.604C320.616 109.598 320.616 109.592 320.616 109.58C319.716 109.004 305.944 99.8499 304.591 78.2129C302.979 104.939 319.622 116.004 320.616 116.64C320.616 116.651 320.616 116.657 320.616 116.663C320.616 116.663 320.628 116.657 320.64 116.651C320.651 116.651 320.657 116.663 320.663 116.663C320.663 116.657 320.663 116.651 320.657 116.64C321.651 116.004 338.294 104.933 336.688 78.207Z" fill="#FFF7D9"/>
<path d="M291.072 105.032C288.625 118.975 272.206 130.146 257.458 125.558C237.533 119.357 237.539 100.973 237.792 100.597C237.633 100.973 232.497 110.433 232.497 110.433C232.497 110.433 223.691 105.585 222.385 91.9431C222.343 92.3843 222.308 92.8314 222.285 93.2843C221.279 111.315 232.497 117.492 232.497 117.492C232.497 117.492 237.633 108.033 237.792 107.656C237.539 108.033 237.533 126.416 257.458 132.617C274.636 137.959 294.084 121.922 291.072 105.032Z" fill="#FFF7D9"/>
<path d="M416.935 73.1883L417.671 73.7472C417.671 73.7472 417.471 70.4234 416.312 65.6524C414.97 60.1167 412.347 52.6396 407.27 46.139C397.816 34.0381 376.073 32.5262 376.073 32.5262L381.662 32.3379H381.674L391.133 32.0202C389.698 30.0965 387.227 28.267 384.003 26.7021C382.991 26.208 381.903 25.7432 380.75 25.3079C366.643 20.0016 342.788 19.3839 325.616 32.9027C324.934 33.4321 324.263 33.991 323.604 34.5734C322.593 35.4676 321.604 36.4147 320.651 37.4148C319.692 36.403 318.716 35.4617 317.698 34.5675C317.039 33.9851 316.369 33.4262 315.686 32.8968C298.514 19.3839 274.653 20.0016 260.547 25.3079C259.388 25.7491 258.299 26.2139 257.282 26.708C254.064 28.267 251.593 30.0965 250.157 32.0202L265.223 32.5262C265.223 32.5262 243.475 34.0381 234.021 46.139C228.944 52.6396 226.32 60.1167 224.979 65.6524C223.82 70.4234 223.62 73.7472 223.62 73.7472L225.356 72.4236L234.703 65.2994C233.762 66.1583 223.808 75.5768 222.396 91.9428C223.702 105.585 232.509 110.433 232.509 110.433C232.509 110.433 237.645 100.973 237.804 100.596C237.551 100.973 237.545 119.357 257.47 125.557C272.218 130.146 288.637 118.974 291.084 105.032C290.114 99.614 286.831 94.1018 280.413 89.1896C280.413 89.1896 280.413 89.1955 280.413 89.2073C280.519 89.6544 282.954 100.061 272.777 101.261C264.176 102.279 255.717 93.6018 257.793 81.7479V81.7361C256.982 77.4299 257.646 72.3177 260.582 66.876C268.235 52.6808 291.761 44.8154 306.515 58.6813C306.015 60.752 305.621 62.7522 305.315 64.6817C305.721 65.0171 306.121 65.37 306.515 65.7407C305.438 70.2293 304.832 74.3825 304.603 78.2123C305.956 99.8493 319.728 109.003 320.628 109.58C320.628 109.591 320.628 109.597 320.628 109.603C320.628 109.603 320.639 109.597 320.651 109.591C320.663 109.591 320.669 109.603 320.675 109.603C320.675 109.597 320.675 109.591 320.669 109.58C321.569 109.003 335.341 99.8435 336.7 78.2064C336.47 74.3825 335.864 70.2293 334.788 65.7407C335.182 65.37 335.582 65.0171 335.988 64.6817C335.682 62.7522 335.288 60.752 334.788 58.6813C349.542 44.8154 373.061 52.6808 380.715 66.876C383.65 72.3177 384.315 77.4299 383.503 81.7361C385.586 93.5959 377.12 102.279 368.52 101.261C358.119 100.032 360.89 89.1896 360.89 89.1896C354.472 94.1018 351.189 99.614 350.218 105.032C352.665 118.974 369.084 130.146 383.833 125.557C403.758 119.357 403.752 100.973 403.499 100.596C403.658 100.973 408.793 110.433 408.793 110.433C408.793 110.433 417.6 105.585 418.906 91.9428C417.5 75.5768 407.546 66.1583 406.605 65.2994L415.953 72.4294L416.947 73.1883H416.935Z" fill="#FCC61A"/>
<path d="M447.638 97.0788C447.638 97.0788 447.638 97.1023 447.638 97.1141C447.344 99.3319 445.549 101.044 443.331 101.32C440.437 101.679 436.154 101.867 431.678 100.832C426.901 99.726 423.459 95.5787 423.2 90.7253C423.2 91.4901 423.171 92.2666 423.112 93.0549C423.048 93.8903 423.183 94.7315 423.183 95.5434V95.6139C423.183 100.726 426.701 105.168 431.678 106.321C439.631 108.162 446.985 106.144 446.985 106.144C447.344 104.621 447.591 103.15 447.749 101.744C447.932 100.155 447.885 98.5907 447.644 97.0788H447.638Z" fill="#FFF7D9"/>
<path d="M193.635 97.0788C193.635 97.0788 193.635 97.1023 193.635 97.1141C193.929 99.3319 195.723 101.044 197.941 101.32C200.835 101.679 205.118 101.867 209.595 100.832C214.372 99.726 217.813 95.5787 218.072 90.7253C218.072 91.4901 218.102 92.2666 218.16 93.0549C218.225 93.8903 218.09 94.7315 218.09 95.5434V95.6139C218.09 100.726 214.572 105.168 209.595 106.321C201.641 108.162 194.288 106.144 194.288 106.144C193.929 104.621 193.682 103.15 193.523 101.744C193.341 100.155 193.388 98.5907 193.629 97.0788H193.635Z" fill="#FFF7D9"/>
<path d="M447.637 97.0789C446.566 90.3195 441.543 84.5955 434.618 82.9542C429.277 81.6894 425.2 79.5598 422.388 77.6714C421.776 77.2596 421.229 76.8654 420.735 76.4889C420.594 76.6478 421.182 78.2185 421.823 80.701C422.2 81.054 422.612 81.4187 423.065 81.8011C425.559 83.8895 429.212 86.3015 434.107 87.9193C439.754 89.7841 443.778 94.8434 444.972 100.814C446.384 100.109 447.414 98.7496 447.631 97.1141V97.0789H447.637Z" fill="#917006"/>
<path d="M193.636 97.0789C194.706 90.3195 199.73 84.5955 206.654 82.9542C211.996 81.6894 216.073 79.5598 218.885 77.6714C219.497 77.2596 220.044 76.8654 220.538 76.4889C220.679 76.6478 220.091 78.2185 219.45 80.701C219.073 81.054 218.661 81.4187 218.208 81.8011C215.714 83.8895 212.061 86.3015 207.166 87.9193C201.519 89.7841 197.495 94.8434 196.301 100.814C194.889 100.109 193.859 98.7496 193.642 97.1141V97.0789H193.636Z" fill="#917006"/>
<path d="M444.973 100.814C443.779 94.8431 439.755 89.7838 434.108 87.919C429.213 86.3012 425.56 83.8892 423.065 81.8008C422.613 81.4184 422.201 81.0537 421.824 80.7066C422.33 82.6715 422.865 85.207 423.089 88.0484C423.154 88.9073 423.195 89.7956 423.195 90.7074V90.7251C423.454 95.5784 426.895 99.7258 431.672 100.832C436.149 101.867 440.432 101.685 443.326 101.32C443.914 101.244 444.467 101.073 444.973 100.814Z" fill="#FCC61A"/>
<path d="M503.077 50.298C492.835 43.9445 481.987 50.5098 481.534 50.7921L481.516 50.8039C481.516 50.8039 484.387 41.3796 496.777 43.8327C496.835 43.8445 496.9 43.8563 496.959 43.868L496.924 43.8386C496.924 43.8386 496.888 43.821 496.865 43.8033C495.329 42.7974 475.975 30.4728 471.369 45.7623C467.486 58.6693 452.255 68.0818 438.59 65.4698C427.701 63.3873 424.124 49.7038 432.371 42.2914C432.413 42.2561 432.46 42.215 432.501 42.1738C432.219 42.2503 425.789 43.9563 421.841 37.0204C421.841 37.0087 421.841 37.0028 421.841 37.0028L421.865 37.0145C421.982 37.0675 422.435 37.2675 423.141 37.4969C426.112 38.45 433.542 39.8501 438.913 32.3965C444.067 25.2547 442.096 17.7953 438.896 13.342C438.896 13.3361 438.896 13.3302 438.884 13.3244C437.825 11.8537 436.631 10.7183 435.519 10.03C435.66 10.3241 439.743 18.7954 432.989 23.0075C426.118 27.2902 416.288 20.5485 416.288 20.5485L405.216 24.0723L405.193 24.0782L410.682 20.1779L416.541 16.0128C416.541 16.0128 394.68 6.11788 378.556 13.9715H378.544C378.544 13.9715 380.232 8.5122 387.515 7.75331C387.515 7.75331 363.707 4.38834 353.995 13.1596C353.542 13.5597 353.118 13.995 352.73 14.4597H352.724C352.724 14.4597 351.965 8.99459 358.66 5.58254C357.995 5.68256 336.505 9.15931 320.645 26.6431C320.627 26.6196 320.604 26.6019 320.586 26.5784C304.732 9.15343 283.295 5.68256 282.63 5.58254C289.325 8.99459 288.566 14.4656 288.566 14.4656C279.871 4.06478 253.775 7.75331 253.775 7.75331C261.058 8.5122 262.746 13.9774 262.746 13.9774C246.622 6.11789 224.749 16.0128 224.749 16.0128L236.097 24.0782L225.002 20.5485C225.002 20.5485 215.172 27.2902 208.301 23.0075C201.548 18.7954 205.63 10.3241 205.771 10.03C201.295 12.8008 195.512 22.884 202.377 32.3965C209.131 41.762 219.131 37.1498 219.449 37.0028C215.507 43.9622 209.066 42.2503 208.783 42.1738C208.825 42.215 208.872 42.2561 208.919 42.2914C217.161 49.7038 213.584 63.3873 202.695 65.4698C189.029 68.0818 173.804 58.6693 169.916 45.7623C165.121 29.8375 144.325 43.868 144.325 43.868C156.868 41.2855 159.768 50.8039 159.768 50.8039C159.768 50.8039 148.673 43.8033 138.207 50.298C127.748 56.7867 133.542 67.4406 133.542 67.4406C139.531 55.5867 150.691 63.0284 157.244 69.4584C163.798 75.8883 176.534 73.4646 176.534 73.4646C172.657 77.8002 166.027 76.5531 165.704 76.4942C181.452 85.6597 198.188 83.0124 214.066 74.2176C216.231 73.0234 218.167 71.6409 219.89 70.1526C220.584 65.5051 222.496 56.7338 227.514 48.3566C228.479 46.7506 229.556 45.1505 230.768 43.6033C234.738 38.5205 240.474 35.1203 246.116 32.8495C246.063 32.5789 246.033 32.2965 246.033 32.02C246.033 31.1494 246.31 30.2846 246.851 29.561C253.416 20.7426 273.359 15.7422 291.302 18.413C301.679 19.9602 310.738 23.7723 318.133 29.5904C318.992 30.2669 319.833 30.967 320.645 31.7023C321.457 30.967 322.298 30.2669 323.157 29.5904C330.552 23.7723 339.611 19.9602 349.989 18.413C367.931 15.7422 387.874 20.7426 394.439 29.561C394.98 30.2846 395.257 31.1494 395.257 32.02C395.257 32.2965 395.227 32.5789 395.174 32.8495C400.816 35.1203 406.552 38.5205 410.523 43.6033C411.74 45.1505 412.811 46.7506 413.776 48.3566C418.8 56.7338 420.706 65.5051 421.4 70.1526C423.124 71.6409 425.059 73.0234 427.224 74.2176C443.102 83.0124 459.838 85.6597 475.587 76.4942C475.351 76.5354 471.839 77.1943 468.445 75.9354C467.133 75.4471 465.839 74.6706 464.756 73.4646H464.786C465.439 73.5881 477.669 75.7177 484.046 69.4584C490.6 63.0284 501.759 55.5867 507.748 67.4406C507.748 67.4406 508.166 66.6699 508.577 65.4228C509.689 62.0166 510.736 55.0454 503.083 50.298H503.077Z" fill="#FCC61A"/>
<path d="M493.882 14.5716C493.882 14.5363 493.882 14.501 493.871 14.4657C492.359 19.8544 486.211 23.3547 476.758 16.7365C467.751 10.4301 458.315 19.3132 457.444 20.1662L457.38 20.2309C457.144 18.2249 457.668 16.5894 458.539 15.2776C460.715 12.0126 465.092 10.7243 465.557 10.5948C464.727 10.6537 451.32 11.8067 445.861 19.5132C446.073 20.6486 446.185 21.8193 446.185 23.0135C446.185 24.1136 446.091 25.2019 445.908 26.2726V26.2844C445.908 26.2844 445.896 26.3373 445.89 26.3667C445.708 27.4139 445.438 28.4434 445.079 29.4493C444.737 30.4318 444.308 31.3907 443.802 32.326C445.208 38.0147 449.526 39.8972 449.526 39.8972C451.05 31.3495 457.827 32.1966 459.997 36.1852C459.997 36.1852 460.015 36.2146 460.045 36.2675C460.045 36.2793 460.056 36.2911 460.068 36.3087C460.086 36.344 460.103 36.3852 460.115 36.4205C460.48 37.1617 460.686 38.003 460.668 38.9089C460.668 39.2148 460.639 39.5207 460.586 39.8384C459.45 46.3919 455.038 53.5748 444.955 54.7102C439.566 55.3162 435.184 52.5865 432.278 49.9157C432.066 50.6981 431.954 51.5158 431.954 52.3512C431.954 56.0398 434.272 60.4519 439.355 61.4225C450.038 63.4639 462.48 56.5104 466.704 46.5566C466.98 45.9036 467.222 45.2447 467.422 44.5741C469.275 38.4207 473.093 35.9087 475.969 34.8792C479.034 33.785 482.393 33.8732 485.576 34.5262C486.853 34.7851 488.194 34.7145 489.37 34.1556C490.394 33.6732 491.229 33.0026 491.788 32.0495C492.953 30.067 493.571 27.455 493.877 24.8548V24.8431C494.441 20.0721 493.959 15.3305 493.877 14.5716H493.882Z" fill="#FCC61A"/>
<path d="M538.239 32.1615C536.174 22.9725 528.344 17.4486 517.414 14.8425C511.113 13.3423 508.872 9.90087 508.925 6.92415C508.984 3.74742 511.648 1.11191 514.772 1.95316C514.878 1.98257 514.978 2.01787 515.072 2.04729C515.249 2.10611 515.419 2.17083 515.596 2.25907C515.678 2.28848 515.761 2.32966 515.843 2.37672C515.937 2.42379 515.99 2.45321 515.99 2.45321C515.802 2.23554 511.26 -2.72958 505.089 2.112C501.63 4.82987 499.324 9.91264 497.953 13.9424C497.953 13.9483 497.953 13.96 497.953 13.9659C497.965 14.0718 498.265 16.5897 498.265 19.9076V20.1841C498.242 24.808 497.653 28.6612 496.5 31.6733C496.165 32.5674 495.777 33.3852 495.341 34.1323C494.7 35.2265 493.841 36.1618 492.776 36.9149C495.371 38.0679 497.441 39.2915 498.53 39.9857C500.336 35.0912 505.207 25.6963 515.549 27.4847C524.232 28.9848 525.744 37.2737 522.738 41.9388C522.655 42.0682 522.567 42.1918 522.479 42.3153C520.137 45.5214 515.502 46.7039 509.56 41.98C509.56 41.98 509.56 41.9859 509.548 42.0035C509.395 42.2212 508.242 44.0449 508.436 46.8274C508.566 48.7805 509.366 51.216 511.643 53.8927C512.554 54.9634 513.813 55.7341 515.296 56.2164C523.132 58.7519 537.162 53.1103 538.586 40.4681C538.927 37.4208 538.792 34.6559 538.233 32.1615H538.239Z" fill="#FCC61A"/>
<path d="M640.511 33.4911C640.57 32.0616 640.082 30.4203 638.811 28.6496C631.34 18.2487 602.791 17.2074 588.89 17.2074C574.989 17.2074 567.053 19.0017 567.053 19.0017L575.183 13.1424C563.588 8.9656 554.187 13.1012 549.128 16.4074C547.198 17.6663 545.692 19.4547 544.792 21.5019C544.792 21.5078 544.792 21.5137 544.792 21.5196C544.092 23.1256 543.763 24.8963 543.898 26.7023C544.545 35.4795 555.046 34.9971 556.893 31.5792C558.652 28.3319 556.828 25.5493 555.952 24.4786C555.728 24.208 555.569 24.0492 555.534 24.0198C558.034 25.3375 559.658 27.0788 560.505 28.9143C560.505 28.9261 560.517 28.9378 560.523 28.9496C562.476 33.2088 560.305 37.9974 555.434 39.3328C549.569 40.9388 545.651 38.9504 542.598 33.0146C542.704 33.7265 542.786 34.45 542.833 35.1913C542.845 35.3384 542.857 35.4913 542.863 35.6443C542.863 35.656 542.863 35.6619 542.863 35.6737C542.892 36.1855 542.904 36.7032 542.904 37.2326C542.904 38.4327 542.833 39.674 542.692 40.927C542.474 42.839 542.015 44.6803 541.333 46.4157C552.652 59.2403 568.247 49.4866 568.747 49.1689C568.753 49.163 568.759 49.163 568.759 49.163L568.67 49.1807C559.287 51.0102 556.405 43.8685 556.405 43.8685C569.641 49.7925 578.089 39.6446 578.089 39.6446C575.447 39.0857 573.812 38.0386 572.8 36.9679C571.2 35.2795 571.153 33.5323 571.153 33.5323C576.7 38.4504 584.766 38.0739 601.785 29.3732C618.804 20.6724 628.981 28.9319 628.981 28.9319C627.104 42.2683 640.253 40.4388 640.517 33.4911H640.511Z" fill="#FCC61A"/>
<path d="M380.703 66.8763C373.05 52.681 349.53 44.8156 334.776 58.6815C332.699 60.4758 334.47 63.8113 334.776 65.7409C349.571 53.3575 373.256 60.1169 380.703 73.9357C382.162 76.6359 383.062 79.2538 383.492 81.7363C384.303 77.4301 383.639 72.3179 380.703 66.8763Z" fill="#FFF7D9"/>
<path d="M260.541 66.8763C268.194 52.681 291.714 44.8156 306.468 58.6815C308.545 60.4758 306.774 63.8113 306.468 65.7409C291.673 53.3575 267.989 60.1169 260.541 73.9357C259.082 76.6359 258.182 79.2538 257.752 81.7363C256.941 77.4301 257.605 72.3179 260.541 66.8763Z" fill="#FFF7D9"/>
<path d="M280.407 89.2072C280.513 89.6542 282.948 100.061 272.771 101.261C264.171 102.279 255.711 93.6016 257.788 81.7477L257.752 81.736C252.423 98.0608 266.547 113.909 276.942 108.162C287.119 102.526 280.684 89.7366 280.407 89.2072Z" fill="#917006"/>
<path d="M360.878 89.2072C360.772 89.6542 358.337 100.061 368.514 101.261C377.115 102.279 385.574 93.6016 383.498 81.7477L383.533 81.736C388.863 98.0608 374.738 113.909 364.343 108.162C354.166 102.526 360.602 89.7366 360.878 89.2072Z" fill="#917006"/>
<path d="M417.671 73.7471C417.671 73.7471 417.471 70.4233 416.312 65.6523C414.97 60.1165 412.347 52.6395 407.27 46.1389C397.816 34.0379 376.073 32.526 376.073 32.526C408.599 39.5148 410.417 63.2344 410.417 63.2344L416.935 73.1882L417.671 73.7471Z" fill="#917006"/>
<path d="M223.608 73.7471C223.608 73.7471 223.808 70.4233 224.967 65.6523C226.309 60.1165 228.932 52.6395 234.009 46.1389C243.463 34.0379 265.206 32.526 265.206 32.526C232.68 39.5148 230.862 63.2344 230.862 63.2344L224.344 73.1882L223.608 73.7471Z" fill="#917006"/>
<path d="M417.664 73.7294V73.7529L406.581 65.3052L396.492 57.7928C403.034 58.2399 408.205 60.9166 411.699 63.4285C415.07 65.8523 417.235 69.6055 417.664 73.7353V73.7294Z" fill="#FFF7D9"/>
<path d="M223.608 73.7294V73.7529L234.692 65.3052L244.781 57.7928C238.239 58.2399 233.068 60.9166 229.574 63.4285C226.203 65.8523 224.038 69.6055 223.608 73.7353V73.7294Z" fill="#FFF7D9"/>
<path d="M391.133 32.0205C389.698 30.0968 387.227 28.2672 384.003 26.7024C382.992 26.2083 381.903 25.7435 380.75 25.3082C366.643 20.0019 342.788 19.3842 325.616 32.9029C324.934 33.4324 324.263 33.9912 323.605 34.5736C322.593 35.4678 321.604 36.415 320.651 37.4151V47.9395C330.64 33.8206 345.63 24.4905 371.144 26.9142C384.109 28.1437 381.674 32.3382 381.674 32.3382H381.686L391.145 32.0205H391.133Z" fill="#917006"/>
<path d="M250.14 32.0205C251.575 30.0968 254.046 28.2672 257.27 26.7024C258.282 26.2083 259.37 25.7435 260.523 25.3082C274.63 20.0019 298.485 19.3842 315.657 32.9029C316.339 33.4324 317.01 33.9912 317.669 34.5736C318.68 35.4678 319.669 36.415 320.622 37.4151V47.9395C310.633 33.8206 295.643 24.4905 270.129 26.9142C257.164 28.1437 259.599 32.3382 259.599 32.3382H259.588L250.128 32.0205H250.14Z" fill="#917006"/>
<path d="M501.924 57.7106C496.695 55.6516 490.465 57.6988 484.105 65.5406C477.74 73.3883 464.751 73.4648 464.751 73.4648H464.78C465.433 73.5883 477.664 75.7179 484.041 69.4586C490.594 63.0286 501.754 55.5869 507.743 67.4408C507.743 67.4408 508.025 60.1108 501.924 57.7106Z" fill="#FFF7D9"/>
<path d="M139.354 57.7106C144.584 55.6516 150.814 57.6988 157.173 65.5406C163.539 73.3883 176.528 73.4648 176.528 73.4648H176.498C175.845 73.5883 163.615 75.7179 157.238 69.4586C150.685 63.0286 139.525 55.5869 133.536 67.4408C133.536 67.4408 133.254 60.1108 139.354 57.7106Z" fill="#FFF7D9"/>
<path d="M475.581 76.4942C475.346 76.5354 471.834 77.1943 468.439 75.9354C468.016 76.0825 453.232 82.3241 434.743 73.5999C429.319 71.0409 425.36 66.1699 423.712 60.4047C421 50.9333 414.182 35.2262 398.046 29.1962C398.046 29.1962 390.08 16.2305 362.437 15.601C339.606 15.0774 327.734 23.7076 320.64 29.1139V31.7023C321.451 30.967 322.293 30.2669 323.152 29.5904C330.546 23.7723 339.606 19.9602 349.983 18.413C367.926 15.7422 387.868 20.7426 394.434 29.561C394.975 30.2846 395.251 31.1493 395.251 32.02C395.251 32.2965 395.222 32.5789 395.169 32.8495C400.811 35.1203 406.546 38.5205 410.517 43.6033C411.735 45.1505 412.806 46.7506 413.77 48.3566C418.794 56.7338 420.7 65.5051 421.395 70.1526C423.118 71.6409 425.054 73.0234 427.219 74.2176C443.096 83.0124 459.833 85.6597 475.581 76.4942Z" fill="#FFF7D9"/>
<path d="M139.348 57.7106C144.578 55.6516 150.808 57.6988 157.167 65.5406C163.533 73.3883 176.522 73.4648 176.522 73.4648H176.493C175.84 73.5883 163.609 75.7179 157.232 69.4586C150.679 63.0286 139.519 55.5869 133.53 67.4408C133.53 67.4408 133.248 60.1108 139.348 57.7106Z" fill="#FFF7D9"/>
<path d="M165.692 76.4942C165.928 76.5354 169.44 77.1943 172.834 75.9354C173.258 76.0825 188.041 82.3241 206.531 73.5999C211.955 71.0409 215.914 66.1699 217.561 60.4047C220.273 50.9333 227.091 35.2262 243.228 29.1962C243.228 29.1962 251.193 16.2305 278.837 15.601C301.668 15.0774 313.539 23.7076 320.634 29.1139V31.7023C319.822 30.967 318.981 30.2669 318.122 29.5904C310.727 23.7723 301.668 19.9602 291.29 18.413C273.348 15.7422 253.405 20.7426 246.84 29.561C246.299 30.2846 246.022 31.1493 246.022 32.02C246.022 32.2965 246.052 32.5789 246.105 32.8495C240.463 35.1203 234.727 38.5205 230.756 43.6033C229.539 45.1505 228.468 46.7506 227.503 48.3566C222.479 56.7338 220.573 65.5051 219.879 70.1526C218.155 71.6409 216.22 73.0234 214.055 74.2176C198.177 83.0124 181.441 85.6597 165.692 76.4942Z" fill="#FFF7D9"/>
<path d="M358.655 5.58323C357.99 5.68323 336.5 9.15999 320.64 26.6438C320.622 26.6203 320.599 26.6026 320.581 26.5791L320.64 27.5674C320.64 27.5674 329.058 16.9018 347.948 12.3956C347.948 12.3956 347.442 15.2252 352.719 14.4663C352.719 14.4663 351.96 8.99527 358.655 5.58323Z" fill="#917006"/>
<path d="M282.566 5.58323C283.231 5.68323 304.721 9.15999 320.581 26.6438C320.599 26.6203 320.622 26.6026 320.64 26.5791L320.581 27.5674C320.581 27.5674 312.163 16.9018 293.273 12.3956C293.273 12.3956 293.779 15.2252 288.502 14.4663C288.502 14.4663 289.261 8.99527 282.566 5.58323Z" fill="#917006"/>
<path d="M387.51 7.75378C387.51 7.75378 363.702 4.3888 353.989 13.1601L352.725 14.4602C353.036 14.319 364.796 8.89505 374.662 10.8305C374.662 10.8305 372.609 16.4074 378.538 13.9778C378.538 13.9778 380.227 8.51267 387.51 7.75378Z" fill="#917006"/>
<path d="M253.77 7.75378C253.77 7.75378 277.577 4.3888 287.29 13.1601L288.555 14.4602C288.243 14.319 276.483 8.89505 266.618 10.8305C266.618 10.8305 268.671 16.4074 262.741 13.9778C262.741 13.9778 261.052 8.51267 253.77 7.75378Z" fill="#917006"/>
<path d="M416.535 16.0127C416.535 16.0127 394.675 6.11775 378.55 13.9713C379.097 13.8478 398.222 9.58863 410.676 20.1777L416.535 16.0127Z" fill="#917006"/>
<path d="M438.878 13.3302C437.819 11.8536 436.625 10.7182 435.513 10.0299C435.654 10.324 439.737 18.7953 432.984 23.0074C426.113 27.2901 416.282 20.5484 416.282 20.5484L405.211 24.0722C405.658 24.0252 409.547 23.9899 420.289 28.2843C431.031 32.5788 445.338 27.1842 438.878 13.3302Z" fill="#917006"/>
<path d="M438.89 13.3416C443.084 21.4541 438.131 32.5256 429.224 34.5846C420.318 36.6435 414.858 31.7255 414.858 31.7255C418.347 35.6023 421.835 37.0024 421.835 37.0024L421.859 37.0142C422.465 37.2907 432.26 41.6145 438.907 32.3961C444.061 25.2544 442.09 17.7949 438.89 13.3416Z" fill="#FFF7D9"/>
<path d="M224.661 16.0127C224.661 16.0127 246.522 6.11775 262.646 13.9713C262.099 13.8478 242.974 9.58863 230.52 20.1777L224.661 16.0127Z" fill="#917006"/>
<path d="M202.319 13.3302C203.378 11.8536 204.572 10.7182 205.684 10.0299C205.543 10.324 201.46 18.7953 208.213 23.0074C215.085 27.2901 224.915 20.5484 224.915 20.5484L235.986 24.0722C235.539 24.0252 231.651 23.9899 220.909 28.2843C210.167 32.5788 195.86 27.1842 202.319 13.3302Z" fill="#917006"/>
<path d="M202.307 13.3416C198.112 21.4541 203.066 32.5256 211.972 34.5846C221.226 36.7259 226.338 31.7255 226.338 31.7255C222.849 35.6023 219.361 37.0024 219.361 37.0024L219.337 37.0142C218.732 37.2907 208.937 41.6145 202.289 32.3961C197.136 25.2544 199.106 17.7949 202.307 13.3416Z" fill="#FFF7D9"/>
<path d="M421.859 37.0147C421.977 37.0676 422.43 37.2676 423.136 37.4971L421.859 37.0147Z" fill="#917006"/>
<path d="M496.865 43.8036C495.33 42.7977 475.975 30.4731 471.369 45.7626C467.487 58.6696 452.256 68.0821 438.59 65.4701C427.701 63.3876 424.124 49.7041 432.372 42.2917C432.413 42.2564 432.46 42.2153 432.501 42.1741C432.219 42.2506 425.789 43.9566 421.842 37.0207C421.942 37.3443 423.624 42.5388 427.736 43.6801C427.736 43.6801 421.571 50.8689 428.507 62.3934C435.443 73.9238 454.315 74.4356 467.61 59.9873C475.911 50.9689 472.252 38.8091 483.488 40.4857C492.33 41.8094 496.03 43.2918 496.859 43.8036H496.865Z" fill="#917006"/>
<path d="M144.438 43.8036C145.973 42.7977 165.327 30.4731 169.934 45.7626C173.816 58.6696 189.047 68.0821 202.713 65.4701C213.602 63.3876 217.178 49.7041 208.931 42.2917C208.89 42.2564 208.843 42.2153 208.801 42.1741C209.084 42.2506 215.514 43.9566 219.461 37.0207C219.361 37.3443 217.679 42.5388 213.566 43.6801C213.566 43.6801 219.732 50.8689 212.796 62.3934C205.86 73.9238 186.988 74.4356 173.693 59.9873C165.392 50.9689 169.051 38.8091 157.815 40.4857C148.973 41.8094 145.273 43.2918 144.443 43.8036H144.438Z" fill="#917006"/>
<path d="M503.078 50.298C492.836 43.9446 481.988 50.5098 481.535 50.7922L481.517 50.804L476.952 56.9103C478.052 55.5691 481.623 51.604 489.965 50.5745C499.854 49.3568 509.402 54.6102 508.561 65.4346L508.572 65.4228C509.684 62.0166 510.731 55.0455 503.078 50.298Z" fill="#917006"/>
<path d="M496.865 43.8034C486.053 40.0384 480.164 42.1033 479.617 48.8979C479.182 54.2984 477.352 56.3221 476.987 56.8574L481.517 50.804C481.517 50.804 484.388 41.3797 496.777 43.8328L496.865 43.8034Z" fill="#FFF7D9"/>
<path d="M138.202 50.298C148.444 43.9446 159.291 50.5098 159.744 50.7922L159.762 50.804L164.327 56.9103C163.227 55.5691 159.656 51.604 151.314 50.5745C141.425 49.3568 131.878 54.6102 132.719 65.4346L132.707 65.4228C131.595 62.0166 130.548 55.0455 138.202 50.298Z" fill="#917006"/>
<path d="M144.414 43.8034C155.227 40.0384 161.115 42.1033 161.662 48.8979C162.098 54.2984 163.927 56.3221 164.292 56.8574L159.762 50.804C159.762 50.804 156.892 41.3797 144.502 43.8328L144.414 43.8034Z" fill="#FFF7D9"/>
<path d="M460.674 38.9086C460.674 39.2145 460.644 39.5204 460.591 39.8381C459.456 46.3916 455.044 53.5745 444.961 54.7099C439.572 55.3158 435.189 52.5862 432.283 49.9154C432.283 49.9154 432.513 58.8455 443.49 58.5279C454.014 58.2219 458.021 53.3157 460.027 47.827C461.156 44.7208 461.021 41.2382 460.674 38.9086Z" fill="#917006"/>
<path d="M454.208 29.5201C449.861 30.0319 448.214 34.2852 448.214 34.2852C445.355 32.9675 445.096 29.6201 445.084 29.4554C444.743 30.432 444.314 31.3909 443.808 32.3263C445.214 38.015 449.532 39.8975 449.532 39.8975C451.055 31.3497 457.832 32.1968 460.003 36.1854C460.003 36.1854 460.021 36.2148 460.05 36.2678C460.05 36.2795 460.062 36.2913 460.074 36.3089C460.091 36.3442 460.109 36.3854 460.121 36.4207C460.485 37.1619 460.691 38.0032 460.674 38.9091C461.909 33.8793 458.556 29.0024 454.208 29.5201Z" fill="#FFF7D9"/>
<path d="M465.563 10.5947C464.733 10.6535 451.326 11.8066 445.867 19.5131C446.079 20.6485 446.191 21.8192 446.191 23.0134C446.191 24.1135 446.097 25.2018 445.914 26.2725C446.044 25.6959 446.832 22.578 449.344 19.6543C452.068 16.4834 458.292 15.3245 458.539 15.2774C460.715 12.0125 465.092 10.7241 465.557 10.5947H465.563Z" fill="#917006"/>
<path d="M493.883 14.5721C493.883 14.5368 493.883 14.5016 493.871 14.4663C492.359 19.8549 486.212 23.3552 476.758 16.737C467.751 10.4306 458.315 19.3137 457.445 20.1667L457.38 20.2314C457.38 20.2314 455.292 22.3375 455.974 25.8672C455.974 25.8672 458.556 18.6666 467.257 17.443C475.964 16.2193 476.993 23.2493 484.347 23.9023C491.641 24.5553 494.359 19.1196 493.883 14.5721Z" fill="#917006"/>
<path d="M493.883 24.8549C492.071 32.7555 488.418 30.1553 478.964 30.2436C469.622 30.3318 466.775 46.1684 466.71 46.5508C466.986 45.9037 467.228 45.2448 467.428 44.5741C469.281 38.4207 473.099 35.9087 475.975 34.8792C479.04 33.785 482.399 33.8733 485.582 34.5263C486.859 34.7851 488.2 34.7145 489.376 34.1556C490.4 33.6733 491.235 33.0026 491.794 32.0496C492.959 30.0671 493.577 27.4551 493.883 24.8549Z" fill="#FFF7D9"/>
<path d="M180.605 38.9086C180.605 39.2145 180.634 39.5204 180.687 39.8381C181.823 46.3916 186.235 53.5745 196.318 54.7099C201.707 55.3158 206.089 52.5862 208.995 49.9154C208.995 49.9154 208.766 58.8455 197.789 58.5279C187.264 58.2219 183.258 53.3157 181.252 47.827C180.123 44.7208 180.258 41.2382 180.605 38.9086Z" fill="#917006"/>
<path d="M187.07 29.5201C191.417 30.0319 193.064 34.2852 193.064 34.2852C195.924 32.9675 196.182 29.6201 196.194 29.4554C196.535 30.432 196.965 31.3909 197.471 32.3263C196.065 38.015 191.747 39.8975 191.747 39.8975C190.223 31.3497 183.446 32.1968 181.275 36.1854C181.275 36.1854 181.258 36.2148 181.228 36.2678C181.228 36.2795 181.217 36.2913 181.205 36.3089C181.187 36.3442 181.169 36.3854 181.158 36.4207C180.793 37.1619 180.587 38.0032 180.605 38.9091C179.369 33.8793 182.723 29.0024 187.07 29.5201Z" fill="#FFF7D9"/>
<path d="M175.717 10.5947C176.546 10.6535 189.953 11.8066 195.412 19.5131C195.201 20.6485 195.089 21.8192 195.089 23.0134C195.089 24.1135 195.183 25.2018 195.365 26.2725C195.236 25.6959 194.448 22.578 191.936 19.6543C189.212 16.4834 182.988 15.3245 182.741 15.2774C180.564 12.0125 176.187 10.7241 175.723 10.5947H175.717Z" fill="#917006"/>
<path d="M147.397 14.5721C147.397 14.5368 147.396 14.5016 147.408 14.4663C148.92 19.8549 155.068 23.3552 164.521 16.737C173.528 10.4306 182.964 19.3137 183.835 20.1667L183.899 20.2314C183.899 20.2314 185.988 22.3375 185.305 25.8672C185.305 25.8672 182.723 18.6666 174.022 17.443C165.316 16.2193 164.286 23.2493 156.933 23.9023C149.638 24.5553 146.92 19.1196 147.397 14.5721Z" fill="#917006"/>
<path d="M147.396 24.8549C149.208 32.7555 152.862 30.1553 162.315 30.2436C171.657 30.3318 174.504 46.1684 174.569 46.5508C174.293 45.9037 174.051 45.2448 173.851 44.5741C171.998 38.4207 168.18 35.9087 165.304 34.8792C162.239 33.785 158.88 33.8733 155.697 34.5263C154.421 34.7851 153.079 34.7145 151.903 34.1556C150.879 33.6733 150.044 33.0026 149.485 32.0496C148.32 30.0671 147.702 27.4551 147.396 24.8549Z" fill="#FFF7D9"/>
<path d="M514.672 23.0546C504.542 22.2722 500.448 29.2845 499.224 31.4023C498.006 33.5201 496.518 31.6612 496.518 31.6612L496.506 31.6729C496.171 32.5671 495.782 33.3848 495.347 34.1319C494.706 35.2262 493.847 36.1615 492.782 36.9145C495.377 38.0676 497.447 39.2912 498.536 39.9854C500.342 35.0909 505.213 25.696 515.555 27.4843C524.238 28.9845 525.75 37.2734 522.743 41.9385C530.097 33.3084 524.802 23.837 514.672 23.0546Z" fill="#FFF7D9"/>
<path d="M522.484 42.3208C520.143 45.5211 515.507 46.7035 509.566 41.9796C509.566 41.9796 509.566 41.9855 509.554 42.0032C509.425 42.2914 508.254 45.2623 512.648 47.3683C517.261 49.592 521.384 44.3857 522.484 42.3208Z" fill="#917006"/>
<path d="M538.245 32.2027C538.963 37.5561 537.092 43.033 532.386 48.1981C527.68 53.3633 518.855 56.3282 513.102 51.7808C507.578 47.4157 509.408 42.3918 509.555 42.0035C509.402 42.2212 508.249 44.0449 508.443 46.8274C508.572 48.7805 509.372 51.216 511.649 53.8927C512.561 54.9634 513.82 55.7341 515.302 56.2164C523.138 58.7519 537.169 53.1103 538.592 40.4681C538.933 37.4208 538.798 34.6559 538.239 32.1615C538.239 32.1733 538.239 32.1909 538.239 32.2027H538.245Z" fill="#FFF7D9"/>
<path d="M515.99 2.45272C515.802 2.23506 511.26 -2.73005 505.089 2.11152C501.63 4.82939 499.324 9.91216 497.953 13.9419C497.953 13.9478 497.953 13.9595 497.953 13.9654C497.965 14.0713 498.265 16.5892 498.265 19.9071V20.1836C498.265 15.5773 497.953 13.9654 506.313 5.07646C509.795 1.37028 512.943 1.38793 514.766 1.95268C514.872 1.98209 514.972 2.01739 515.066 2.04681C515.272 2.12329 515.449 2.19388 515.59 2.25859C515.69 2.30565 515.772 2.34095 515.837 2.37625C515.931 2.42331 515.984 2.45272 515.984 2.45272H515.99Z" fill="#917006"/>
<path d="M538.239 32.1611C536.174 22.9721 528.344 17.4482 517.414 14.8421C511.113 13.3419 508.872 9.90047 508.925 6.92376C508.854 7.24143 507.013 15.4598 515.978 18.0894C525.132 20.7661 535.591 22.9015 538.239 32.1611Z" fill="#917006"/>
<path d="M126.601 23.0546C136.731 22.2722 140.826 29.2845 142.049 31.4023C143.267 33.5201 144.755 31.6612 144.755 31.6612L144.767 31.6729C145.102 32.5671 145.491 33.3848 145.926 34.1319C146.567 35.2262 147.426 36.1615 148.491 36.9145C145.897 38.0676 143.826 39.2912 142.738 39.9854C140.932 35.0909 136.061 25.696 125.719 27.4843C117.036 28.9845 115.524 37.2734 118.53 41.9385C111.176 33.3084 116.471 23.837 126.601 23.0546Z" fill="#FFF7D9"/>
<path d="M118.788 42.3208C121.129 45.5211 125.765 46.7035 131.707 41.9796C131.707 41.9796 131.707 41.9855 131.719 42.0032C131.848 42.2914 133.019 45.2623 128.624 47.3683C124.012 49.592 119.888 44.3857 118.788 42.3208Z" fill="#917006"/>
<path d="M103.029 32.2027C102.311 37.5561 104.182 43.033 108.888 48.1981C113.594 53.3633 122.419 56.3282 128.172 51.7808C133.696 47.4157 131.866 42.3918 131.719 42.0035C131.872 42.2212 133.025 44.0449 132.831 46.8274C132.702 48.7805 131.902 51.216 129.625 53.8927C128.713 54.9634 127.454 55.7341 125.972 56.2164C118.136 58.7519 104.105 53.1103 102.682 40.4681C102.341 37.4208 102.476 34.6559 103.035 32.1615C103.035 32.1733 103.035 32.1909 103.035 32.2027H103.029Z" fill="#FFF7D9"/>
<path d="M125.283 2.45272C125.471 2.23506 130.013 -2.73005 136.184 2.11152C139.643 4.82939 141.949 9.91216 143.32 13.9419C143.32 13.9478 143.32 13.9595 143.32 13.9654C143.308 14.0713 143.008 16.5892 143.008 19.9071V20.1836C143.008 15.5773 143.32 13.9654 134.96 5.07646C131.478 1.37028 128.331 1.38793 126.507 1.95268C126.401 1.98209 126.301 2.01739 126.207 2.04681C126.001 2.12329 125.824 2.19388 125.683 2.25859C125.583 2.30565 125.501 2.34095 125.436 2.37625C125.342 2.42331 125.289 2.45272 125.289 2.45272H125.283Z" fill="#917006"/>
<path d="M103.034 32.1611C105.099 22.9721 112.929 17.4482 123.859 14.8421C130.16 13.3419 132.401 9.90047 132.348 6.92376C132.419 7.24143 134.26 15.4598 125.295 18.0894C116.141 20.7661 105.681 22.9015 103.034 32.1611Z" fill="#917006"/>
<path d="M568.741 49.1689C568.741 49.1689 568.7 49.1689 568.665 49.1807C567.582 49.4277 556.893 51.675 549.945 47.4158C545.027 44.3979 543.398 38.9386 542.857 35.6737C542.886 36.1855 542.898 36.7032 542.898 37.2326C542.898 38.4327 542.827 39.674 542.686 40.927C542.468 42.839 542.01 44.6803 541.327 46.4157C552.646 59.2403 568.241 49.4866 568.741 49.1689Z" fill="#FFF7D9"/>
<path d="M578.083 39.6443C575.442 39.0854 573.807 38.0382 572.795 36.9676C566.659 45.7801 556.399 43.8681 556.399 43.8681C569.636 49.7921 578.083 39.6443 578.083 39.6443Z" fill="#FFF7D9"/>
<path d="M640.511 33.4908C640.211 35.8321 637.176 37.5146 634.093 36.0851C630.999 34.6438 631.563 28.5904 631.563 28.5904C631.563 28.5904 627.751 22.4016 613.044 23.2546C598.337 24.1018 595.555 30.967 580.495 32.6025C571.047 33.6261 567.594 28.4668 567.594 28.4668C567.988 31.0376 571.147 33.5378 571.147 33.5378C576.694 38.4559 584.76 38.0794 601.779 29.3787C618.798 20.678 628.975 28.9375 628.975 28.9375C627.098 42.2739 640.246 40.4443 640.511 33.4967V33.4908Z" fill="#FFF7D9"/>
<path d="M555.946 24.4784C555.946 24.4784 557.364 29.1553 551.869 29.9377C546.392 30.726 543.745 25.0726 544.792 21.5194C544.092 23.1254 543.763 24.8961 543.898 26.7021C544.545 35.4793 555.046 34.9969 556.893 31.579C558.652 28.3317 556.828 25.5491 555.952 24.4784H555.946Z" fill="#FFF7D9"/>
<path d="M560.511 28.9494C562.464 33.2086 560.293 37.9972 555.422 39.3326C549.557 40.9386 545.639 38.9503 542.586 33.0145C542.586 33.0145 542.516 33.8969 542.821 35.1911C543.274 37.0854 544.545 39.8621 548.075 41.9799C553.993 45.5331 567.4 41.6681 560.511 28.9494Z" fill="#917006"/>
<path d="M575.183 13.1424C563.588 8.96556 554.187 13.1012 549.128 16.4073C547.198 17.6663 545.692 19.4547 544.792 21.5019C544.792 21.5078 544.792 21.5136 544.792 21.5195C544.792 21.5195 550.281 11.8776 569.382 15.2778L567.058 19.0017L575.189 13.1424H575.183Z" fill="#917006"/>
<path d="M640.512 33.4912C640.57 32.0617 640.082 30.4204 638.811 28.6496C631.34 18.2488 602.791 17.2075 588.89 17.2075C574.989 17.2075 567.053 19.0018 567.053 19.0018L561.376 22.1315C561.894 22.0197 581.431 17.6252 605.162 19.09C629.211 20.5725 638.3 25.9318 640.512 33.4912Z" fill="#917006"/>
<path d="M72.5322 49.1689C72.5322 49.1689 72.5734 49.1689 72.6087 49.1807C73.6911 49.4277 84.3802 51.675 91.3278 47.4158C96.2458 44.3979 97.8754 38.9386 98.4166 35.6737C98.3872 36.1855 98.3754 36.7032 98.3754 37.2326C98.3754 38.4327 98.446 39.674 98.5872 40.927C98.8049 42.839 99.2637 44.6803 99.9461 46.4157C88.6276 59.2403 73.0323 49.4866 72.5322 49.1689Z" fill="#FFF7D9"/>
<path d="M63.1904 39.6443C65.8318 39.0854 67.4672 38.0382 68.4791 36.9676C74.6149 45.7801 84.8745 43.8681 84.8745 43.8681C71.6382 49.7921 63.1904 39.6443 63.1904 39.6443Z" fill="#FFF7D9"/>
<path d="M0.761719 33.4912C1.06174 35.8326 4.09727 37.515 7.17987 36.0855C10.2742 34.6442 9.70948 28.5908 9.70948 28.5908C9.70948 28.5908 13.5215 22.402 28.2286 23.2551C42.9356 24.1022 45.7182 30.9675 60.7782 32.6029C70.226 33.6265 73.6792 28.4672 73.6792 28.4672C73.285 31.038 70.126 33.5382 70.126 33.5382C64.5785 38.4563 56.5131 38.0798 39.4942 29.3791C22.4752 20.6784 12.2979 28.9379 12.2979 28.9379C14.1745 42.2684 1.02645 40.4388 0.761719 33.4912Z" fill="#FFF7D9"/>
<path d="M85.3269 24.4784C85.3269 24.4784 83.9091 29.1553 89.4037 29.9377C94.8806 30.726 97.5278 25.0726 96.4807 21.5194C97.1808 23.1254 97.5102 24.8961 97.3749 26.7021C96.7278 35.4793 86.227 34.9969 84.3798 31.579C82.6208 28.3317 84.4445 25.5491 85.321 24.4784H85.3269Z" fill="#FFF7D9"/>
<path d="M80.7616 28.9494C78.8085 33.2086 80.9792 37.9972 85.8502 39.3326C91.7154 40.9386 95.6333 38.9503 98.6865 33.0145C98.6865 33.0145 98.7571 33.8969 98.4512 35.1911C97.9982 37.0854 96.7275 39.8621 93.1979 41.9799C87.2797 45.5331 73.8728 41.6681 80.7616 28.9494Z" fill="#917006"/>
<path d="M66.0899 13.1424C77.6849 8.96556 87.0856 13.1012 92.1448 16.4073C94.0744 17.6663 95.5804 19.4547 96.4805 21.5019C96.4805 21.5078 96.4805 21.5136 96.4805 21.5195C96.4805 21.5195 90.9918 11.8776 71.8903 15.2778L74.214 19.0017L66.084 13.1424H66.0899Z" fill="#917006"/>
<path d="M0.761544 33.4912C0.702716 32.0617 1.19099 30.4204 2.46168 28.6496C9.93285 18.2488 38.4821 17.2075 52.3832 17.2075C66.2784 17.2075 74.2202 19.0018 74.2202 19.0018L79.8971 22.1315C79.3794 22.0197 59.8426 17.6252 36.1114 19.09C12.0624 20.5725 2.97348 25.9318 0.761544 33.4912Z" fill="#917006"/>
</g>
<defs>
<clipPath id="clip0_1098_10743">
<rect width="639.756" height="133.664" fill="white" transform="matrix(1 0 0 -1 0.755859 133.664)"/>
</clipPath>
</defs>
</svg>
