<svg width="145" height="30" viewBox="0 0 145 30" fill="none" xmlns="http://www.w3.org/2000/svg">
<g clip-path="url(#clip0_690_8146)">
<path d="M46.8463 11.3813C48.3095 11.7273 49.3489 12.3584 49.9713 12.8324C50.0428 12.7532 49.2893 11.0816 49.4377 9.11425C49.4522 8.92676 49.4218 8.73795 49.4218 8.55574V8.5399C49.4218 7.3925 48.6299 6.39562 47.5097 6.13683C45.7195 5.72356 44.0643 6.17644 44.0643 6.17644C43.9835 6.51842 43.9279 6.84851 43.8922 7.16408C43.671 9.10633 44.9396 10.9298 46.8476 11.3813H46.8463Z" fill="#1D5D77"/>
<path d="M44.5173 17.7206C45.7302 17.5846 46.7166 18.1972 47.3708 18.7967C47.4184 18.621 47.4436 18.4375 47.4436 18.25C47.4436 17.4222 46.9219 16.4319 45.7778 16.214C43.217 15.7255 40.2059 17.5278 39.4604 19.9955C39.0433 21.3766 38.1839 21.9404 37.5364 22.1715C36.8465 22.4171 36.0904 22.3973 35.3741 22.2507C35.0867 22.1913 34.7848 22.2085 34.52 22.3326C34.2896 22.4409 34.1016 22.5914 33.9758 22.8053C33.1893 24.1415 33.5084 26.7518 33.5084 26.7518C33.8487 25.5424 35.2324 24.7568 37.3603 26.2422C39.4882 27.7276 41.722 25.4579 41.722 25.4579C41.914 27.0912 39.8709 27.622 39.8709 27.622C39.8709 27.622 43.0448 27.4041 44.3133 25.619C44.2657 25.3641 44.2405 25.1014 44.2405 24.8334C44.2405 24.1019 44.4206 23.4008 44.7768 22.7432C44.4603 21.4664 43.4884 21.0439 43.4884 21.0439C43.0554 23.4628 40.7435 22.5293 40.999 21.0571C41.2546 19.5862 42.2477 17.9741 44.5173 17.7192V17.7206Z" fill="#1D5D77"/>
<path d="M32.4585 21.0253C32.052 22.1238 30.9556 24.2324 28.6278 23.831C25.2128 23.2435 26.7263 18.0029 29.9758 20.5776C29.9758 20.5776 30.275 20.1565 30.2287 19.4897C30.1995 19.0513 30.0195 18.5047 29.507 17.9039C29.3018 17.6636 29.0184 17.4906 28.6847 17.3824C26.921 16.8133 23.7629 18.0795 23.4425 20.917C23.081 24.1215 25.0804 25.9251 28.2094 26.6685C31.3357 27.4105 30.0195 30.2744 28.5298 29.4492C28.5722 29.498 29.5944 30.6124 30.9834 29.5258C31.762 28.9157 32.2811 27.775 32.5896 26.8705C32.5896 26.8692 32.5896 26.8665 32.5896 26.8652C32.587 26.8415 32.5194 26.2763 32.5194 25.5317C32.5194 24.1558 32.7406 23.0811 33.1775 22.339C33.3219 22.0934 33.5152 21.8835 33.7549 21.7145C33.1709 21.4557 32.7048 21.1811 32.4599 21.0253H32.4585Z" fill="#1D5D77"/>
<path d="M22.8267 19.5826C20.238 16.6567 16.6535 18.966 16.6535 18.966C18.7814 18.5409 19.4342 20.1544 19.4342 20.1544C16.4549 18.8248 14.5534 21.1024 14.5534 21.1024C16.0868 21.4272 16.1146 22.4742 16.1146 22.4742C14.8659 21.3704 13.0505 21.4549 9.21981 23.4077C5.38908 25.3606 3.09832 23.5068 3.09832 23.5068C3.60811 19.8995 -0.795968 21.2357 0.884363 23.5701C2.56602 25.9046 8.99206 26.1383 12.121 26.1383C15.2499 26.1383 17.0362 25.7355 17.0362 25.7355L15.2062 27.0506C17.8161 27.9881 19.9321 27.0599 21.0708 26.3178C21.8481 25.8121 22.3182 24.9301 22.2493 24.0072C22.1024 22.0372 19.7401 22.1455 19.3243 22.9126C18.8291 23.8237 19.5944 24.5736 19.6315 24.6093C17.7605 23.6256 18.0809 21.6028 19.654 21.1724C20.9729 20.8119 21.8561 21.2569 22.5433 22.5904C22.4969 22.2854 22.4731 21.9699 22.4731 21.6437C22.4731 21.3744 22.489 21.0958 22.5208 20.8145C22.5698 20.3854 22.6731 19.9722 22.8267 19.5826Z" fill="#1D5D77"/>
<path d="M94.64 9.06253C94.6347 9.1642 94.6268 9.26454 94.6175 9.36357C94.3236 6.30165 92.3413 5.21367 92.3413 5.21367C92.3413 5.21367 91.1853 7.33681 91.1496 7.42131C91.2065 7.33681 91.2079 3.21067 86.723 1.81901C83.4034 0.789125 79.7077 3.2965 79.1569 6.42576C78.4789 2.63499 82.8565 -0.964319 86.723 0.234572C91.2079 1.62624 91.2065 5.75237 91.1496 5.83688C91.1853 5.75237 92.3413 3.62923 92.3413 3.62923C92.3413 3.62923 94.8665 5.01561 94.64 9.06253Z" fill="#08B4BE"/>
<path d="M76.1135 12.4467C75.8076 7.59035 72.7078 5.53454 72.5052 5.40515C72.5065 5.40251 72.5065 5.40119 72.5065 5.39987C72.5052 5.39987 72.5039 5.40119 72.5012 5.40251C72.4986 5.40251 72.4973 5.39987 72.4959 5.39987C72.4959 5.40119 72.4959 5.40251 72.4959 5.40515C72.2933 5.53454 69.1935 7.58903 68.889 12.4453C68.5262 6.44692 72.2722 3.96331 72.4959 3.82071C72.4959 3.81807 72.4959 3.81675 72.4959 3.81543C72.4959 3.81543 72.4986 3.81675 72.5012 3.81807C72.5039 3.81807 72.5052 3.81543 72.5065 3.81543C72.5065 3.81675 72.5065 3.81807 72.5052 3.82071C72.729 3.96331 76.475 6.44824 76.1135 12.4467Z" fill="#08B4BE"/>
<path d="M65.8461 6.42576C65.2953 3.2965 61.5996 0.789125 58.28 1.81901C53.7952 3.21067 53.7965 7.33681 53.8534 7.42131C53.8177 7.33681 52.6617 5.21367 52.6617 5.21367C52.6617 5.21367 50.6795 6.30165 50.3855 9.36357C50.3762 9.26454 50.3683 9.1642 50.363 9.06253C50.1366 5.01561 52.6617 3.62923 52.6617 3.62923C52.6617 3.62923 53.8177 5.75237 53.8534 5.83688C53.7965 5.75237 53.7952 1.62624 58.28 0.234572C62.1465 -0.964319 66.5241 2.63499 65.8461 6.42576Z" fill="#08B4BE"/>
<path d="M94.1766 13.5737L94.3421 13.4482C94.3421 13.4482 94.2971 14.1942 94.0362 15.265C93.7343 16.5075 93.1438 18.1857 92.001 19.6447C89.8731 22.3607 84.9791 22.7 84.9791 22.7L86.2371 22.7423H86.2397L88.3689 22.8136C88.0458 23.2453 87.4897 23.656 86.7641 24.0072C86.5363 24.1181 86.2914 24.2224 86.0318 24.3201C82.8565 25.5111 77.4872 25.6497 73.622 22.6155C73.4684 22.4967 73.3174 22.3712 73.1691 22.2405C72.9414 22.0398 72.7189 21.8273 72.5044 21.6028C72.2886 21.8299 72.0688 22.0411 71.8397 22.2418C71.6914 22.3726 71.5405 22.498 71.3869 22.6168C67.5217 25.6497 62.151 25.5111 58.9757 24.3201C58.7148 24.2211 58.4699 24.1168 58.2408 24.0059C57.5165 23.656 56.9604 23.2453 56.6373 22.8136L60.0284 22.7C60.0284 22.7 55.1331 22.3607 53.0052 19.6447C51.8624 18.1857 51.2719 16.5075 50.97 15.265C50.7091 14.1942 50.6641 13.4482 50.6641 13.4482L51.0547 13.7453L53.1588 15.3443C52.9469 15.1515 50.7065 13.0376 50.3887 9.36433C50.6826 6.30241 52.6649 5.21443 52.6649 5.21443C52.6649 5.21443 53.8208 7.33757 53.8566 7.42208C53.7997 7.33757 53.7983 3.21143 58.2832 1.81977C61.6028 0.789884 65.2985 3.29726 65.8493 6.42652C65.6308 7.64258 64.892 8.87976 63.4473 9.98226C63.4473 9.98226 63.4473 9.98094 63.4473 9.9783C63.4712 9.87795 64.0193 7.54223 61.7286 7.27287C59.7927 7.04445 57.8886 8.99199 58.356 11.6525V11.6552C58.1733 12.6217 58.3229 13.7691 58.9837 14.9904C60.7064 18.1764 66.0016 19.9418 69.3225 16.8297C69.21 16.3649 69.1213 15.916 69.0524 15.4829C69.1438 15.4076 69.2338 15.3284 69.3225 15.2452C69.0802 14.2378 68.9438 13.3056 68.8922 12.4461C69.1967 7.58976 72.2965 5.53527 72.4991 5.40588C72.4991 5.40324 72.4991 5.40192 72.4991 5.4006C72.4991 5.4006 72.5018 5.40192 72.5044 5.40324C72.5071 5.40324 72.5084 5.4006 72.5097 5.4006C72.5097 5.40192 72.5097 5.40324 72.5084 5.40588C72.711 5.53527 75.8108 7.59108 76.1167 12.4474C76.065 13.3056 75.9286 14.2378 75.6863 15.2452C75.775 15.3284 75.8651 15.4076 75.9564 15.4829C75.8876 15.916 75.7989 16.3649 75.6863 16.8297C79.0073 19.9418 84.3012 18.1764 86.0239 14.9904C86.6846 13.7691 86.8342 12.6217 86.6515 11.6552C87.1203 8.99331 85.2148 7.04445 83.2789 7.27287C80.9379 7.54883 81.5615 9.98226 81.5615 9.98226C80.1169 8.87976 79.378 7.64258 79.1595 6.42652C79.7104 3.29726 83.4061 0.789884 86.7257 1.81977C91.2105 3.21143 91.2092 7.33757 91.1523 7.42208C91.188 7.33757 92.344 5.21443 92.344 5.21443C92.344 5.21443 94.3262 6.30241 94.6202 9.36433C94.3037 13.0376 92.0633 15.1515 91.8514 15.3443L93.9555 13.744L94.1792 13.5737H94.1766Z" fill="#1D5D77"/>
<path d="M101.087 8.21112C101.087 8.21112 101.087 8.20584 101.087 8.2032C101.021 7.70543 100.617 7.3212 100.118 7.25914C99.466 7.1786 98.5021 7.13635 97.4944 7.36873C96.4192 7.61696 95.6446 8.54782 95.5863 9.63712C95.5863 9.46547 95.5797 9.29118 95.5664 9.11425C95.5519 8.92676 95.5823 8.73795 95.5823 8.55574V8.5399C95.5823 7.3925 96.3742 6.39562 97.4944 6.13683C99.2846 5.72356 100.94 6.17644 100.94 6.17644C101.021 6.51842 101.076 6.84851 101.112 7.16408C101.153 7.52057 101.142 7.87179 101.088 8.21112H101.087Z" fill="#08B4BE"/>
<path d="M43.9144 8.21112C43.9144 8.21112 43.9144 8.20584 43.9144 8.2032C43.9806 7.70543 44.3845 7.3212 44.8837 7.25914C45.5352 7.1786 46.4991 7.13635 47.5068 7.36873C48.582 7.61696 49.3566 8.54782 49.4149 9.63712C49.4149 9.46547 49.4215 9.29118 49.4347 9.11425C49.4493 8.92676 49.4189 8.73795 49.4189 8.55574V8.5399C49.4189 7.3925 48.627 6.39562 47.5068 6.13683C45.7166 5.72356 44.0614 6.17644 44.0614 6.17644C43.9806 6.51842 43.925 6.84851 43.8893 7.16408C43.8482 7.52057 43.8588 7.87179 43.9131 8.21112H43.9144Z" fill="#08B4BE"/>
<path d="M101.086 8.21148C100.845 9.72858 99.7146 11.0133 98.1561 11.3817C96.9538 11.6656 96.0361 12.1435 95.4032 12.5674C95.2655 12.6598 95.1424 12.7483 95.0311 12.8328C94.9993 12.7971 95.1318 12.4446 95.2761 11.8874C95.3608 11.8082 95.4535 11.7263 95.5555 11.6405C96.1169 11.1717 96.9392 10.6304 98.0409 10.2673C99.3121 9.84873 100.218 8.71322 100.487 7.37305C100.804 7.53149 101.036 7.83649 101.085 8.20356V8.21148H101.086Z" fill="#1D5D77"/>
<path d="M43.9141 8.21148C44.1551 9.72858 45.2859 11.0133 46.8444 11.3817C48.0467 11.6656 48.9643 12.1435 49.5973 12.5674C49.735 12.6598 49.8581 12.7483 49.9693 12.8328C50.0011 12.7971 49.8687 12.4446 49.7244 11.8874C49.6396 11.8082 49.5469 11.7263 49.445 11.6405C48.8836 11.1717 48.0613 10.6304 46.9596 10.2673C45.6884 9.84873 44.7827 8.71322 44.5139 7.37305C44.1961 7.53149 43.9644 7.83649 43.9154 8.20356V8.21148H43.9141Z" fill="#1D5D77"/>
<path d="M100.487 7.37336C100.218 8.71353 99.3123 9.84904 98.0412 10.2676C96.9395 10.6307 96.1172 11.172 95.5558 11.6408C95.4538 11.7266 95.3611 11.8085 95.2764 11.8864C95.3902 11.4454 95.5107 10.8763 95.5611 10.2385C95.5756 10.0458 95.5849 9.8464 95.5849 9.64174V9.63778C95.6432 8.54848 96.4178 7.61763 97.493 7.3694C98.5006 7.13701 99.4646 7.17794 100.116 7.25981C100.249 7.27697 100.373 7.31526 100.487 7.37336Z" fill="#1D5D77"/>
<path d="M113.566 18.7106C111.26 20.1366 108.819 18.6631 108.717 18.5997L108.713 18.5971C108.713 18.5971 109.359 20.7123 112.148 20.1617C112.161 20.1591 112.175 20.1564 112.189 20.1538L112.181 20.1604C112.181 20.1604 112.173 20.1643 112.167 20.1683C111.822 20.3941 107.465 23.1603 106.429 19.7286C105.555 16.8317 102.126 14.7192 99.0505 15.3054C96.5995 15.7728 95.7944 18.844 97.6509 20.5076C97.6601 20.5156 97.6707 20.5248 97.68 20.5341C97.6164 20.5169 96.1692 20.134 95.2807 21.6907C95.2807 21.6933 95.2807 21.6947 95.2807 21.6947L95.286 21.692C95.3125 21.6801 95.4144 21.6352 95.5733 21.5837C96.242 21.3698 97.9144 21.0556 99.1233 22.7285C100.283 24.3314 99.8397 26.0056 99.1194 27.0052C99.1194 27.0065 99.1194 27.0078 99.1167 27.0091C98.8784 27.3392 98.6096 27.594 98.3593 27.7485C98.3911 27.6825 99.31 25.7812 97.7899 24.8358C96.2433 23.8746 94.0307 25.3877 94.0307 25.3877L91.5387 24.5968L91.5334 24.5955L92.7688 25.4709L94.0876 26.4057C94.0876 26.4057 89.1671 28.6266 85.5377 26.8639H85.535C85.535 26.8639 85.915 28.0892 87.5543 28.2595C87.5543 28.2595 82.1955 29.0148 80.0094 27.0461C79.9074 26.9563 79.8121 26.8586 79.7247 26.7543H79.7234C79.7234 26.7543 79.5526 27.9809 81.0594 28.7467C80.9098 28.7243 76.0727 27.9439 72.5029 24.0198C72.4989 24.0251 72.4936 24.0291 72.4896 24.0343C68.9211 27.9453 64.0959 28.7243 63.9463 28.7467C65.4531 27.9809 65.2823 26.753 65.2823 26.753C63.3253 29.0874 57.4514 28.2595 57.4514 28.2595C59.0907 28.0892 59.4707 26.8626 59.4707 26.8626C55.8412 28.6266 50.9181 26.4057 50.9181 26.4057L53.4723 24.5955L50.975 25.3877C50.975 25.3877 48.7624 23.8746 47.2158 24.8358C45.6957 25.7812 46.6146 27.6825 46.6464 27.7485C45.6387 27.1266 44.3371 24.8635 45.8824 22.7285C47.4025 20.6265 49.6535 21.6616 49.725 21.6947C48.8379 20.1327 47.3879 20.5169 47.3244 20.5341C47.3336 20.5248 47.3442 20.5156 47.3548 20.5076C49.2099 18.844 48.4049 15.7728 45.9539 15.3054C42.8779 14.7192 39.451 16.8317 38.5758 19.7286C37.4966 23.3029 32.8158 20.1538 32.8158 20.1538C35.6389 20.7334 36.2917 18.5971 36.2917 18.5971C36.2917 18.5971 33.7943 20.1683 31.4387 18.7106C29.0844 17.2543 30.3887 14.8631 30.3887 14.8631C31.7366 17.5236 34.2485 15.8534 35.7236 14.4102C37.1987 12.967 40.0654 13.511 40.0654 13.511C39.1928 12.5379 37.7005 12.8178 37.6277 12.831C41.1724 10.7739 44.9396 11.3681 48.5135 13.342C49.0007 13.6101 49.4364 13.9203 49.8243 14.2544C49.9806 15.2975 50.4109 17.2661 51.5404 19.1463C51.7576 19.5068 51.9999 19.8659 52.2727 20.2132C53.1665 21.354 54.4575 22.1172 55.7274 22.6268C55.7154 22.6876 55.7088 22.7509 55.7088 22.813C55.7088 23.0084 55.771 23.2025 55.8929 23.3649C57.3706 25.3441 61.8594 26.4664 65.8981 25.867C68.2338 25.5197 70.273 24.6642 71.9374 23.3583C72.1308 23.2065 72.3201 23.0493 72.5029 22.8843C72.6856 23.0493 72.8749 23.2065 73.0683 23.3583C74.7327 24.6642 76.7719 25.5197 79.1077 25.867C83.1463 26.4664 87.6351 25.3441 89.1128 23.3649C89.2347 23.2025 89.2969 23.0084 89.2969 22.813C89.2969 22.7509 89.2903 22.6876 89.2784 22.6268C90.5482 22.1172 91.8392 21.354 92.733 20.2132C93.0071 19.8659 93.2481 19.5068 93.4653 19.1463C94.5961 17.2661 95.0251 15.2975 95.1814 14.2544C95.5693 13.9203 96.005 13.6101 96.4923 13.342C100.066 11.3681 103.833 10.7739 107.378 12.831C107.325 12.8218 106.535 12.6739 105.77 12.9565C105.475 13.0661 105.184 13.2404 104.94 13.511H104.947C105.094 13.4833 107.847 13.0053 109.282 14.4102C110.757 15.8534 113.269 17.5236 114.617 14.8631C114.617 14.8631 114.711 15.0361 114.804 15.316C115.054 16.0805 115.29 17.6451 113.567 18.7106H113.566Z" fill="#1D5D77"/>
<path d="M111.496 26.7292C111.496 26.7372 111.496 26.7451 111.493 26.753C111.153 25.5436 109.769 24.7579 107.641 26.2433C105.614 27.6588 103.49 25.665 103.294 25.4736L103.28 25.4591C103.227 25.9093 103.344 26.2764 103.54 26.5708C104.03 27.3036 105.016 27.5928 105.12 27.6218C104.933 27.6086 101.916 27.3498 100.687 25.6201C100.735 25.3653 100.76 25.1026 100.76 24.8345C100.76 24.5876 100.739 24.3433 100.697 24.103V24.1004C100.697 24.1004 100.695 24.0885 100.694 24.0819C100.652 23.8469 100.592 23.6158 100.511 23.39C100.434 23.1695 100.337 22.9543 100.223 22.7444C100.54 21.4676 101.512 21.0451 101.512 21.0451C101.855 22.9636 103.38 22.7734 103.869 21.8782C103.869 21.8782 103.873 21.8716 103.879 21.8597C103.879 21.8571 103.882 21.8545 103.885 21.8505C103.889 21.8426 103.893 21.8333 103.895 21.8254C103.977 21.659 104.024 21.4702 104.02 21.2669C104.02 21.1982 104.013 21.1296 104.001 21.0583C103.746 19.5874 102.753 17.9752 100.483 17.7204C99.2701 17.5844 98.2836 18.197 97.6295 18.7965C97.5818 18.6209 97.5566 18.4374 97.5566 18.2499C97.5566 17.422 98.0784 16.4317 99.2224 16.2139C101.627 15.7557 104.428 17.3164 105.378 19.5504C105.441 19.697 105.495 19.8449 105.54 19.9954C105.957 21.3765 106.816 21.9403 107.464 22.1713C108.154 22.4169 108.91 22.3971 109.626 22.2506C109.913 22.1925 110.215 22.2083 110.48 22.3337C110.711 22.442 110.899 22.5925 111.024 22.8064C111.287 23.2514 111.426 23.8376 111.495 24.4212V24.4239C111.622 25.4947 111.513 26.5589 111.495 26.7292H111.496Z" fill="#1D5D77"/>
<path d="M121.48 22.7813C121.015 24.8437 119.253 26.0836 116.793 26.6685C115.374 27.0052 114.87 27.7776 114.882 28.4457C114.895 29.1587 115.495 29.7502 116.198 29.5614C116.222 29.5548 116.244 29.5469 116.266 29.5403C116.305 29.5271 116.344 29.5126 116.383 29.4927C116.402 29.4861 116.42 29.4769 116.439 29.4663C116.46 29.4558 116.472 29.4492 116.472 29.4492C116.43 29.498 115.408 30.6124 114.018 29.5258C113.24 28.9157 112.721 27.775 112.412 26.8705C112.412 26.8692 112.412 26.8665 112.412 26.8652C112.415 26.8415 112.482 26.2763 112.482 25.5317V25.4696C112.477 24.4318 112.345 23.567 112.085 22.8909C112.01 22.6902 111.922 22.5067 111.824 22.339C111.68 22.0934 111.487 21.8835 111.247 21.7145C111.831 21.4557 112.297 21.1811 112.542 21.0253C112.949 22.1238 114.045 24.2324 116.373 23.831C118.327 23.4943 118.668 21.6339 117.991 20.5869C117.972 20.5578 117.953 20.5301 117.933 20.5024C117.406 19.7828 116.362 19.5174 115.025 20.5776C115.025 20.5776 115.025 20.5763 115.022 20.5724C114.988 20.5235 114.728 20.1142 114.772 19.4897C114.801 19.0513 114.981 18.5047 115.494 17.9039C115.699 17.6636 115.982 17.4906 116.316 17.3824C118.08 16.8133 121.238 18.0795 121.558 20.917C121.635 21.6009 121.604 22.2215 121.479 22.7813H121.48Z" fill="#1D5D77"/>
<path d="M144.5 22.4832C144.514 22.804 144.404 23.1724 144.118 23.5698C142.436 25.9042 136.01 26.1379 132.881 26.1379C129.752 26.1379 127.966 25.7352 127.966 25.7352L129.796 27.0503C127.186 27.9878 125.07 27.0596 123.931 26.3175C123.497 26.0349 123.158 25.6336 122.955 25.1741C122.955 25.1728 122.955 25.1714 122.955 25.1701C122.798 24.8097 122.724 24.4122 122.754 24.0069C122.9 22.0369 125.263 22.1452 125.679 22.9123C126.075 23.6411 125.665 24.2657 125.467 24.506C125.417 24.5667 125.381 24.6024 125.373 24.609C125.936 24.3132 126.301 23.9224 126.492 23.5104C126.492 23.5078 126.495 23.5051 126.496 23.5025C126.936 22.5465 126.447 21.4718 125.351 21.172C124.031 20.8116 123.149 21.2579 122.461 22.5901C122.485 22.4304 122.504 22.2679 122.514 22.1016C122.517 22.0686 122.52 22.0342 122.521 21.9999C122.521 21.9973 122.521 21.996 122.521 21.9933C122.528 21.8784 122.53 21.7622 122.53 21.6434C122.53 21.3741 122.514 21.0955 122.483 20.8142C122.434 20.3851 122.33 19.9718 122.177 19.5823C124.724 16.7039 128.235 18.8931 128.347 18.9644C128.349 18.9657 128.35 18.9657 128.35 18.9657L128.33 18.9618C126.218 18.5511 125.569 20.154 125.569 20.154C128.549 18.8244 130.45 21.1021 130.45 21.1021C129.855 21.2275 129.487 21.4625 129.26 21.7028C128.899 22.0818 128.889 22.4739 128.889 22.4739C130.137 21.3701 131.953 21.4546 135.784 23.4074C139.614 25.3602 141.905 23.5065 141.905 23.5065C141.483 20.5132 144.442 20.9238 144.502 22.4832H144.5Z" fill="#1D5D77"/>
<path d="M86.0204 14.9905C84.2977 18.1766 79.0038 19.9419 75.6829 16.8298C75.2155 16.4271 75.614 15.6784 75.6829 15.2453C79.0131 18.0247 84.3441 16.5076 86.0204 13.4061C86.3488 12.8 86.5514 12.2125 86.6481 11.6553C86.8308 12.6218 86.6812 13.7692 86.0204 14.9905Z" fill="#08B4BE"/>
<path d="M58.9741 14.9905C60.6968 18.1766 65.9907 19.9419 69.3116 16.8298C69.779 16.4271 69.3804 15.6784 69.3116 15.2453C65.9814 18.0247 60.6504 16.5076 58.9741 13.4061C58.6457 12.8 58.4431 12.2125 58.3464 11.6553C58.1637 12.6218 58.3133 13.7692 58.9741 14.9905Z" fill="#08B4BE"/>
<path d="M63.4451 9.97823C63.469 9.87788 64.0172 7.54216 61.7264 7.27281C59.7905 7.04438 57.8864 8.99192 58.3538 11.6525L58.3459 11.6551C57.1462 7.99108 60.3255 4.43402 62.6652 5.72402C64.956 6.98893 63.5074 9.8594 63.4451 9.97823Z" fill="#1D5D77"/>
<path d="M81.5585 9.97823C81.5347 9.87788 80.9865 7.54216 83.2773 7.27281C85.2132 7.04438 87.1173 8.99192 86.6498 11.6525L86.6578 11.6551C87.8575 7.99108 84.6782 4.43402 82.3384 5.72402C80.0477 6.98893 81.4963 9.8594 81.5585 9.97823Z" fill="#1D5D77"/>
<path d="M94.3415 13.4482C94.3415 13.4482 94.2965 14.1942 94.0356 15.2651C93.7337 16.5075 93.1432 18.1857 92.0004 19.6447C89.8725 22.3607 84.9785 22.7 84.9785 22.7C92.2997 21.1314 92.7088 15.8077 92.7088 15.8077L94.176 13.5737L94.3415 13.4482Z" fill="#1D5D77"/>
<path d="M50.6611 13.4482C50.6611 13.4482 50.7062 14.1942 50.967 15.2651C51.2689 16.5075 51.8595 18.1857 53.0022 19.6447C55.1301 22.3607 60.0241 22.7 60.0241 22.7C52.703 21.1314 52.2938 15.8077 52.2938 15.8077L50.8267 13.5737L50.6611 13.4482Z" fill="#1D5D77"/>
<path d="M94.3408 13.4516V13.4463L91.8461 15.3423L89.5752 17.0284C91.0476 16.9281 92.2116 16.3273 92.9981 15.7635C93.7568 15.2195 94.2441 14.3771 94.3408 13.4503V13.4516Z" fill="#08B4BE"/>
<path d="M50.6611 13.4516V13.4463L53.1558 15.3423L55.4267 17.0284C53.9543 16.9281 52.7903 16.3273 52.0038 15.7635C51.2451 15.2195 50.7578 14.3771 50.6611 13.4503V13.4516Z" fill="#08B4BE"/>
<path d="M88.3684 22.8131C88.0453 23.2449 87.4892 23.6555 86.7635 24.0068C86.5358 24.1177 86.2908 24.222 86.0313 24.3197C82.856 25.5106 77.4866 25.6493 73.6215 22.6151C73.4679 22.4963 73.3169 22.3708 73.1686 22.2401C72.9409 22.0394 72.7184 21.8268 72.5039 21.6024V19.2402C74.7523 22.4091 78.1262 24.5032 83.869 23.9592C86.7874 23.6833 86.2392 22.7418 86.2392 22.7418H86.2418L88.371 22.8131H88.3684Z" fill="#1D5D77"/>
<path d="M56.6325 22.8131C56.9556 23.2449 57.5118 23.6555 58.2374 24.0068C58.4651 24.1177 58.7101 24.222 58.9696 24.3197C62.1449 25.5106 67.5143 25.6493 71.3795 22.6151C71.5331 22.4963 71.684 22.3708 71.8323 22.2401C72.0601 22.0394 72.2825 21.8268 72.497 21.6024V19.2402C70.2486 22.4091 66.8747 24.5032 61.132 23.9592C58.2136 23.6833 58.7617 22.7418 58.7617 22.7418H58.7591L56.6299 22.8131H56.6325Z" fill="#1D5D77"/>
<path d="M113.306 17.0475C112.129 17.5096 110.726 17.0501 109.295 15.2901C107.862 13.5287 104.938 13.5115 104.938 13.5115H104.945C105.092 13.4838 107.845 13.0058 109.28 14.4107C110.755 15.8539 113.267 17.5241 114.615 14.8636C114.615 14.8636 114.679 16.5088 113.306 17.0475Z" fill="#08B4BE"/>
<path d="M31.6967 17.0475C32.8739 17.5096 34.2762 17.0501 35.7076 15.2901C37.1403 13.5287 40.064 13.5115 40.064 13.5115H40.0574C39.9104 13.4838 37.1575 13.0058 35.7221 14.4107C34.247 15.8539 31.7351 17.5241 30.3872 14.8636C30.3872 14.8636 30.3236 16.5088 31.6967 17.0475Z" fill="#08B4BE"/>
<path d="M107.376 12.831C107.323 12.8218 106.533 12.6739 105.769 12.9565C105.673 12.9235 102.346 11.5226 98.184 13.4807C96.9631 14.055 96.072 15.1483 95.7012 16.4422C95.0908 18.568 93.5561 22.0934 89.924 23.4468C89.924 23.4468 88.1311 26.3569 81.909 26.4981C76.77 26.6156 74.0979 24.6787 72.501 23.4653V22.8843C72.6837 23.0493 72.8731 23.2065 73.0664 23.3583C74.7308 24.6641 76.77 25.5197 79.1058 25.867C83.1444 26.4664 87.6332 25.3441 89.111 23.3649C89.2328 23.2025 89.295 23.0084 89.295 22.813C89.295 22.7509 89.2884 22.6876 89.2765 22.6268C90.5463 22.1172 91.8374 21.354 92.7312 20.2132C93.0053 19.8659 93.2462 19.5068 93.4634 19.1463C94.5942 17.2661 95.0232 15.2975 95.1795 14.2544C95.5675 13.9203 96.0031 13.6101 96.4904 13.342C100.064 11.3681 103.831 10.7739 107.376 12.831Z" fill="#08B4BE"/>
<path d="M31.6958 17.0475C32.8729 17.5096 34.2752 17.0501 35.7066 15.2901C37.1393 13.5287 40.063 13.5115 40.063 13.5115H40.0564C39.9094 13.4838 37.1565 13.0058 35.7211 14.4107C34.2461 15.8539 31.7342 17.5241 30.3862 14.8636C30.3862 14.8636 30.3226 16.5088 31.6958 17.0475Z" fill="#08B4BE"/>
<path d="M37.625 12.831C37.678 12.8218 38.4685 12.6739 39.2325 12.9565C39.3278 12.9235 42.6554 11.5226 46.8172 13.4807C48.038 14.055 48.9292 15.1483 49.2999 16.4422C49.9104 18.568 51.445 22.0934 55.0771 23.4468C55.0771 23.4468 56.87 26.3569 63.0921 26.4981C68.2311 26.6156 70.9032 24.6787 72.5001 23.4653V22.8843C72.3174 23.0493 72.1281 23.2065 71.9347 23.3583C70.2703 24.6641 68.2311 25.5197 65.8953 25.867C61.8567 26.4664 57.3679 25.3441 55.8902 23.3649C55.7683 23.2025 55.7061 23.0084 55.7061 22.813C55.7061 22.7509 55.7127 22.6876 55.7246 22.6268C54.4548 22.1172 53.1638 21.354 52.27 20.2132C51.9959 19.8659 51.7549 19.5068 51.5377 19.1463C50.4069 17.2661 49.9779 15.2975 49.8216 14.2544C49.4337 13.9203 48.998 13.6101 48.5107 13.342C44.9369 11.3681 41.1697 10.7739 37.625 12.831Z" fill="#08B4BE"/>
<path d="M81.0581 28.7467C80.9085 28.7243 76.0714 27.9439 72.5015 24.0198C72.4976 24.0251 72.4923 24.029 72.4883 24.0343L72.5015 23.8125C72.5015 23.8125 74.3964 26.2063 78.6482 27.2177C78.6482 27.2177 78.5343 26.5826 79.722 26.7529C79.722 26.7529 79.5512 27.9809 81.0581 28.7467Z" fill="#1D5D77"/>
<path d="M63.9316 28.7467C64.0813 28.7243 68.9183 27.9439 72.4882 24.0198C72.4922 24.0251 72.4975 24.029 72.5015 24.0343L72.4882 23.8125C72.4882 23.8125 70.5934 26.2063 66.3416 27.2177C66.3416 27.2177 66.4554 26.5826 65.2677 26.7529C65.2677 26.7529 65.4385 27.9809 63.9316 28.7467Z" fill="#1D5D77"/>
<path d="M87.5533 28.2601C87.5533 28.2601 82.1945 29.0154 80.0083 27.0467L79.7236 26.7549C79.7938 26.7866 82.4408 28.004 84.6613 27.5696C84.6613 27.5696 84.1992 26.3179 85.5339 26.8632C85.5339 26.8632 85.914 28.0898 87.5533 28.2601Z" fill="#1D5D77"/>
<path d="M57.4502 28.2601C57.4502 28.2601 62.809 29.0154 64.9951 27.0467L65.2798 26.7549C65.2096 26.7866 62.5627 28.004 60.3421 27.5696C60.3421 27.5696 60.8042 26.3179 59.4695 26.8632C59.4695 26.8632 59.0895 28.0898 57.4502 28.2601Z" fill="#1D5D77"/>
<path d="M94.0861 26.4055C94.0861 26.4055 89.1656 28.6264 85.5361 26.8637C85.6593 26.8914 89.964 27.8474 92.7672 25.4707L94.0861 26.4055Z" fill="#1D5D77"/>
<path d="M99.1151 27.008C98.8768 27.3394 98.608 27.5942 98.3577 27.7487C98.3895 27.6827 99.3085 25.7814 97.7884 24.836C96.2418 23.8747 94.0291 25.3879 94.0291 25.3879L91.5371 24.597C91.6377 24.6075 92.513 24.6155 94.9309 23.6516C97.3488 22.6877 100.569 23.8985 99.1151 27.008Z" fill="#1D5D77"/>
<path d="M99.1181 27.0054C100.062 25.1846 98.9473 22.6997 96.9425 22.2375C94.9378 21.7754 93.709 22.8792 93.709 22.8792C94.4942 22.0091 95.2794 21.6949 95.2794 21.6949L95.2847 21.6922C95.4211 21.6302 97.6258 20.6597 99.1221 22.7287C100.282 24.3316 99.8384 26.0059 99.1181 27.0054Z" fill="#08B4BE"/>
<path d="M50.8984 26.4055C50.8984 26.4055 55.8189 28.6264 59.4484 26.8637C59.3253 26.8914 55.0205 27.8474 52.2173 25.4707L50.8984 26.4055Z" fill="#1D5D77"/>
<path d="M45.8691 27.008C46.1075 27.3394 46.3763 27.5942 46.6265 27.7487C46.5947 27.6827 45.6758 25.7814 47.1959 24.836C48.7425 23.8747 50.9551 25.3879 50.9551 25.3879L53.4471 24.597C53.3465 24.6075 52.4713 24.6155 50.0534 23.6516C47.6355 22.6877 44.4152 23.8985 45.8691 27.008Z" fill="#1D5D77"/>
<path d="M45.8662 27.0054C44.9221 25.1846 46.037 22.6997 48.0418 22.2375C50.1247 21.7569 51.2753 22.8792 51.2753 22.8792C50.4901 22.0091 49.7049 21.6949 49.7049 21.6949L49.6996 21.6922C49.5632 21.6302 47.3585 20.6597 45.8623 22.7287C44.7023 24.3316 45.1459 26.0059 45.8662 27.0054Z" fill="#08B4BE"/>
<path d="M95.2842 21.6923C95.3107 21.6804 95.4126 21.6355 95.5715 21.584L95.2842 21.6923Z" fill="#1D5D77"/>
<path d="M112.167 20.1689C111.821 20.3947 107.465 23.1609 106.428 19.7292C105.554 16.8324 102.126 14.7198 99.0501 15.306C96.5991 15.7734 95.794 18.8446 97.6505 20.5083C97.6598 20.5162 97.6703 20.5254 97.6796 20.5347C97.6161 20.5175 96.1688 20.1346 95.2803 21.6913C95.3028 21.6187 95.6815 20.4528 96.6071 20.1966C96.6071 20.1966 95.2194 18.5832 96.7805 15.9966C98.3417 13.4087 102.59 13.2938 105.582 16.5366C107.45 18.5607 106.627 21.2899 109.156 20.9136C111.146 20.6165 111.979 20.2838 112.166 20.1689H112.167Z" fill="#1D5D77"/>
<path d="M32.8408 20.1689C33.1864 20.3947 37.5428 23.1609 38.5796 19.7292C39.4536 16.8324 42.8818 14.7198 45.9577 15.306C48.4087 15.7734 49.2138 18.8446 47.3573 20.5083C47.3481 20.5162 47.3375 20.5254 47.3282 20.5347C47.3918 20.5175 48.8391 20.1346 49.7275 21.6913C49.705 21.6187 49.3263 20.4528 48.4008 20.1966C48.4008 20.1966 49.7885 18.5832 48.2273 15.9966C46.6661 13.4087 42.4183 13.2938 39.4258 16.5366C37.5574 18.5607 38.381 21.2899 35.8519 20.9136C33.8617 20.6165 33.0288 20.2838 32.8421 20.1689H32.8408Z" fill="#1D5D77"/>
<path d="M113.565 18.7108C111.26 20.1368 108.818 18.6632 108.716 18.5999L108.712 18.5972L107.685 17.2267C107.932 17.5277 108.736 18.4177 110.614 18.6487C112.839 18.922 114.989 17.7429 114.799 15.3135L114.802 15.3161C115.052 16.0806 115.288 17.6452 113.565 18.7108Z" fill="#1D5D77"/>
<path d="M112.168 20.1682C109.734 21.0132 108.408 20.5498 108.285 19.0247C108.187 17.8126 107.775 17.3584 107.693 17.2383L108.713 18.5969C108.713 18.5969 109.359 20.7122 112.148 20.1616L112.168 20.1682Z" fill="#08B4BE"/>
<path d="M31.4372 18.7108C33.7425 20.1368 36.1842 18.6632 36.2862 18.5999L36.2902 18.5972L37.3177 17.2267C37.0701 17.5277 36.2663 18.4177 34.3887 18.6487C32.1628 18.922 30.0137 17.7429 30.2031 15.3135L30.2005 15.3161C29.9502 16.0806 29.7145 17.6452 31.4372 18.7108Z" fill="#1D5D77"/>
<path d="M32.8359 20.1682C35.2697 21.0132 36.5952 20.5498 36.7183 19.0247C36.8163 17.8126 37.2281 17.3584 37.3102 17.2383L36.2906 18.5969C36.2906 18.5969 35.6444 20.7122 32.8558 20.1616L32.8359 20.1682Z" fill="#08B4BE"/>
<path d="M104.021 21.2676C104.021 21.1989 104.015 21.1303 104.003 21.059C103.747 19.5881 102.754 17.9759 100.484 17.7211C99.2715 17.5851 98.285 18.1977 97.6309 18.7972C97.6309 18.7972 97.6825 16.7929 100.153 16.8642C102.522 16.9328 103.424 18.034 103.875 19.2659C104.13 19.9631 104.099 20.7447 104.021 21.2676Z" fill="#1D5D77"/>
<path d="M102.566 23.374C101.587 23.2592 101.216 22.3045 101.216 22.3045C100.573 22.6003 100.515 23.3516 100.512 23.3886C100.435 23.1694 100.338 22.9542 100.225 22.7442C100.541 21.4674 101.513 21.0449 101.513 21.0449C101.856 22.9634 103.381 22.7733 103.87 21.8781C103.87 21.8781 103.874 21.8715 103.881 21.8596C103.881 21.8569 103.883 21.8543 103.886 21.8503C103.89 21.8424 103.894 21.8332 103.896 21.8253C103.979 21.6589 104.025 21.4701 104.021 21.2667C104.299 22.3957 103.544 23.4902 102.566 23.374Z" fill="#08B4BE"/>
<path d="M105.122 27.6223C104.935 27.6091 101.917 27.3503 100.688 25.6206C100.736 25.3658 100.761 25.103 100.761 24.835C100.761 24.5881 100.74 24.3438 100.699 24.1035C100.728 24.2329 100.906 24.9327 101.471 25.5889C102.084 26.3006 103.485 26.5607 103.541 26.5713C104.031 27.3041 105.016 27.5932 105.12 27.6223H105.122Z" fill="#1D5D77"/>
<path d="M111.496 26.7294C111.496 26.7374 111.496 26.7453 111.494 26.7532C111.153 25.5437 109.77 24.7581 107.642 26.2435C105.614 27.659 103.49 25.6652 103.294 25.4738L103.28 25.4592C103.28 25.4592 102.81 24.9866 102.963 24.1943C102.963 24.1943 103.545 25.8105 105.503 26.0851C107.463 26.3597 107.695 24.7819 109.35 24.6353C110.992 24.4888 111.603 25.7088 111.496 26.7294Z" fill="#1D5D77"/>
<path d="M111.496 24.4213C111.088 22.648 110.266 23.2316 108.138 23.2118C106.035 23.192 105.394 19.6376 105.38 19.5518C105.442 19.697 105.496 19.8449 105.541 19.9954C105.959 21.3765 106.818 21.9403 107.465 22.1714C108.155 22.4169 108.911 22.3971 109.628 22.2506C109.915 22.1925 110.217 22.2083 110.482 22.3338C110.712 22.442 110.9 22.5926 111.026 22.8065C111.288 23.2514 111.427 23.8377 111.496 24.4213Z" fill="#08B4BE"/>
<path d="M40.9815 21.2676C40.9815 21.1989 40.9881 21.1303 41 21.059C41.2556 19.5881 42.2487 17.9759 44.5183 17.7211C45.7312 17.5851 46.7177 18.1977 47.3718 18.7972C47.3718 18.7972 47.3201 16.7929 44.8493 16.8642C42.4804 16.9328 41.5787 18.034 41.1272 19.2659C40.8729 19.9631 40.9034 20.7447 40.9815 21.2676Z" fill="#1D5D77"/>
<path d="M42.4364 23.374C43.4149 23.2592 43.7857 22.3045 43.7857 22.3045C44.4292 22.6003 44.4875 23.3516 44.4901 23.3886C44.5669 23.1694 44.6636 22.9542 44.7775 22.7442C44.461 21.4674 43.4891 21.0449 43.4891 21.0449C43.1461 22.9634 41.6207 22.7733 41.1321 21.8781C41.1321 21.8781 41.1281 21.8715 41.1215 21.8596C41.1215 21.8569 41.1189 21.8543 41.1162 21.8503C41.1122 21.8424 41.1083 21.8332 41.1056 21.8253C41.0235 21.6589 40.9772 21.4701 40.9811 21.2667C40.7031 22.3957 41.4578 23.4902 42.4364 23.374Z" fill="#08B4BE"/>
<path d="M39.8809 27.6223C40.0676 27.6091 43.0853 27.3503 44.3141 25.6206C44.2664 25.3658 44.2412 25.103 44.2412 24.835C44.2412 24.5881 44.2624 24.3438 44.3035 24.1035C44.2743 24.2329 44.0969 24.9327 43.5315 25.5889C42.9184 26.3006 41.5175 26.5607 41.4619 26.5713C40.9719 27.3041 39.9868 27.5932 39.8822 27.6223H39.8809Z" fill="#1D5D77"/>
<path d="M33.507 26.7294C33.507 26.7374 33.507 26.7453 33.5096 26.7532C33.8499 25.5437 35.2337 24.7581 37.3616 26.2435C39.3888 27.659 41.5127 25.6652 41.7087 25.4738L41.7233 25.4592C41.7233 25.4592 42.1933 24.9866 42.0397 24.1943C42.0397 24.1943 41.4584 25.8105 39.5 26.0851C37.5403 26.3597 37.3086 24.7819 35.6534 24.6353C34.0115 24.4888 33.3997 25.7088 33.507 26.7294Z" fill="#1D5D77"/>
<path d="M33.5068 24.4213C33.9147 22.648 34.737 23.2316 36.8648 23.2118C38.9676 23.192 39.6085 19.6376 39.623 19.5518C39.5608 19.697 39.5065 19.8449 39.4615 19.9954C39.0444 21.3765 38.185 21.9403 37.5375 22.1714C36.8476 22.4169 36.0916 22.3971 35.3752 22.2506C35.0879 22.1925 34.786 22.2083 34.5211 22.3338C34.2907 22.442 34.1027 22.5926 33.9769 22.8065C33.7147 23.2514 33.5757 23.8377 33.5068 24.4213Z" fill="#08B4BE"/>
<path d="M116.175 24.8253C113.895 25.0009 112.973 23.427 112.698 22.9517C112.424 22.4764 112.089 22.8936 112.089 22.8936L112.086 22.8909C112.011 22.6903 111.923 22.5067 111.825 22.339C111.681 22.0935 111.488 21.8835 111.248 21.7145C111.832 21.4557 112.298 21.1811 112.543 21.0253C112.95 22.1238 114.046 24.2324 116.374 23.8311C118.328 23.4944 118.669 21.634 117.992 20.5869C119.647 22.5239 118.455 24.6497 116.175 24.8253Z" fill="#08B4BE"/>
<path d="M117.933 20.5016C117.406 19.7833 116.363 19.5179 115.026 20.5781C115.026 20.5781 115.026 20.5768 115.023 20.5729C114.994 20.5082 114.73 19.8414 115.719 19.3687C116.758 18.8696 117.686 20.0381 117.933 20.5016Z" fill="#1D5D77"/>
<path d="M121.482 22.7721C121.643 21.5706 121.222 20.3413 120.163 19.182C119.103 18.0227 117.117 17.3573 115.822 18.3779C114.579 19.3576 114.991 20.4852 115.024 20.5724C114.989 20.5235 114.73 20.1142 114.773 19.4897C114.803 19.0513 114.983 18.5047 115.495 17.9039C115.7 17.6636 115.984 17.4906 116.317 17.3824C118.081 16.8133 121.239 18.0795 121.56 20.917C121.637 21.6009 121.606 22.2215 121.48 22.7813C121.48 22.7787 121.48 22.7747 121.48 22.7721H121.482Z" fill="#08B4BE"/>
<path d="M116.472 29.4493C116.43 29.4982 115.407 30.6125 114.018 29.5259C113.24 28.9159 112.721 27.7751 112.412 26.8706C112.412 26.8693 112.412 26.8667 112.412 26.8654C112.415 26.8416 112.482 26.2765 112.482 25.5318V25.4697C112.482 26.5036 112.412 26.8654 114.294 28.8604C115.078 29.6923 115.786 29.6883 116.196 29.5615C116.22 29.5549 116.243 29.547 116.264 29.5404C116.31 29.5232 116.35 29.5074 116.382 29.4929C116.404 29.4823 116.423 29.4744 116.437 29.4665C116.459 29.4559 116.471 29.4493 116.471 29.4493H116.472Z" fill="#1D5D77"/>
<path d="M121.48 22.7812C121.015 24.8437 119.252 26.0835 116.792 26.6684C115.374 27.0051 114.869 27.7775 114.881 28.4456C114.866 28.3743 114.451 26.5298 116.469 25.9396C118.529 25.3388 120.884 24.8595 121.48 22.7812Z" fill="#1D5D77"/>
<path d="M28.8261 24.8253C31.1063 25.0009 32.0279 23.427 32.3033 22.9517C32.5774 22.4764 32.9124 22.8936 32.9124 22.8936L32.915 22.8909C32.9905 22.6903 33.0779 22.5067 33.1759 22.339C33.3202 22.0935 33.5135 21.8835 33.7532 21.7145C33.1693 21.4557 32.7032 21.1811 32.4582 21.0253C32.0517 22.1238 30.9553 24.2324 28.6275 23.8311C26.6731 23.4944 26.3327 21.634 27.0094 20.5869C25.3542 22.5239 26.5459 24.6497 28.8261 24.8253Z" fill="#08B4BE"/>
<path d="M27.0674 20.5016C27.5944 19.7833 28.6378 19.5179 29.9752 20.5781C29.9752 20.5781 29.9752 20.5768 29.9778 20.5729C30.007 20.5082 30.2705 19.8414 29.2813 19.3687C28.2432 18.8696 27.315 20.0381 27.0674 20.5016Z" fill="#1D5D77"/>
<path d="M23.5203 22.7721C23.3588 21.5706 23.7799 20.3413 24.8392 19.182C25.8985 18.0227 27.8847 17.3573 29.1797 18.3779C30.4231 19.3576 30.0112 20.4852 29.9781 20.5724C30.0126 20.5235 30.2721 20.1142 30.2284 19.4897C30.1993 19.0513 30.0192 18.5047 29.5068 17.9039C29.3015 17.6636 29.0181 17.4906 28.6845 17.3824C26.9207 16.8133 23.7626 18.0795 23.4422 20.917C23.3654 21.6009 23.3959 22.2215 23.5216 22.7813C23.5216 22.7787 23.5216 22.7747 23.5216 22.7721H23.5203Z" fill="#08B4BE"/>
<path d="M28.5293 29.4493C28.5717 29.4982 29.5939 30.6125 30.9829 29.5259C31.7615 28.9159 32.2806 27.7751 32.5891 26.8706C32.5891 26.8693 32.5891 26.8667 32.5891 26.8654C32.5865 26.8416 32.5189 26.2765 32.5189 25.5318V25.4697C32.5189 26.5036 32.5891 26.8654 30.7075 28.8604C29.9236 29.6923 29.2152 29.6883 28.8047 29.5615C28.7809 29.5549 28.7584 29.547 28.7372 29.5404C28.6908 29.5232 28.6511 29.5074 28.6193 29.4929C28.5968 29.4823 28.5783 29.4744 28.5637 29.4665C28.5425 29.4559 28.5306 29.4493 28.5306 29.4493H28.5293Z" fill="#1D5D77"/>
<path d="M23.5215 22.7812C23.9863 24.8437 25.7487 26.0835 28.2089 26.6684C29.6271 27.0051 30.1316 27.7775 30.1197 28.4456C30.1356 28.3743 30.55 26.5298 28.532 25.9396C26.4717 25.3388 24.1173 24.8595 23.5215 22.7812Z" fill="#1D5D77"/>
<path d="M128.345 18.9644C128.345 18.9644 128.336 18.9644 128.328 18.9618C128.084 18.9063 125.678 18.4019 124.115 19.3579C123.008 20.0352 122.641 21.2605 122.519 21.9933C122.526 21.8784 122.528 21.7622 122.528 21.6434C122.528 21.3741 122.512 21.0955 122.481 20.8142C122.432 20.3851 122.328 19.9718 122.175 19.5823C124.722 16.7039 128.233 18.8931 128.345 18.9644Z" fill="#08B4BE"/>
<path d="M130.448 21.102C129.854 21.2274 129.486 21.4625 129.258 21.7028C127.877 19.7249 125.567 20.154 125.567 20.154C128.547 18.8244 130.448 21.102 130.448 21.102Z" fill="#08B4BE"/>
<path d="M144.5 22.483C144.432 21.9575 143.749 21.5799 143.055 21.9008C142.358 22.2243 142.486 23.5829 142.486 23.5829C142.486 23.5829 141.628 24.9719 138.317 24.7805C135.007 24.5903 134.381 23.0495 130.991 22.6824C128.864 22.4527 128.087 23.6106 128.087 23.6106C128.176 23.0336 128.887 22.4725 128.887 22.4725C130.135 21.3687 131.951 21.4532 135.781 23.406C139.612 25.3588 141.903 23.505 141.903 23.505C141.481 20.5117 144.44 20.9224 144.5 22.4817V22.483Z" fill="#08B4BE"/>
<path d="M125.466 24.5057C125.466 24.5057 125.785 23.456 124.548 23.2804C123.315 23.1035 122.719 24.3723 122.955 25.1698C122.797 24.8094 122.723 24.4119 122.754 24.0066C122.899 22.0366 125.263 22.1449 125.679 22.912C126.075 23.6408 125.664 24.2654 125.467 24.5057H125.466Z" fill="#08B4BE"/>
<path d="M126.493 23.5027C126.933 22.5468 126.444 21.472 125.348 21.1723C124.028 20.8118 123.146 21.2581 122.459 22.5903C122.459 22.5903 122.443 22.3923 122.512 22.1018C122.614 21.6767 122.9 21.0534 123.694 20.5781C125.026 19.7806 128.044 20.6481 126.493 23.5027Z" fill="#1D5D77"/>
<path d="M129.796 27.0501C127.186 27.9876 125.07 27.0594 123.931 26.3173C123.497 26.0348 123.158 25.6334 122.955 25.1739C122.955 25.1726 122.955 25.1712 122.955 25.1699C122.955 25.1699 124.191 27.334 128.49 26.5708L127.967 25.735L129.797 27.0501H129.796Z" fill="#1D5D77"/>
<path d="M144.5 22.4834C144.513 22.8042 144.403 23.1726 144.117 23.5701C142.435 25.9045 136.009 26.1382 132.88 26.1382C129.752 26.1382 127.965 25.7355 127.965 25.7355L126.688 25.033C126.804 25.0581 131.201 26.0444 136.543 25.7156C141.956 25.3829 144.002 24.1801 144.5 22.4834Z" fill="#1D5D77"/>
<path d="M16.6562 18.9644C16.6562 18.9644 16.6655 18.9644 16.6735 18.9618C16.9171 18.9063 19.3231 18.4019 20.8869 19.3579C21.9939 20.0352 22.3606 21.2605 22.4825 21.9933C22.4758 21.8784 22.4732 21.7622 22.4732 21.6434C22.4732 21.3741 22.4891 21.0955 22.5209 20.8142C22.5698 20.3851 22.6731 19.9718 22.8267 19.5823C20.2791 16.7039 16.7688 18.8931 16.6562 18.9644Z" fill="#08B4BE"/>
<path d="M14.5527 21.102C15.1473 21.2274 15.5154 21.4625 15.7431 21.7028C17.1242 19.7249 19.4335 20.154 19.4335 20.154C16.4542 18.8244 14.5527 21.102 14.5527 21.102Z" fill="#08B4BE"/>
<path d="M0.500977 22.4828C0.568508 21.9573 1.25176 21.5797 1.94561 21.9006C2.64211 22.224 2.51499 23.5827 2.51499 23.5827C2.51499 23.5827 3.37303 24.9717 6.68338 24.7803C9.99372 24.5901 10.62 23.0493 14.0098 22.6822C16.1364 22.4525 16.9137 23.6104 16.9137 23.6104C16.8249 23.0334 16.1139 22.4723 16.1139 22.4723C14.8652 21.3684 13.0498 21.453 9.2191 23.4058C5.38837 25.3586 3.09761 23.5048 3.09761 23.5048C3.52001 20.5129 0.560563 20.9235 0.500977 22.4828Z" fill="#08B4BE"/>
<path d="M19.5356 24.5057C19.5356 24.5057 19.2165 23.456 20.4532 23.2804C21.686 23.1035 22.2818 24.3723 22.0462 25.1698C22.2037 24.8094 22.2779 24.4119 22.2474 24.0066C22.1018 22.0366 19.7382 22.1449 19.3224 22.912C18.9265 23.6408 19.337 24.2654 19.5343 24.5057H19.5356Z" fill="#08B4BE"/>
<path d="M18.5085 23.5027C18.0689 22.5468 18.5575 21.472 19.6539 21.1723C20.9741 20.8118 21.8559 21.2581 22.5432 22.5903C22.5432 22.5903 22.559 22.3923 22.4902 22.1018C22.3882 21.6767 22.1022 21.0534 21.3077 20.5781C19.9757 19.7806 16.9579 20.6481 18.5085 23.5027Z" fill="#1D5D77"/>
<path d="M15.2054 27.0501C17.8153 27.9876 19.9313 27.0594 21.07 26.3173C21.5044 26.0348 21.8433 25.6334 22.0459 25.1739C22.0459 25.1726 22.0459 25.1712 22.0459 25.1699C22.0459 25.1699 20.8105 27.334 16.511 26.5708L17.0341 25.735L15.2041 27.0501H15.2054Z" fill="#1D5D77"/>
<path d="M0.50106 22.4834C0.487818 22.8042 0.597722 23.1726 0.883736 23.5701C2.56539 25.9045 8.99143 26.1382 12.1204 26.1382C15.248 26.1382 17.0356 25.7355 17.0356 25.7355L18.3134 25.033C18.1968 25.0581 13.7994 26.0444 8.45781 25.7156C3.04473 25.3829 0.998936 24.1801 0.50106 22.4834Z" fill="#1D5D77"/>
</g>
<defs>
<clipPath id="clip0_690_8146">
<rect width="144" height="30" fill="white" transform="translate(0.5)"/>
</clipPath>
</defs>
</svg>
